<?xml version="1.0" standalone="no"?>
<!DOCTYPE svg PUBLIC "-//W3C//DTD SVG 1.1//EN" "http://www.w3.org/Graphics/SVG/1.1/DTD/svg11.dtd" >
<svg xmlns="http://www.w3.org/2000/svg" xmlns:xlink="http://www.w3.org/1999/xlink" version="1.1">
<metadata>
Created by FontForge 20170731 at Wed Jul  5 08:58:13 2017
 By Aleksey,,,
Copyright (c) 2017 KB FINANCIAL GROUP INC. CO.LTD ALL RIGHTS RESERVED., YoonDesign Inc. All rights reserved.
</metadata>
<defs>
<font id="KBFGDisplay-Bold" horiz-adv-x="900" >
  <font-face 
    font-family="KBFG Display Bold"
    font-weight="700"
    font-stretch="normal"
    units-per-em="1000"
    panose-1="2 11 8 3 0 0 0 0 0 0"
    ascent="800"
    descent="-200"
    x-height="560"
    cap-height="772"
    bbox="-24 -286 1075 1029"
    underline-thickness="50"
    underline-position="-150"
    unicode-range="U+0020-FFE6"
  />
<missing-glyph 
d="M50 880h800v-1000h-800v1000zM768 830h-636l318 -409zM800 -29v818l-318 -409zM768 -70l-318 409l-318 -409h636zM100 -29l318 409l-318 409v-818z" />
    <glyph glyph-name="f_f" unicode="ff" horiz-adv-x="715" 
d="M435 0v434h-193v-434h-142v434h-71v106h71v67q0 46 15 82.5t42.5 61t66 37.5t84.5 13q20 0 43.5 -4t37.5 -9l-13 -94q-14 2 -28.5 3t-25.5 1q-42 0 -61 -22t-19 -67v-69h193v67q0 46 15 82.5t42.5 61t66 37.5t84.5 13q20 0 43.5 -4t37.5 -9l-13 -94q-14 2 -28.5 3
t-25.5 1q-42 0 -61 -22t-19 -67v-69h119v-106h-119v-434h-142z" />
    <glyph glyph-name="fi" unicode="fi" horiz-adv-x="660" 
d="M445 0v434h-203v-434h-142v434h-71v106h71v67q0 46 15 82.5t42.5 61t66 37.5t84.5 13q16 0 35 -2.5t38.5 -6.5t37.5 -8.5t30 -8.5l-21 -92q-19 4 -49.5 9.5t-56.5 5.5q-42 0 -61 -22t-19 -67v-69h345v-540h-142z" />
    <glyph glyph-name="fl" unicode="fl" horiz-adv-x="685" 
d="M100 0v434h-71v106h71v72q0 94 59 141.5t159 47.5q30 0 64 -5t68.5 -12t67.5 -15.5t60 -14.5v-561q0 -51 22 -79t69 -42l-36 -100q-90 12 -143.5 62.5t-53.5 139.5v508q-25 6 -56.5 11t-51.5 5q-47 0 -66.5 -19.5t-19.5 -64.5v-74h119v-106h-119v-434h-142z" />
    <glyph glyph-name="f_f_i" unicode="ffi" horiz-adv-x="995" 
d="M780 0v434h-203v-434h-142v434h-193v-434h-142v434h-71v106h71v67q0 46 15 82.5t42.5 61t66 37.5t84.5 13q20 0 43.5 -4t37.5 -9l-13 -94q-14 2 -28.5 3t-25.5 1q-42 0 -61 -22t-19 -67v-69h193v67q0 46 15 82.5t42.5 61t66 37.5t84.5 13q16 0 35 -2.5t38.5 -6.5
t37.5 -8.5t30 -8.5l-21 -92q-19 4 -49.5 9.5t-56.5 5.5q-42 0 -61 -22t-19 -67v-69h345v-540h-142z" />
    <glyph glyph-name="f_f_l" unicode="ffl" horiz-adv-x="1020" 
d="M435 0v434h-193v-434h-142v434h-71v106h71v67q0 46 15 82.5t42.5 61t66 37.5t84.5 13q20 0 43.5 -4t37.5 -9l-13 -94q-14 2 -28.5 3t-25.5 1q-42 0 -61 -22t-19 -67v-69h193v72q0 94 59 141.5t159 47.5q30 0 64 -5t68.5 -12t67.5 -15.5t60 -14.5v-561q0 -51 22 -79
t69 -42l-36 -100q-90 12 -143.5 62.5t-53.5 139.5v508q-25 6 -56.5 11t-51.5 5q-47 0 -66.5 -19.5t-19.5 -64.5v-74h119v-106h-119v-434h-142z" />
    <glyph glyph-name=".notdef" 
d="M50 880h800v-1000h-800v1000zM768 830h-636l318 -409zM800 -29v818l-318 -409zM768 -70l-318 409l-318 -409h636zM100 -29l318 409l-318 409v-818z" />
    <glyph glyph-name=".null" horiz-adv-x="0" 
 />
    <glyph glyph-name="nonmarkingreturn" horiz-adv-x="300" 
 />
    <glyph glyph-name="space" unicode=" " horiz-adv-x="300" 
 />
    <glyph glyph-name="space" unicode="&#xa0;" horiz-adv-x="300" 
 />
    <glyph glyph-name="exclam" unicode="!" horiz-adv-x="320" 
d="M77 12q0 38 24.5 60t58.5 22t58 -22t24 -60t-24 -60.5t-58 -22.5t-58.5 22.5t-24.5 60.5zM238 800l-18 -633h-118l-18 633h154z" />
    <glyph glyph-name="quotedbl" unicode="&#x22;" horiz-adv-x="400" 
d="M68 757v93h99v-93l-13 -176h-76zM232 757v93h99v-93l-13 -176h-76z" />
    <glyph glyph-name="numbersign" unicode="#" horiz-adv-x="700" 
d="M640 327v-105h-92l-30 -222h-132l30 222h-137l-30 -222h-132l30 222h-117v105h132l16 122h-120v105h135l27 198h132l-27 -198h137l27 198h132l-27 -198h76v-105h-91l-16 -122h77zM294 327h137l16 122h-137z" />
    <glyph glyph-name="dollar" unicode="$" horiz-adv-x="570" 
d="M337 -79h-99v82h-1q-22 0 -48 3.5t-51.5 8.5t-49 12t-41.5 14l12 94q42 -11 88.5 -19.5t92.5 -8.5v239l-48 28t-47 31q-48 35 -71.5 78.5t-23.5 88.5q0 40 14 70.5t39 52.5t59.5 34.5t75.5 17.5v84h99v-85q41 -2 84.5 -10t75.5 -18l-11 -94q-31 7 -72 13t-79 7v-215
q14 -9 30.5 -18t33.5 -20q30 -19 54 -38t41 -40.5t26 -48.5t9 -63q0 -38 -14.5 -68.5t-40 -54.5t-60.5 -40t-77 -25v-92zM389 199q0 26 -14 46t-40 37v-161q26 9 40 29.5t14 48.5zM190 574q0 -48 50 -79v144q-22 -6 -36 -21.5t-14 -43.5z" />
    <glyph glyph-name="percent" unicode="%" 
d="M582 772h130l-394 -752h-130zM29 611q0 38 16 70t43 55t62 36t73 13t73 -13t62 -36t43 -55t16 -70t-16 -70t-43 -55t-62 -36t-73 -13t-73 13t-62 36t-43 55t-16 70zM158 611q0 -16 4 -31.5t12 -28t20 -20.5t29 -8t29 8t20 20.5t12 28t4 31.5t-4 31.5t-12 28t-20 20
t-29 7.5t-29 -7.5t-20 -20t-12 -28t-4 -31.5zM482 181q0 38 16 70t43 55t62 36t73 13t73 -13t62 -36t43 -55t16 -70t-16 -70t-43 -55t-62 -36t-73 -13t-73 13t-62 36t-43 55t-16 70zM611 181q0 -16 4 -31.5t12 -28t20 -20t29 -7.5t29 7.5t20 20t12 28t4 31.5t-4 31.5
t-12 27.5t-20 19.5t-29 7.5t-29 -7.5t-20 -19.5t-12 -27.5t-4 -31.5z" />
    <glyph glyph-name="ampersand" unicode="&#x26;" horiz-adv-x="675" 
d="M462 667q-20 3 -45 5.5t-51 4.5t-52 3t-47 1q-29 0 -38.5 -13t-9.5 -33q0 -27 11 -51t26 -44l223 -310q17 35 29 73.5t22 89.5h107q-4 -35 -12.5 -69t-19 -65.5t-23.5 -59.5t-26 -50q29 -23 59.5 -39t69.5 -35l-33 -78q-41 6 -85 22t-82 46q-19 -20 -44 -35t-53.5 -25.5
t-58.5 -16t-59 -5.5q-60 0 -107.5 19t-80.5 50.5t-50.5 72.5t-17.5 84q0 91 39 156.5t104 116.5l-21 30q-17 25 -33.5 59t-16.5 69q0 76 45.5 113t128.5 37q22 0 49 -2t55.5 -6.5t57 -10.5t53.5 -14zM227 387q-48 -39 -67.5 -86t-19.5 -90q0 -56 32.5 -90t96.5 -34
q76 0 137 59z" />
    <glyph glyph-name="quotesingle" unicode="'" horiz-adv-x="240" 
d="M68 757v93h104v-93l-13 -176h-81z" />
    <glyph glyph-name="parenleft" unicode="(" horiz-adv-x="325" 
d="M180 364q0 -54 7 -112.5t22.5 -117t39 -114t56.5 -101.5l-85 -59q-47 39 -80 101t-55 132t-32 141.5t-10 129.5t10 130.5t32 144t55 135t80 102.5l85 -59q-33 -47 -56.5 -103t-39 -116t-22.5 -120t-7 -114z" />
    <glyph glyph-name="parenright" unicode=")" horiz-adv-x="325" 
d="M145 364q0 54 -7 114t-22.5 120t-39 116t-56.5 103l85 59q46 -39 79.5 -102.5t55.5 -135t32 -144t10 -130.5t-10 -129.5t-32 -141.5t-55.5 -132t-79.5 -101l-85 59q33 46 56.5 101.5t39 114t22.5 117t7 112.5z" />
    <glyph glyph-name="asterisk" unicode="*" horiz-adv-x="538" 
d="M357 581l142 -97l-42 -61l-138 71l-13 -141h-78l-9 140l-139 -68l-40 60l141 96l-141 106l40 60l139 -78l9 140h78l13 -141l138 81l42 -61z" />
    <glyph glyph-name="plus" unicode="+" horiz-adv-x="610" 
d="M54 452h183v223h135v-223h184v-108h-184v-223h-135v223h-183v108z" />
    <glyph glyph-name="comma" unicode="," horiz-adv-x="300" 
d="M59 39q0 38 24.5 60.5t58.5 22.5q41 0 64.5 -28.5t23.5 -80.5q0 -53 -15 -91t-40 -63.5t-56.5 -39.5t-65.5 -19l-14 50q44 15 72 39.5t28 67.5q-38 2 -59 25t-21 57z" />
    <glyph glyph-name="hyphen" unicode="-" horiz-adv-x="540" 
d="M54 452h432v-108h-432v108z" />
    <glyph glyph-name="period" unicode="." horiz-adv-x="300" 
d="M59 40q0 38 24.5 60t58.5 22t58 -22t24 -60t-24 -60.5t-58 -22.5t-58.5 22.5t-24.5 60.5z" />
    <glyph glyph-name="slash" unicode="/" horiz-adv-x="380" 
d="M-1 -90l274 917h109l-273 -917h-110z" />
    <glyph glyph-name="zero" unicode="0" horiz-adv-x="620" 
d="M439 386q0 139 -29.5 216.5t-99.5 77.5q-71 0 -100 -77.5t-29 -216.5t29 -216.5t100 -77.5q70 0 99.5 77.5t29.5 216.5zM580 386q0 -103 -19 -179t-54 -125.5t-85 -74t-112 -24.5q-63 0 -113 24.5t-85 74t-53.5 125.5t-18.5 179t18.5 179t53.5 125.5t85 74t113 24.5
q62 0 112 -24.5t85 -74t54 -125.5t19 -179z" />
    <glyph glyph-name="one" unicode="1" horiz-adv-x="620" 
d="M86 108h179v530q-12 -6 -29.5 -11.5t-36.5 -11t-37.5 -10.5t-32.5 -9l-26 92q19 7 45.5 17t54 22t53.5 23.5t45 21.5h107v-664h155v-108h-477v108z" />
    <glyph glyph-name="two" unicode="2" horiz-adv-x="620" 
d="M216 108h337v-108h-494v91q0 60 41 99l131 118q35 31 65.5 61.5t53.5 63t36 67.5t13 76q0 48 -30 75.5t-90 27.5q-49 0 -95 -10.5t-88 -21.5l-24 99q53 20 105 31.5t106 11.5q59 0 107.5 -16t83 -44.5t53.5 -68.5t19 -88q0 -45 -15 -86.5t-39 -79.5t-53.5 -71.5
t-58.5 -61.5l-164 -154v-11z" />
    <glyph glyph-name="three" unicode="3" horiz-adv-x="620" 
d="M240 94q39 0 71 11t55.5 31.5t36 49t12.5 63.5q0 34 -12 60t-33 43.5t-50 26.5t-63 9q-17 0 -32.5 -3t-29.5 -7l-51 43l175 244h-231v107h399l32 -30l-186 -262q48 -2 89.5 -20.5t71.5 -49.5t47 -72t17 -88q0 -61 -23 -110t-64 -84t-99.5 -54t-128.5 -19q-21 0 -47.5 3
t-54 8t-53.5 12t-44 15l19 101q43 -12 89 -20t88 -8z" />
    <glyph glyph-name="four" unicode="4" horiz-adv-x="620" 
d="M496 290h94v-108h-94v-182h-138v182h-338v73q0 20 17 51l288 466h171v-482zM366 634l-78 -140l-124 -208h202v348z" />
    <glyph glyph-name="five" unicode="5" horiz-adv-x="620" 
d="M102 772h389v-109h-243v-161q8 1 18.5 1.5t18.5 0.5q57 0 106 -18.5t85.5 -52t57.5 -81t21 -105.5q0 -57 -22 -105.5t-62 -83.5t-97.5 -55t-127.5 -20q-54 0 -106.5 11t-89.5 27l19 101q18 -6 39.5 -11t45 -9t47 -6t44.5 -2q77 0 120.5 41.5t43.5 111.5q0 75 -42.5 113
t-114.5 38q-30 0 -63 -4.5t-52 -9.5l-35 25v363z" />
    <glyph glyph-name="six" unicode="6" horiz-adv-x="620" 
d="M495 711q-77 -11 -128.5 -28.5t-91.5 -52.5q-35 -32 -53.5 -73.5t-28.5 -99.5q29 26 65 38t78 12q53 0 98.5 -18t78.5 -51t52 -80.5t19 -106.5q0 -57 -19.5 -106t-54.5 -85t-84 -56.5t-107 -20.5q-65 0 -115.5 22.5t-85.5 65.5t-53 104t-18 138q0 125 28.5 220.5
t97.5 159.5q31 30 69.5 50t80 31.5t84 15t82.5 0.5zM319 92q61 0 94 45t33 114q0 70 -35 109t-95 39q-47 0 -74.5 -19t-46.5 -48q-6 -9 -10 -25t-4 -32q0 -38 8 -71t25 -58t43 -39.5t62 -14.5z" />
    <glyph glyph-name="seven" unicode="7" horiz-adv-x="620" 
d="M564 751l-268 -751h-152l244 663h-326v109h478z" />
    <glyph glyph-name="eight" unicode="8" horiz-adv-x="620" 
d="M310 91q31 0 55 10t40 26.5t24 39t8 47.5q0 53 -28 98.5t-97 70.5q-72 -25 -100.5 -71t-28.5 -98q0 -51 32 -87t95 -36zM309 472q54 10 76.5 41t22.5 69q0 41 -24 70t-73 29q-51 0 -75 -29t-24 -70q0 -38 21.5 -69t75.5 -41zM309 -17q-57 0 -106.5 17.5t-85.5 48
t-56.5 73t-20.5 92.5q0 67 29.5 121.5t98.5 87.5q-51 26 -74 67.5t-23 92.5q0 45 18.5 83t50.5 65t75.5 42.5t94.5 15.5t94.5 -15.5t75.5 -42.5t50.5 -65t18.5 -83q0 -51 -23 -92.5t-74 -67.5q69 -33 98.5 -87.5t29.5 -121.5q0 -50 -20.5 -92.5t-56.5 -73t-86 -48
t-108 -17.5z" />
    <glyph glyph-name="nine" unicode="9" horiz-adv-x="620" 
d="M169 65q103 27 171 89.5t88 156.5q-26 -22 -63 -33.5t-81 -11.5q-51 0 -96 18t-79 51t-53.5 80t-19.5 105q0 59 20 108.5t55 85t83 55.5t105 20q67 0 118.5 -23t86 -64t52 -97t17.5 -123q0 -65 -6.5 -124.5t-23.5 -111.5t-47 -96.5t-78 -80.5q-24 -18 -52.5 -32.5
t-58 -25t-57.5 -17t-50 -9.5zM303 681q-66 0 -97.5 -45t-31.5 -116q0 -32 7 -59t22 -46.5t38.5 -30.5t55.5 -11q51 0 80 15.5t52 47.5q6 8 8.5 28t2.5 40q0 35 -7 67t-22.5 56.5t-42 39t-65.5 14.5z" />
    <glyph glyph-name="colon" unicode=":" horiz-adv-x="300" 
d="M59 160q0 38 24.5 60t58.5 22t58 -22t24 -60t-24 -60.5t-58 -22.5t-58.5 22.5t-24.5 60.5zM59 613q0 38 24.5 60t58.5 22t58 -22t24 -60t-24 -60.5t-58 -22.5t-58.5 22.5t-24.5 60.5z" />
    <glyph glyph-name="semicolon" unicode=";" horiz-adv-x="300" 
d="M59 613q0 38 24.5 60t58.5 22t58 -22t24 -60t-24 -60.5t-58 -22.5t-58.5 22.5t-24.5 60.5zM59 159q0 38 24.5 60.5t58.5 22.5q41 0 64.5 -28.5t23.5 -80.5q0 -53 -15 -91t-40 -63.5t-56.5 -39.5t-65.5 -19l-14 50q44 15 72 39.5t28 67.5q-38 2 -59 25t-21 57z" />
    <glyph glyph-name="less" unicode="&#x3c;" horiz-adv-x="540" 
d="M479 589l-314 -197l314 -197v-135l-426 281v102l426 281v-135z" />
    <glyph glyph-name="equal" unicode="=" horiz-adv-x="630" 
d="M89 599h452v-109h-452v109zM89 307h452v-109h-452v109z" />
    <glyph glyph-name="greater" unicode="&#x3e;" horiz-adv-x="540" 
d="M53 724l426 -281v-102l-426 -281v135l314 197l-314 197v135z" />
    <glyph glyph-name="question" unicode="?" horiz-adv-x="495" 
d="M293 167h-139v69q0 32 5 58.5t14.5 50.5t24 46.5t33.5 46.5q37 48 58.5 87.5t21.5 80.5q0 38 -28.5 64.5t-77.5 26.5q-40 0 -74 -10t-72 -26l-33 91q42 24 89 41t95 17q57 0 103 -15.5t78 -42.5t49.5 -64.5t17.5 -81.5q0 -32 -9 -63t-23 -59.5t-32.5 -53.5t-36.5 -46
q-17 -20 -29.5 -37.5t-20 -35t-11 -36.5t-3.5 -42v-66zM140 12q0 38 24.5 60t58.5 22t58 -22t24 -60t-24 -60.5t-58 -22.5t-58.5 22.5t-24.5 60.5z" />
    <glyph glyph-name="at" unicode="@" horiz-adv-x="1040" 
d="M634 500q-17 11 -39 18t-45 7q-39 0 -67 -16.5t-46.5 -45t-27.5 -68t-9 -85.5q0 -19 4 -36.5t13 -31t24 -21.5t37 -8q31 0 60 8.5t54 22.5zM583 -102q-114 1 -209.5 31.5t-164.5 89t-107.5 143t-38.5 192.5q0 107 38 195.5t102 151.5t148.5 97.5t178.5 34.5q97 0 180 -29
t143.5 -82.5t94.5 -130t34 -172.5q0 -62 -18 -117.5t-52 -97.5t-83 -66.5t-110 -24.5q-48 0 -75 14.5t-40 42.5q-26 -20 -63.5 -34t-72.5 -14q-92 0 -137.5 51t-45.5 138q0 61 18.5 116.5t53 97.5t84 67t111.5 25q51 0 102.5 -22t98.5 -54l-52 -294q-4 -21 2 -35.5t33 -14.5
q37 0 62 24t40 58.5t21.5 72.5t6.5 66q0 73 -20.5 134.5t-62 105t-104.5 68t-149 24.5q-80 0 -144.5 -30t-110.5 -83t-71 -125.5t-25 -157.5q0 -83 23 -149.5t73.5 -115.5t130.5 -79t193 -38z" />
    <glyph glyph-name="A" unicode="A" horiz-adv-x="730" 
d="M164 0h-148q24 77 56 176t69.5 204t79.5 207t86 185h115q29 -55 57.5 -119t55 -132t52 -138t48 -137.5t42.5 -130t36 -115.5h-148q-14 52 -30 108t-33 113h-274q-18 -61 -34.5 -117.5t-29.5 -103.5zM364 606q-23 -47 -49.5 -120.5t-52.5 -156.5h207q-26 81 -52.5 152.5
t-52.5 124.5z" />
    <glyph glyph-name="B" unicode="B" horiz-adv-x="650" 
d="M483 423q29 -8 54 -24.5t43 -40.5t28.5 -55.5t10.5 -67.5q0 -51 -19 -94.5t-58.5 -76t-99.5 -51t-142 -18.5q-18 0 -46 1.5t-60 3.5t-64 5.5t-59 8.5v725q27 11 57 20t61 16t60 10.5t55 3.5q62 0 113.5 -14.5t88 -41.5t57 -65.5t20.5 -86.5q0 -28 -8 -53t-21.5 -45.5
t-31.5 -35.5t-39 -24zM474 238q0 31 -13.5 54t-36 38t-51.5 22.5t-60 7.5h-98v-248q28 -4 49 -5.5t51 -1.5q35 0 64 7t50 23t33 41.5t12 61.5zM294 467q30 0 56 7.5t45.5 22t31 34.5t11.5 46q0 27 -11 46.5t-29 32t-42 18.5t-50 6q-32 0 -54.5 -4.5t-36.5 -8.5v-200h79z" />
    <glyph glyph-name="C" unicode="C" horiz-adv-x="680" 
d="M406 677q-55 0 -96 -20.5t-68.5 -57.5t-41 -88t-13.5 -112q0 -68 13 -124t41.5 -96t73.5 -62.5t110 -22.5q45 0 89 10.5t96 25.5l24 -98q-48 -20 -103.5 -34.5t-108.5 -14.5q-101 0 -174 32.5t-120 88.5t-69 132.5t-22 164.5q0 80 25.5 150.5t73.5 123.5t116 83.5
t153 30.5q65 0 118 -14t89 -27l-20 -100q-42 11 -85 20t-101 9z" />
    <glyph glyph-name="D" unicode="D" horiz-adv-x="760" 
d="M71 733q61 23 131 39.5t136 16.5q92 0 163.5 -29t121 -82t75 -127t25.5 -164q0 -91 -26 -163.5t-75.5 -123.5t-121.5 -78t-164 -27q-60 0 -129.5 5.5t-135.5 15.5v717zM215 115q28 -5 56 -7.5t65 -2.5q115 0 178 72.5t63 208.5q0 64 -14.5 118t-44 93t-74.5 60.5
t-106 21.5q-34 0 -63 -5.5t-60 -16.5v-542z" />
    <glyph glyph-name="E" unicode="E" horiz-adv-x="590" 
d="M548 16q-35 -4 -73.5 -7t-77.5 -5t-77 -3t-70 -1q-86 0 -132.5 32.5t-46.5 110.5v629h464v-107h-316v-208h300v-107h-300v-184q0 -30 17.5 -43.5t50.5 -13.5h261v-93z" />
    <glyph glyph-name="F" unicode="F" horiz-adv-x="565" 
d="M219 0h-148v772h454v-109h-306v-207q19 8 44 12.5t51 4.5h195v-109h-212q-16 0 -37.5 -2.5t-40.5 -6.5v-355z" />
    <glyph glyph-name="G" unicode="G" horiz-adv-x="730" 
d="M400 679q-55 0 -95 -24t-66.5 -63t-39 -89.5t-12.5 -103.5q0 -71 14 -127.5t43 -96.5t73 -61t104 -21q21 0 45.5 3t55.5 11v279h142v-345q-27 -13 -58 -24t-63.5 -18.5t-64.5 -11.5t-60 -4q-97 0 -168.5 32.5t-119 88.5t-70.5 132.5t-23 164.5q0 80 24.5 150.5
t70.5 123.5t113 83.5t151 30.5q29 0 60 -3.5t61 -9.5t56.5 -13t47.5 -13l-17 -99q-49 11 -97.5 19.5t-106.5 8.5z" />
    <glyph glyph-name="H" unicode="H" horiz-adv-x="730" 
d="M215 468h300v304h144v-772h-144v355h-300v-355h-144v772h144v-304z" />
    <glyph glyph-name="I" unicode="I" horiz-adv-x="305" 
d="M226 0h-148v772h148v-772z" />
    <glyph glyph-name="J" unicode="J" horiz-adv-x="460" 
d="M131 99q31 0 52 11t34 31t18.5 47t5.5 60v524h148v-525q0 -128 -55.5 -195.5t-183.5 -67.5q-22 0 -59 4t-68 13v110q29 -5 53 -8.5t55 -3.5z" />
    <glyph glyph-name="K" unicode="K" horiz-adv-x="695" 
d="M215 0h-144v772h144v-772zM229 414q30 41 64.5 85.5t70 90t70 91.5t64.5 91h154q-29 -47 -63.5 -96t-69.5 -96.5t-68.5 -90.5t-60.5 -77l309 -412h-161z" />
    <glyph glyph-name="L" unicode="L" horiz-adv-x="575" 
d="M219 772v-607q0 -51 59 -51h260v-98q-69 -8 -140 -11.5t-134 -4.5q-103 0 -148 37.5t-45 115.5v619h148z" />
    <glyph glyph-name="M" unicode="M" horiz-adv-x="930" 
d="M607 772h151q31 -86 55 -184.5t41.5 -199.5t28.5 -200.5t16 -187.5h-140q-4 59 -10.5 135.5t-16.5 155t-23.5 151t-30.5 123.5l-150 -535h-145q-14 74 -31 151t-36.5 148.5t-41.5 133.5t-46 106l-75 -569h-142l111 772h152q31 -53 59.5 -115t52.5 -130t43.5 -139.5
t32.5 -141.5h1z" />
    <glyph glyph-name="N" unicode="N" horiz-adv-x="755" 
d="M526 0q-32 72 -68.5 145.5t-77 144.5t-83 138t-84.5 126v-554h-142v772h139q41 -51 87 -114.5t90.5 -132.5t84.5 -141t70 -140v528h142v-772h-158z" />
    <glyph glyph-name="O" unicode="O" horiz-adv-x="750" 
d="M185 386q0 -66 11 -119.5t34.5 -92t59 -59t85.5 -20.5q49 0 85 20.5t59.5 59t34.5 92t11 119.5t-11 119.5t-34.5 92t-59.5 59t-85 20.5q-50 0 -85.5 -20.5t-59 -59t-34.5 -92t-11 -119.5zM713 386q0 -90 -22.5 -164t-66 -127.5t-106.5 -82.5t-143 -29t-143 29
t-106.5 82.5t-66 127.5t-22.5 164t22.5 164t66 127.5t106.5 82.5t143 29t143 -29t106.5 -82.5t66 -127.5t22.5 -164z" />
    <glyph glyph-name="P" unicode="P" horiz-adv-x="645" 
d="M71 0v740q64 21 129.5 35t120.5 14t105.5 -18.5t88.5 -53.5t60.5 -85.5t22.5 -114.5q0 -59 -19.5 -108t-55.5 -84t-87 -55t-114 -20q-27 0 -53 4t-53 11v-265h-145zM454 522q0 74 -33 114.5t-102 40.5q-20 0 -48 -4.5t-55 -13.5v-279q27 -9 50 -12.5t51 -3.5
q74 0 105.5 43.5t31.5 114.5z" />
    <glyph glyph-name="Q" unicode="Q" horiz-adv-x="755" 
d="M511 -30q12 -16 30 -29.5t38 -25.5t39.5 -22t35.5 -17l-26 -72q-22 3 -49 7t-54.5 12.5t-53 21.5t-44.5 34l-99 107q-69 8 -123.5 40t-91.5 84.5t-56.5 122.5t-19.5 153q0 90 22.5 164t66 127.5t106.5 82.5t143 29t143 -29t106.5 -82.5t66 -127.5t22.5 -164
q0 -73 -15 -135.5t-43.5 -112t-71 -85t-96.5 -53.5zM185 386q0 -66 11 -119.5t34.5 -92t59 -59t85.5 -20.5q49 0 85 20.5t59.5 59t34.5 92t11 119.5t-11 119.5t-34.5 92t-59.5 59t-85 20.5q-50 0 -85.5 -20.5t-59 -59t-34.5 -92t-11 -119.5z" />
    <glyph glyph-name="R" unicode="R" horiz-adv-x="640" 
d="M487 0q-11 34 -29 74t-38 78.5t-41.5 72t-40.5 55.5q-11 11 -21.5 15.5t-29.5 4.5h-71v-300h-145v742q25 8 56 16.5t64 15t66 11t62 4.5q52 0 98.5 -14.5t82 -45t56.5 -77t21 -110.5q0 -32 -8 -64t-23 -60.5t-38 -51.5t-53 -36q27 -30 53 -69.5t49.5 -83.5t43 -89.5
t34.5 -87.5h-148zM433 547q0 35 -9.5 59.5t-25.5 40t-37.5 22.5t-45.5 7q-28 0 -50.5 -4.5t-48.5 -12.5v-245h71q32 0 59 7t46.5 22.5t30 41t10.5 62.5z" />
    <glyph glyph-name="S" unicode="S" horiz-adv-x="605" 
d="M71 119q42 -11 90 -19t94 -8q83 0 119 28t36 76q0 42 -19 69t-61 53q-49 31 -94.5 58.5t-80.5 51.5q-48 33 -71 73t-23 96q0 46 18 81.5t50.5 60t77 37.5t97.5 13q22 0 52 -2.5t61 -7t60.5 -10t50.5 -11.5l-15 -97q-20 3 -46.5 6t-54 6t-54 5t-47.5 2q-48 0 -74 -20.5
t-26 -60.5q0 -35 17.5 -53.5t43.5 -37.5q28 -21 71 -46t83 -52q29 -20 53.5 -42t42.5 -48t28 -56.5t10 -67.5q0 -48 -20 -87.5t-59 -67t-96.5 -43t-131.5 -15.5q-22 0 -49.5 3.5t-55 8.5t-53 12t-43.5 14z" />
    <glyph glyph-name="T" unicode="T" horiz-adv-x="610" 
d="M580 659h-200v-659h-148v659h-203v113h551v-113z" />
    <glyph glyph-name="U" unicode="U" horiz-adv-x="725" 
d="M654 772v-714q-26 -14 -63.5 -27t-78.5 -24t-82.5 -17.5t-76.5 -6.5q-66 0 -119.5 16t-90.5 48t-57 80.5t-20 113.5v531h144v-502q0 -50 8.5 -83.5t26 -53.5t45 -28.5t66.5 -8.5q48 0 82.5 7.5t71.5 19.5v649h144z" />
    <glyph glyph-name="V" unicode="V" horiz-adv-x="700" 
d="M161 772q20 -74 43 -157.5t48 -166.5t51 -161.5t53 -143.5q72 112 117 270t74 359h140q-13 -115 -37 -225.5t-57 -210t-75 -185t-91 -151.5h-161q-37 87 -72.5 187t-68 202.5t-61.5 201t-52 181.5h149z" />
    <glyph glyph-name="W" unicode="W" horiz-adv-x="1025" 
d="M513 531l-125 -531h-163q-28 75 -56.5 171.5t-54.5 200t-48 207t-38 193.5h141q29 -152 63 -304.5t75 -291.5l130 566h151l131 -566q22 58 42.5 132t38.5 153.5t32.5 159.5t24.5 151h140q-14 -96 -36.5 -203t-49.5 -211t-56.5 -197t-58.5 -161h-159z" />
    <glyph glyph-name="X" unicode="X" horiz-adv-x="660" 
d="M253 399l-216 373h157l136 -245l135 245h152l-213 -371l239 -401h-154l-158 273l-157 -273h-158z" />
    <glyph glyph-name="Y" unicode="Y" horiz-adv-x="640" 
d="M396 0h-139v297q-28 45 -59.5 99t-62 115t-59.5 127t-53 134h142q16 -46 36 -95.5t42 -96.5t44.5 -89t43.5 -74q27 29 50.5 69t43 86.5t35 97.5t24.5 102h133q-10 -63 -30 -128t-49 -127t-65 -118.5t-77 -102.5v-296z" />
    <glyph glyph-name="Z" unicode="Z" horiz-adv-x="610" 
d="M41 772h496l32 -76q-59 -71 -113.5 -142.5t-101.5 -144.5t-86 -148t-66 -153h380v-111h-559v55q22 76 55.5 155t77 157.5t96 153.5t113.5 143h-324v111z" />
    <glyph glyph-name="bracketleft" unicode="[" horiz-adv-x="355" 
d="M63 854h272v-97h-135v-790h135v-97h-272v984z" />
    <glyph glyph-name="backslash" unicode="\" horiz-adv-x="1040" 
d="M1008 416v-99h-113q-26 -94 -53 -175.5t-54 -141.5h-159l-65 317h-89l-65 -317h-163q-25 65 -49.5 146t-47.5 171h-119v99h95q-22 94 -40 184.5t-31 171.5h146q11 -81 26.5 -173.5t35.5 -182.5h114l67 326h151l66 -326h118q20 85 35 175.5t25 180.5h145
q-11 -89 -27.5 -178.5t-37.5 -177.5h89zM711 175q11 32 22 67.5t22 74.5h-73zM329 177l28 140h-71q10 -39 21 -74.5t22 -65.5zM520 537l-25 -121h49z" />
    <glyph glyph-name="bracketright" unicode="]" horiz-adv-x="355" 
d="M292 -130h-272v97h135v790h-135v97h272v-984z" />
    <glyph glyph-name="asciicircum" unicode="^" horiz-adv-x="490" 
d="M131 576h-118l179 314h105l179 -314h-118l-114 195z" />
    <glyph glyph-name="underscore" unicode="_" horiz-adv-x="470" 
d="M470 -72v-108h-470v108h470z" />
    <glyph glyph-name="grave" unicode="`" horiz-adv-x="275" 
d="M242 615h-91l-146 235h124z" />
    <glyph glyph-name="a" unicode="a" horiz-adv-x="585" 
d="M381 247q-32 8 -61.5 14.5t-58.5 6.5q-39 0 -62.5 -23t-23.5 -68q0 -46 25.5 -68t67.5 -22q23 0 52 3t61 11v146zM382 376q0 47 -25.5 72.5t-85.5 25.5q-48 0 -85 -2t-75 -5l-8 87q20 4 43.5 8.5t47 7.5t45.5 5t40 2q115 0 177.5 -54.5t62.5 -163.5v-320
q-27 -11 -62.5 -20.5t-73 -17.5t-74 -12.5t-67.5 -4.5q-47 0 -85 14t-64.5 39.5t-41 61t-14.5 78.5q0 41 15 76.5t42.5 61.5t66.5 41t86 15q35 0 69 -8t66 -19v32z" />
    <glyph glyph-name="b" unicode="b" horiz-adv-x="610" 
d="M71 792l140 13v-251q26 11 55.5 17t59.5 6q50 0 95.5 -19.5t79.5 -56.5t54 -91t20 -124q0 -68 -20 -121.5t-54 -91.5t-79.5 -58t-95.5 -20q-28 0 -60.5 1.5t-66 4t-66.5 6t-62 6.5v779zM211 106q28 -3 49 -4.5t52 -1.5q66 0 94.5 48.5t28.5 138.5q0 40 -7.5 74.5
t-23 59.5t-38.5 39t-54 14q-52 0 -101 -21v-347z" />
    <glyph glyph-name="c" unicode="c" horiz-adv-x="540" 
d="M185 282q0 -94 28.5 -144t91.5 -50q40 0 86.5 9.5t87.5 27.5l30 -93q-24 -12 -52.5 -21t-58 -15t-57.5 -9t-51 -3q-57 0 -103.5 21t-78.5 59.5t-49.5 93.5t-17.5 124t17.5 123.5t49.5 92.5t78.5 58.5t103.5 20.5q47 0 104 -12.5t105 -35.5l-28 -92q-41 18 -86 27t-80 9
q-34 0 -57 -14t-37 -39t-20 -60t-6 -78z" />
    <glyph glyph-name="d" unicode="d" horiz-adv-x="610" 
d="M539 54q-58 -28 -123.5 -49t-131.5 -21q-50 0 -95.5 19.5t-79.5 57.5t-54 93.5t-20 126.5q0 72 20 127t54 92.5t79.5 57t95.5 19.5q30 0 60.5 -5.5t54.5 -15.5v236l140 13v-751zM399 448q-27 13 -51 19.5t-50 6.5q-35 0 -58.5 -13.5t-37.5 -38.5t-20.5 -60.5t-6.5 -79.5
q0 -91 29.5 -142t98.5 -51q26 0 49 6t47 15v338z" />
    <glyph glyph-name="e" unicode="e" horiz-adv-x="570" 
d="M314 87q24 0 44.5 2t40.5 6t41.5 10.5t45.5 14.5l24 -93q-44 -17 -98.5 -30t-108.5 -13q-128 0 -197 76t-69 219q0 146 65 222t186 76q67 0 113.5 -23.5t75 -59.5t41.5 -80.5t15 -86.5q1 -20 0.5 -44.5t-1.5 -42.5h-351q0 -70 31 -111.5t102 -41.5zM181 343h213
q-1 24 -7 47t-19 42t-32.5 30.5t-47.5 11.5t-47.5 -11t-32.5 -29.5t-19.5 -42t-7.5 -48.5z" />
    <glyph glyph-name="f" unicode="f" horiz-adv-x="380" 
d="M100 0v434h-71v106h71v67q0 46 15 82.5t42.5 61t66 37.5t84.5 13q20 0 43.5 -4t37.5 -9l-13 -94q-14 2 -28.5 3t-25.5 1q-42 0 -61 -22t-19 -67v-69h119v-106h-119v-434h-142z" />
    <glyph glyph-name="g" unicode="g" horiz-adv-x="610" 
d="M539 1q0 -83 -36.5 -136.5t-95.5 -84t-133.5 -42t-150.5 -11.5l-8 94q44 3 94 10.5t92 25.5t70 50.5t28 86.5v36q-26 -12 -57 -19t-56 -7q-116 0 -183.5 72.5t-67.5 209.5q0 67 19 121t52.5 92t79.5 58t100 20q28 0 60.5 -6.5t65.5 -16.5t65.5 -22.5t61.5 -24.5v-506z
M399 451q-26 11 -49.5 16.5t-49.5 5.5q-35 0 -58.5 -15.5t-38.5 -41.5t-21.5 -60t-6.5 -71q0 -90 28 -133.5t97 -43.5q26 0 49.5 5.5t49.5 16.5v321z" />
    <glyph glyph-name="h" unicode="h" horiz-adv-x="615" 
d="M71 0v792l140 13v-257q36 11 70.5 20t73.5 9q194 0 194 -182v-395h-140v394q0 44 -18.5 59t-54.5 15q-35 0 -65 -7.5t-60 -17.5v-443h-140z" />
    <glyph glyph-name="i" unicode="i" horiz-adv-x="300" 
d="M67 722q0 38 24.5 60t58.5 22t58 -22t24 -60t-24 -60.5t-58 -22.5t-58.5 22.5t-24.5 60.5zM78 0v560h142v-560h-142z" />
    <glyph glyph-name="j" unicode="j" horiz-adv-x="300" 
d="M-13 -203q55 55 73 115.5t18 128.5v519h142v-522q0 -51 -9 -97.5t-27.5 -87t-47 -73t-67.5 -53.5zM67 722q0 38 24.5 60t58.5 22t58 -22t24 -60t-24 -60.5t-58 -22.5t-58.5 22.5t-24.5 60.5z" />
    <glyph glyph-name="k" unicode="k" horiz-adv-x="585" 
d="M213 316q29 36 54.5 68t48.5 61t44 57.5t42 57.5h144q-20 -30 -45 -63t-50.5 -66t-50 -63.5t-43.5 -55.5l224 -312h-150zM209 0h-138v782l138 10v-792z" />
    <glyph glyph-name="l" unicode="l" horiz-adv-x="325" 
d="M273 -28q-90 12 -143.5 62.5t-53.5 139.5v608l142 15v-604q0 -51 22 -79t69 -42z" />
    <glyph glyph-name="m" unicode="m" horiz-adv-x="925" 
d="M66 0v517q26 10 57 20.5t64 19.5t66.5 14.5t64.5 5.5q46 0 91 -9.5t68 -29.5q46 16 91 27.5t91 11.5q44 0 80.5 -12.5t63 -36t41.5 -57.5t15 -77v-394h-138v367q0 31 -6.5 51t-18 31t-26.5 15t-33 4q-26 0 -57 -8.5t-62 -16.5q5 -16 8 -32.5t3 -33.5v-377h-138v376
q0 55 -18.5 73.5t-64.5 18.5q-26 0 -55 -7.5t-49 -14.5v-446h-138z" />
    <glyph glyph-name="n" unicode="n" horiz-adv-x="620" 
d="M66 0v517q26 10 61 20.5t72.5 19.5t74.5 14.5t68 5.5q101 0 156.5 -45.5t55.5 -136.5v-395h-140v381q0 50 -19 70t-66 20q-30 0 -62 -6t-61 -14v-451h-140z" />
    <glyph glyph-name="o" unicode="o" horiz-adv-x="650" 
d="M473 279q0 39 -8.5 74t-26.5 61.5t-45.5 42.5t-66.5 16t-66.5 -16t-45.5 -42.5t-26.5 -61.5t-8.5 -74t8 -74t25 -61.5t45 -42.5t69 -16q40 0 68.5 16t45.5 42.5t25 61.5t8 74zM615 279q0 -71 -22 -126t-61 -93.5t-92 -58.5t-114 -20t-113.5 20t-91.5 58.5t-61.5 93.5
t-22.5 126q0 70 22.5 125.5t61.5 94t91.5 58.5t113.5 20t114 -20t92 -58.5t61 -94t22 -125.5z" />
    <glyph glyph-name="p" unicode="p" horiz-adv-x="610" 
d="M71 507q58 28 123.5 49t131.5 21q50 0 95.5 -19.5t79.5 -57t54 -93t20 -126.5q0 -72 -20 -127t-54 -93t-79.5 -57.5t-95.5 -19.5q-30 0 -60.5 5.5t-54.5 15.5v-241h-140v743zM211 114q28 -14 51.5 -20.5t49.5 -6.5q69 0 96 48.5t27 144.5q0 99 -29.5 145.5t-98.5 46.5
q-26 0 -49 -6t-47 -15v-337z" />
    <glyph glyph-name="q" unicode="q" horiz-adv-x="610" 
d="M539 -236h-140v243q-26 -11 -55.5 -17t-59.5 -6q-50 0 -95.5 19.5t-79.5 57t-54 91.5t-20 124q0 67 20 121t54 91t79.5 57t95.5 20q28 0 60.5 -1.5t66 -4t66.5 -6t62 -6.5v-783zM399 454q-28 3 -49 4.5t-52 1.5q-66 0 -94.5 -47.5t-28.5 -137.5q0 -41 7.5 -75t23 -59.5
t38.5 -39.5t54 -14q51 0 101 21v346z" />
    <glyph glyph-name="r" unicode="r" horiz-adv-x="440" 
d="M66 0v560h118q6 -10 10 -24.5t5 -27.5q28 29 67 45.5t96 16.5h47v-106h-45q-39 0 -81.5 -11.5t-74.5 -33.5v-419h-142z" />
    <glyph glyph-name="s" unicode="s" horiz-adv-x="495" 
d="M252 -17q-45 0 -99 8t-103 20l11 95q22 -5 47.5 -8.5t49.5 -5.5t44.5 -3.5t32.5 -1.5q38 0 61 15.5t23 48.5q0 24 -11 40.5t-43 33.5q-30 16 -59 30.5t-59 31.5q-19 10 -37 23.5t-32.5 31t-23 40t-8.5 50.5q0 32 14 58.5t38.5 46t58.5 30t73 10.5q19 0 45.5 -2.5t54.5 -6
t55.5 -8.5t48.5 -11l-12 -94q-47 8 -93.5 13t-81.5 5q-30 0 -43.5 -13t-13.5 -35q0 -23 12.5 -35.5t27.5 -21.5q29 -17 62 -35t75 -41q44 -24 69.5 -59.5t25.5 -89.5q0 -38 -15 -67.5t-43 -50t-66.5 -31.5t-85.5 -11z" />
    <glyph glyph-name="t" unicode="t" horiz-adv-x="430" 
d="M246 715v-163h132v-106h-132v-286q0 -48 19 -64.5t54 -16.5q17 0 33.5 2.5t33.5 4.5l14 -85q-21 -8 -46 -13t-49 -5q-94 0 -147.5 41.5t-53.5 126.5v295h-79v106h79v149z" />
    <glyph glyph-name="u" unicode="u" horiz-adv-x="610" 
d="M543 560v-517q-26 -10 -60 -20.5t-71 -19.5t-73 -14.5t-67 -5.5q-101 0 -154 48t-53 134v395h140v-369q0 -32 4 -51t13 -30t24.5 -14.5t38.5 -3.5q30 0 59.5 7t58.5 14v447h140z" />
    <glyph glyph-name="v" unicode="v" horiz-adv-x="545" 
d="M215 0q-18 33 -37 77t-38 93.5t-37 102.5t-34.5 104.5t-31 98t-25.5 84.5h139q32 -120 63.5 -225.5t67.5 -194.5q21 33 39.5 79t34 100t27.5 115t19 126h129q-7 -69 -23 -145.5t-40 -151.5t-56.5 -143t-72.5 -120h-124z" />
    <glyph glyph-name="w" unicode="w" horiz-adv-x="850" 
d="M524 0l-98 395l-97 -395h-161q-22 56 -42 122.5t-37.5 139.5t-33 148.5t-28.5 149.5h132q10 -59 19 -113.5t19.5 -106.5t23 -103t29.5 -103l100 416h152l100 -416q17 49 31.5 105.5t26 113.5t19.5 110.5t13 96.5h132q-9 -69 -22.5 -142.5t-32 -146.5t-42 -142t-52.5 -129
h-151z" />
    <glyph glyph-name="x" unicode="x" horiz-adv-x="580" 
d="M289 183l-117 -183h-149l191 292l-173 268h148l97 -157l98 157h148l-174 -267l192 -293h-148z" />
    <glyph glyph-name="y" unicode="y" horiz-adv-x="620" 
d="M553 -8q0 -83 -40 -135t-101.5 -81t-134.5 -39t-140 -10l-8 94q50 4 100.5 12.5t91.5 27t67 50.5t26 84v35q-35 -11 -68.5 -19t-68.5 -8q-101 0 -156.5 45.5t-55.5 139.5v372h140v-365q0 -49 19 -67t66 -18q32 0 64.5 6.5t58.5 14.5v429h140v-568z" />
    <glyph glyph-name="z" unicode="z" horiz-adv-x="490" 
d="M461 0h-434v51q68 215 219 403h-209v106h381l25 -60q-35 -42 -71.5 -90.5t-69.5 -99.5t-60 -102.5t-44 -100.5h263v-107z" />
    <glyph glyph-name="braceleft" unicode="{" horiz-adv-x="335" 
d="M214 291q12 -11 16.5 -24t4.5 -31v-199q0 -42 24.5 -71t60.5 -31v-67q-44 0 -84 9.5t-70.5 30t-49 52t-18.5 76.5v187q0 18 -4.5 30t-16.5 23l-62 58v55l62 58q12 11 16.5 23t4.5 30v187q0 45 18.5 76.5t49 52t70.5 30t84 9.5v-67q-36 -2 -60.5 -31t-24.5 -71v-199
q0 -18 -4.5 -31t-16.5 -24l-70 -63v-15z" />
    <glyph glyph-name="bar" unicode="|" horiz-adv-x="315" 
d="M95 827h124v-917h-124v917z" />
    <glyph glyph-name="braceright" unicode="}" horiz-adv-x="335" 
d="M191 354v15l-70 63q-12 11 -16.5 24t-4.5 31v199q0 42 -24.5 71t-60.5 31v67q43 0 83.5 -9.5t71 -30t49 -52t18.5 -76.5v-187q0 -18 4.5 -30t16.5 -23l62 -58v-55l-62 -58q-12 -11 -16.5 -23t-4.5 -30v-187q0 -45 -18.5 -76.5t-49 -52t-71 -30t-83.5 -9.5v67
q36 2 60.5 31t24.5 71v199q0 18 4.5 31t16.5 24z" />
    <glyph glyph-name="asciitilde" unicode="~" horiz-adv-x="655" 
d="M613 468q-9 -20 -25 -42.5t-36 -42t-44.5 -32t-51.5 -12.5q-44 0 -78.5 16.5t-60.5 30.5q-29 15 -59 27t-50 12q-28 0 -52 -20t-50 -53l-71 45q10 24 26.5 48t38.5 44t47.5 32.5t52.5 12.5q42 0 74 -14t60 -28l58 -29t53 -15q30 0 54 20t41 47z" />
    <glyph glyph-name="exclamdown" unicode="&#xa1;" horiz-adv-x="320" 
d="M242 521q0 -38 -24.5 -60t-58.5 -22t-58 22t-24 60t24 60.5t58 22.5t58.5 -22.5t24.5 -60.5zM81 -267l18 633h118l18 -633h-154z" />
    <glyph glyph-name="currency" unicode="&#xa4;" horiz-adv-x="920" 
d="M749 392q0 -100 -45 -171l75 -75l-90 -86l-73 74q-68 -41 -156 -41q-96 0 -167 47l-80 -80l-90 86l86 86q-38 67 -38 160q0 89 35 153l-83 85l90 86l76 -76q71 50 171 50q91 0 160 -43l69 69l90 -86l-72 -72q20 -34 31 -75.5t11 -90.5zM607 392q0 39 -8.5 74t-26.5 61.5
t-45.5 42.5t-66.5 16t-66.5 -16t-45.5 -42.5t-26.5 -61.5t-8.5 -74t8 -74t25 -62t45 -43t69 -16q40 0 68.5 16t45.5 43t25 62t8 74z" />
    <glyph glyph-name="section" unicode="&#xa7;" horiz-adv-x="450" 
d="M356 670q-27 8 -61 13t-61 5q-50 0 -50 -40q0 -16 10 -29t25.5 -25t36 -24t41.5 -27q56 -41 77.5 -79t21.5 -81q0 -29 -12 -64t-44 -59q29 -25 44.5 -52t15.5 -62q0 -31 -12.5 -60.5t-37.5 -52t-61 -36.5t-82 -14q-11 0 -29 1.5t-39.5 5.5t-44.5 11t-44 17l26 93
q34 -13 70 -20t61 -7q35 0 53 16.5t18 42.5q0 13 -8 24.5t-22 22.5t-32.5 22t-38.5 23t-40.5 28.5t-37.5 37t-28 44.5t-11 52q0 22 6.5 41t16.5 34t23 26.5t26 18.5q-33 24 -55.5 55.5t-22.5 72.5q0 31 11.5 57.5t33 45.5t53 30t70.5 11q15 0 34.5 -2t40 -6t41 -9t37.5 -12z
M279 391q0 23 -16.5 43.5t-38.5 31.5q-20 -6 -33 -24.5t-13 -41.5q0 -26 20.5 -49t47.5 -36q19 14 26 33.5t7 42.5z" />
    <glyph glyph-name="dieresis" unicode="&#xa8;" horiz-adv-x="520" 
d="M66 807q0 35 22 54.5t53 19.5q30 0 51.5 -19.5t21.5 -54.5t-21.5 -55t-51.5 -20q-31 0 -53 20t-22 55zM306 807q0 35 22 54.5t52 19.5q31 0 52.5 -19.5t21.5 -54.5t-21.5 -55t-52.5 -20q-30 0 -52 20t-22 55z" />
    <glyph glyph-name="copyright" unicode="&#xa9;" horiz-adv-x="920" 
d="M476 526q-57 0 -87.5 -40t-30.5 -113q0 -39 6.5 -70t22 -53.5t40 -34.5t60.5 -12q23 0 57 6t65 17l14 -64q-30 -14 -69 -22.5t-68 -8.5q-60 0 -103 17t-71.5 48.5t-42 76.5t-13.5 100q0 52 15.5 94t44.5 71.5t69.5 45.5t90.5 16q38 0 74.5 -8.5t58.5 -17.5l-15 -66
q-32 8 -60 13t-58 5zM460 13q72 0 135 26t110.5 73t74.5 112t27 143q0 77 -27 142t-74.5 111.5t-110.5 72.5t-135 26t-135 -26t-110.5 -72.5t-74.5 -111.5t-27 -142q0 -78 27 -143t74.5 -112t110.5 -73t135 -26zM460 -50q-87 0 -163.5 32t-134 88t-91 132t-33.5 165
q0 88 33.5 164t91 132t134 87.5t163.5 31.5t163.5 -31.5t134 -87.5t91 -132t33.5 -164q0 -89 -33.5 -165t-91 -132t-134 -88t-163.5 -32z" />
    <glyph glyph-name="ordfeminine" unicode="&#xaa;" horiz-adv-x="510" 
d="M304 618q-36 9 -61 9q-24 0 -37 -16t-13 -43q0 -28 13.5 -44t34.5 -16q28 0 63 6v104zM305 717q0 21 -10.5 35t-38.5 14q-35 0 -73 -3.5t-67 -6.5l-9 76q37 8 78.5 14.5t75.5 6.5q78 0 125 -33t47 -110v-241q-21 -8 -46.5 -16.5t-52 -15.5t-52.5 -11t-48 -4
q-79 0 -125.5 39.5t-46.5 106.5q0 66 46.5 105t125.5 39q21 0 37.5 -3t33.5 -8v16zM56 289v88h397v-88h-397z" />
    <glyph glyph-name="guillemotleft" unicode="&#xab;" horiz-adv-x="920" 
d="M527 171v-127l-444 315v70l444 315v-127l-311 -223zM836 171v-127l-444 315v70l444 315v-127l-311 -223z" />
    <glyph glyph-name="registered" unicode="&#xae;" horiz-adv-x="920" 
d="M557 142q-7 20 -16.5 43t-20 45.5t-22 41.5t-22.5 31q-5 5 -11.5 6.5t-13.5 1.5h-34v-169h-100v422q38 14 79 24.5t79 10.5q30 0 57.5 -9.5t48.5 -28.5t33.5 -47t12.5 -65q0 -35 -17 -65.5t-49 -47.5q14 -17 27.5 -40t26 -49.5t23.5 -53.5t20 -51h-101zM527 451
q0 38 -19.5 52.5t-45.5 14.5q-12 0 -22.5 -2t-22.5 -6v-126h38q28 0 50 15t22 52zM460 13q72 0 135 26t110.5 73t74.5 112t27 143q0 77 -27 142t-74.5 111.5t-110.5 72.5t-135 26t-135 -26t-110.5 -72.5t-74.5 -111.5t-27 -142q0 -78 27 -143t74.5 -112t110.5 -73t135 -26z
M460 -50q-87 0 -163.5 32t-134 88t-91 132t-33.5 165q0 88 33.5 164t91 132t134 87.5t163.5 31.5t163.5 -31.5t134 -87.5t91 -132t33.5 -164q0 -89 -33.5 -165t-91 -132t-134 -88t-163.5 -32z" />
    <glyph glyph-name="degree" unicode="&#xb0;" horiz-adv-x="364" 
d="M313 685q0 -26 -10.5 -47t-29 -36.5t-43 -24t-52.5 -8.5q-27 0 -51.5 8.5t-43 24t-29 36.5t-10.5 47t10.5 47.5t29 36.5t43 23.5t51.5 8.5q28 0 52.5 -8.5t43 -23.5t29 -36.5t10.5 -47.5zM133 685q0 -22 13.5 -35t31.5 -13q19 0 32 13t13 35t-13 35t-32 13
q-18 0 -31.5 -13t-13.5 -35z" />
    <glyph glyph-name="plusminus" unicode="&#xb1;" horiz-adv-x="610" 
d="M64 154h482v-105h-482v105zM54 542h183v203h135v-203h184v-108h-184v-203h-135v203h-183v108z" />
    <glyph glyph-name="twosuperior" unicode="&#xb2;" horiz-adv-x="450" 
d="M215 451h146v-76h-272v54q0 16 5 26.5t18 25.5l106 126q26 32 26 58q0 32 -32 32q-28 0 -52.5 -7.5t-50.5 -15.5l-16 69q32 14 63.5 22t61.5 8q69 0 104.5 -26.5t35.5 -77.5q0 -21 -8 -44.5t-30 -49.5z" />
    <glyph glyph-name="threesuperior" unicode="&#xb3;" horiz-adv-x="450" 
d="M198 444q52 0 52 59q0 60 -39 60q-9 0 -19 -2t-22 -7l-44 30l73 104h-93v77h214l30 -29l-77 -115q45 -11 68 -41.5t23 -75.5q0 -61 -40 -99t-125 -38q-24 0 -56 7t-60 20l18 72q29 -11 54.5 -16.5t42.5 -5.5z" />
    <glyph glyph-name="acute" unicode="&#xb4;" horiz-adv-x="330" 
d="M133 948h122l-111 -230h-86z" />
    <glyph glyph-name="paragraph" unicode="&#xb6;" horiz-adv-x="920" 
d="M608 819v-871h-82v803h-51v-803h-82v456q-45 0 -81 16.5t-60.5 45t-38 66.5t-13.5 80q0 40 14.5 77.5t41 66t64 46t83.5 17.5h205z" />
    <glyph glyph-name="periodcentered" unicode="&#xb7;" horiz-adv-x="523" 
d="M135 418q0 59 36.5 92.5t90.5 33.5q26 0 49 -8.5t40 -25t27 -40t10 -52.5q0 -30 -10 -54t-27 -40t-40 -24.5t-49 -8.5q-54 0 -90.5 33t-36.5 94z" />
    <glyph glyph-name="periodcentered" unicode="&#x30fb;" horiz-adv-x="523" 
d="M135 418q0 59 36.5 92.5t90.5 33.5q26 0 49 -8.5t40 -25t27 -40t10 -52.5q0 -30 -10 -54t-27 -40t-40 -24.5t-49 -8.5q-54 0 -90.5 33t-36.5 94z" />
    <glyph glyph-name="cedilla" unicode="&#xb8;" horiz-adv-x="420" 
d="M254 0l-24 -75q41 -9 71 -34t30 -64q0 -29 -14 -50.5t-36.5 -35.5t-51 -20.5t-56.5 -6.5q-21 0 -43.5 1.5t-42.5 3.5v74q57 0 84.5 5.5t27.5 28.5q0 21 -29 32t-83 11l44 130h123z" />
    <glyph glyph-name="onesuperior" unicode="&#xb9;" horiz-adv-x="450" 
d="M105 461h75v204q-11 -2 -31.5 -6.5t-33.5 -6.5l-16 63q11 4 27 11t32.5 14t32 13.5t26.5 11.5h78v-304h74v-86h-264v86z" />
    <glyph glyph-name="ordmasculine" unicode="&#xba;" horiz-adv-x="510" 
d="M337 639q0 58 -21.5 94t-61.5 36q-42 0 -63 -36t-21 -94q0 -60 20.5 -95.5t63.5 -35.5q42 0 62.5 35.5t20.5 95.5zM469 639q0 -53 -16 -93.5t-44.5 -68t-68 -41.5t-86.5 -14q-48 0 -87.5 14t-68 41.5t-44 68t-15.5 93.5q0 52 15.5 92.5t44 67.5t68 41t87.5 14
q47 0 86.5 -14t68 -41t44.5 -67.5t16 -92.5zM56 289v88h397v-88h-397z" />
    <glyph glyph-name="guillemotright" unicode="&#xbb;" horiz-adv-x="920" 
d="M703 394l-311 223v127l444 -315v-70l-444 -315v127zM394 394l-311 223v127l444 -315v-70l-444 -315v127z" />
    <glyph glyph-name="onequarter" unicode="&#xbc;" horiz-adv-x="920" 
d="M31 395h93v254q-6 -2 -16.5 -4t-22.5 -4.5t-23 -5t-19 -3.5l-20 79q14 6 34 14t40.5 16.5t40 17t32.5 14.5h84v-378h92v-71l250 449h115l-429 -773h-116l160 288h-295v107zM823 203h52v-85h-52v-118h-124v118h-203v42q0 14 3 24t10 22l159 279h155v-282zM699 320
l-64 -117h64v117z" />
    <glyph glyph-name="onehalf" unicode="&#xbd;" horiz-adv-x="920" 
d="M31 395h93v254q-6 -2 -16.5 -4t-22.5 -4.5t-23 -5t-19 -3.5l-20 79q14 6 34 14t40.5 16.5t40 17t32.5 14.5h84v-378h92v-53l240 431h115l-429 -773h-116l160 288h-285v107zM679 86h194v-86h-335v66q0 18 7 32t22 31q35 39 69 79t69 80q15 17 24.5 38.5t9.5 37.5
q0 23 -14 34t-38 11q-34 0 -69 -11.5t-58 -18.5l-16 80q37 17 75 26.5t76 9.5q88 0 131.5 -35t43.5 -97q0 -26 -10 -53.5t-39 -60.5z" />
    <glyph glyph-name="threequarters" unicode="&#xbe;" horiz-adv-x="920" 
d="M823 203h52v-85h-52v-118h-124v118h-203v42q0 14 3 24t10 22l159 279h155v-282zM699 320l-64 -117h64v117zM161 363q33 0 53.5 19.5t20.5 61.5q0 36 -16.5 57t-43.5 21q-12 0 -24 -2.5t-27 -7.5l-41 36l92 137h-125v86h261l35 -35l-95 -145q56 -12 85.5 -50.5t29.5 -95.5
q0 -37 -13.5 -68t-39.5 -53.5t-64 -35t-86 -12.5q-29 0 -68.5 9.5t-71.5 23.5l19 82q34 -12 65.5 -20t53.5 -8zM741 773l-429 -773h-116l430 773h115z" />
    <glyph glyph-name="questiondown" unicode="&#xbf;" horiz-adv-x="495" 
d="M202 366h139v-69q0 -32 -5 -58.5t-14.5 -50.5t-24 -46.5t-33.5 -46.5q-37 -48 -58.5 -87.5t-21.5 -80.5q0 -38 28.5 -64.5t77.5 -26.5q40 0 74 10t72 26l33 -91q-42 -24 -89 -41t-95 -17q-57 0 -103 15.5t-78 42.5t-49.5 64.5t-17.5 81.5q0 32 9 63t23 59.5t32.5 53.5
t36.5 46q17 20 29.5 37.5t20 35t11 36.5t3.5 42v66zM355 521q0 -38 -24.5 -60t-58.5 -22t-58 22t-24 60t24 60.5t58 22.5t58.5 -22.5t24.5 -60.5z" />
    <glyph glyph-name="AE" unicode="&#xc6;" horiz-adv-x="920" 
d="M890 16q-69 -8 -135 -12t-129 -4q-87 0 -134 38.5t-47 114.5v70h-203q-28 -57 -51.5 -113t-43.5 -110h-143q30 93 75.5 197.5t98 207.5t107 198t101.5 169h491v-107h-286v-208h270v-107h-270v-184q0 -30 17.5 -43.5t50.5 -13.5h231v-93zM286 327h159v299
q-44 -75 -83.5 -148t-75.5 -151z" />
    <glyph glyph-name="Eth" unicode="&#xd0;" horiz-adv-x="875" 
d="M66 444h120v288q61 23 130 39.5t135 16.5q92 0 163.5 -29t120 -81.5t74 -126.5t25.5 -164q0 -91 -25.5 -163.5t-75 -123.5t-121 -78t-163.5 -27q-60 0 -128.5 5.5t-134.5 15.5v321h-120v107zM330 115q28 -5 55 -7.5t64 -2.5q115 0 177 72.5t62 208.5q0 64 -14 117.5
t-43.5 92.5t-74 60.5t-105.5 21.5q-34 0 -62 -5.5t-59 -16.5v-212h148v-107h-148v-222z" />
    <glyph glyph-name="multiply" unicode="&#xd7;" horiz-adv-x="600" 
d="M449 637l91 -89l-152 -158l152 -157l-93 -86l-148 152l-147 -152l-93 86l152 157l-152 158l91 89l149 -155z" />
    <glyph glyph-name="Oslash" unicode="&#xd8;" horiz-adv-x="920" 
d="M798 386q0 -90 -22.5 -164t-66 -127.5t-106.5 -82.5t-143 -29q-20 0 -38.5 2t-35.5 5l-23 -72h-120l37 114q-77 49 -117.5 140.5t-40.5 213.5q0 90 22.5 164t66 127.5t106.5 82.5t143 29q36 0 68 -6l29 86h119l-42 -126q80 -49 122 -141t42 -216zM460 95q49 0 85 20.5
t59.5 59t34.5 92t11 119.5q0 74 -14 132.5t-44 96.5l-170 -517q18 -3 38 -3zM270 386q0 -72 13 -129t40 -95l169 512q-15 3 -32 3q-50 0 -85.5 -20.5t-59 -59t-34.5 -92t-11 -119.5z" />
    <glyph glyph-name="Thorn" unicode="&#xde;" horiz-adv-x="630" 
d="M215 0h-144v772h144v-143q19 3 33.5 6.5t27.5 5.5t27 3.5t32 1.5q57 0 104.5 -18.5t82 -52t54 -81t19.5 -105.5q0 -66 -20.5 -114.5t-56 -81t-83 -48t-100.5 -15.5q-34 0 -59 4t-61 9v-143zM215 248q29 -5 52.5 -9.5t57.5 -4.5q27 0 49.5 9t39.5 27.5t26.5 48t9.5 70.5
q0 43 -10 72t-27.5 47t-40 25.5t-47.5 7.5q-34 0 -57.5 -6.5t-52.5 -13.5v-273z" />
    <glyph glyph-name="germandbls" unicode="&#xdf;" horiz-adv-x="650" 
d="M215 0h-144v583q0 52 20.5 90.5t55.5 64t81.5 38.5t99.5 13q62 0 109.5 -18.5t80 -49t49 -71t16.5 -84.5q0 -36 -8.5 -65.5t-22.5 -52t-32 -38.5t-37 -26q29 -9 54 -24t43 -36.5t28.5 -49.5t10.5 -62q0 -109 -56.5 -169t-153.5 -60q-56 0 -101 18.5t-71 57.5l56 83
q22 -27 44 -40t51 -13q39 0 62 29t23 94q0 60 -40 93t-127 33h-50v104h51q65 0 97.5 33t32.5 90q0 53 -26 85t-82 32q-59 0 -86.5 -30t-27.5 -76v-576z" />
    <glyph glyph-name="ae" unicode="&#xe6;" horiz-adv-x="920" 
d="M653 87q24 0 44.5 2t40.5 6t41.5 10.5t45.5 14.5l24 -93q-44 -17 -98.5 -30t-108.5 -13q-123 0 -192 72q-23 -15 -46 -28.5t-48.5 -23t-54.5 -15t-63 -5.5q-47 0 -85 14t-64.5 39.5t-41 61t-14.5 78.5q0 41 15 76.5t42.5 62t66.5 41.5t86 15q35 0 69 -8t66 -19v28
q0 47 -25.5 74t-85.5 27q-48 0 -85 -2t-75 -5l-8 87q20 4 43.5 8.5t47 7.5t45.5 5t40 2q59 0 104 -15.5t76 -44.5q32 31 75 45.5t97 14.5q67 0 113.5 -23t75 -59.5t41.5 -80.5t15 -86q1 -20 0.5 -44.5t-1.5 -42.5h-351q0 -70 31 -112t102 -42zM257 269q-39 0 -62.5 -23.5
t-23.5 -68.5q0 -46 25.5 -68t67.5 -22t73.5 11.5t64.5 32.5q-11 26 -17.5 55.5t-8.5 64.5q-30 7 -63 12.5t-56 5.5zM520 344h213q-1 24 -7 47t-19 41.5t-32.5 30t-47.5 11.5t-47.5 -11t-32.5 -29t-19.5 -41.5t-7.5 -48.5z" />
    <glyph glyph-name="eth" unicode="&#xf0;" horiz-adv-x="590" 
d="M365 758h139l-98 -93q73 -66 112.5 -161.5t39.5 -216.5q0 -63 -17.5 -119t-52 -97.5t-85 -65.5t-117.5 -24q-53 0 -99 15.5t-80.5 45t-54.5 72.5t-20 99q0 58 20.5 102.5t54.5 74t79 44.5t94 15q45 0 82.5 -14t61.5 -34q-12 66 -37.5 111.5t-60.5 77.5l-68 -64h-137
l124 118q-28 13 -57.5 22t-61.5 17l30 98q95 -18 170 -60zM171 215q0 -61 33.5 -97.5t85.5 -36.5q34 0 58 18t40 47.5t23.5 68t7.5 79.5q-26 23 -60 38.5t-74 15.5q-55 0 -84.5 -37.5t-29.5 -95.5z" />
    <glyph glyph-name="divide" unicode="&#xf7;" horiz-adv-x="595" 
d="M54 437h487v-108h-487v108zM209 176q0 35 22 54.5t53 19.5q30 0 52 -19.5t22 -54.5t-22 -55t-52 -20q-31 0 -53 20t-22 55zM209 591q0 35 22 54.5t53 19.5q30 0 52 -19.5t22 -54.5t-22 -55t-52 -20q-31 0 -53 20t-22 55z" />
    <glyph glyph-name="oslash" unicode="&#xf8;" horiz-adv-x="650" 
d="M615 282q0 -71 -22 -126t-61 -93.5t-92 -58.5t-114 -20q-16 0 -31 1.5t-29 3.5l-43 -101h-120l60 141q-58 37 -92 100.5t-34 152.5q0 70 22.5 125.5t61.5 93t91.5 57.5t113.5 20q18 0 35 -2t34 -5l32 78h119l-50 -121q54 -37 86.5 -98.5t32.5 -147.5zM326 474
q-39 0 -66.5 -15.5t-45.5 -42t-26.5 -61t-8.5 -73.5t8 -74t25 -62l140 323q-6 1 -12.5 3t-13.5 2zM473 282q0 73 -29 124l-136 -317q5 -1 9 -1h9q40 0 68.5 16t45.5 42.5t25 61.5t8 74z" />
    <glyph glyph-name="thorn" unicode="&#xfe;" horiz-adv-x="610" 
d="M71 782h140v-220q28 8 57.5 12t57.5 4q50 0 95.5 -19.5t79.5 -57.5t54 -93.5t20 -126.5q0 -72 -20 -127t-54 -93t-79.5 -57.5t-95.5 -19.5q-30 0 -60.5 2.5t-54.5 9.5v-232h-140v1018zM211 105q28 -9 51.5 -13.5t49.5 -4.5q69 0 96 48.5t27 144.5q0 99 -29.5 146
t-98.5 47q-26 0 -49 -6t-47 -15v-347z" />
    <glyph glyph-name="dcroat" unicode="&#x111;" horiz-adv-x="655" 
d="M544 54q-58 -28 -124.5 -49t-132.5 -21q-50 0 -96 18t-80.5 54t-55 90t-20.5 125q0 72 20.5 125.5t55 89.5t80.5 54t96 18q30 0 61.5 -5.5t55.5 -15.5v82h-136v99h136v74l140 13v-87h91v-99h-91v-565zM404 429q-27 13 -52 19.5t-51 6.5q-69 0 -97.5 -47.5t-28.5 -135.5
q0 -91 31 -137t100 -46q26 0 50 6t48 15v319z" />
    <glyph glyph-name="Hbar" unicode="&#x126;" horiz-adv-x="810" 
d="M798 549h-99v-549h-144v335h-300v-335h-144v549h-100v107h100v116h144v-116h300v116h144v-116h99v-107zM255 448h300v101h-300v-101z" />
    <glyph glyph-name="hbar" unicode="&#x127;" horiz-adv-x="650" 
d="M388 619h-142v-121q36 11 70.5 20t73.5 9q194 0 194 -182v-345h-140v344q0 44 -18.5 59t-54.5 15q-35 0 -65 -8t-60 -17v-393h-140v619h-95v99h95v74l140 13v-87h142v-99z" />
    <glyph glyph-name="dotlessi" unicode="&#x131;" horiz-adv-x="290" 
d="M74 0v560h142v-560h-142z" />
    <glyph glyph-name="IJ" unicode="&#x132;" horiz-adv-x="720" 
d="M226 0h-148v772h148v-772zM391 99q31 0 52 11t34 31t18.5 47t5.5 60v524h148v-525q0 -128 -55.5 -195.5t-183.5 -67.5q-22 0 -59 4t-68 13v110q29 -5 53 -8.5t55 -3.5z" />
    <glyph glyph-name="ij" unicode="&#x133;" horiz-adv-x="580" 
d="M78 0v560h142v-560h-142zM268 -203q55 55 73.5 115.5t18.5 128.5v519h142v-522q0 -51 -9 -97.5t-28 -87t-47.5 -73t-67.5 -53.5zM67 722q0 38 24.5 60t58.5 22t58 -22t24 -60t-24 -60.5t-58 -22.5t-58.5 22.5t-24.5 60.5zM349 722q0 38 24.5 60t58.5 22t58 -22t24 -60
t-24 -60.5t-58 -22.5t-58.5 22.5t-24.5 60.5z" />
    <glyph glyph-name="kgreenlandic" unicode="&#x138;" horiz-adv-x="585" 
d="M218 308l173 213q28 34 65 45.5t92 11.5l5 -92q-23 0 -46 -15.5t-42 -39.5l-101 -128l217 -303h-150zM209 0h-138v560h138v-560z" />
    <glyph glyph-name="Ldot" unicode="&#x13f;" horiz-adv-x="575" 
d="M219 772v-607q0 -51 59 -51h260v-98q-69 -8 -140 -11.5t-134 -4.5q-103 0 -148 37.5t-45 115.5v619h148zM347 440q0 38 24.5 60t58.5 22t58 -22t24 -60t-24 -60.5t-58 -22.5t-58.5 22.5t-24.5 60.5z" />
    <glyph glyph-name="ldot" unicode="&#x140;" horiz-adv-x="485" 
d="M273 -28q-90 12 -143.5 62.5t-53.5 139.5v608l142 15v-604q0 -51 22 -79t69 -42zM283 440q0 38 24.5 60t58.5 22t58 -22t24 -60t-24 -60.5t-58 -22.5t-58.5 22.5t-24.5 60.5z" />
    <glyph glyph-name="Lslash" unicode="&#x141;" horiz-adv-x="705" 
d="M354 772v-244l69 75h131l-200 -217v-221q0 -51 59 -51h260v-98q-69 -8 -140 -11.5t-134 -4.5q-103 0 -148 37.5t-45 115.5v72l-59 -64h-133l192 207v404h148z" />
    <glyph glyph-name="lslash" unicode="&#x142;" horiz-adv-x="570" 
d="M408 -28q-90 12 -143.5 62.5t-53.5 139.5v54l-62 -67h-133l195 212v409l142 15v-270l70 76h131l-201 -220v-190q0 -51 22 -79t69 -42z" />
    <glyph glyph-name="napostrophe" unicode="&#x149;" horiz-adv-x="805" 
d="M251 0v517q26 10 61 20.5t72.5 19.5t74.5 14.5t68 5.5q101 0 156.5 -45.5t55.5 -136.5v-395h-142v381q0 50 -18 70t-65 20q-30 0 -61.5 -6t-59.5 -14v-451h-142zM39 567q0 35 22 55t52 20q37 0 58 -25.5t21 -72.5q0 -48 -13.5 -82t-35.5 -57t-51 -35.5t-59 -17.5l-12 45
q39 14 64.5 36t25.5 60q-34 2 -53 23t-19 51z" />
    <glyph glyph-name="Eng" unicode="&#x14a;" horiz-adv-x="755" 
d="M523 0q-32 72 -68 145.5t-76 144.5t-82 138t-84 126v-554h-142v772h143q41 -51 86.5 -114.5t89 -132.5t83 -141t69.5 -140v528h142v-784q0 -128 -55.5 -195.5t-183.5 -67.5q-22 0 -59 4t-68 13v110q29 -5 53 -8.5t55 -3.5t52 11t34 31t18.5 47t5.5 60v11h-13z" />
    <glyph glyph-name="eng" unicode="&#x14b;" horiz-adv-x="620" 
d="M66 0v517q26 10 61 20.5t72.5 19.5t74.5 14.5t68 5.5q101 0 156.5 -45.5t55.5 -136.5v-357q0 -51 -9 -97.5t-28 -87t-47.5 -73t-67.5 -53.5l-82 70q55 55 73.5 115.5t18.5 128.5v340q0 50 -18 70t-65 20q-30 0 -61 -6.5t-60 -13.5v-451h-142z" />
    <glyph glyph-name="OE" unicode="&#x152;" horiz-adv-x="920" 
d="M893 16q-69 -8 -135 -11t-129 -5q-32 0 -59 3.5t-48 12.5q-33 -16 -70.5 -24.5t-81.5 -8.5q-80 0 -143 29t-106.5 82.5t-66 127.5t-22.5 164t22.5 164t66 127.5t106.5 82.5t143 29q58 0 111 -17h399v-107h-286v-208h270v-107h-270v-184q0 -30 17.5 -43.5t50.5 -13.5h231
v-93zM370 677q-50 0 -85.5 -20.5t-59 -59t-34.5 -92t-11 -119.5t11 -119.5t34.5 -92t59 -59t85.5 -20.5q44 0 78 17q-2 7 -2 15v16v518q-35 16 -76 16z" />
    <glyph glyph-name="oe" unicode="&#x153;" horiz-adv-x="920" 
d="M687 87q24 0 43 2t37.5 6t38 10.5l43.5 14.5l24 -93q-44 -17 -93.5 -30t-103.5 -13q-125 0 -191 77q-35 -38 -84 -59t-109 -21q-61 0 -110.5 20.5t-85 59t-54.5 94t-19 126.5q0 70 19 125.5t54.5 93t85 57.5t110.5 20q60 0 108.5 -19.5t83.5 -56.5q30 35 74 55.5
t103 20.5q67 0 112 -23t71.5 -59.5t38 -80.5t13.5 -86q1 -20 0.5 -44.5t-1.5 -42.5h-334q0 -70 27.5 -112t98.5 -42zM419 281q0 39 -7 73.5t-22 61t-39 42t-59 15.5t-59 -15.5t-39 -42t-22 -61t-7 -73.5t6 -74.5t20.5 -62.5t39 -43t61.5 -16t61.5 16t39 43t20.5 62.5t6 74.5
zM561 344h196q-1 24 -5.5 47t-15.5 41.5t-29 30t-46 11.5t-46.5 -11t-30 -29t-17 -41.5t-6.5 -48.5z" />
    <glyph glyph-name="Tbar" unicode="&#x166;" horiz-adv-x="610" 
d="M580 659h-200v-242h143v-107h-143v-310h-148v310h-146v107h146v242h-203v113h551v-113z" />
    <glyph glyph-name="tbar" unicode="&#x167;" horiz-adv-x="430" 
d="M246 715v-163h132v-106h-132v-79h132v-106h-132v-101q0 -48 19 -64.5t54 -16.5q17 0 33.5 2.5t33.5 4.5l14 -85q-21 -8 -46 -13t-49 -5q-94 0 -147.5 41.5t-53.5 126.5v110h-79v106h79v79h-79v106h79v149z" />
    <glyph glyph-name="uni02BC" unicode="&#x2bc;" 
 />
    <glyph glyph-name="caron" unicode="&#x2c7;" horiz-adv-x="425" 
d="M9 981h132l71 -89l72 89h131l-150 -180h-106z" />
    <glyph glyph-name="breve" unicode="&#x2d8;" horiz-adv-x="430" 
d="M215 793q-35 0 -68.5 11.5t-60.5 34.5t-45 58.5t-21 83.5h120q5 -42 23 -70t52 -28q32 0 50 28t23 70h121q-3 -48 -21 -83.5t-45 -58.5t-60.5 -34.5t-67.5 -11.5z" />
    <glyph glyph-name="dotaccent" unicode="&#x2d9;" horiz-adv-x="230" 
d="M41 907q0 35 22 54.5t53 19.5q30 0 51.5 -19.5t21.5 -54.5t-21.5 -55t-51.5 -20q-31 0 -53 20t-22 55z" />
    <glyph glyph-name="ring" unicode="&#x2da;" horiz-adv-x="300" 
d="M149 857q16 0 25.5 10.5t9.5 26.5q0 15 -9.5 26t-25.5 11t-25.5 -11t-9.5 -26q0 -16 9.5 -26.5t25.5 -10.5zM149 790q-25 0 -47 7.5t-39 21t-27 33t-10 43.5t10 43t27 32.5t39 20.5t47 7t47 -7t39 -20.5t27 -32.5t10 -43t-10 -43.5t-27 -33t-39 -21t-47 -7.5z" />
    <glyph glyph-name="ogonek" unicode="&#x2db;" horiz-adv-x="270" 
d="M231 31q-45 -34 -63.5 -65.5t-18.5 -66.5q0 -17 8.5 -26.5t28.5 -9.5q14 0 29 2t31 5v-83q-18 -5 -37.5 -7.5t-39.5 -2.5q-34 0 -61 5t-46 18t-29 34.5t-10 53.5q0 25 10 47t26 40.5t36.5 32.5t42.5 23h93z" />
    <glyph glyph-name="tilde" unicode="&#x2dc;" horiz-adv-x="920" 
d="M77 277q6 57 25 106t49.5 85t71 57t88.5 21q31 0 57 -8.5t49 -23.5t45.5 -35t45.5 -43q10 -10 22.5 -23t27 -24.5t29.5 -19.5t31 -8q22 0 37.5 13.5t26.5 36t19.5 50t15.5 56.5h125q-8 -55 -26.5 -102t-47 -81.5t-68 -54t-88.5 -19.5q-31 0 -57.5 9t-49.5 23.5
t-43.5 32.5t-38.5 36q-17 16 -32 31.5t-29.5 27.5t-27 19.5t-24.5 7.5q-23 0 -41 -16.5t-31.5 -41.5t-22 -55t-11.5 -57h-127z" />
    <glyph glyph-name="hungarumlaut" unicode="&#x2dd;" horiz-adv-x="505" 
d="M134 968h121l-111 -230h-86zM306 968h121l-111 -230h-85z" />
    <glyph glyph-name="Alpha" unicode="&#x391;" horiz-adv-x="730" 
d="M164 0h-148q24 77 56 176t69.5 204t79.5 207t86 185h115q29 -55 57.5 -119t55 -132t52 -138t48 -137.5t42.5 -130t36 -115.5h-148q-14 52 -30 108t-33 113h-274q-18 -61 -34.5 -117.5t-29.5 -103.5zM364 606q-23 -47 -49.5 -120.5t-52.5 -156.5h207q-26 81 -52.5 152.5
t-52.5 124.5z" />
    <glyph glyph-name="Beta" unicode="&#x392;" horiz-adv-x="650" 
d="M483 423q29 -8 54 -24.5t43 -40.5t28.5 -55.5t10.5 -67.5q0 -51 -19 -94.5t-58.5 -76t-99.5 -51t-142 -18.5q-18 0 -46 1.5t-60 3.5t-64 5.5t-59 8.5v725q27 11 57 20t61 16t60 10.5t55 3.5q62 0 113.5 -14.5t88 -41.5t57 -65.5t20.5 -86.5q0 -28 -8 -53t-21.5 -45.5
t-31.5 -35.5t-39 -24zM474 238q0 31 -13.5 54t-36 38t-51.5 22.5t-60 7.5h-98v-248q28 -4 49 -5.5t51 -1.5q35 0 64 7t50 23t33 41.5t12 61.5zM294 467q30 0 56 7.5t45.5 22t31 34.5t11.5 46q0 27 -11 46.5t-29 32t-42 18.5t-50 6q-32 0 -54.5 -4.5t-36.5 -8.5v-200h79z" />
    <glyph glyph-name="Gamma" unicode="&#x393;" horiz-adv-x="565" 
d="M219 0h-148v772h454v-109h-306v-663z" />
    <glyph glyph-name="uni0394" unicode="&#x394;" horiz-adv-x="690" 
d="M14 0l269 772h121l272 -772h-662zM191 105h309l-157 483z" />
    <glyph glyph-name="Epsilon" unicode="&#x395;" horiz-adv-x="590" 
d="M548 16q-35 -4 -73 -7t-77 -5t-76 -3t-68 -1q-87 0 -135 32.5t-48 110.5v629h464v-107h-316v-208h300v-107h-300v-184q0 -30 17.5 -43.5t50.5 -13.5h261v-93z" />
    <glyph glyph-name="Zeta" unicode="&#x396;" horiz-adv-x="610" 
d="M41 772h496l32 -76q-59 -71 -113.5 -142.5t-101.5 -144.5t-86 -148t-66 -153h380v-111h-559v55q22 76 55.5 155t77 157.5t96 153.5t113.5 143h-324v111z" />
    <glyph glyph-name="Eta" unicode="&#x397;" horiz-adv-x="730" 
d="M215 468h300v304h144v-772h-144v355h-300v-355h-144v772h144v-304z" />
    <glyph glyph-name="Theta" unicode="&#x398;" horiz-adv-x="750" 
d="M236 437h278v-107h-278v107zM185 386q0 -66 11 -119.5t34.5 -92t59 -59t85.5 -20.5q49 0 85 20.5t59.5 59t34.5 92t11 119.5t-11 119.5t-34.5 92t-59.5 59t-85 20.5q-50 0 -85.5 -20.5t-59 -59t-34.5 -92t-11 -119.5zM713 386q0 -90 -22.5 -164t-66 -127.5t-106.5 -82.5
t-143 -29t-143 29t-106.5 82.5t-66 127.5t-22.5 164t22.5 164t66 127.5t106.5 82.5t143 29t143 -29t106.5 -82.5t66 -127.5t22.5 -164z" />
    <glyph glyph-name="Iota" unicode="&#x399;" horiz-adv-x="305" 
d="M226 0h-148v772h148v-772z" />
    <glyph glyph-name="Kappa" unicode="&#x39a;" horiz-adv-x="695" 
d="M215 0h-144v772h144v-772zM229 414q30 41 64.5 85.5t70 90t70 91.5t64.5 91h154q-29 -47 -63.5 -96t-69.5 -96.5t-68.5 -90.5t-60.5 -77l309 -412h-161z" />
    <glyph glyph-name="Lambda" unicode="&#x39b;" horiz-adv-x="730" 
d="M364 606q-16 -32 -33 -77t-35 -97.5t-36.5 -110.5t-35.5 -114.5t-32.5 -109.5t-27.5 -97h-148q24 77 56 176t69.5 204t79.5 207t86 185h115q29 -55 57.5 -119t55 -132t52 -138t48 -137.5t42.5 -130t36 -115.5h-148q-21 77 -45.5 161.5t-50.5 166t-52.5 154t-52.5 124.5z
" />
    <glyph glyph-name="Mu" unicode="&#x39c;" horiz-adv-x="930" 
d="M607 772h151q31 -86 55 -184.5t41.5 -199.5t28.5 -200.5t16 -187.5h-140q-4 59 -10.5 135.5t-16.5 155t-23.5 151t-30.5 123.5l-150 -535h-145q-14 74 -31 151t-36.5 148.5t-41.5 133.5t-46 106l-75 -569h-142l111 772h152q31 -53 59.5 -115t52.5 -130t43.5 -139.5
t32.5 -141.5h1z" />
    <glyph glyph-name="Nu" unicode="&#x39d;" horiz-adv-x="755" 
d="M526 0q-32 72 -68.5 145.5t-77 144.5t-83 138t-84.5 126v-554h-142v772h139q41 -51 87 -114.5t90.5 -132.5t84.5 -141t70 -140v528h142v-772h-158z" />
    <glyph glyph-name="Xi" unicode="&#x39e;" horiz-adv-x="600" 
d="M58 772h484v-107h-484v107zM97 440h406v-107h-406v107zM38 107h524v-107h-524v107z" />
    <glyph glyph-name="Omicron" unicode="&#x39f;" horiz-adv-x="750" 
d="M185 386q0 -66 11 -119.5t34.5 -92t59 -59t85.5 -20.5q49 0 85 20.5t59.5 59t34.5 92t11 119.5t-11 119.5t-34.5 92t-59.5 59t-85 20.5q-50 0 -85.5 -20.5t-59 -59t-34.5 -92t-11 -119.5zM713 386q0 -90 -22.5 -164t-66 -127.5t-106.5 -82.5t-143 -29t-143 29
t-106.5 82.5t-66 127.5t-22.5 164t22.5 164t66 127.5t106.5 82.5t143 29t143 -29t106.5 -82.5t66 -127.5t22.5 -164z" />
    <glyph glyph-name="Pi" unicode="&#x3a0;" horiz-adv-x="730" 
d="M659 772v-772h-144v659h-300v-659h-144v772h588z" />
    <glyph glyph-name="Rho" unicode="&#x3a1;" horiz-adv-x="645" 
d="M71 0v740q64 21 129.5 35t120.5 14t105.5 -18.5t88.5 -53.5t60.5 -85.5t22.5 -114.5q0 -59 -19.5 -108t-55.5 -84t-87 -55t-114 -20q-27 0 -53 4t-53 11v-265h-145zM454 522q0 74 -33 114.5t-102 40.5q-20 0 -48 -4.5t-55 -13.5v-279q27 -9 50 -12.5t51 -3.5
q74 0 105.5 43.5t31.5 114.5z" />
    <glyph glyph-name="Sigma" unicode="&#x3a3;" horiz-adv-x="610" 
d="M469 378l-246 -271h353v-107h-532v104l254 274l-254 288v106h525v-107h-349z" />
    <glyph glyph-name="Tau" unicode="&#x3a4;" horiz-adv-x="610" 
d="M580 659h-200v-659h-148v659h-203v113h551v-113z" />
    <glyph glyph-name="Upsilon" unicode="&#x3a5;" horiz-adv-x="640" 
d="M396 0h-139v297q-28 45 -59.5 99t-62 115t-59.5 127t-53 134h142q16 -46 36 -95.5t42 -96.5t44.5 -89t43.5 -74q27 29 50.5 69t43 86.5t35 97.5t24.5 102h133q-10 -63 -30 -128t-49 -127t-65 -118.5t-77 -102.5v-296z" />
    <glyph glyph-name="Phi" unicode="&#x3a6;" horiz-adv-x="660" 
d="M400 0h-141v141q-47 6 -88.5 26t-72.5 52t-48.5 75.5t-17.5 94.5q0 52 17.5 95t48.5 75.5t72.5 52.5t88.5 25v135h141v-135q48 -5 89.5 -25t73 -52t49.5 -75.5t18 -95.5q0 -51 -18 -94.5t-49.5 -75.5t-73 -52.5t-89.5 -25.5v-141zM494 389q0 57 -26 96t-68 49v-289
q42 10 68 49t26 95zM168 389q0 -55 24.5 -94t66.5 -50v288q-42 -11 -66.5 -49.5t-24.5 -94.5z" />
    <glyph glyph-name="Chi" unicode="&#x3a7;" horiz-adv-x="660" 
d="M253 399l-216 373h157l136 -245l135 245h152l-213 -371l239 -401h-154l-158 273l-157 -273h-158z" />
    <glyph glyph-name="Psi" unicode="&#x3a8;" horiz-adv-x="770" 
d="M316 772h137v-474q51 10 82.5 50t31.5 108v316h137v-321q0 -59 -21.5 -105.5t-56.5 -80t-80 -52.5t-93 -23v-190h-137v191q-48 4 -93 23t-80 52t-56 79.5t-21 105.5v321h137v-316q0 -67 31 -107.5t82 -50.5v474z" />
    <glyph glyph-name="uni03A9" unicode="&#x3a9;" horiz-adv-x="750" 
d="M375 683q-51 0 -88 -19t-61 -51.5t-36 -75.5t-12 -91q0 -35 6 -69.5t23.5 -65.5t48 -57t78.5 -44v-210h-283v105h141v50q-78 39 -119 107t-41 184q0 84 27 148.5t73.5 107.5t109 65t133.5 22t133.5 -22t109 -65t73.5 -107.5t27 -148.5q0 -116 -41 -184t-119 -107v-50h141
v-105h-283v210q48 18 78.5 44t48 57t23.5 65.5t6 69.5q0 48 -12 91t-36 75.5t-61 51.5t-88 19z" />
    <glyph glyph-name="alpha" unicode="&#x3b1;" horiz-adv-x="680" 
d="M298 -19q-56 0 -104 20.5t-83 59.5t-54.5 94.5t-19.5 125.5q0 65 19 119.5t53.5 93.5t82.5 61t106 22q62 -4 102.5 -24.5t71.5 -65.5q2 21 2.5 35.5t1.5 37.5h121q-2 -72 -5.5 -149.5t-20.5 -150.5q-2 -11 -5.5 -25t-5.5 -23q5 -68 16.5 -98.5t37.5 -30.5q16 0 28 2t26 6
l12 -89q-11 -7 -31 -14t-41 -7q-53 0 -84 20t-50 62q-32 -42 -79.5 -62t-96.5 -20zM179 281q0 -90 30.5 -143.5t92.5 -53.5q35 0 60.5 16.5t42.5 42t27 55.5t15 58q-6 40 -18 79.5t-29.5 70t-42 49.5t-55.5 19q-63 0 -93 -51t-30 -142z" />
    <glyph glyph-name="beta" unicode="&#x3b2;" horiz-adv-x="625" 
d="M214 -235h-143v823q0 48 17.5 85t49 63t75.5 39.5t96 13.5q48 0 91 -14t75 -40t50.5 -62t18.5 -80q0 -50 -22 -87t-56 -57q60 -19 94 -66.5t34 -116.5q0 -57 -19 -102.5t-53 -77t-81 -48.5t-102 -17q-37 0 -72 7t-53 15v-278zM451 265q0 60 -35.5 94.5t-105.5 34.5h-50
v103h50q47 0 68 24t21 72q0 44 -26 69.5t-64 25.5q-26 0 -44.5 -8t-29.5 -22t-16 -32t-5 -39v-441q23 -11 50.5 -17.5t57.5 -6.5q65 0 97 39.5t32 103.5z" />
    <glyph glyph-name="gamma" unicode="&#x3b3;" horiz-adv-x="615" 
d="M487 560l112 -56l-203 -400q8 -27 17.5 -56t17.5 -58t13 -56t5 -50q0 -29 -10.5 -56t-30 -48t-48 -34t-63.5 -13q-27 0 -53.5 9.5t-47.5 28.5t-34 46.5t-13 63.5q0 31 11 64.5t27.5 66.5t35 63.5t33.5 56.5l-77 318q-2 8 -7.5 13.5t-16.5 5.5q-17 0 -35 -22t-35 -49
l-74 58q29 55 63.5 88t88.5 33q62 0 92 -27.5t44 -84.5l49 -198zM298 -153q17 0 23 10t6 26q0 6 -2 19.5t-5.5 29t-8 31.5t-8.5 27q-6 -13 -12 -28.5t-11 -31t-8 -29.5t-3 -24q0 -13 7.5 -21.5t21.5 -8.5z" />
    <glyph glyph-name="delta" unicode="&#x3b4;" horiz-adv-x="650" 
d="M615 280q0 -71 -22 -126.5t-61 -93.5t-92 -58.5t-114 -20.5t-113.5 20.5t-91.5 58.5t-61.5 93.5t-22.5 126.5q0 86 32 147.5t87 99.5q-20 18 -32.5 43t-12.5 60q0 75 49.5 117t143.5 42q21 0 46 -3.5t50.5 -10.5t50 -17.5t45.5 -25.5l-40 -78q-45 17 -80.5 24t-66.5 7
q-26 0 -41 -16.5t-15 -39.5q0 -20 9.5 -32.5t23.5 -16.5q9 -2 19 -2.5t21 -0.5q61 0 114 -20t92 -58t61 -93.5t22 -125.5zM473 280q0 39 -8.5 74t-26.5 61.5t-45.5 42t-66.5 15.5t-66.5 -15.5t-45.5 -42t-26.5 -61.5t-8.5 -74t8 -74t25 -62t45 -43t69 -16q40 0 68.5 16
t45.5 43t25 62t8 74z" />
    <glyph glyph-name="epsilon" unicode="&#x3b5;" horiz-adv-x="520" 
d="M43 161q0 41 20 76t58 54q-35 22 -50 52t-15 66q0 81 55.5 124.5t145.5 43.5q51 0 108 -17t111 -59l-46 -79q-20 13 -43 23t-46.5 17t-44 10.5t-35.5 3.5q-35 0 -48.5 -20.5t-13.5 -44.5q0 -42 18.5 -58t41.5 -16h86v-99h-91q-33 0 -51 -23t-18 -55q0 -36 21 -57t57 -21
q41 0 84 19.5t94 62.5l67 -81q-53 -51 -120 -76.5t-139 -25.5q-47 0 -85 13t-65 36.5t-41.5 56.5t-14.5 74z" />
    <glyph glyph-name="zeta" unicode="&#x3b6;" horiz-adv-x="605" 
d="M404 97q35 -5 66 -19t54 -36t36 -51t13 -64q0 -37 -20.5 -69t-60 -56t-97 -38t-131.5 -15v104q86 4 124.5 22.5t38.5 53.5q0 21 -13 36t-50 18q-166 15 -249 113.5t-83 260.5q0 32 7 72.5t19.5 81t30 77t38.5 62.5q-23 3 -46 6.5t-46 10.5v107q48 -13 102 -18.5t105 -5.5
q22 0 50 1t57.5 3.5t57 6.5t50.5 10v-106q-35 -9 -66 -12t-61 -7q-38 -5 -66 -36.5t-47.5 -75t-29 -92t-9.5 -86.5q0 -122 57.5 -183.5t168.5 -75.5z" />
    <glyph glyph-name="eta" unicode="&#x3b7;" horiz-adv-x="625" 
d="M66 0v517q26 10 61 20.5t72.5 19.5t74.5 14.5t68 5.5q101 0 156.5 -45.5t55.5 -136.5v-631h-140v617q0 50 -19 70t-66 20q-30 0 -62 -6t-61 -14v-451h-140z" />
    <glyph glyph-name="theta" unicode="&#x3b8;" horiz-adv-x="630" 
d="M593 387q0 -101 -19.5 -177t-55.5 -126.5t-87.5 -75.5t-115.5 -25t-115.5 25t-87.5 75.5t-55.5 126.5t-19.5 177t19.5 176.5t55.5 125.5t87.5 75t115.5 25t115.5 -25t87.5 -75t55.5 -125.5t19.5 -176.5zM315 92q65 0 97.5 64.5t38.5 176.5h-272q5 -112 37 -176.5
t99 -64.5zM315 680q-67 0 -99 -64t-37 -176h272q-6 112 -38.5 176t-97.5 64z" />
    <glyph glyph-name="iota" unicode="&#x3b9;" horiz-adv-x="375" 
d="M219 560v-426q0 -29 12 -39t37 -10q17 0 37.5 3.5t34.5 7.5l10 -90q-6 -3 -17.5 -7.5t-27 -8.5t-33 -6.5t-34.5 -2.5q-36 0 -65.5 7.5t-50.5 25t-32.5 46t-11.5 71.5v429h141z" />
    <glyph glyph-name="kappa" unicode="&#x3ba;" horiz-adv-x="585" 
d="M218 308l173 212q28 34 65 45.5t92 11.5l5 -92q-23 0 -46 -15.5t-42 -39.5l-101 -127l217 -303h-150zM209 0h-138v560h138v-560z" />
    <glyph glyph-name="lambda" unicode="&#x3bb;" horiz-adv-x="680" 
d="M43 681l43 109q51 -12 91.5 -36t71.5 -58t54 -75t40 -87l154 -413q5 -13 13 -23t22 -10q16 0 32 21t36 47l78 -66q-14 -21 -31 -41t-36.5 -35t-41 -24t-44.5 -9q-52 0 -88.5 23t-54.5 72l-100 266l-125 -342h-139l190 513q-22 64 -62 108t-103 60z" />
    <glyph glyph-name="uni03BC" unicode="&#x3bc;" horiz-adv-x="615" 
d="M411 0v35q-21 -25 -51 -39.5t-62 -14.5q-33 0 -52 8t-37 23v-248h-138v796h138v-364q0 -55 23 -83t65 -28q22 0 43 7t36.5 21.5t25 36t9.5 51.5v359h138v-560h-138z" />
    <glyph glyph-name="nu" unicode="&#x3bd;" horiz-adv-x="585" 
d="M235 0l-228 560h143l159 -413q47 68 77.5 136t30.5 148q0 35 -3.5 65.5t-11.5 63.5h142q5 -29 8 -63.5t3 -69.5q0 -55 -18 -112.5t-46 -113t-62.5 -107t-67.5 -94.5h-126z" />
    <glyph glyph-name="xi" unicode="&#x3be;" horiz-adv-x="630" 
d="M49 771q24 -6 54.5 -10.5t61.5 -8.5t59 -6t46 -2q22 0 48.5 1.5t54.5 4.5t55 7.5t50 9.5v-103q-42 -10 -86.5 -16t-89.5 -6q-17 0 -31 -18t-14 -53q0 -28 12.5 -46.5t39.5 -18.5h169v-106h-154q-23 0 -46.5 -10.5t-42 -30t-30 -48t-11.5 -64.5q0 -69 38 -105.5t120 -36.5
h55q40 0 74.5 -8.5t59.5 -26t39 -44.5t14 -65t-18.5 -70t-57.5 -55.5t-98 -37t-140 -14.5v102q35 2 66 8t53.5 15.5t35.5 22t13 28.5q0 23 -14.5 31.5t-34.5 8.5h-55q-78 0 -134 21t-92 55.5t-52.5 79t-16.5 91.5q0 69 31.5 124.5t79.5 82.5q-23 20 -36 45.5t-13 58.5
q0 23 7.5 47t21.5 41q-25 4 -48 10t-43 12v103z" />
    <glyph glyph-name="omicron" unicode="&#x3bf;" horiz-adv-x="650" 
d="M473 280q0 39 -8.5 74t-26.5 61.5t-45.5 42t-66.5 15.5t-66.5 -15.5t-45.5 -42t-26.5 -61.5t-8.5 -74t8 -74t25 -62t45 -43t69 -16q40 0 68.5 16t45.5 43t25 62t8 74zM615 280q0 -71 -22 -126.5t-61 -93.5t-92 -58.5t-114 -20.5t-113.5 20.5t-91.5 58.5t-61.5 93.5
t-22.5 126.5q0 70 22.5 125.5t61.5 93.5t91.5 58t113.5 20t114 -20t92 -58t61 -93.5t22 -125.5z" />
    <glyph glyph-name="pi" unicode="&#x3c0;" horiz-adv-x="670" 
d="M24 560h599v-103h-120v-338q0 -18 9 -27.5t30 -9.5q17 0 39.5 8t44.5 21l34 -81q-25 -20 -62.5 -34.5t-75.5 -14.5q-86 0 -121 36t-35 108v332h-104v-266q0 -46 -11 -82.5t-31 -65.5t-47.5 -51t-59.5 -40l-77 85q38 31 63 67.5t25 86.5v266h-100v103z" />
    <glyph glyph-name="rho" unicode="&#x3c1;" horiz-adv-x="686" 
d="M651 278q0 -71 -23.5 -127t-63 -95t-92.5 -59.5t-112 -20.5q-47 0 -84.5 15.5t-64.5 41.5v-269h-140v514q0 70 23 126t62.5 94t92 58.5t111.5 20.5t112 -20.5t92.5 -58.5t63 -94t23.5 -126zM509 278q0 93 -35.5 145.5t-113.5 52.5q-77 0 -112.5 -53t-35.5 -145
q0 -46 8 -83t25.5 -63.5t45.5 -40.5t69 -14q40 0 68.5 14t46.5 40.5t26 63.5t8 83z" />
    <glyph glyph-name="sigma" unicode="&#x3c3;" horiz-adv-x="645" 
d="M605 271q0 -71 -21 -125t-58.5 -90.5t-89.5 -55.5t-115 -19t-115 19t-89.5 55.5t-58.5 90.5t-21 125q0 69 20.5 123t57 91t87.5 56t112 19h308v-103h-92q29 -31 52 -76.5t23 -109.5zM464 271q0 93 -40 140.5t-103 47.5t-103 -47.5t-40 -140.5t38.5 -141t104.5 -48
t104.5 48t38.5 141z" />
    <glyph glyph-name="tau" unicode="&#x3c4;" horiz-adv-x="510" 
d="M485 454h-165v-303q0 -25 10 -34.5t35 -9.5h93v-107h-120q-78 0 -117 34.5t-39 111.5v308h-158v106h461v-106z" />
    <glyph glyph-name="upsilon" unicode="&#x3c5;" horiz-adv-x="610" 
d="M205 560v-373q0 -21 5 -39.5t16.5 -32t31 -21t48.5 -7.5q35 0 59 15t39 42.5t22 65t7 82.5q0 57 -17 116.5t-52 109.5l110 70q25 -29 44 -65.5t31.5 -76.5t18.5 -80t6 -74q0 -91 -21.5 -151t-58 -95.5t-85 -50t-103.5 -14.5q-118 0 -179.5 52t-61.5 149v378h140z" />
    <glyph glyph-name="phi" unicode="&#x3c6;" horiz-adv-x="725" 
d="M432 577q54 0 101 -19.5t82 -57t55 -92t20 -124.5q0 -56 -21 -108t-57 -93t-84.5 -67.5t-102.5 -31.5v-220h-133v220q-63 9 -110.5 38t-79.5 70t-48.5 90.5t-16.5 99.5q0 46 13.5 89.5t35.5 80.5t50 66.5t57 48.5l72 -80q-45 -42 -68.5 -91t-23.5 -114q0 -36 6 -67
t20 -56t36.5 -43t56.5 -27v360q0 30 11.5 54t30.5 40.5t44.5 25t53.5 8.5zM425 89q24 6 47.5 22.5t41.5 41.5t29.5 58t11.5 73q0 192 -103 192q-14 0 -20.5 -10t-6.5 -27v-350z" />
    <glyph glyph-name="chi" unicode="&#x3c7;" horiz-adv-x="670" 
d="M533 -60q14 -26 28 -42.5t35 -16.5q15 0 26 1.5t25 5.5l15 -120q-6 -3 -16 -6.5t-22.5 -6.5t-25.5 -4.5t-23 -1.5q-65 0 -101.5 31.5t-65.5 87.5l-81 154l-143 -258h-158l227 402l-125 240q-6 13 -11 23.5t-10.5 18.5t-13.5 12.5t-20 4.5q-15 0 -26.5 -2t-24.5 -7
l-15 102q6 3 18.5 6.5t27.5 6.5t30 4.5t26 1.5q31 0 54 -9.5t40 -25.5t30.5 -38t26.5 -46l76 -145l139 247h152l-217 -388z" />
    <glyph glyph-name="psi" unicode="&#x3c8;" horiz-adv-x="780" 
d="M321 560h137v-473q51 11 82.5 53.5t31.5 109.5v310h137v-311q0 -64 -21.5 -112.5t-57 -81.5t-80.5 -52t-92 -23v-216h-137v216q-47 5 -92 23.5t-80 52t-56.5 81.5t-21.5 112v311h137v-310q0 -66 31 -109t82 -54v473z" />
    <glyph glyph-name="omega" unicode="&#x3c9;" horiz-adv-x="740" 
d="M440 189q0 -48 13.5 -78t39.5 -30q42 0 57.5 50.5t15.5 136.5q0 25 -2.5 59.5t-13 67t-31 56.5t-56.5 27v99q60 -2 105.5 -25.5t75.5 -64.5t45.5 -96.5t15.5 -122.5q0 -139 -49.5 -213t-155.5 -74q-42 0 -77.5 23t-52.5 53q-17 -30 -51.5 -53t-76.5 -23q-106 0 -155.5 74
t-49.5 213q0 67 15.5 122.5t45.5 96.5t75.5 64.5t105.5 25.5v-99q-36 -3 -56.5 -27t-31 -56.5t-13 -67t-2.5 -59.5q0 -86 15.5 -136.5t57.5 -50.5q26 0 39.5 30t13.5 78v156h138v-156z" />
    <glyph glyph-name="uni0401" unicode="&#x401;" horiz-adv-x="590" 
d="M548 16q-80 -9 -155 -12.5t-150 -3.5q-81 0 -126.5 33.5t-45.5 109.5v629h464v-107h-316v-208h300v-107h-300v-184q0 -30 17.5 -43.5t50.5 -13.5h261v-93zM109 907q0 35 22 54.5t53 19.5q30 0 51.5 -19.5t21.5 -54.5t-21.5 -55t-51.5 -20q-31 0 -53 20t-22 55zM349 907
q0 35 22 54.5t52 19.5q31 0 52.5 -19.5t21.5 -54.5t-21.5 -55t-52.5 -20q-30 0 -52 20t-22 55z" />
    <glyph glyph-name="uni0410" unicode="&#x410;" horiz-adv-x="730" 
d="M164 0h-148q24 77 56 176t69.5 204t79.5 207t86 185h115q29 -55 57.5 -119t55 -132t52 -138t48 -137.5t42.5 -130t36 -115.5h-148q-14 52 -30 108t-33 113h-274q-18 -61 -34.5 -117.5t-29.5 -103.5zM364 606q-23 -47 -49.5 -120.5t-52.5 -156.5h207q-26 81 -52.5 152.5
t-52.5 124.5z" />
    <glyph glyph-name="uni0411" unicode="&#x411;" horiz-adv-x="610" 
d="M71 772h409v-105h-269v-172q26 11 55.5 17t59.5 6q50 0 95.5 -16t79.5 -48.5t54 -81.5t20 -116q0 -65 -20 -113.5t-54 -81.5t-79.5 -49.5t-95.5 -16.5q-28 0 -60.5 1.5t-66 4t-66.5 6t-62 6.5v759zM211 106q28 -3 49 -4.5t52 -1.5q66 0 94.5 38t28.5 119
q0 69 -30.5 113.5t-92.5 44.5q-52 0 -101 -21v-288z" />
    <glyph glyph-name="uni0412" unicode="&#x412;" horiz-adv-x="650" 
d="M483 423q29 -8 54 -24.5t43 -40.5t28.5 -55.5t10.5 -67.5q0 -51 -19 -94.5t-58.5 -76t-99.5 -51t-142 -18.5q-18 0 -46 1.5t-60 3.5t-64 5.5t-59 8.5v725q27 11 57 20t61 16t60 10.5t55 3.5q62 0 113.5 -14.5t88 -41.5t57 -65.5t20.5 -86.5q0 -28 -8 -53t-21.5 -45.5
t-31.5 -35.5t-39 -24zM474 238q0 31 -13.5 54t-36 38t-51.5 22.5t-60 7.5h-98v-248q28 -4 49 -5.5t51 -1.5q35 0 64 7t50 23t33 41.5t12 61.5zM294 467q30 0 56 7.5t45.5 22t31 34.5t11.5 46q0 27 -11 46.5t-29 32t-42 18.5t-50 6q-32 0 -54.5 -4.5t-36.5 -8.5v-200h79z" />
    <glyph glyph-name="uni0413" unicode="&#x413;" horiz-adv-x="565" 
d="M219 0h-148v772h454v-109h-306v-663z" />
    <glyph glyph-name="uni0414" unicode="&#x414;" horiz-adv-x="745" 
d="M70 105q38 0 60 29t22 77v561h495v-666h55v-265h-142v159h-392v-159h-142v264h44zM294 212q0 -38 -11 -63.5t-32 -43.5h254v562h-211v-455z" />
    <glyph glyph-name="uni0415" unicode="&#x415;" horiz-adv-x="590" 
d="M548 16q-35 -4 -73.5 -7t-77.5 -5t-76 -3t-67 -1q-86 0 -134.5 32.5t-48.5 110.5v629h464v-107h-316v-208h300v-107h-300v-184q0 -30 17.5 -43.5t50.5 -13.5h261v-93z" />
    <glyph glyph-name="uni0416" unicode="&#x416;" horiz-adv-x="1075" 
d="M609 0h-144v772h144v-772zM786 412l289 -412h-161l-289 414q28 40 53 78t49.5 75t49.5 73.5t52 74.5q17 23 38 37.5t45 22.5t49.5 11t51.5 3l14 -102q-20 -1 -35.5 -8t-28 -17.5t-22.5 -23.5l-20 -26q-19 -26 -35.5 -50t-32.5 -48.5t-32.5 -49.5t-34.5 -52zM289 412
q-18 27 -34.5 52t-32.5 49.5t-32.5 48.5t-35.5 50l-20 26t-22.5 23.5t-28 17.5t-35.5 8l14 102q26 0 51.5 -3t49.5 -11t45 -22.5t38 -37.5q27 -38 52 -74.5t49.5 -73.5t49.5 -75t53 -78l-289 -414h-161z" />
    <glyph glyph-name="uni0417" unicode="&#x417;" horiz-adv-x="530" 
d="M38 125q33 -14 75 -26t88 -12q45 0 76 13t49.5 33.5t27 45t8.5 48.5q0 37 -14 63t-39 42.5t-58.5 24t-73.5 7.5h-56v101h56q30 0 57 5.5t48 19t33 36t12 55.5q0 44 -27 74t-88 30q-45 0 -78 -8.5t-67 -19.5l-23 84q31 17 79 32.5t100 15.5q57 0 103 -14.5t78.5 -40.5
t50.5 -62.5t18 -79.5q0 -35 -10.5 -63.5t-28.5 -50.5t-42 -37t-51 -22v-2q31 -6 60 -22t51.5 -41.5t36 -60t13.5 -77.5q0 -52 -22 -95t-62 -73.5t-95 -47.5t-121 -17q-24 0 -51.5 4t-54 11t-49.5 16t-39 18z" />
    <glyph glyph-name="uni0418" unicode="&#x418;" horiz-adv-x="755" 
d="M684 772v-772h-142v528l-318 -528h-153v772h142v-544l310 544h161z" />
    <glyph glyph-name="uni0419" unicode="&#x419;" horiz-adv-x="755" 
d="M355 793q-35 0 -68.5 11.5t-60.5 34.5t-45 58.5t-21 83.5h120q5 -42 23 -70t52 -28q32 0 50 28t23 70h121q-3 -48 -21 -83.5t-45 -58.5t-60.5 -34.5t-67.5 -11.5zM684 772v-772h-142v528l-318 -528h-153v772h142v-544l310 544h161z" />
    <glyph glyph-name="uni041A" unicode="&#x41a;" horiz-adv-x="675" 
d="M215 0h-144v772h144v-772zM390 412l289 -412h-161l-289 414q28 40 53 78t49.5 75t49.5 73.5t52 74.5q17 23 38 37.5t45 22.5t49.5 11t51.5 3l14 -102q-20 -1 -35.5 -8t-28 -17.5t-22.5 -23.5l-20 -26q-19 -26 -35.5 -50t-32.5 -48.5t-32.5 -49.5t-34.5 -52z" />
    <glyph glyph-name="uni041B" unicode="&#x41b;" horiz-adv-x="765" 
d="M298 659v-460q0 -44 -16.5 -82.5t-49 -67.5t-79 -47t-106.5 -21l-32 102q66 13 102.5 40t36.5 76v573h540v-772h-144v659h-252z" />
    <glyph glyph-name="uni041C" unicode="&#x41c;" horiz-adv-x="930" 
d="M607 772h151q31 -86 55 -184.5t41.5 -199.5t28.5 -200.5t16 -187.5h-140q-4 59 -10.5 135.5t-16.5 155t-23.5 151t-30.5 123.5l-150 -535h-145q-14 74 -31 151t-36.5 148.5t-41.5 133.5t-46 106l-75 -569h-142l111 772h152q31 -53 59.5 -115t52.5 -130t43.5 -139.5
t32.5 -141.5h1z" />
    <glyph glyph-name="uni041D" unicode="&#x41d;" horiz-adv-x="730" 
d="M215 468h300v304h144v-772h-144v355h-300v-355h-144v772h144v-304z" />
    <glyph glyph-name="uni041E" unicode="&#x41e;" horiz-adv-x="750" 
d="M185 386q0 -66 11 -119.5t34.5 -92t59 -59t85.5 -20.5q49 0 85 20.5t59.5 59t34.5 92t11 119.5t-11 119.5t-34.5 92t-59.5 59t-85 20.5q-50 0 -85.5 -20.5t-59 -59t-34.5 -92t-11 -119.5zM713 386q0 -90 -22.5 -164t-66 -127.5t-106.5 -82.5t-143 -29t-143 29
t-106.5 82.5t-66 127.5t-22.5 164t22.5 164t66 127.5t106.5 82.5t143 29t143 -29t106.5 -82.5t66 -127.5t22.5 -164z" />
    <glyph glyph-name="uni041F" unicode="&#x41f;" horiz-adv-x="730" 
d="M659 772v-772h-144v659h-300v-659h-144v772h588z" />
    <glyph glyph-name="uni0420" unicode="&#x420;" horiz-adv-x="645" 
d="M71 0v740q64 21 129.5 35t120.5 14t105.5 -18.5t88.5 -53.5t60.5 -85.5t22.5 -114.5q0 -59 -19.5 -108t-55.5 -84t-87 -55t-114 -20q-27 0 -53 4t-53 11v-265h-145zM454 522q0 74 -33 114.5t-102 40.5q-20 0 -48 -4.5t-55 -13.5v-279q27 -9 50 -12.5t51 -3.5
q74 0 105.5 43.5t31.5 114.5z" />
    <glyph glyph-name="uni0421" unicode="&#x421;" horiz-adv-x="680" 
d="M406 677q-55 0 -96 -20.5t-68.5 -57.5t-41 -88t-13.5 -112q0 -68 13 -124t41.5 -96t73.5 -62.5t110 -22.5q45 0 89 10.5t96 25.5l24 -98q-48 -20 -103.5 -34.5t-108.5 -14.5q-101 0 -174 32.5t-120 88.5t-69 132.5t-22 164.5q0 80 25.5 150.5t73.5 123.5t116 83.5
t153 30.5q65 0 118 -14t89 -27l-20 -100q-42 11 -85 20t-101 9z" />
    <glyph glyph-name="uni0422" unicode="&#x422;" horiz-adv-x="610" 
d="M580 659h-200v-659h-148v659h-203v113h551v-113z" />
    <glyph glyph-name="uni0423" unicode="&#x423;" horiz-adv-x="660" 
d="M593 243q0 -56 -21.5 -96.5t-57.5 -70t-82.5 -48t-97 -29t-102 -14.5t-95.5 -4l-8 94q46 4 102.5 12t106 26t83 49.5t33.5 83.5v26q-35 -11 -78.5 -19t-78.5 -8q-109 0 -170.5 48t-61.5 142v337h140v-330q0 -49 25.5 -69.5t79.5 -20.5q16 0 35.5 2t39 5t37.5 6.5t31 7.5
v399h140v-529z" />
    <glyph glyph-name="uni0424" unicode="&#x424;" horiz-adv-x="765" 
d="M314 0v115q-65 6 -116 28.5t-87 58t-55 82t-19 99.5t19 99.5t55 82t87 58t116 28.5v121h139v-121q65 -6 116.5 -28.5t87 -58t54.5 -82t19 -99.5t-19 -99.5t-54.5 -82t-87 -58t-116.5 -28.5v-115h-139zM590 383q0 29 -8 55.5t-24.5 47.5t-42.5 35.5t-62 20.5v-318
q36 6 62 20.5t42.5 35.5t24.5 47.5t8 55.5zM177 383q0 -29 8 -55.5t24.5 -47.5t42.5 -35.5t62 -20.5v318q-36 -6 -62 -20.5t-42.5 -35.5t-24.5 -47.5t-8 -55.5z" />
    <glyph glyph-name="uni0425" unicode="&#x425;" horiz-adv-x="660" 
d="M253 399l-216 373h157l136 -245l135 245h152l-213 -371l239 -401h-154l-158 273l-157 -273h-158z" />
    <glyph glyph-name="uni0426" unicode="&#x426;" horiz-adv-x="705" 
d="M602 112h60v-272h-142v160h-449v772h144v-660h243v660h144v-660z" />
    <glyph glyph-name="uni0427" unicode="&#x427;" horiz-adv-x="640" 
d="M427 234q-23 -25 -59.5 -38.5t-74.5 -13.5q-106 0 -166.5 54t-60.5 162v374h142v-369q0 -60 30 -87.5t74 -27.5q56 0 85.5 34.5t29.5 91.5v358h142v-772h-142v234z" />
    <glyph glyph-name="uni0428" unicode="&#x428;" horiz-adv-x="850" 
d="M779 0h-708v772h141v-665h143v665h141v-665h141v665h142v-772z" />
    <glyph glyph-name="uni0429" unicode="&#x429;" horiz-adv-x="885" 
d="M637 772h142v-685h63v-247h-142v160h-629v772h141v-665h143v665h141v-665h141v665z" />
    <glyph glyph-name="uni042A" unicode="&#x42a;" horiz-adv-x="695" 
d="M296 106q28 -3 49 -4.5t52 -1.5q33 0 56 8t38 26.5t22 48.5t7 74q0 158 -123 158q-52 0 -101 -21v-288zM11 668v104h285v-277q26 11 55.5 17t59.5 6q50 0 95.5 -15.5t79.5 -47.5t54 -81.5t20 -117.5q0 -66 -20 -115t-54 -81.5t-79.5 -48.5t-95.5 -16q-28 0 -60.5 1.5
t-66 4t-66.5 6t-62 6.5v655h-145z" />
    <glyph glyph-name="uni042B" unicode="&#x42b;" horiz-adv-x="897" 
d="M826 0h-143v772h143v-772zM211 106q28 -3 49 -4.5t52 -1.5q33 0 56 8t38 26.5t22 48.5t7 74q0 158 -123 158q-52 0 -101 -21v-288zM71 772h140v-277q26 11 55.5 17t59.5 6q50 0 95.5 -15.5t79.5 -47.5t54 -81.5t20 -117.5q0 -66 -20 -115t-54 -81.5t-79.5 -48.5
t-95.5 -16q-28 0 -60.5 1.5t-66 4t-66.5 6t-62 6.5v759z" />
    <glyph glyph-name="uni042C" unicode="&#x42c;" horiz-adv-x="610" 
d="M211 106q28 -3 49 -4.5t52 -1.5q33 0 56 8t38 26.5t22 48.5t7 74q0 158 -123 158q-52 0 -101 -21v-288zM71 772h140v-277q26 11 55.5 17t59.5 6q50 0 95.5 -15.5t79.5 -47.5t54 -81.5t20 -117.5q0 -66 -20 -115t-54 -81.5t-79.5 -48.5t-95.5 -16q-28 0 -60.5 1.5t-66 4
t-66.5 6t-62 6.5v759z" />
    <glyph glyph-name="uni042D" unicode="&#x42d;" horiz-adv-x="660" 
d="M254 677q-58 0 -102 -9.5t-87 -20.5l-17 101q38 13 90 27t117 14q85 0 153 -30.5t116 -83.5t73.5 -123.5t25.5 -150.5q0 -88 -22 -164.5t-69 -132.5t-120 -88.5t-174 -32.5q-53 0 -108.5 14.5t-103.5 34.5l19 98q52 -15 98.5 -25.5t91.5 -10.5q58 0 100.5 18t71 51.5
t44 80t20.5 103.5h-320v104h319q-5 50 -21.5 91.5t-43.5 71.5t-64.5 46.5t-86.5 16.5z" />
    <glyph glyph-name="uni042E" unicode="&#x42e;" horiz-adv-x="920" 
d="M883 386q0 -94 -18 -168.5t-54.5 -126.5t-91.5 -80t-129 -28q-71 0 -124.5 25.5t-90 73.5t-56 117t-22.5 156h-82v-355h-144v772h144v-304h86q14 151 86 236t203 85q74 0 129 -28t91.5 -80t54.5 -126.5t18 -168.5zM443 386q0 -66 7 -120.5t24.5 -94t45.5 -61t70 -21.5
t70 21.5t45.5 61t24.5 94t7 120.5t-7 120.5t-24.5 94t-45.5 61t-70 21.5t-70 -21.5t-45.5 -61t-24.5 -94t-7 -120.5z" />
    <glyph glyph-name="uni042F" unicode="&#x42f;" horiz-adv-x="635" 
d="M0 0q15 42 34.5 87.5t43 89.5t49.5 83.5t53 69.5q-30 13 -53 36t-38 51.5t-23 60.5t-8 64q0 64 21 110.5t56.5 77t82 45t98.5 14.5q29 0 62 -4.5t66 -11.5t64 -15.5t56 -16.5v-741h-145v300h-71q-19 0 -29.5 -4.5t-21.5 -15.5q-19 -22 -40.5 -55.5t-41.5 -72t-38 -78.5
t-29 -74h-148zM202 547q0 -37 10.5 -62.5t30 -41t46.5 -22.5t59 -7h71v245q-26 8 -48.5 12.5t-50.5 4.5q-24 0 -45.5 -7t-37.5 -22.5t-25.5 -40t-9.5 -59.5z" />
    <glyph glyph-name="uni0430" unicode="&#x430;" horiz-adv-x="585" 
d="M381 247q-32 8 -61.5 14.5t-58.5 6.5q-39 0 -62.5 -23t-23.5 -68q0 -46 25.5 -68t67.5 -22q23 0 52 3t61 11v146zM382 376q0 47 -25.5 72.5t-85.5 25.5q-48 0 -85 -2t-75 -5l-8 87q20 4 43.5 8.5t47 7.5t45.5 5t40 2q115 0 177.5 -55t62.5 -164v-319q-27 -11 -62.5 -20.5
t-73 -17.5t-74 -12.5t-67.5 -4.5q-47 0 -85 14t-64.5 39.5t-41 61t-14.5 78.5q0 41 15 76.5t42.5 61.5t66.5 41t86 15q35 0 69 -8t66 -19v32z" />
    <glyph glyph-name="uni0431" unicode="&#x431;" horiz-adv-x="650" 
d="M37 284q0 85 12 150t34 113.5t53 82t69 54.5q44 25 80.5 47t49.5 54l99 -42q-12 -41 -42 -67.5t-79 -48.5q-26 -12 -51 -30t-38 -44q21 11 49.5 17.5t52.5 6.5q61 0 114 -19.5t92 -56.5t61 -92t22 -125q0 -71 -22 -127t-61 -95t-92 -60t-114 -21t-113.5 21t-91.5 60
t-61.5 95t-22.5 127zM473 284q0 39 -8.5 73t-26.5 60t-45.5 41t-66.5 15t-66.5 -15t-45.5 -41t-26.5 -60t-8.5 -73t8 -74.5t25 -63.5t45 -44.5t69 -16.5q40 0 68.5 16.5t45.5 44.5t25 63.5t8 74.5z" />
    <glyph glyph-name="uni0432" unicode="&#x432;" horiz-adv-x="535" 
d="M403 295q57 -19 81.5 -55t24.5 -84q0 -34 -11.5 -65t-37 -55t-67 -38t-100.5 -14q-22 0 -50.5 2t-59.5 5t-61.5 7.5t-55.5 9.5v521q16 7 43 15.5t58.5 15.5t63 12t57.5 5q84 0 134.5 -42.5t50.5 -116.5q0 -42 -17.5 -74t-52.5 -49zM383 161q0 44 -25 61t-78 17h-77v-146
q25 -5 45.5 -7t34.5 -2q47 0 73.5 19.5t26.5 57.5zM281 337q35 0 50.5 20t15.5 52q0 35 -19 51.5t-50 16.5q-19 0 -35.5 -3t-39.5 -10v-127h78z" />
    <glyph glyph-name="uni0433" unicode="&#x433;" horiz-adv-x="465" 
d="M452 454h-246v-454h-140v560h386v-106z" />
    <glyph glyph-name="uni0434" unicode="&#x434;" horiz-adv-x="620" 
d="M70 104q33 0 51.5 23t18.5 65v368h399v-456h54v-269h-138v165h-291v-165h-138v269h44zM278 192q0 -28 -10 -52t-31 -36h166v352h-125v-264z" />
    <glyph glyph-name="uni0435" unicode="&#x435;" horiz-adv-x="570" 
d="M314 87q24 0 44.5 2t40.5 6t41.5 10.5t45.5 14.5l24 -93q-44 -17 -98.5 -30t-108.5 -13q-128 0 -197 76.5t-69 219.5q0 146 65 221.5t186 75.5q67 0 113.5 -23t75 -59.5t41.5 -80.5t15 -86q1 -20 0.5 -44.5t-1.5 -42.5h-351q0 -70 31 -112t102 -42zM181 344h213
q-1 24 -7 47t-19 41.5t-32.5 30t-47.5 11.5t-47.5 -11t-32.5 -29t-19.5 -41.5t-7.5 -48.5z" />
    <glyph glyph-name="uni0436" unicode="&#x436;" horiz-adv-x="880" 
d="M517 308l173 212q28 34 65 45.5t92 11.5l5 -92q-23 0 -46 -15.5t-42 -39.5l-101 -127l217 -303h-150zM150 0h-150l217 303l-101 127q-19 24 -42 39.5t-46 15.5l5 92q55 0 92 -11.5t65 -45.5l173 -212zM510 0h-138v560h138v-560z" />
    <glyph glyph-name="uni0437" unicode="&#x437;" horiz-adv-x="480" 
d="M451 162q0 -37 -13 -69.5t-39.5 -56.5t-66.5 -38t-94 -14q-60 0 -115 20.5t-93 65.5l68 73q29 -32 61 -46t68 -14q42 0 65 21.5t23 60.5q0 36 -25.5 55.5t-63.5 19.5h-101v97h104q30 0 51.5 20.5t21.5 57.5q0 32 -22 48t-58 16q-31 0 -58.5 -12.5t-53.5 -30.5l-59 70
q40 35 84 53t102 18q47 0 84.5 -12.5t63.5 -34t40 -50.5t14 -62q0 -39 -20 -71.5t-56 -52.5q42 -19 65 -54t23 -78z" />
    <glyph glyph-name="uni0438" unicode="&#x438;" horiz-adv-x="605" 
d="M66 0v560h137v-339l180 339h156v-560h-137v353l-192 -353h-144z" />
    <glyph glyph-name="uni0439" unicode="&#x439;" horiz-adv-x="605" 
d="M303 593q-35 0 -68.5 11.5t-60.5 34.5t-45 58.5t-21 83.5h120q5 -42 23 -70t52 -28q32 0 50 28t23 70h121q-3 -48 -21 -83.5t-45 -58.5t-60.5 -34.5t-67.5 -11.5zM66 0v560h137v-339l180 339h156v-560h-137v353l-192 -353h-144z" />
    <glyph glyph-name="uni043A" unicode="&#x43a;" horiz-adv-x="585" 
d="M218 308l173 212q28 34 65 45.5t92 11.5l5 -92q-23 0 -46 -15.5t-42 -39.5l-101 -127l217 -303h-150zM209 0h-138v560h138v-560z" />
    <glyph glyph-name="uni043B" unicode="&#x43b;" horiz-adv-x="640" 
d="M14 77q32 14 54 29t35.5 34t19.5 45t6 62v313h445v-560h-141v453h-163v-206q0 -105 -54 -171.5t-155 -86.5z" />
    <glyph glyph-name="uni043C" unicode="&#x43c;" horiz-adv-x="675" 
d="M425 560h120q22 -61 40 -132t31 -145t21 -147t11 -136h-127q-2 31 -5.5 72t-9 84.5t-11.5 87t-13 79.5q-26 -85 -47 -160t-41 -144h-129q-8 40 -17 82t-19.5 83.5t-21.5 79.5t-21 70l-50 -334h-129l82 560h126q16 -29 33 -73.5t33.5 -94t30.5 -98.5t24 -88z" />
    <glyph glyph-name="uni043D" unicode="&#x43d;" horiz-adv-x="600" 
d="M534 0h-140v246h-188v-246h-140v560h140v-207h188v207h140v-560z" />
    <glyph glyph-name="uni043E" unicode="&#x43e;" horiz-adv-x="650" 
d="M473 280q0 39 -8.5 74t-26.5 61.5t-45.5 42t-66.5 15.5t-66.5 -15.5t-45.5 -42t-26.5 -61.5t-8.5 -74t8 -74t25 -62t45 -43t69 -16q40 0 68.5 16t45.5 43t25 62t8 74zM615 280q0 -71 -22 -126.5t-61 -93.5t-92 -58.5t-114 -20.5t-113.5 20.5t-91.5 58.5t-61.5 93.5
t-22.5 126.5q0 70 22.5 125.5t61.5 93.5t91.5 58t113.5 20t114 -20t92 -58t61 -93.5t22 -125.5z" />
    <glyph glyph-name="uni043F" unicode="&#x43f;" horiz-adv-x="600" 
d="M534 560v-560h-140v454h-188v-454h-140v560h468z" />
    <glyph glyph-name="uni0440" unicode="&#x440;" horiz-adv-x="610" 
d="M71 508q58 28 123.5 48.5t131.5 20.5q50 0 95.5 -19.5t79.5 -57t54 -93t20 -126.5q0 -72 -20 -127t-54 -93t-79.5 -57.5t-95.5 -19.5q-30 0 -60.5 5.5t-54.5 15.5v-235l-140 -13v751zM211 114q28 -14 51.5 -20.5t49.5 -6.5q69 0 96 48.5t27 144.5q0 99 -29.5 145.5
t-98.5 46.5q-26 0 -49 -5.5t-47 -14.5v-338z" />
    <glyph glyph-name="uni0441" unicode="&#x441;" horiz-adv-x="540" 
d="M185 282q0 -94 28.5 -144t91.5 -50q40 0 86.5 9.5t87.5 27.5l30 -93q-24 -12 -52.5 -21t-58 -15t-57.5 -9t-51 -3q-57 0 -103.5 21t-78.5 59.5t-49.5 93.5t-17.5 124t17.5 123.5t49.5 92.5t78.5 58.5t103.5 20.5q47 0 104 -12t105 -35l-28 -92q-41 18 -86 26.5t-80 8.5
q-34 0 -57 -14t-37 -39t-20 -60t-6 -78z" />
    <glyph glyph-name="uni0442" unicode="&#x442;" horiz-adv-x="520" 
d="M190 0v454h-163v106h466v-106h-164v-454h-139z" />
    <glyph glyph-name="uni0443" unicode="&#x443;" horiz-adv-x="620" 
d="M553 -8q0 -83 -40 -135t-101.5 -81t-134.5 -39t-140 -10l-8 94q50 4 100.5 12.5t91.5 27t67 50.5t26 84v35q-35 -11 -68.5 -19t-68.5 -8q-101 0 -156.5 45.5t-55.5 139.5v372h140v-365q0 -49 19 -67t66 -18q32 0 64.5 6.5t58.5 14.5v429h140v-568z" />
    <glyph glyph-name="uni0444" unicode="&#x444;" horiz-adv-x="940" 
d="M541 772v-212q29 8 57.5 12.5t57.5 4.5q50 0 95.5 -19.5t79.5 -57t54 -93t20 -126.5q0 -72 -20 -127t-54 -93t-79.5 -57.5t-95.5 -19.5q-30 0 -60.5 5.5t-54.5 15.5v-241h-140v241q-24 -10 -54.5 -15.5t-60.5 -5.5q-50 0 -95.5 19.5t-79.5 57.5t-54 93t-20 127
q0 71 20 126.5t54 93t79.5 57t95.5 19.5q29 0 57.5 -4.5t57.5 -12.5v212h140zM541 114q28 -14 51.5 -20.5t49.5 -6.5q69 0 96 48.5t27 144.5q0 99 -29.5 145.5t-98.5 46.5q-26 0 -49 -6t-47 -15v-337zM401 451q-24 9 -47 15t-49 6q-69 0 -98.5 -46.5t-29.5 -145.5
q0 -96 27 -144.5t96 -48.5q26 0 49.5 6.5t51.5 20.5v337z" />
    <glyph glyph-name="uni0445" unicode="&#x445;" horiz-adv-x="580" 
d="M289 183l-117 -183h-149l191 292l-173 268h148l97 -157l98 157h148l-174 -267l192 -293h-148z" />
    <glyph glyph-name="uni0446" unicode="&#x446;" horiz-adv-x="635" 
d="M61 0v560h141v-453h186v453h141v-453h63v-267h-142v160h-389z" />
    <glyph glyph-name="uni0447" unicode="&#x447;" horiz-adv-x="600" 
d="M400 0v136q-27 -24 -64 -39.5t-85 -15.5q-44 0 -79.5 10.5t-60 33t-38 58t-13.5 85.5v292h138v-280q0 -51 18 -73.5t60 -22.5q25 0 47.5 7t39.5 20.5t27 33t10 45.5v270h138v-560h-138z" />
    <glyph glyph-name="uni0448" unicode="&#x448;" horiz-adv-x="805" 
d="M66 0v560h138v-453h130v453h137v-453h130v453h138v-560h-673z" />
    <glyph glyph-name="uni0449" unicode="&#x449;" horiz-adv-x="845" 
d="M66 0v560h138v-453h130v453h137v-453h130v453h138v-453h63v-267h-142v160h-594z" />
    <glyph glyph-name="uni044A" unicode="&#x44a;" horiz-adv-x="590" 
d="M250 560v-185q23 11 50 17t44 6q53 0 93 -17t66.5 -45t39.5 -65t13 -77q0 -46 -17.5 -83t-49 -63.5t-76 -40.5t-97.5 -14q-48 0 -101 5t-99 10v449h-92v103h226zM423 196q0 99 -88 99q-31 0 -49.5 -7.5t-35.5 -13.5v-174q14 -2 31 -4t39 -2q48 0 75.5 25.5t27.5 76.5z
" />
    <glyph glyph-name="uni044B" unicode="&#x44b;" horiz-adv-x="775" 
d="M570 0v560h139v-560h-139zM200 560v-185q23 11 50 17t44 6q53 0 93 -17t66.5 -45t39.5 -65t13 -77q0 -46 -17.5 -83t-49 -63.5t-76 -40.5t-97.5 -14q-48 0 -101 5t-99 10v552h134zM373 196q0 99 -88 99q-31 0 -49.5 -7.5t-35.5 -13.5v-174q14 -2 31 -4t39 -2
q48 0 75.5 25.5t27.5 76.5z" />
    <glyph glyph-name="uni044C" unicode="&#x44c;" horiz-adv-x="540" 
d="M200 560v-185q23 11 50 17t44 6q53 0 93 -17t66.5 -45t39.5 -65t13 -77q0 -46 -17.5 -83t-49 -63.5t-76 -40.5t-97.5 -14q-48 0 -101 5t-99 10v552h134zM373 196q0 99 -88 99q-31 0 -49.5 -7.5t-35.5 -13.5v-174q14 -2 31 -4t39 -2q48 0 75.5 25.5t27.5 76.5z" />
    <glyph glyph-name="uni044D" unicode="&#x44d;" horiz-adv-x="534" 
d="M120 341h236q-8 61 -34.5 96.5t-81.5 35.5q-35 0 -80 -8.5t-86 -26.5l-28 92q48 23 105 35t104 12q57 0 103.5 -20.5t78.5 -58.5t49.5 -92.5t17.5 -123.5t-17.5 -124t-49.5 -93.5t-78.5 -59.5t-103.5 -21q-23 0 -51.5 3t-57.5 9t-57.5 15t-52.5 21l30 93
q41 -18 87.5 -27.5t86.5 -9.5q56 0 84.5 38.5t33.5 113.5h-238v101z" />
    <glyph glyph-name="uni044E" unicode="&#x44e;" horiz-adv-x="805" 
d="M770 279q0 -71 -17.5 -126t-50.5 -93.5t-80 -58.5t-106 -20q-107 0 -172.5 64.5t-78.5 181.5h-59v-227h-140v560h140v-219h59q14 114 79.5 175t171.5 61q59 0 106 -20t80 -58.5t50.5 -94t17.5 -125.5zM631 279q0 93 -28 145t-87 52t-87 -52t-28 -145q0 -92 26.5 -144.5
t88.5 -52.5t88.5 52.5t26.5 144.5z" />
    <glyph glyph-name="uni044F" unicode="&#x44f;" horiz-adv-x="540" 
d="M337 0v192h-56q-17 0 -27 -9t-14 -14q-34 -47 -54 -87.5t-37 -81.5h-142q7 21 20 49.5t29.5 58.5t35 57.5t36.5 46.5q-53 24 -78.5 68.5t-25.5 102.5q0 46 16 82.5t44 61t66 37.5t82 13q32 0 65.5 -4.5t65.5 -12t60.5 -16t50.5 -17.5v-527h-137zM162 385q0 -42 21 -67
t52 -25h102v171q-18 6 -41.5 9.5t-51.5 3.5q-37 0 -59.5 -23.5t-22.5 -68.5z" />
    <glyph glyph-name="uni0451" unicode="&#x451;" horiz-adv-x="570" 
d="M314 87q24 0 44.5 2t40.5 6t41.5 10.5t45.5 14.5l24 -93q-44 -17 -98.5 -30t-108.5 -13q-128 0 -197 76.5t-69 219.5q0 146 65 221.5t186 75.5q67 0 113.5 -23t75 -59.5t41.5 -80.5t15 -86q1 -20 0.5 -44.5t-1.5 -42.5h-351q0 -70 31 -112t102 -42zM181 344h213
q-1 24 -7 47t-19 41.5t-32.5 30t-47.5 11.5t-47.5 -11t-32.5 -29t-19.5 -41.5t-7.5 -48.5zM97 707q0 35 22 54.5t53 19.5q30 0 51.5 -19.5t21.5 -54.5t-21.5 -55t-51.5 -20q-31 0 -53 20t-22 55zM337 707q0 35 22 54.5t52 19.5q31 0 52.5 -19.5t21.5 -54.5t-21.5 -55
t-52.5 -20q-30 0 -52 20t-22 55z" />
    <glyph glyph-name="uni2010" unicode="&#x2010;" 
 />
    <glyph glyph-name="endash" unicode="&#x2013;" horiz-adv-x="620" 
d="M49 437h522v-108h-522v108z" />
    <glyph glyph-name="emdash" unicode="&#x2014;" 
d="M883 447v-108h-860v108h860z" />
    <glyph glyph-name="uni2016" unicode="&#x2016;" horiz-adv-x="920" 
d="M398 0h-136v772h136v-772zM658 0h-137v772h137v-772z" />
    <glyph glyph-name="quoteleft" unicode="&#x2018;" horiz-adv-x="280" 
d="M241 623q0 -38 -24.5 -60.5t-58.5 -22.5q-41 0 -64.5 28.5t-23.5 80.5q0 53 15 91t39.5 63.5t56.5 39.5t66 19l14 -50q-44 -15 -72 -39.5t-28 -67.5q38 -2 59 -25t21 -57z" />
    <glyph glyph-name="quoteright" unicode="&#x2019;" horiz-adv-x="280" 
d="M39 779q0 38 24.5 60.5t58.5 22.5q41 0 64.5 -28.5t23.5 -80.5q0 -53 -15 -91t-40 -63.5t-56.5 -39.5t-65.5 -19l-14 50q44 15 72 39.5t28 67.5q-38 2 -59 25t-21 57z" />
    <glyph glyph-name="quotereversed" unicode="&#x201b;" 
 />
    <glyph glyph-name="quotedblleft" unicode="&#x201c;" horiz-adv-x="490" 
d="M241 623q0 -38 -24.5 -60.5t-58.5 -22.5q-41 0 -64.5 28.5t-23.5 80.5q0 53 15 91t39.5 63.5t56.5 39.5t66 19l14 -50q-44 -15 -72 -39.5t-28 -67.5q38 -2 59 -25t21 -57zM451 623q0 -38 -24.5 -60.5t-58.5 -22.5q-41 0 -64.5 28.5t-23.5 80.5q0 53 15 91t39.5 63.5
t56.5 39.5t66 19l14 -50q-44 -15 -72 -39.5t-28 -67.5q38 -2 59 -25t21 -57z" />
    <glyph glyph-name="quotedblright" unicode="&#x201d;" horiz-adv-x="490" 
d="M39 779q0 38 24.5 60.5t58.5 22.5q41 0 64.5 -28.5t23.5 -80.5q0 -53 -15 -91t-40 -63.5t-56.5 -39.5t-65.5 -19l-14 50q44 15 72 39.5t28 67.5q-38 2 -59 25t-21 57zM249 779q0 38 24.5 60.5t58.5 22.5q41 0 64.5 -28.5t23.5 -80.5q0 -53 -15 -91t-40 -63.5t-56.5 -39.5
t-65.5 -19l-14 50q44 15 72 39.5t28 67.5q-38 2 -59 25t-21 57z" />
    <glyph glyph-name="uni201F" unicode="&#x201f;" 
 />
    <glyph glyph-name="dagger" unicode="&#x2020;" horiz-adv-x="920" 
d="M389 -54v585h-157v107h157v187h141v-187h158v-107h-158v-585h-141z" />
    <glyph glyph-name="daggerdbl" unicode="&#x2021;" horiz-adv-x="920" 
d="M389 -54v405h-156v106h156v78h-156v105h156v185h140v-185h157v-105h-157v-78h157v-106h-157v-405h-140z" />
    <glyph glyph-name="bullet" unicode="&#x2022;" horiz-adv-x="690" 
d="M554 417q0 -49 -17 -88t-45.5 -66t-66.5 -41.5t-80 -14.5q-44 0 -82 14.5t-66.5 41.5t-45 66t-16.5 88q0 48 16.5 86.5t45 65.5t66.5 42t82 15q42 0 80 -15t66.5 -42t45.5 -65.5t17 -86.5z" />
    <glyph glyph-name="twodotenleader" unicode="&#x2025;" horiz-adv-x="600" 
d="M376 40q0 38 24.5 60t58.5 22t58 -22t24 -60t-24 -60.5t-58 -22.5t-58.5 22.5t-24.5 60.5zM59 40q0 38 24.5 60t58.5 22t58 -22t24 -60t-24 -60.5t-58 -22.5t-58.5 22.5t-24.5 60.5z" />
    <glyph glyph-name="ellipsis" unicode="&#x2026;" horiz-adv-x="915" 
d="M693 40q0 38 24.5 60t58.5 22t58 -22t24 -60t-24 -60.5t-58 -22.5t-58.5 22.5t-24.5 60.5zM376 40q0 38 24.5 60t58.5 22t58 -22t24 -60t-24 -60.5t-58 -22.5t-58.5 22.5t-24.5 60.5zM59 40q0 38 24.5 60t58.5 22t58 -22t24 -60t-24 -60.5t-58 -22.5t-58.5 22.5
t-24.5 60.5z" />
    <glyph glyph-name="ellipsis" unicode="&#x22ef;" horiz-adv-x="915" 
d="M693 40q0 38 24.5 60t58.5 22t58 -22t24 -60t-24 -60.5t-58 -22.5t-58.5 22.5t-24.5 60.5zM376 40q0 38 24.5 60t58.5 22t58 -22t24 -60t-24 -60.5t-58 -22.5t-58.5 22.5t-24.5 60.5zM59 40q0 38 24.5 60t58.5 22t58 -22t24 -60t-24 -60.5t-58 -22.5t-58.5 22.5
t-24.5 60.5z" />
    <glyph glyph-name="perthousand" unicode="&#x2030;" horiz-adv-x="920" 
d="M158 20h-109l396 752h107zM796 181q0 50 -9 73t-27 23t-27 -23t-9 -73t9 -73t27 -23t27 23t9 73zM904 181q0 -33 -9 -64.5t-27 -56t-45 -39t-63 -14.5t-63 14.5t-45 39t-27 56t-9 64.5t9 64.5t27 56t45 39t63 14.5t63 -14.5t45 -39t27 -56t9 -64.5zM483 181q0 50 -9 73
t-27 23t-27 -23t-9 -73t9 -73t27 -23t27 23t9 73zM591 181q0 -33 -9 -64.5t-27 -56t-45 -39t-63 -14.5t-63 14.5t-45 39t-27 56t-9 64.5t9 64.5t27 56t45 39t63 14.5t63 -14.5t45 -39t27 -56t9 -64.5zM196 611q0 50 -9 73t-27 23t-27 -23t-9 -73t9 -73t27 -23t27 23t9 73z
M304 611q0 -33 -9 -64.5t-27 -56t-45 -39t-63 -14.5t-63 14.5t-45 39t-27 56t-9 64.5t9 64.5t27 56t45 39t63 14.5t63 -14.5t45 -39t27 -56t9 -64.5z" />
    <glyph glyph-name="minute" unicode="&#x2032;" horiz-adv-x="330" 
d="M133 828h122l-111 -230h-86z" />
    <glyph glyph-name="second" unicode="&#x2033;" horiz-adv-x="505" 
d="M134 828h121l-111 -230h-86zM306 828h121l-111 -230h-85z" />
    <glyph glyph-name="uni2034" unicode="&#x2034;" 
 />
    <glyph glyph-name="uni2035" unicode="&#x2035;" 
 />
    <glyph glyph-name="uni2036" unicode="&#x2036;" 
 />
    <glyph glyph-name="guilsinglleft" unicode="&#x2039;" 
 />
    <glyph glyph-name="guilsinglright" unicode="&#x203a;" 
 />
    <glyph glyph-name="uni203B" unicode="&#x203b;" horiz-adv-x="920" 
d="M119 737h123l217 -245l218 245h123l-279 -314l279 -313h-123l-218 244l-217 -244h-123l279 313zM251 423q0 -27 -18 -45t-46 -18q-29 0 -47 18t-18 45q0 26 18 44t47 18q28 0 46 -18t18 -44zM797 423q0 -27 -18 -45t-46 -18q-29 0 -47 18t-18 45q0 26 18 44t47 18
q28 0 46 -18t18 -44zM524 685q0 -27 -18 -45t-46 -18t-46 18t-18 45q0 26 18 44t46 18t46 -18t18 -44zM524 156q0 -26 -18 -44t-46 -18t-46 18t-18 44q0 27 18 45t46 18t46 -18t18 -45z" />
    <glyph glyph-name="exclamdbl" unicode="&#x203c;" 
 />
    <glyph glyph-name="uni2042" unicode="&#x2042;" 
 />
    <glyph glyph-name="uni204E" unicode="&#x204e;" horiz-adv-x="550" 
d="M362 456l152 -107l-42 -61l-148 81l-13 -151h-78l-9 150l-149 -78l-40 60l151 106l-151 116l40 60l149 -88l9 150h78l13 -151l148 91l42 -61z" />
    <glyph glyph-name="uni2074" unicode="&#x2074;" horiz-adv-x="450" 
d="M337 543h41v-76h-41v-92h-97v92h-175v37q0 18 11 38l127 223h134v-222zM240 655l-58 -112h58v112z" />
    <glyph glyph-name="uni207A" unicode="&#x207a;" 
 />
    <glyph glyph-name="uni207B" unicode="&#x207b;" 
 />
    <glyph glyph-name="uni207C" unicode="&#x207c;" 
 />
    <glyph glyph-name="uni207D" unicode="&#x207d;" 
 />
    <glyph glyph-name="uni207E" unicode="&#x207e;" 
 />
    <glyph glyph-name="uni207F" unicode="&#x207f;" horiz-adv-x="450" 
d="M47 375v355q19 7 43 14.5t49.5 14t51 10.5t48.5 4q76 0 112 -33.5t36 -96.5v-268h-111v265q0 33 -11 45t-37 12q-16 0 -35.5 -4.5t-33.5 -8.5v-309h-112z" />
    <glyph glyph-name="uni2081" unicode="&#x2081;" horiz-adv-x="450" 
d="M105 86h75v205q-11 -2 -31.5 -6.5t-33.5 -6.5l-16 63q11 4 27 11t32.5 14t32 13.5t26.5 11.5h78v-305h74v-86h-264v86z" />
    <glyph glyph-name="uni2082" unicode="&#x2082;" horiz-adv-x="450" 
d="M215 76h146v-76h-272v54q0 16 5 26.5t18 25.5l106 126q26 32 26 58q0 32 -32 32q-28 0 -52.5 -7.5t-50.5 -15.5l-16 69q32 14 63.5 22t61.5 8q69 0 104.5 -26.5t35.5 -77.5q0 -21 -8 -44.5t-30 -49.5z" />
    <glyph glyph-name="uni2083" unicode="&#x2083;" horiz-adv-x="450" 
d="M198 70q52 0 52 59q0 60 -39 60q-9 0 -19 -2t-22 -7l-44 30l73 104h-93v77h214l30 -29l-77 -115q45 -11 68 -41.5t23 -75.5q0 -61 -40 -99t-125 -38q-24 0 -56 7t-60 20l18 72q29 -11 54.5 -16.5t42.5 -5.5z" />
    <glyph glyph-name="uni2084" unicode="&#x2084;" horiz-adv-x="450" 
d="M337 168h41v-76h-41v-92h-97v92h-175v37q0 18 11 38l127 223h134v-222zM240 280l-58 -112h58v112z" />
    <glyph glyph-name="uni20A9" unicode="&#x20a9;" 
 />
    <glyph glyph-name="Euro" unicode="&#x20ac;" horiz-adv-x="920" 
d="M99 300h120q-4 24 -6 49.5t-2 51.5v22h-112v103h129q16 57 47.5 105t76.5 83.5t102 55t125 19.5q65 0 118 -14t89 -27l-20 -100q-42 11 -85 20t-101 9q-79 0 -129 -41t-72 -110h162v-103h-180v-24q0 -26 1.5 -51t5.5 -48h173v-103h-137q28 -49 75.5 -76t119.5 -27
q45 0 89 10.5t96 25.5l24 -98q-48 -20 -103.5 -34.5t-108.5 -14.5q-138 0 -223.5 58.5t-125.5 155.5h-148v103z" />
    <glyph glyph-name="uni2103" unicode="&#x2103;" horiz-adv-x="920" 
d="M652 677q-55 0 -96 -20.5t-68.5 -57.5t-41 -88t-13.5 -112q0 -68 13 -124t41.5 -96t73.5 -62.5t110 -22.5q45 0 89 10.5t96 25.5l24 -98q-48 -20 -103.5 -34.5t-108.5 -14.5q-101 0 -174 32.5t-120 88.5t-69 132.5t-22 164.5q0 80 25.5 150.5t73.5 123.5t116 83.5
t153 30.5q65 0 118 -14t89 -27l-20 -100q-42 11 -85 20t-101 9zM283 678q0 -26 -10.5 -47t-29 -36.5t-43 -24t-52.5 -8.5q-27 0 -51.5 8.5t-43 24t-29 36.5t-10.5 47t10.5 47.5t29 36.5t43 23.5t51.5 8.5q28 0 52.5 -8.5t43 -23.5t29 -36.5t10.5 -47.5zM103 678
q0 -22 13.5 -35t31.5 -13q19 0 32 13t13 35t-13 35t-32 13q-18 0 -31.5 -13t-13.5 -35z" />
    <glyph glyph-name="uni2109" unicode="&#x2109;" horiz-adv-x="920" 
d="M544 0h-148v772h454v-109h-306v-207q19 8 44 12.5t51 4.5h195v-109h-212q-16 0 -37.5 -2.5t-40.5 -6.5v-355zM323 678q0 -26 -10.5 -47t-29 -36.5t-43 -24t-52.5 -8.5q-27 0 -51.5 8.5t-43 24t-29 36.5t-10.5 47t10.5 47.5t29 36.5t43 23.5t51.5 8.5q28 0 52.5 -8.5
t43 -23.5t29 -36.5t10.5 -47.5zM143 678q0 -22 13.5 -35t31.5 -13q19 0 32 13t13 35t-13 35t-32 13q-18 0 -31.5 -13t-13.5 -35z" />
    <glyph glyph-name="uni2113" unicode="&#x2113;" horiz-adv-x="590" 
d="M68 108q20 2 50 6.5t50 9.5q-29 55 -42.5 118.5t-13.5 127.5q0 87 15 157t42.5 120t66.5 77t88 27q42 0 72.5 -17.5t50.5 -47t30 -67t10 -77.5q0 -48 -8.5 -106t-27 -117t-46.5 -116t-67 -105q7 -12 19 -12q20 0 43.5 25t47.5 60l81 -64q-15 -26 -35 -48.5t-43.5 -39.5
t-49 -26.5t-51.5 -9.5q-37 0 -66.5 11t-54.5 43q-12 -4 -28 -7.5t-34 -6.5t-37 -5t-36 -2zM325 649q-16 0 -30 -23t-24.5 -61.5t-17 -88.5t-6.5 -104q0 -48 6.5 -91t17.5 -72q22 37 37.5 81.5t25 89.5t14 87.5t4.5 74.5q0 44 -7 75.5t-20 31.5z" />
    <glyph glyph-name="uni2116" unicode="&#x2116;" horiz-adv-x="920" 
d="M494 0v106h383v-106h-383zM752 429q0 51 -5.5 83.5t-15 51t-21.5 25.5t-25 7t-25 -7t-21.5 -25.5t-15 -51t-5.5 -83.5t5.5 -83.5t15 -51t21.5 -25.5t25 -7t25 7t21.5 25.5t15 51t5.5 83.5zM329 772h124v-772h-146q-11 66 -25.5 140.5t-32.5 148t-39 142.5t-43 123v-554
h-123v772h143q19 -44 39.5 -98t39.5 -113.5t35.5 -122t27.5 -122.5v456zM877 429q0 -127 -52 -197.5t-140 -70.5t-140 70.5t-52 197.5t52 197.5t140 70.5t140 -70.5t52 -197.5z" />
    <glyph glyph-name="uni2121" unicode="&#x2121;" horiz-adv-x="920" 
d="M114 0v658h-106v114h350v-114h-113v-658h-131zM872 -18q-71 24 -100.5 67.5t-29.5 99.5v633l131 10v-625q0 -24 3 -41t9 -29.5t14.5 -21.5t19.5 -18zM521 81q39 0 69 7.5t67 19.5l20 -87q-31 -17 -76 -27t-91 -10q-110 0 -166 74t-56 221q0 69 13.5 124t40 93.5t66 59.5
t90.5 21q59 0 97.5 -24t61.5 -61t33 -81t11 -84q1 -20 0.5 -47t-1.5 -45h-277q0 -35 4.5 -63.5t15.5 -48.5t30 -31t48 -11zM423 331h149q-2 70 -17.5 110t-56.5 40q-40 0 -56 -38.5t-19 -111.5z" />
    <glyph glyph-name="trademark" unicode="&#x2122;" horiz-adv-x="920" 
d="M704 834h102q19 -53 33.5 -112t25 -119.5t17 -118.5t9.5 -109h-112q-1 25 -3.5 58t-6 68t-8 69t-9.5 61q-18 -60 -33 -120.5t-32 -120.5h-112q-6 32 -12.5 66.5t-13.5 67.5t-14.5 63.5t-15.5 54.5q-10 -63 -19.5 -134.5t-18.5 -132.5h-113l66 459h106q32 -55 55.5 -124
t39.5 -132zM274 742v-368h-128v368h-124v92h377v-92h-125z" />
    <glyph glyph-name="Omega" unicode="&#x2126;" horiz-adv-x="730" 
d="M365 684q-42 0 -77.5 -15t-61.5 -44.5t-41 -73t-15 -100.5q0 -54 10.5 -91.5t30 -64.5t47.5 -45t64 -33v-217h-284v107h147v50q-70 43 -113.5 114t-43.5 180q0 72 25 134t69.5 107t106.5 71t136 26t136 -26t106.5 -71t69.5 -107t25 -134q0 -54 -13 -99t-35.5 -81
t-53 -64.5t-65.5 -49.5v-50h157v-107h-294v217q36 15 65.5 33t51 45t33.5 64.5t12 91.5q0 57 -15 100.5t-41 73t-61.5 44.5t-77.5 15z" />
    <glyph glyph-name="uni212B" unicode="&#x212b;" horiz-adv-x="920" 
d="M594 913q0 -26 -10.5 -47t-29 -36.5t-43 -24t-52.5 -8.5q-27 0 -51.5 8.5t-43 24t-29 36.5t-10.5 47t10.5 47.5t29 36.5t43 23.5t51.5 8.5q28 0 52.5 -8.5t43 -23.5t29 -36.5t10.5 -47.5zM414 913q0 -22 13.5 -35t31.5 -13q19 0 32 13t13 35t-13 35t-32 13
q-18 0 -31.5 -13t-13.5 -35zM259 0h-148q24 77 56 176t69.5 204t79.5 207t86 185h115q29 -55 57.5 -119t55 -132t52 -138t48 -137.5t42.5 -130t36 -115.5h-148q-14 52 -30 108t-33 113h-274q-18 -61 -34.5 -117.5t-29.5 -103.5zM459 606q-23 -47 -49.5 -120.5t-52.5 -156.5
h207q-26 81 -52.5 152.5t-52.5 124.5z" />
    <glyph glyph-name="onethird" unicode="&#x2153;" horiz-adv-x="920" 
d="M31 395h93v254q-6 -2 -16.5 -4t-22.5 -4.5t-23 -5t-19 -3.5l-20 79q14 6 34 14t40.5 16.5t40 17t32.5 14.5h84v-378h92v-35l230 413h115l-429 -773h-116l160 288h-275v107zM682 77q33 0 53.5 19.5t20.5 61.5q0 36 -16.5 57t-43.5 21q-12 0 -24 -2.5t-27 -7.5l-41 36
l92 137h-125v86h261l35 -35l-95 -145q56 -12 85.5 -50.5t29.5 -95.5q0 -37 -13.5 -68t-39.5 -53.5t-64 -35t-86 -12.5q-29 0 -68.5 9.5t-71.5 23.5l19 82q34 -12 65.5 -20t53.5 -8z" />
    <glyph glyph-name="twothirds" unicode="&#x2154;" horiz-adv-x="920" 
d="M172 373h191l223 400h115l-429 -773h-116l159 287h-284v66q0 18 7 32t22 31q35 39 69 79t69 80q15 17 24.5 38.5t9.5 37.5q0 23 -14 34t-38 11q-34 0 -69 -11.5t-58 -18.5l-16 80q37 17 75 26.5t76 9.5q88 0 131.5 -35t43.5 -97q0 -26 -10 -53.5t-39 -60.5zM683 77
q33 0 53.5 19.5t20.5 61.5q0 36 -16.5 57t-43.5 21q-12 0 -24 -2.5t-27 -7.5l-41 36l92 137h-125v86h261l35 -35l-95 -145q56 -12 85.5 -50.5t29.5 -95.5q0 -37 -13.5 -68t-39.5 -53.5t-64 -35t-86 -12.5q-29 0 -68.5 9.5t-71.5 23.5l19 82q34 -12 65.5 -20t53.5 -8z" />
    <glyph glyph-name="oneeighth" unicode="&#x215b;" horiz-adv-x="920" 
d="M31 395h93v254q-6 -2 -16.5 -4t-22.5 -4.5t-23 -5t-19 -3.5l-20 79q14 6 34 14t40.5 16.5t40 17t32.5 14.5h84v-378h92v-26l225 404h115l-429 -773h-116l160 288h-270v107zM704 -10q-40 0 -74.5 10.5t-60 30t-40 47t-14.5 61.5q0 38 18 70t57 56q-25 20 -37.5 44.5
t-12.5 49.5q0 31 13.5 55.5t36 42t52.5 27t63 9.5q34 0 64 -9.5t52.5 -26.5t35.5 -42t13 -56q0 -25 -12 -49.5t-37 -44.5q38 -24 56 -56t18 -70q0 -34 -14.5 -61.5t-40.5 -47t-61 -30t-75 -10.5zM705 74q28 0 45.5 19.5t17.5 45.5q0 29 -18 53.5t-45 38.5
q-27 -14 -44.5 -38.5t-17.5 -53.5q0 -26 17.5 -45.5t44.5 -19.5zM666 359q0 -21 10.5 -37t27.5 -22q15 8 28 23.5t13 35.5q0 21 -11 35.5t-28 14.5t-28.5 -14.5t-11.5 -35.5z" />
    <glyph glyph-name="threeeighths" unicode="&#x215c;" horiz-adv-x="920" 
d="M704 -10q-40 0 -74.5 10.5t-60 30t-40 47t-14.5 61.5q0 38 18 70t57 56q-25 20 -37.5 44.5t-12.5 49.5q0 31 13.5 55.5t36 42t52.5 27t63 9.5q34 0 64 -9.5t52.5 -26.5t35.5 -42t13 -56q0 -25 -12 -49.5t-37 -44.5q38 -24 56 -56t18 -70q0 -34 -14.5 -61.5t-40.5 -47
t-61 -30t-75 -10.5zM705 74q28 0 45.5 19.5t17.5 45.5q0 29 -18 53.5t-45 38.5q-27 -14 -44.5 -38.5t-17.5 -53.5q0 -26 17.5 -45.5t44.5 -19.5zM666 359q0 -21 10.5 -37t27.5 -22q15 8 28 23.5t13 35.5q0 21 -11 35.5t-28 14.5t-28.5 -14.5t-11.5 -35.5zM719 773l-419 -773
h-116l420 773h115zM161 363q33 0 53.5 19.5t20.5 61.5q0 36 -16.5 57t-43.5 21q-12 0 -24 -2.5t-27 -7.5l-41 36l92 137h-125v86h261l35 -35l-95 -145q56 -12 85.5 -50.5t29.5 -95.5q0 -37 -13.5 -68t-39.5 -53.5t-64 -35t-86 -12.5q-29 0 -68.5 9.5t-71.5 23.5l19 82
q34 -12 65.5 -20t53.5 -8z" />
    <glyph glyph-name="fiveeighths" unicode="&#x215d;" horiz-adv-x="920" 
d="M49 773h278v-86h-144v-70h4q86 0 134 -43t48 -124q0 -78 -52.5 -125t-154.5 -47q-38 0 -78 10.5t-69 23.5l21 82q36 -12 67 -20t56 -8q37 0 56 21.5t19 62.5q0 42 -17.5 61.5t-51.5 19.5q-23 0 -40.5 -4t-32.5 -8l-43 32v222zM704 -10q-40 0 -74.5 10.5t-60 30t-40 47
t-14.5 61.5q0 38 18 70t57 56q-25 20 -37.5 44.5t-12.5 49.5q0 31 13.5 55.5t36 42t52.5 27t63 9.5q34 0 64 -9.5t52.5 -26.5t35.5 -42t13 -56q0 -25 -12 -49.5t-37 -44.5q38 -24 56 -56t18 -70q0 -34 -14.5 -61.5t-40.5 -47t-61 -30t-75 -10.5zM705 74q28 0 45.5 19.5
t17.5 45.5q0 29 -18 53.5t-45 38.5q-27 -14 -44.5 -38.5t-17.5 -53.5q0 -26 17.5 -45.5t44.5 -19.5zM666 359q0 -21 10.5 -37t27.5 -22q15 8 28 23.5t13 35.5q0 21 -11 35.5t-28 14.5t-28.5 -14.5t-11.5 -35.5zM726 773l-429 -773h-116l430 773h115z" />
    <glyph glyph-name="seveneighths" unicode="&#x215e;" horiz-adv-x="920" 
d="M376 744l-170 -458h-134l146 399h-175v86h302zM704 -10q-40 0 -74.5 10.5t-60 30t-40 47t-14.5 61.5q0 38 18 70t57 56q-25 20 -37.5 44.5t-12.5 49.5q0 31 13.5 55.5t36 42t52.5 27t63 9.5q34 0 64 -9.5t52.5 -26.5t35.5 -42t13 -56q0 -25 -12 -49.5t-37 -44.5
q38 -24 56 -56t18 -70q0 -34 -14.5 -61.5t-40.5 -47t-61 -30t-75 -10.5zM705 74q28 0 45.5 19.5t17.5 45.5q0 29 -18 53.5t-45 38.5q-27 -14 -44.5 -38.5t-17.5 -53.5q0 -26 17.5 -45.5t44.5 -19.5zM666 359q0 -21 10.5 -37t27.5 -22q15 8 28 23.5t13 35.5q0 21 -11 35.5
t-28 14.5t-28.5 -14.5t-11.5 -35.5zM686 773l-429 -773h-116l430 773h115z" />
    <glyph glyph-name="uni2160" unicode="&#x2160;" horiz-adv-x="920" 
d="M533 0h-147v772h147v-772z" />
    <glyph glyph-name="uni2161" unicode="&#x2161;" horiz-adv-x="920" 
d="M374 0h-139v772h139v-772zM685 0h-139v772h139v-772z" />
    <glyph glyph-name="uni2162" unicode="&#x2162;" horiz-adv-x="920" 
d="M261 0h-137v772h137v-772zM528 0h-137v772h137v-772zM795 0h-137v772h137v-772z" />
    <glyph glyph-name="uni2163" unicode="&#x2163;" horiz-adv-x="920" 
d="M216 0h-139v772h139v-772zM422 772q17 -76 35.5 -158t39 -163t43 -157t48.5 -141q32 56 57 128.5t44.5 153.5t34 167.5t25.5 169.5h134q-11 -115 -32.5 -227t-52.5 -212.5t-70.5 -185.5t-86.5 -147h-125q-38 77 -73 175t-65.5 202.5t-55 206.5t-42.5 188h142z" />
    <glyph glyph-name="uni2164" unicode="&#x2164;" horiz-adv-x="920" 
d="M271 772q20 -74 43 -157.5t48 -166.5t51 -161.5t53 -143.5q72 112 117 270t74 359h140q-13 -115 -37 -225.5t-57 -210t-75 -185t-91 -151.5h-161q-37 87 -72.5 187t-68 202.5t-61.5 201t-52 181.5h149z" />
    <glyph glyph-name="uni2165" unicode="&#x2165;" horiz-adv-x="920" 
d="M714 772h139v-772h-139v772zM189 772q17 -76 35.5 -158t39 -163t43 -157t48.5 -141q32 56 57 128.5t44.5 153.5t34 167.5t25.5 169.5h134q-11 -115 -32.5 -227t-52.5 -212.5t-70.5 -185.5t-86.5 -147h-125q-38 77 -73 175t-65.5 202.5t-55 206.5t-42.5 188h142z" />
    <glyph glyph-name="uni2166" unicode="&#x2166;" horiz-adv-x="920" 
d="M681 0h-129v772h129v-772zM155 772q13 -86 28 -173t30.5 -166.5t31 -148.5t30.5 -119q24 70 40.5 140.5t27 145t17 154.5t10.5 167h129q-3 -116 -14.5 -227t-32.5 -210.5t-51.5 -185t-72.5 -149.5h-129q-17 46 -41 124.5t-49 179.5t-49 220.5t-42 247.5h137zM872 0h-129
v772h129v-772z" />
    <glyph glyph-name="uni2167" unicode="&#x2167;" horiz-adv-x="920" 
d="M590 0h-107v772h107v-772zM165 772q8 -78 18 -165t22 -170t25.5 -156t28.5 -123q38 141 50 293.5t15 320.5h117q-1 -65 -4.5 -136.5t-11 -145t-18 -145t-25 -136t-33.5 -118.5t-42 -91h-119q-26 70 -49.5 166.5t-42.5 202t-33.5 211t-22.5 192.5h125zM739 0h-107v772h107
v-772zM889 0h-107v772h107v-772z" />
    <glyph glyph-name="uni2168" unicode="&#x2168;" horiz-adv-x="920" 
d="M223 0h-139v772h139v-772zM513 399l-207 373h154l128 -245l127 245h149l-203 -371l229 -401h-151l-150 273l-149 -273h-155z" />
    <glyph glyph-name="uni2169" unicode="&#x2169;" horiz-adv-x="920" 
d="M383 399l-216 373h157l136 -245l135 245h152l-213 -371l239 -401h-154l-158 273l-157 -273h-158z" />
    <glyph glyph-name="uni2170" unicode="&#x2170;" horiz-adv-x="920" 
d="M377 722q0 38 24.5 60t58.5 22t58 -22t24 -60t-24 -60.5t-58 -22.5t-58.5 22.5t-24.5 60.5zM388 0v560h142v-560h-142z" />
    <glyph glyph-name="uni2171" unicode="&#x2171;" horiz-adv-x="920" 
d="M260 0v560h137v-560h-137zM521 0v560h137v-560h-137zM246 722q0 38 24.5 60t58.5 22t58 -22t24 -60t-24 -60.5t-58 -22.5t-58.5 22.5t-24.5 60.5zM507 722q0 38 24.5 60t58.5 22t58 -22t24 -60t-24 -60.5t-58 -22.5t-58.5 22.5t-24.5 60.5z" />
    <glyph glyph-name="uni2172" unicode="&#x2172;" horiz-adv-x="920" 
d="M167 0v560h134v-560h-134zM392 0v560h134v-560h-134zM617 0v560h134v-560h-134zM155 722q0 38 23.5 60t55.5 22t55 -22t23 -60t-23 -60.5t-55 -22.5t-55.5 22.5t-23.5 60.5zM380 722q0 38 23.5 60t55.5 22t55 -22t23 -60t-23 -60.5t-55 -22.5t-55.5 22.5t-23.5 60.5z
M605 722q0 38 23.5 60t55.5 22t55 -22t23 -60t-23 -60.5t-55 -22.5t-55.5 22.5t-23.5 60.5z" />
    <glyph glyph-name="uni2173" unicode="&#x2173;" horiz-adv-x="920" 
d="M126 0v560h137v-560h-137zM524 0q-27 49 -55 122t-54.5 151.5t-50 154.5t-39.5 132h136q32 -120 63 -225.5t66 -194.5q20 33 38.5 79t33.5 100t26.5 115t18.5 126h127q-7 -69 -22.5 -145.5t-39 -151.5t-55.5 -143t-71 -120h-122zM112 722q0 38 24.5 60t58.5 22t58 -22
t24 -60t-24 -60.5t-58 -22.5t-58.5 22.5t-24.5 60.5z" />
    <glyph glyph-name="uni2174" unicode="&#x2174;" horiz-adv-x="920" 
d="M403 0q-18 33 -37 77t-38 93.5t-37 102.5t-34.5 104.5t-31 98t-25.5 84.5h139q32 -120 63.5 -225.5t67.5 -194.5q21 33 39.5 79t34 100t27.5 115t19 126h129q-7 -69 -23 -145.5t-40 -151.5t-56.5 -143t-72.5 -120h-124z" />
    <glyph glyph-name="uni2175" unicode="&#x2175;" horiz-adv-x="920" 
d="M636 0v560h137v-560h-137zM263 0q-27 49 -55 122t-54.5 151.5t-50 154.5t-39.5 132h136q32 -120 63 -225.5t66 -194.5q20 33 38.5 79t33.5 100t26.5 115t18.5 126h127q-7 -69 -22.5 -145.5t-39 -151.5t-55.5 -143t-71 -120h-122zM622 722q0 38 24.5 60t58.5 22t58 -22
t24 -60t-24 -60.5t-58 -22.5t-58.5 22.5t-24.5 60.5z" />
    <glyph glyph-name="uni2176" unicode="&#x2176;" horiz-adv-x="920" 
d="M519 0v560h131v-560h-131zM196 0q-25 49 -50 119t-48 146.5t-43.5 153.5t-35.5 141h127q30 -127 55 -229.5t58 -190.5q19 33 35.5 79.5t29.5 101.5t22 116t14 123h118q-6 -73 -19 -150t-33 -151t-48.5 -140.5t-65.5 -118.5h-116zM730 0v560h131v-560h-131zM505 722
q0 38 23.5 60t55.5 22t55 -22t23 -60t-23 -60.5t-55 -22.5t-55.5 22.5t-23.5 60.5zM715 722q0 38 23.5 60t55.5 22t55 -22t23 -60t-23 -60.5t-55 -22.5t-55.5 22.5t-23.5 60.5z" />
    <glyph glyph-name="uni2177" unicode="&#x2177;" horiz-adv-x="920" 
d="M448 0v560h102v-560h-102zM181 0q-27 49 -50.5 117t-43 143.5t-35 153t-26.5 146.5h107q8 -56 19.5 -119t24 -124t27 -115t28.5 -92q18 32 31.5 87t23 118.5t15 128.5t8.5 116h97q-4 -63 -11.5 -140.5t-22.5 -154.5t-39 -147t-61 -118h-92zM608 0v560h102v-560h-102z
M767 0v560h102v-560h-102zM432 722q0 38 19.5 60t47.5 22t47 -22t19 -60t-19 -60.5t-47 -22.5t-47.5 22.5t-19.5 60.5zM592 722q0 38 19.5 60t47.5 22t47 -22t19 -60t-19 -60.5t-47 -22.5t-47.5 22.5t-19.5 60.5zM751 722q0 38 19.5 60t47.5 22t47 -22t19 -60t-19 -60.5
t-47 -22.5t-47.5 22.5t-19.5 60.5z" />
    <glyph glyph-name="uni2178" unicode="&#x2178;" horiz-adv-x="920" 
d="M135 0v560h137v-560h-137zM593 183l-114 -183h-144l185 292l-168 268h144l94 -157l95 157h144l-169 -267l186 -293h-143zM121 722q0 38 24.5 60t58.5 22t58 -22t24 -60t-24 -60.5t-58 -22.5t-58.5 22.5t-24.5 60.5z" />
    <glyph glyph-name="uni2179" unicode="&#x2179;" horiz-adv-x="920" 
d="M462 183l-117 -183h-149l191 292l-173 268h148l97 -157l98 157h148l-174 -267l192 -293h-148z" />
    <glyph glyph-name="arrowleft" unicode="&#x2190;" horiz-adv-x="920" 
d="M299 324l98 -136l-27 -31l-339 214l337 214l30 -30l-96 -132h587v-99h-590z" />
    <glyph glyph-name="arrowup" unicode="&#x2191;" horiz-adv-x="920" 
d="M686 521l-40 -29l-125 102v-702h-122v702q-32 -23 -63.5 -52t-61.5 -51l-40 30l227 354z" />
    <glyph glyph-name="arrowright" unicode="&#x2192;" horiz-adv-x="920" 
d="M30 324v99h588q-21 32 -48 67.5t-47 65.5l29 29l337 -214l-339 -214l-27 31l98 136h-591z" />
    <glyph glyph-name="arrowdown" unicode="&#x2193;" horiz-adv-x="920" 
d="M461 -141l-228 352l40 32l126 -105v713h122v-713q32 23 63 52t62 52l40 -31z" />
    <glyph glyph-name="arrowboth" unicode="&#x2194;" horiz-adv-x="920" 
d="M250 423h419l-82 134l24 29l306 -214l-308 -217l-22 31l85 138h-424l85 -138l-22 -31l-308 217l305 214l25 -29z" />
    <glyph glyph-name="arrowupdn" unicode="&#x2195;" horiz-adv-x="920" 
d="M521 128l136 87l25 -20l-221 -322l-224 321l24 23l138 -89v491l-138 -88l-24 22l224 321l221 -322l-25 -20l-136 87v-491z" />
    <glyph glyph-name="uni2196" unicode="&#x2196;" horiz-adv-x="920" 
d="M748 17l-504 504l-13 -153h-50l-93 389l412 -92v-37l-180 -14l511 -511z" />
    <glyph glyph-name="uni2197" unicode="&#x2197;" horiz-adv-x="920" 
d="M88 103l511 511l-180 14v37l412 92l-93 -389h-50l-13 153l-504 -504z" />
    <glyph glyph-name="uni2198" unicode="&#x2198;" horiz-adv-x="920" 
d="M171 757l504 -504l13 153h50l93 -389l-412 92v37l180 14l-511 511z" />
    <glyph glyph-name="uni2199" unicode="&#x2199;" horiz-adv-x="920" 
d="M831 671l-511 -511l180 -14v-37l-412 -92l93 389h50l13 -153l504 504z" />
    <glyph glyph-name="uni21B0" unicode="&#x21b0;" 
 />
    <glyph glyph-name="uni21B1" unicode="&#x21b1;" 
 />
    <glyph glyph-name="uni21B2" unicode="&#x21b2;" 
 />
    <glyph glyph-name="uni21B3" unicode="&#x21b3;" 
 />
    <glyph glyph-name="uni21B4" unicode="&#x21b4;" 
 />
    <glyph glyph-name="uni21BC" unicode="&#x21bc;" 
 />
    <glyph glyph-name="uni21C0" unicode="&#x21c0;" 
 />
    <glyph glyph-name="uni21C4" unicode="&#x21c4;" 
 />
    <glyph glyph-name="uni21C5" unicode="&#x21c5;" 
 />
    <glyph glyph-name="uni21CD" unicode="&#x21cd;" 
 />
    <glyph glyph-name="uni21CF" unicode="&#x21cf;" 
 />
    <glyph glyph-name="arrowdblleft" unicode="&#x21d0;" 
 />
    <glyph glyph-name="arrowdblup" unicode="&#x21d1;" 
 />
    <glyph glyph-name="arrowdblright" unicode="&#x21d2;" horiz-adv-x="920" 
d="M33 412v99h569l-70 73l78 76l287 -290l-285 -288l-81 76l72 72h-570v102h667l37 39l-37 41h-667z" />
    <glyph glyph-name="arrowdbldown" unicode="&#x21d3;" 
 />
    <glyph glyph-name="arrowdblboth" unicode="&#x21d4;" horiz-adv-x="920" 
d="M630 90l-77 76l65 68h-315l65 -68l-78 -76l-278 280l278 280l78 -76l-65 -68h315l-65 68l77 76l278 -280zM205 333h510l33 38l-33 36h-510l-33 -36z" />
    <glyph glyph-name="uni21E0" unicode="&#x21e0;" 
 />
    <glyph glyph-name="uni21E1" unicode="&#x21e1;" 
 />
    <glyph glyph-name="uni21E2" unicode="&#x21e2;" 
 />
    <glyph glyph-name="uni21E3" unicode="&#x21e3;" 
 />
    <glyph glyph-name="uni21E6" unicode="&#x21e6;" 
 />
    <glyph glyph-name="uni21E7" unicode="&#x21e7;" 
 />
    <glyph glyph-name="uni21E8" unicode="&#x21e8;" 
 />
    <glyph glyph-name="uni21E9" unicode="&#x21e9;" 
 />
    <glyph glyph-name="universal" unicode="&#x2200;" horiz-adv-x="920" 
d="M660 772h148q-24 -77 -56 -176t-69.5 -204t-80 -207t-85.5 -185h-115q-44 83 -85.5 184t-79 205.5t-70 203.5t-56.5 179h148q14 -53 29.5 -108.5t32.5 -112.5h274q19 61 35 117.5t30 103.5zM460 166q23 47 49.5 120t52.5 157h-207q26 -81 52.5 -153t52.5 -124z" />
    <glyph glyph-name="partialdiff" unicode="&#x2202;" horiz-adv-x="920" 
d="M296 660q91 70 182 70q61 0 107.5 -21t78 -57t47 -82.5t15.5 -97.5q0 -47 -7.5 -98t-23.5 -100.5t-41 -94t-58.5 -78.5t-76.5 -54t-96 -20q-51 0 -93.5 13.5t-72.5 39.5t-47 64t-17 87q0 51 19 94.5t54.5 75.5t85 50.5t110.5 18.5q31 0 64 -4t63 -9v13q0 72 -29 116
t-84 44q-32 0 -64 -14.5t-61 -33.5zM421 126q31 0 58.5 19.5t49 52t35.5 74.5t18 87q-30 5 -57.5 8t-61.5 3q-31 0 -55.5 -11.5t-41.5 -30.5t-26 -44.5t-9 -53.5q0 -54 26 -79t64 -25z" />
    <glyph glyph-name="existential" unicode="&#x2203;" horiz-adv-x="920" 
d="M221 756q34 4 72.5 7t77.5 4.5t75.5 2.5t68.5 2q86 2 134.5 -31.5t48.5 -111.5v-629h-464v107h316v208h-300v107h300v184q0 30 -17.5 43.5t-50.5 13.5h-261v93z" />
    <glyph glyph-name="Delta" unicode="&#x2206;" 
 />
    <glyph glyph-name="gradient" unicode="&#x2207;" horiz-adv-x="920" 
d="M455 35l-416 649h841zM282 585l197 -312l202 312h-399z" />
    <glyph glyph-name="element" unicode="&#x2208;" horiz-adv-x="920" 
d="M237 328q2 -29 12.5 -54.5t28.5 -45t42.5 -31t53.5 -11.5h444v-98h-444q-62 0 -112.5 23t-86.5 62.5t-55.5 92t-19.5 111.5q0 58 19.5 110.5t55.5 92t86.5 62.5t112.5 23h444v-98h-444q-29 0 -53.5 -11.5t-42.5 -30.5t-28.5 -45t-12.5 -54h582v-98h-582z" />
    <glyph glyph-name="notelement" unicode="&#x2209;" 
 />
    <glyph glyph-name="suchthat" unicode="&#x220b;" horiz-adv-x="920" 
d="M100 328v98h582q-2 28 -13 54t-29 45t-42 30.5t-53 11.5h-444v98h444q62 0 112.5 -23t86.5 -62.5t55.5 -92t19.5 -110.5q0 -59 -19.5 -111.5t-55.5 -92t-86.5 -62.5t-112.5 -23h-444v98h444q29 0 53 11.5t42 31t29 45t13 54.5h-582z" />
    <glyph glyph-name="uni220C" unicode="&#x220c;" 
 />
    <glyph glyph-name="product" unicode="&#x220f;" horiz-adv-x="920" 
d="M696 671v-671h-140v671h-175v-671h-138v671h-133v101h700v-101h-114z" />
    <glyph glyph-name="summation" unicode="&#x2211;" horiz-adv-x="920" 
d="M98 8v32l309 351q-76 75 -153 151.5t-154 151.5v83h722v-89h-529q68 -66 134.5 -131.5t134.5 -132.5l-266 -302h525v-114h-723z" />
    <glyph glyph-name="uni2213" unicode="&#x2213;" 
 />
    <glyph glyph-name="uni2219" unicode="&#x2219;" horiz-adv-x="574" 
d="M134 418q0 71 42.5 112t110.5 41q33 0 61 -10.5t48.5 -30.5t32 -48.5t11.5 -63.5q0 -37 -11.5 -65.5t-32 -48t-48.5 -29.5t-61 -10q-68 0 -110.5 39.5t-42.5 113.5z" />
    <glyph glyph-name="radical" unicode="&#x221a;" horiz-adv-x="920" 
d="M432 -43h-127l-142 320h-128v98h247l97 -223q97 192 185 368.5t176 345.5h144z" />
    <glyph glyph-name="proportional" unicode="&#x221d;" horiz-adv-x="920" 
d="M321 284q22 0 42 10t36 26t27.5 37t16.5 42q-5 23 -17 44.5t-28.5 37.5t-36 25.5t-40.5 9.5q-23 0 -41.5 -9.5t-31.5 -25t-20 -37t-7 -45.5t7 -44.5t20 -36.5t31.5 -25t41.5 -9zM780 486q-24 14 -50.5 22t-51.5 8q-21 0 -40.5 -9.5t-35.5 -25.5t-28 -37.5t-17 -44.5
q5 -21 16.5 -42t27.5 -37t36 -26t43 -10t45.5 6t57.5 27l35 -84q-31 -22 -69.5 -32.5t-74.5 -10.5q-27 0 -52.5 8.5t-48 22t-41 31.5t-33.5 37q-14 -19 -33 -36.5t-42.5 -31.5t-50 -22.5t-54.5 -8.5q-45 0 -84.5 13t-69 39.5t-47 65.5t-17.5 91q0 50 17 89t46 66t69 41.5
t87 14.5q58 0 104.5 -28t75.5 -69q15 19 34.5 37t42.5 31t48 21t51 8q35 0 72 -11t67 -31z" />
    <glyph glyph-name="infinity" unicode="&#x221e;" horiz-adv-x="920" 
d="M180 399q0 -57 29 -87t72 -30q21 0 41 9.5t37 25.5t29 37t17 45q-5 23 -17 44.5t-29 37.5t-37 25.5t-41 9.5q-43 0 -72 -30.5t-29 -86.5zM740 399q0 56 -29 86.5t-72 30.5q-21 0 -41 -9.5t-37 -25.5t-29 -37.5t-17 -44.5q5 -24 17 -45t29 -37t37 -25.5t41 -9.5
q43 0 72 30t29 87zM460 284q-29 -39 -75 -68t-105 -29q-45 0 -85 15t-70 42.5t-47 67t-17 87.5t17 87t47 66.5t70 42.5t85 15q61 0 106 -27.5t74 -68.5q29 41 74 68.5t106 27.5q45 0 85 -15t70 -42.5t47 -66.5t17 -87t-17 -87.5t-47 -67t-70 -42.5t-85 -15q-59 0 -105 29
t-75 68z" />
    <glyph glyph-name="orthogonal" unicode="&#x221f;" 
 />
    <glyph glyph-name="angle" unicode="&#x2220;" horiz-adv-x="920" 
d="M356 200h490v-103h-772l636 641l94 -90z" />
    <glyph glyph-name="uni2222" unicode="&#x2222;" 
 />
    <glyph glyph-name="uni2225" unicode="&#x2225;" horiz-adv-x="920" 
d="M398 0h-136v772h136v-772zM658 0h-137v772h137v-772z" />
    <glyph glyph-name="uni2226" unicode="&#x2226;" 
 />
    <glyph glyph-name="logicaland" unicode="&#x2227;" horiz-adv-x="920" 
d="M460 497l-219 -438h-146l300 606h131l300 -606h-146z" />
    <glyph glyph-name="logicalor" unicode="&#x2228;" horiz-adv-x="920" 
d="M680 665h146l-300 -606h-131l-300 606h146l219 -438z" />
    <glyph glyph-name="intersection" unicode="&#x2229;" horiz-adv-x="920" 
d="M616 45v441q0 32 -12.5 60.5t-33.5 50.5t-49.5 34.5t-61.5 12.5q-34 0 -62.5 -13.5t-49 -35.5t-32 -50.5t-11.5 -58.5v-445h-137v445q0 48 20.5 94t58.5 82.5t92 59t121 22.5q62 0 115.5 -19t93 -53.5t62 -82t22.5 -103.5v-441h-136z" />
    <glyph glyph-name="union" unicode="&#x222a;" horiz-adv-x="920" 
d="M304 727v-442q0 -31 12.5 -59.5t33.5 -50.5t49.5 -35t61.5 -13q34 0 62.5 13.5t49 35.5t32 50.5t11.5 58.5v446h136v-446q0 -48 -20.5 -94t-58 -82.5t-91.5 -59t-121 -22.5q-62 0 -115.5 19.5t-93.5 54t-62.5 81.5t-22.5 103v442h137z" />
    <glyph glyph-name="integral" unicode="&#x222b;" horiz-adv-x="920" 
d="M438 685q8 51 38.5 77.5t76.5 26.5q17 0 36.5 -3t38 -7.5t35 -10t28.5 -11.5l-20 -86q-14 4 -29.5 8t-31.5 4q-38 0 -45 -47l-80 -539q-3 -23 -14.5 -44t-30.5 -36.5t-45.5 -24.5t-60.5 -9q-24 0 -56 8.5t-52 21.5l22 86q13 -5 26.5 -7.5t29.5 -2.5q20 0 33 14t17 39z
" />
    <glyph glyph-name="uni222C" unicode="&#x222c;" horiz-adv-x="920" 
d="M290 685q8 51 38.5 77.5t76.5 26.5q17 0 36.5 -3t38 -7.5t35 -10t28.5 -11.5l-20 -86q-14 4 -29.5 8t-31.5 4q-38 0 -45 -47l-80 -539q-3 -23 -14.5 -44t-30.5 -36.5t-45.5 -24.5t-60.5 -9q-24 0 -56 8.5t-52 21.5l22 86q13 -5 26.5 -7.5t29.5 -2.5q20 0 33 14t17 39z
M588 685q8 51 38.5 77.5t76.5 26.5q17 0 36.5 -3t38 -7.5t35 -10t28.5 -11.5l-20 -86q-14 4 -29.5 8t-31.5 4q-38 0 -45 -47l-80 -539q-3 -23 -14.5 -44t-30.5 -36.5t-45.5 -24.5t-60.5 -9q-24 0 -56 8.5t-52 21.5l22 86q13 -5 26.5 -7.5t29.5 -2.5q20 0 33 14t17 39z" />
    <glyph glyph-name="uni222E" unicode="&#x222e;" horiz-adv-x="920" 
d="M438 685q8 51 38.5 77.5t76.5 26.5q17 0 36.5 -3t38 -7.5t35 -10t28.5 -11.5l-20 -86q-14 4 -29.5 8t-31.5 4q-38 0 -45 -47l-7 -43q34 -9 63 -26t50 -41.5t33 -55t12 -65.5q0 -42 -17 -78t-46 -62t-68 -41t-84 -16l-16 -111q-3 -23 -14.5 -44t-30.5 -36.5t-45.5 -24.5
t-60.5 -9q-24 0 -56 8.5t-52 21.5l22 86q13 -5 26.5 -7.5t29.5 -2.5q20 0 33 14t17 39l11 73q-34 9 -63 26t-50 42t-33 55.5t-12 66.5q0 42 17.5 78t47 62t69 41t84.5 15zM330 405q0 -32 13.5 -57t36.5 -38l30 198q-35 -5 -57.5 -33.5t-22.5 -69.5zM592 405q0 30 -13 54
t-35 38l-29 -196q35 6 56 34.5t21 69.5z" />
    <glyph glyph-name="therefore" unicode="&#x2234;" horiz-adv-x="920" 
d="M548 585q0 -38 -26 -62t-62 -24t-62 24t-26 62q0 37 26 61.5t62 24.5t62 -24.5t26 -61.5zM303 172q0 -37 -26 -61.5t-62 -24.5q-37 0 -62.5 24.5t-25.5 61.5q0 38 25.5 62t62.5 24q36 0 62 -24t26 -62zM792 172q0 -37 -25.5 -61.5t-62.5 -24.5q-36 0 -62 24.5t-26 61.5
q0 38 26 62t62 24q37 0 62.5 -24t25.5 -62z" />
    <glyph glyph-name="uni2235" unicode="&#x2235;" horiz-adv-x="920" 
d="M548 172q0 -37 -26 -61.5t-62 -24.5t-62 24.5t-26 61.5q0 38 26 62t62 24t62 -24t26 -62zM303 585q0 -38 -26 -62t-62 -24q-37 0 -62.5 24t-25.5 62q0 37 25.5 61.5t62.5 24.5q36 0 62 -24.5t26 -61.5zM792 585q0 -38 -25.5 -62t-62.5 -24q-36 0 -62 24t-26 62
q0 37 26 61.5t62 24.5q37 0 62.5 -24.5t25.5 -61.5z" />
    <glyph glyph-name="uni2236" unicode="&#x2236;" horiz-adv-x="280" 
d="M252 670l-113 -198l-112 198h225zM27 82l112 197l113 -197h-225z" />
    <glyph glyph-name="uni2237" unicode="&#x2237;" 
 />
    <glyph glyph-name="uni223D" unicode="&#x223d;" horiz-adv-x="920" 
d="M715 277q-3 27 -11.5 57t-22 55t-32 41.5t-40.5 16.5q-12 0 -24.5 -7.5t-27 -19.5t-30 -27.5l-31.5 -31.5q-18 -18 -38.5 -36t-43.5 -32.5t-49.5 -23.5t-57.5 -9q-50 0 -89 19.5t-67.5 54t-47 81.5t-26.5 102h125q7 -29 15.5 -56.5t19.5 -50t26.5 -36t37.5 -13.5
q16 0 31 8t29.5 19.5t27 24.5t22.5 23q23 23 45.5 43t45.5 35t49 23.5t57 8.5q48 0 88.5 -21t71 -57t49.5 -85t25 -106h-127z" />
    <glyph glyph-name="uni2243" unicode="&#x2243;" 
 />
    <glyph glyph-name="congruent" unicode="&#x2245;" 
 />
    <glyph glyph-name="approxequal" unicode="&#x2248;" 
 />
    <glyph glyph-name="uni2250" unicode="&#x2250;" 
 />
    <glyph glyph-name="uni2251" unicode="&#x2251;" 
 />
    <glyph glyph-name="uni2252" unicode="&#x2252;" horiz-adv-x="920" 
d="M305 638q0 -30 -22 -51t-53 -21t-52.5 21t-21.5 51q0 31 21.5 52t52.5 21t53 -21t22 -52zM736 96q0 -31 -22 -52.5t-52 -21.5q-32 0 -53.5 21.5t-21.5 52.5q0 29 21.5 50.5t53.5 21.5q30 0 52 -21.5t22 -50.5zM142 410v100h636v-100h-636zM142 229v98h636v-98h-636z" />
    <glyph glyph-name="uni2253" unicode="&#x2253;" 
 />
    <glyph glyph-name="uni225A" unicode="&#x225a;" 
 />
    <glyph glyph-name="notequal" unicode="&#x2260;" horiz-adv-x="920" 
d="M166 331h198l45 114h-243v98h282l71 180h141l-72 -180h165v-98h-204l-45 -114h249v-98h-287l-64 -164h-141l64 164h-159v98z" />
    <glyph glyph-name="equivalence" unicode="&#x2261;" horiz-adv-x="920" 
d="M96 510v97h727v-97h-727zM96 335v98h727v-98h-727zM96 158v98h727v-98h-727z" />
    <glyph glyph-name="uni2262" unicode="&#x2262;" 
 />
    <glyph glyph-name="lessequal" unicode="&#x2264;" horiz-adv-x="920" 
d="M172 61v100h576v-100h-576zM711 760v-119l-335 -162l335 -162v-119l-503 242v78z" />
    <glyph glyph-name="greaterequal" unicode="&#x2265;" horiz-adv-x="920" 
d="M172 61v100h576v-100h-576zM712 518v-78l-503 -242v119l335 162l-335 162v119z" />
    <glyph glyph-name="uni2266" unicode="&#x2266;" 
 />
    <glyph glyph-name="uni2267" unicode="&#x2267;" 
 />
    <glyph glyph-name="uni226E" unicode="&#x226e;" 
 />
    <glyph glyph-name="uni226F" unicode="&#x226f;" 
 />
    <glyph glyph-name="uni2270" unicode="&#x2270;" 
 />
    <glyph glyph-name="uni2271" unicode="&#x2271;" 
 />
    <glyph glyph-name="uni2272" unicode="&#x2272;" 
 />
    <glyph glyph-name="uni2273" unicode="&#x2273;" 
 />
    <glyph glyph-name="uni2276" unicode="&#x2276;" 
 />
    <glyph glyph-name="uni2277" unicode="&#x2277;" 
 />
    <glyph glyph-name="uni2279" unicode="&#x2279;" 
 />
    <glyph glyph-name="uni227A" unicode="&#x227a;" 
 />
    <glyph glyph-name="uni227B" unicode="&#x227b;" 
 />
    <glyph glyph-name="uni2280" unicode="&#x2280;" 
 />
    <glyph glyph-name="uni2281" unicode="&#x2281;" 
 />
    <glyph glyph-name="propersubset" unicode="&#x2282;" horiz-adv-x="920" 
d="M814 557h-439q-29 0 -54 -14.5t-43 -39t-28.5 -57t-10.5 -68.5q0 -38 11 -71t30 -57t44.5 -37.5t54.5 -13.5h439v-103h-457q-49 0 -96 19t-83.5 55t-58.5 88.5t-22 119.5q0 60 21 112t57 90t85 59.5t106 21.5h444v-104z" />
    <glyph glyph-name="propersuperset" unicode="&#x2283;" horiz-adv-x="920" 
d="M105 661h445q56 0 105 -21.5t85 -59.5t57 -90t21 -112q0 -67 -22 -119.5t-58.5 -88.5t-83 -55t-95.5 -19h-458v103h439q29 0 55 13.5t45 37.5t30 57t11 71q0 36 -10.5 68.5t-28.5 57t-43 39t-55 14.5h-439v104z" />
    <glyph glyph-name="notsubset" unicode="&#x2284;" 
 />
    <glyph glyph-name="uni2285" unicode="&#x2285;" 
 />
    <glyph glyph-name="reflexsubset" unicode="&#x2286;" horiz-adv-x="920" 
d="M112 42v103h707v-103h-707zM814 629h-440q-30 0 -55 -11.5t-42.5 -31t-27 -45.5t-9.5 -56q0 -63 35.5 -104.5t101.5 -41.5h442v-103h-465q-50 0 -95.5 16.5t-80.5 48t-56 77.5t-21 105q0 57 21 103t57.5 78.5t85.5 50t104 17.5h445v-103z" />
    <glyph glyph-name="reflexsuperset" unicode="&#x2287;" horiz-adv-x="920" 
d="M101 42v103h708v-103h-708zM106 732h446q55 0 103.5 -17.5t85 -50t57.5 -78.5t21 -103q0 -59 -21 -105t-56 -77.5t-81 -48t-95 -16.5h-465v103h443q65 0 101 41.5t36 104.5q0 30 -9.5 56t-27.5 45.5t-42.5 31t-54.5 11.5h-441v103z" />
    <glyph glyph-name="uni228A" unicode="&#x228a;" 
 />
    <glyph glyph-name="uni228B" unicode="&#x228b;" 
 />
    <glyph glyph-name="circleplus" unicode="&#x2295;" 
 />
    <glyph glyph-name="uni2296" unicode="&#x2296;" 
 />
    <glyph glyph-name="circlemultiply" unicode="&#x2297;" 
 />
    <glyph glyph-name="uni22A3" unicode="&#x22a3;" 
 />
    <glyph glyph-name="uni22A4" unicode="&#x22a4;" 
 />
    <glyph glyph-name="perpendicular" unicode="&#x22a5;" horiz-adv-x="920" 
d="M79 103h312v669h138v-669h312v-103h-762v103z" />
    <glyph glyph-name="uni22BB" unicode="&#x22bb;" 
 />
    <glyph glyph-name="uni22BC" unicode="&#x22bc;" 
 />
    <glyph glyph-name="uni22CE" unicode="&#x22ce;" 
 />
    <glyph glyph-name="uni22CF" unicode="&#x22cf;" 
 />
    <glyph glyph-name="uni22DA" unicode="&#x22da;" 
 />
    <glyph glyph-name="uni22DB" unicode="&#x22db;" 
 />
    <glyph glyph-name="uni22EE" unicode="&#x22ee;" 
 />
    <glyph glyph-name="uni2306" unicode="&#x2306;" 
 />
    <glyph glyph-name="uni2312" unicode="&#x2312;" horiz-adv-x="920" 
d="M460 243q-44 0 -78.5 -21t-61 -55t-44.5 -77.5t-28 -89.5h-135q13 72 43 135t74 109.5t102 73.5t128 27t127.5 -27t101.5 -73.5t74 -109.5t44 -135h-135q-11 46 -29 89.5t-44 77.5t-61 55t-78 21z" />
    <glyph glyph-name="uni2314" unicode="&#x2314;" 
 />
    <glyph glyph-name="uni2460" unicode="&#x2460;" horiz-adv-x="1140" 
d="M570 -49q85 0 159 30.5t129.5 86t87.5 131.5t32 168q0 91 -32 167t-87.5 131t-129.5 85.5t-159 30.5t-159 -30.5t-129.5 -85.5t-87.5 -131t-32 -167q0 -92 32 -168t87.5 -131.5t129.5 -86t159 -30.5zM570 -123q-102 0 -192.5 37.5t-158 103t-106.5 155t-39 194.5
q0 104 39 193.5t106.5 155t158 102.5t192.5 37t192 -37t157.5 -102.5t107 -155t39.5 -193.5q0 -105 -39.5 -194.5t-107 -155t-157.5 -103t-192 -37.5zM408 185h106v340q-15 -5 -42.5 -11.5t-48.5 -11.5l-23 75q21 7 43.5 15.5t43.5 17.5t39 16.5t30 13.5h80v-455h105v-87
h-333v87z" />
    <glyph glyph-name="uni2461" unicode="&#x2461;" horiz-adv-x="1140" 
d="M519 185h229v-87h-356v70q0 21 6 34t21 30q23 27 49 54.5t50 54.5l34 40t34 42q14 20 24.5 43.5t10.5 43.5q0 26 -17.5 41.5t-51.5 15.5q-29 0 -66 -8t-70 -18l-18 81q46 17 83 25.5t77 8.5q46 0 80.5 -11.5t58 -31.5t35 -47t11.5 -59q0 -56 -31 -99q-22 -30 -45 -58.5
t-52 -60.5q-24 -27 -48.5 -53.5t-47.5 -50.5zM570 -49q85 0 159 30.5t129.5 86t87.5 131.5t32 168q0 91 -32 167t-87.5 131t-129.5 85.5t-159 30.5t-159 -30.5t-129.5 -85.5t-87.5 -131t-32 -167q0 -92 32 -168t87.5 -131.5t129.5 -86t159 -30.5zM570 -123
q-102 0 -192.5 37.5t-158 103t-106.5 155t-39 194.5q0 104 39 193.5t106.5 155t158 102.5t192.5 37t192 -37t157.5 -102.5t107 -155t39.5 -193.5q0 -105 -39.5 -194.5t-107 -155t-157.5 -103t-192 -37.5z" />
    <glyph glyph-name="uni2462" unicode="&#x2462;" horiz-adv-x="1140" 
d="M535 170q45 0 72 24.5t27 70.5q0 44 -23.5 68.5t-57.5 24.5q-12 0 -22.5 -2t-24.5 -7l-47 41l111 160h-147v88h277l35 -33l-115 -170q66 -11 101.5 -57t35.5 -113q0 -40 -14.5 -74t-42.5 -58.5t-69 -38t-93 -13.5q-34 0 -73.5 9t-73.5 23l18 82q33 -11 66.5 -18t59.5 -7z
M570 -49q85 0 159 30.5t129.5 86t87.5 131.5t32 168q0 91 -32 167t-87.5 131t-129.5 85.5t-159 30.5t-159 -30.5t-129.5 -85.5t-87.5 -131t-32 -167q0 -92 32 -168t87.5 -131.5t129.5 -86t159 -30.5zM570 -123q-102 0 -192.5 37.5t-158 103t-106.5 155t-39 194.5
q0 104 39 193.5t106.5 155t158 102.5t192.5 37t192 -37t157.5 -102.5t107 -155t39.5 -193.5q0 -105 -39.5 -194.5t-107 -155t-157.5 -103t-192 -37.5z" />
    <glyph glyph-name="uni2463" unicode="&#x2463;" horiz-adv-x="1140" 
d="M691 318h71v-88h-71v-134h-117v134h-227v53q0 8 4 21t12 26l174 310h154v-322zM574 488l-92 -170h92v170zM570 -49q85 0 159 30.5t129.5 86t87.5 131.5t32 168q0 91 -32 167t-87.5 131t-129.5 85.5t-159 30.5t-159 -30.5t-129.5 -85.5t-87.5 -131t-32 -167q0 -92 32 -168
t87.5 -131.5t129.5 -86t159 -30.5zM570 -123q-102 0 -192.5 37.5t-158 103t-106.5 155t-39 194.5q0 104 39 193.5t106.5 155t158 102.5t192.5 37t192 -37t157.5 -102.5t107 -155t39.5 -193.5q0 -105 -39.5 -194.5t-107 -155t-157.5 -103t-192 -37.5z" />
    <glyph glyph-name="uni2464" unicode="&#x2464;" horiz-adv-x="1140" 
d="M434 638h284v-88h-162v-98q7 1 12.5 1h9.5q42 0 76 -13.5t58 -38.5t37 -59t13 -74t-15 -74.5t-43.5 -59.5t-69 -39t-92.5 -14q-31 0 -71.5 9.5t-73.5 22.5l18 82q32 -11 65.5 -18t60.5 -7q47 0 73 25.5t26 72.5q0 54 -24.5 76.5t-69.5 22.5q-17 0 -35.5 -4t-35.5 -9
l-41 29v255zM570 -49q85 0 159 30.5t129.5 86t87.5 131.5t32 168q0 91 -32 167t-87.5 131t-129.5 85.5t-159 30.5t-159 -30.5t-129.5 -85.5t-87.5 -131t-32 -167q0 -92 32 -168t87.5 -131.5t129.5 -86t159 -30.5zM570 -123q-102 0 -192.5 37.5t-158 103t-106.5 155
t-39 194.5q0 104 39 193.5t106.5 155t158 102.5t192.5 37t192 -37t157.5 -102.5t107 -155t39.5 -193.5q0 -105 -39.5 -194.5t-107 -155t-157.5 -103t-192 -37.5z" />
    <glyph glyph-name="uni2465" unicode="&#x2465;" horiz-adv-x="1140" 
d="M711 581q-60 -4 -99 -18t-69 -44q-11 -11 -21.5 -30.5t-18.5 -40.5q18 10 37.5 16.5t43.5 6.5q43 0 78 -14t59 -38.5t37 -59.5t13 -77q0 -39 -13.5 -74.5t-39 -63t-62.5 -43.5t-84 -16q-52 0 -90.5 19t-64 51.5t-38 74.5t-12.5 88q0 80 22 148t73 116q43 41 109 58
t135 13zM572 173q21 0 35.5 9.5t23.5 25.5t13.5 35t4.5 39q0 50 -19.5 76t-59.5 26q-27 0 -48 -10.5t-33 -27.5q-2 -5 -3 -18.5t-1 -21.5q0 -28 5.5 -52t16.5 -42t27 -28.5t38 -10.5zM570 -49q85 0 159 30.5t129.5 86t87.5 131.5t32 168q0 91 -32 167t-87.5 131t-129.5 85.5
t-159 30.5t-159 -30.5t-129.5 -85.5t-87.5 -131t-32 -167q0 -92 32 -168t87.5 -131.5t129.5 -86t159 -30.5zM570 -123q-102 0 -192.5 37.5t-158 103t-106.5 155t-39 194.5q0 104 39 193.5t106.5 155t158 102.5t192.5 37t192 -37t157.5 -102.5t107 -155t39.5 -193.5
q0 -105 -39.5 -194.5t-107 -155t-157.5 -103t-192 -37.5z" />
    <glyph glyph-name="uni2466" unicode="&#x2466;" horiz-adv-x="1140" 
d="M756 595l-191 -520h-125l168 459h-204v86h323zM570 -49q85 0 159 30.5t129.5 86t87.5 131.5t32 168q0 91 -32 167t-87.5 131t-129.5 85.5t-159 30.5t-159 -30.5t-129.5 -85.5t-87.5 -131t-32 -167q0 -92 32 -168t87.5 -131.5t129.5 -86t159 -30.5zM570 -123
q-102 0 -192.5 37.5t-158 103t-106.5 155t-39 194.5q0 104 39 193.5t106.5 155t158 102.5t192.5 37t192 -37t157.5 -102.5t107 -155t39.5 -193.5q0 -105 -39.5 -194.5t-107 -155t-157.5 -103t-192 -37.5z" />
    <glyph glyph-name="uni2467" unicode="&#x2467;" horiz-adv-x="1140" 
d="M569 84q-43 0 -80 12t-64.5 33.5t-43.5 52.5t-16 69q0 45 22 81.5t67 62.5q-28 21 -43 49t-15 60q0 34 14 61.5t38 47t55.5 30t66.5 10.5q36 0 67.5 -10t55.5 -29.5t37.5 -47t13.5 -62.5q0 -32 -15 -60t-43 -49q45 -26 66.5 -62.5t21.5 -81.5q0 -38 -15.5 -69t-43 -52.5
t-65 -33.5t-81.5 -12zM570 171q36 0 59 23t23 57q0 35 -23 63t-59 44q-37 -16 -59.5 -44t-22.5 -63q0 -34 22.5 -57t59.5 -23zM515 503q0 -26 13.5 -44.5t40.5 -24.5q28 6 42 24.5t14 44.5t-14 44.5t-40 18.5q-28 0 -42 -18.5t-14 -44.5zM570 -49q85 0 159 30.5t129.5 86
t87.5 131.5t32 168q0 91 -32 167t-87.5 131t-129.5 85.5t-159 30.5t-159 -30.5t-129.5 -85.5t-87.5 -131t-32 -167q0 -92 32 -168t87.5 -131.5t129.5 -86t159 -30.5zM570 -123q-102 0 -192.5 37.5t-158 103t-106.5 155t-39 194.5q0 104 39 193.5t106.5 155t158 102.5
t192.5 37t192 -37t157.5 -102.5t107 -155t39.5 -193.5q0 -105 -39.5 -194.5t-107 -155t-157.5 -103t-192 -37.5z" />
    <glyph glyph-name="uni2468" unicode="&#x2468;" horiz-adv-x="1140" 
d="M468 154q40 11 74 29.5t58 40.5q16 14 25 32t16 36q-41 -25 -87 -25q-41 0 -75.5 13.5t-59.5 38.5t-38.5 59.5t-13.5 75.5q0 40 14 76.5t40 63.5t62.5 43t82.5 16q52 0 90.5 -18t64 -48.5t38 -70.5t12.5 -84q0 -80 -22 -152.5t-72 -120.5q-32 -30 -81 -50t-104 -28z
M566 565q-35 0 -56 -31.5t-21 -79.5q0 -20 4.5 -38t13.5 -31.5t23 -22t34 -8.5q29 0 51.5 15t33.5 35q2 3 3.5 18t1.5 21q0 24 -5.5 46t-17 39t-28 27t-37.5 10zM570 -49q85 0 159 30.5t129.5 86t87.5 131.5t32 168q0 91 -32 167t-87.5 131t-129.5 85.5t-159 30.5
t-159 -30.5t-129.5 -85.5t-87.5 -131t-32 -167q0 -92 32 -168t87.5 -131.5t129.5 -86t159 -30.5zM570 -123q-102 0 -192.5 37.5t-158 103t-106.5 155t-39 194.5q0 104 39 193.5t106.5 155t158 102.5t192.5 37t192 -37t157.5 -102.5t107 -155t39.5 -193.5
q0 -105 -39.5 -194.5t-107 -155t-157.5 -103t-192 -37.5z" />
    <glyph glyph-name="uni2469" unicode="&#x2469;" horiz-adv-x="1140" 
d="M889 370q0 -140 -43.5 -206t-129.5 -66q-88 0 -131.5 66t-43.5 206t43.5 204t131.5 64q86 0 129.5 -64t43.5 -204zM716 182q18 0 29 14t17.5 39t9 59.5t2.5 75.5q0 40 -2.5 74t-9 58.5t-17.5 38t-29 13.5q-19 0 -30.5 -13.5t-18 -38t-8.5 -58.5t-2 -74q0 -41 2 -75.5
t8.5 -59.5t18 -39t30.5 -14zM570 -49q85 0 159 30.5t129.5 86t87.5 131.5t32 168q0 91 -32 167t-87.5 131t-129.5 85.5t-159 30.5t-159 -30.5t-129.5 -85.5t-87.5 -131t-32 -167q0 -92 32 -168t87.5 -131.5t129.5 -86t159 -30.5zM570 -123q-102 0 -192.5 37.5t-158 103
t-106.5 155t-39 194.5q0 104 39 193.5t106.5 155t158 102.5t192.5 37t192 -37t157.5 -102.5t107 -155t39.5 -193.5q0 -105 -39.5 -194.5t-107 -155t-157.5 -103t-192 -37.5zM259 195h86v320q-31 -14 -72 -23l-21 75q40 14 75 32.5t58 30.5h76v-435h84v-87h-286v87z" />
    <glyph glyph-name="uni246A" unicode="&#x246a;" horiz-adv-x="1140" 
d="M570 -49q85 0 159 30.5t129.5 86t87.5 131.5t32 168q0 91 -32 167t-87.5 131t-129.5 85.5t-159 30.5t-159 -30.5t-129.5 -85.5t-87.5 -131t-32 -167q0 -92 32 -168t87.5 -131.5t129.5 -86t159 -30.5zM570 -123q-102 0 -192.5 37.5t-158 103t-106.5 155t-39 194.5
q0 104 39 193.5t106.5 155t158 102.5t192.5 37t192 -37t157.5 -102.5t107 -155t39.5 -193.5q0 -105 -39.5 -194.5t-107 -155t-157.5 -103t-192 -37.5zM279 195h86v320q-31 -14 -72 -23l-21 75q40 14 75 32.5t58 30.5h76v-435h84v-87h-286v87zM596 195h86v320
q-31 -14 -72 -23l-21 75q40 14 75 32.5t58 30.5h76v-435h84v-87h-286v87z" />
    <glyph glyph-name="uni246B" unicode="&#x246b;" horiz-adv-x="1140" 
d="M816 380q-17 -27 -31.5 -51t-29 -46.5t-29.5 -44.5t-31 -45h174v-84h-295v67q0 23 13 45.5t23 36.5q25 35 49.5 74.5t49.5 78.5q13 20 24.5 44.5t11.5 44.5q0 54 -51 54q-24 0 -45 -6t-52 -14l-16 77q26 11 54.5 20t60.5 9q81 0 124.5 -37t43.5 -101q0 -17 -5.5 -35
t-13 -34.5t-15.5 -30t-14 -22.5zM570 -49q85 0 159 30.5t129.5 86t87.5 131.5t32 168q0 91 -32 167t-87.5 131t-129.5 85.5t-159 30.5t-159 -30.5t-129.5 -85.5t-87.5 -131t-32 -167q0 -92 32 -168t87.5 -131.5t129.5 -86t159 -30.5zM570 -123q-102 0 -192.5 37.5t-158 103
t-106.5 155t-39 194.5q0 104 39 193.5t106.5 155t158 102.5t192.5 37t192 -37t157.5 -102.5t107 -155t39.5 -193.5q0 -105 -39.5 -194.5t-107 -155t-157.5 -103t-192 -37.5zM284 195h81v320q-13 -5 -32.5 -10.5t-34.5 -9.5l-21 72q40 14 72 31t56 32h76v-435h73v-87h-270v87
z" />
    <glyph glyph-name="uni246C" unicode="&#x246c;" horiz-adv-x="1140" 
d="M672 182q36 0 58 23t22 67q0 42 -16.5 65t-47.5 23q-14 0 -39 -9l-41 38l95 153h-127v86h242l34 -32l-106 -162q58 -12 92.5 -55.5t34.5 -106.5q0 -39 -14.5 -71t-41 -55.5t-63 -36.5t-80.5 -13q-57 0 -118 24l19 80q29 -10 51.5 -14t45.5 -4zM570 -49q85 0 159 30.5
t129.5 86t87.5 131.5t32 168q0 91 -32 167t-87.5 131t-129.5 85.5t-159 30.5t-159 -30.5t-129.5 -85.5t-87.5 -131t-32 -167q0 -92 32 -168t87.5 -131.5t129.5 -86t159 -30.5zM570 -123q-102 0 -192.5 37.5t-158 103t-106.5 155t-39 194.5q0 104 39 193.5t106.5 155
t158 102.5t192.5 37t192 -37t157.5 -102.5t107 -155t39.5 -193.5q0 -105 -39.5 -194.5t-107 -155t-157.5 -103t-192 -37.5zM281 195h81v320q-13 -5 -32.5 -10.5t-34.5 -9.5l-21 72q40 14 72 31t56 32h76v-435h72v-87h-269v87z" />
    <glyph glyph-name="uni246D" unicode="&#x246d;" horiz-adv-x="1140" 
d="M812 319h58v-83h-58v-127h-112v127h-183v46q0 15 5.5 29t10.5 25l130 292h149v-309zM700 473l-55 -154h55v154zM570 -49q85 0 159 30.5t129.5 86t87.5 131.5t32 168q0 91 -32 167t-87.5 131t-129.5 85.5t-159 30.5t-159 -30.5t-129.5 -85.5t-87.5 -131t-32 -167
q0 -92 32 -168t87.5 -131.5t129.5 -86t159 -30.5zM570 -123q-102 0 -192.5 37.5t-158 103t-106.5 155t-39 194.5q0 104 39 193.5t106.5 155t158 102.5t192.5 37t192 -37t157.5 -102.5t107 -155t39.5 -193.5q0 -105 -39.5 -194.5t-107 -155t-157.5 -103t-192 -37.5zM266 195
h81v320q-13 -5 -32.5 -10.5t-34.5 -9.5l-21 72q40 14 72 31t56 32h76v-435h72v-87h-269v87z" />
    <glyph glyph-name="uni246E" unicode="&#x246e;" horiz-adv-x="1140" 
d="M586 628h251v-86h-134v-92q7 1 12 1h8q40 0 69.5 -14t48 -38t27.5 -56t9 -68q0 -34 -13 -66t-38.5 -57t-62.5 -40.5t-85 -15.5q-30 0 -61 7.5t-60 21.5l20 80q32 -11 54.5 -17t45.5 -6q42 0 62.5 27t20.5 66q0 43 -16.5 68t-57.5 25q-16 0 -31 -3t-30 -8l-39 27v244z
M570 -49q85 0 159 30.5t129.5 86t87.5 131.5t32 168q0 91 -32 167t-87.5 131t-129.5 85.5t-159 30.5t-159 -30.5t-129.5 -85.5t-87.5 -131t-32 -167q0 -92 32 -168t87.5 -131.5t129.5 -86t159 -30.5zM570 -123q-102 0 -192.5 37.5t-158 103t-106.5 155t-39 194.5
q0 104 39 193.5t106.5 155t158 102.5t192.5 37t192 -37t157.5 -102.5t107 -155t39.5 -193.5q0 -105 -39.5 -194.5t-107 -155t-157.5 -103t-192 -37.5zM281 195h81v320q-13 -5 -32.5 -10.5t-34.5 -9.5l-21 72q40 14 72 31t56 32h76v-435h72v-87h-269v87z" />
    <glyph glyph-name="uni246F" unicode="&#x246f;" horiz-adv-x="1140" 
d="M570 -123q-102 0 -192.5 37.5t-158 103t-106.5 155t-39 194.5q0 104 39 193.5t106.5 155t158 102.5t192.5 37t192 -37t157.5 -102.5t107 -155t39.5 -193.5q0 -105 -39.5 -194.5t-107 -155t-157.5 -103t-192 -37.5zM266 195h81v320q-13 -5 -32.5 -10.5t-34.5 -9.5l-21 72
q40 14 72 31t56 32h76v-435h72v-87h-269v87zM836 574q-68 -2 -111.5 -33.5t-66.5 -94.5q15 10 30.5 16t35.5 6q84 0 126 -51t42 -132q0 -38 -11 -72.5t-33.5 -61t-56.5 -42t-79 -15.5q-51 0 -86 18.5t-57.5 50t-32.5 72t-10 85.5q0 77 21.5 142.5t70.5 112.5q42 40 99 54.5
t115 14.5zM712 179q20 0 32 9.5t18.5 24.5t8.5 34t2 38q0 48 -12.5 73.5t-50.5 25.5q-22 0 -38 -9.5t-27 -25.5q-2 -5 -3 -19t-1 -22q0 -27 3 -50.5t11.5 -41t22 -27.5t34.5 -10zM570 -49q85 0 159 30.5t129.5 86t87.5 131.5t32 168q0 91 -32 167t-87.5 131t-129.5 85.5
t-159 30.5t-159 -30.5t-129.5 -85.5t-87.5 -131t-32 -167q0 -92 32 -168t87.5 -131.5t129.5 -86t159 -30.5z" />
    <glyph glyph-name="uni2470" unicode="&#x2470;" horiz-adv-x="1140" 
d="M570 -123q-102 0 -192.5 37.5t-158 103t-106.5 155t-39 194.5q0 104 39 193.5t106.5 155t158 102.5t192.5 37t192 -37t157.5 -102.5t107 -155t39.5 -193.5q0 -105 -39.5 -194.5t-107 -155t-157.5 -103t-192 -37.5zM277 195h81v320q-13 -5 -32.5 -10.5t-34.5 -9.5l-21 72
q40 14 72 31t56 32h76v-435h72v-87h-269v87zM885 606l-170 -504h-121l148 445h-183v83h298zM570 -49q85 0 159 30.5t129.5 86t87.5 131.5t32 168q0 91 -32 167t-87.5 131t-129.5 85.5t-159 30.5t-159 -30.5t-129.5 -85.5t-87.5 -131t-32 -167q0 -92 32 -168t87.5 -131.5
t129.5 -86t159 -30.5z" />
    <glyph glyph-name="uni2471" unicode="&#x2471;" horiz-adv-x="1140" 
d="M570 -123q-102 0 -192.5 37.5t-158 103t-106.5 155t-39 194.5q0 104 39 193.5t106.5 155t158 102.5t192.5 37t192 -37t157.5 -102.5t107 -155t39.5 -193.5q0 -105 -39.5 -194.5t-107 -155t-157.5 -103t-192 -37.5zM266 195h81v320q-13 -5 -32.5 -10.5t-34.5 -9.5l-21 72
q40 14 72 31t56 32h76v-435h72v-87h-269v87zM712 93q-41 0 -75 11.5t-58 32.5t-37.5 51t-13.5 67q0 43 15 78.5t58 60.5q-27 20 -36.5 47.5t-9.5 58.5q0 33 12 59.5t33 45.5t50 29t63 10q70 0 114 -38t44 -106q0 -31 -9.5 -58.5t-36.5 -47.5q43 -25 57.5 -60t14.5 -79
q0 -74 -50 -118t-135 -44zM713 177q35 0 50.5 22.5t15.5 55.5t-15.5 60.5t-50.5 42.5q-35 -15 -50.5 -42.5t-15.5 -60.5t15.5 -55.5t50.5 -22.5zM670 499q0 -25 9.5 -43t32.5 -24q23 6 33.5 24t10.5 43t-10 43t-32 18q-23 0 -33.5 -18t-10.5 -43zM570 -49q85 0 159 30.5
t129.5 86t87.5 131.5t32 168q0 91 -32 167t-87.5 131t-129.5 85.5t-159 30.5t-159 -30.5t-129.5 -85.5t-87.5 -131t-32 -167q0 -92 32 -168t87.5 -131.5t129.5 -86t159 -30.5z" />
    <glyph glyph-name="uni2472" unicode="&#x2472;" horiz-adv-x="1140" 
d="M570 -123q-102 0 -192.5 37.5t-158 103t-106.5 155t-39 194.5q0 104 39 193.5t106.5 155t158 102.5t192.5 37t192 -37t157.5 -102.5t107 -155t39.5 -193.5q0 -105 -39.5 -194.5t-107 -155t-157.5 -103t-192 -37.5zM600 161q28 11 53 24t46 30q36 30 56 79
q-27 -24 -68 -24q-40 0 -72 13.5t-54 37.5t-34 57t-12 73q0 39 12 74.5t35 61.5t57.5 41.5t78.5 15.5q50 0 85 -17.5t56.5 -47t31.5 -68.5t10 -81q0 -78 -22 -147t-70 -116q-31 -30 -71.5 -49.5t-94.5 -27.5zM698 559q-34 0 -49 -31t-15 -77q0 -19 2.5 -36.5t9.5 -31
t19 -21.5t31 -8q29 0 42.5 15t23.5 34q2 3 3.5 17.5t1.5 20.5q0 23 -3 44t-11 37.5t-21 26.5t-34 10zM266 195h81v320q-13 -5 -32.5 -10.5t-34.5 -9.5l-21 72q40 14 72 31t56 32h76v-435h72v-87h-269v87zM570 -49q85 0 159 30.5t129.5 86t87.5 131.5t32 168q0 91 -32 167
t-87.5 131t-129.5 85.5t-159 30.5t-159 -30.5t-129.5 -85.5t-87.5 -131t-32 -167q0 -92 32 -168t87.5 -131.5t129.5 -86t159 -30.5z" />
    <glyph glyph-name="uni2473" unicode="&#x2473;" horiz-adv-x="1140" 
d="M570 -123q-102 0 -192.5 37.5t-158 103t-106.5 155t-39 194.5q0 104 39 193.5t106.5 155t158 102.5t192.5 37t192 -37t157.5 -102.5t107 -155t39.5 -193.5q0 -105 -39.5 -194.5t-107 -155t-157.5 -103t-192 -37.5zM390 193h164v-84h-285v67q0 11 4 22.5t10 22.5t12 20.5
t10 16.5l89 153q12 21 24 46.5t12 45.5q0 28 -10.5 39.5t-35.5 11.5q-24 0 -42.5 -6t-49.5 -14l-16 77q23 11 50.5 20t59.5 9q81 0 122 -35.5t41 -99.5q0 -17 -5.5 -35t-13 -35t-16 -31.5t-13.5 -23.5zM899 370q0 -140 -38.5 -206t-124.5 -66q-88 0 -126.5 66t-38.5 206
q0 139 39 203.5t126 64.5q86 0 124.5 -64t38.5 -204zM736 182q18 0 28.5 14t16 39t7 59.5t1.5 75.5q0 40 -1.5 74t-7 58.5t-16 38t-28.5 13.5q-19 0 -29.5 -13.5t-16 -38t-7 -58.5t-1.5 -74q0 -41 1.5 -75.5t7 -59.5t16 -39t29.5 -14zM570 -49q85 0 159 30.5t129.5 86
t87.5 131.5t32 168q0 91 -32 167t-87.5 131t-129.5 85.5t-159 30.5t-159 -30.5t-129.5 -85.5t-87.5 -131t-32 -167q0 -92 32 -168t87.5 -131.5t129.5 -86t159 -30.5z" />
    <glyph glyph-name="uni2474" unicode="&#x2474;" horiz-adv-x="1140" 
d="M167 375q0 -51 7.5 -106t23 -109t40 -105t57.5 -93l-50 -37q-46 44 -78.5 99t-53 114.5t-30 120.5t-9.5 116t9.5 116t30 120.5t53 114.5t78.5 99l50 -37q-33 -42 -57.5 -93t-40 -105t-23 -109t-7.5 -106zM973 375q0 51 -7.5 106t-23 109t-40 105t-57.5 93l50 37
q46 -44 78.5 -99t53 -114.5t30 -120.5t9.5 -116t-9.5 -116t-30 -120.5t-53 -114.5t-78.5 -99l-50 37q33 42 57.5 93t40 105t23 109t7.5 106zM403 175h111v360l-20 -5t-25.5 -6.5t-27 -6.5t-23.5 -5l-23 75q21 7 44.5 15.5t45 17.5t40.5 16.5t31 13.5h80v-475h110v-87h-343
v87z" />
    <glyph glyph-name="uni2475" unicode="&#x2475;" horiz-adv-x="1140" 
d="M514 175h239v-87h-366v70q0 21 6 34t21 30q23 27 51.5 57.5t52.5 57.5q17 19 36 40.5t35 44t26.5 46t10.5 47.5q0 26 -20 44t-54 18q-36 0 -72 -8t-69 -18l-18 81q46 17 85.5 25.5t79.5 8.5q46 0 81.5 -12t59.5 -33t36.5 -49t12.5 -60q0 -27 -12.5 -56.5t-32 -59
t-43 -57.5t-45.5 -52q-24 -27 -51 -57.5t-50 -54.5zM167 375q0 -51 7.5 -106t23 -109t40 -105t57.5 -93l-50 -37q-46 44 -78.5 99t-53 114.5t-30 120.5t-9.5 116t9.5 116t30 120.5t53 114.5t78.5 99l50 -37q-33 -42 -57.5 -93t-40 -105t-23 -109t-7.5 -106zM973 375
q0 51 -7.5 106t-23 109t-40 105t-57.5 93l50 37q46 -44 78.5 -99t53 -114.5t30 -120.5t9.5 -116t-9.5 -116t-30 -120.5t-53 -114.5t-78.5 -99l-50 37q33 42 57.5 93t40 105t23 109t7.5 106z" />
    <glyph glyph-name="uni2476" unicode="&#x2476;" horiz-adv-x="1140" 
d="M535 160q45 0 74.5 27.5t29.5 77.5q0 44 -26 68.5t-60 24.5q-25 0 -52 -9l-47 41l116 170h-152v88h287l35 -33l-120 -180q66 -11 104 -57t38 -113q0 -42 -15.5 -77.5t-44.5 -61.5t-70.5 -40.5t-93.5 -14.5q-40 0 -79 8.5t-73 22.5l18 82q33 -11 66 -17.5t65 -6.5z
M167 375q0 -51 7.5 -106t23 -109t40 -105t57.5 -93l-50 -37q-46 44 -78.5 99t-53 114.5t-30 120.5t-9.5 116t9.5 116t30 120.5t53 114.5t78.5 99l50 -37q-33 -42 -57.5 -93t-40 -105t-23 -109t-7.5 -106zM973 375q0 51 -7.5 106t-23 109t-40 105t-57.5 93l50 37
q46 -44 78.5 -99t53 -114.5t30 -120.5t9.5 -116t-9.5 -116t-30 -120.5t-53 -114.5t-78.5 -99l-50 37q33 42 57.5 93t40 105t23 109t7.5 106z" />
    <glyph glyph-name="uni2477" unicode="&#x2477;" horiz-adv-x="1140" 
d="M691 318h76v-88h-76v-144h-117v144h-232v53q0 8 4 21t12 26l179 320h154v-332zM574 498l-97 -180h97v180zM167 375q0 -51 7.5 -106t23 -109t40 -105t57.5 -93l-50 -37q-46 44 -78.5 99t-53 114.5t-30 120.5t-9.5 116t9.5 116t30 120.5t53 114.5t78.5 99l50 -37
q-33 -42 -57.5 -93t-40 -105t-23 -109t-7.5 -106zM973 375q0 51 -7.5 106t-23 109t-40 105t-57.5 93l50 37q46 -44 78.5 -99t53 -114.5t30 -120.5t9.5 -116t-9.5 -116t-30 -120.5t-53 -114.5t-78.5 -99l-50 37q33 42 57.5 93t40 105t23 109t7.5 106z" />
    <glyph glyph-name="uni2478" unicode="&#x2478;" horiz-adv-x="1140" 
d="M429 648h294v-88h-172v-108q7 1 12.5 1h9.5q42 0 77.5 -13.5t61.5 -38.5t40.5 -59t14.5 -74t-16 -76t-45 -63t-70.5 -42.5t-93.5 -15.5q-36 0 -76.5 9t-73.5 22l18 82q32 -11 68 -17.5t63 -6.5q51 0 77.5 30.5t26.5 77.5q0 54 -29.5 76.5t-74.5 22.5q-17 0 -35.5 -4
t-35.5 -9l-41 29v265zM167 375q0 -51 7.5 -106t23 -109t40 -105t57.5 -93l-50 -37q-46 44 -78.5 99t-53 114.5t-30 120.5t-9.5 116t9.5 116t30 120.5t53 114.5t78.5 99l50 -37q-33 -42 -57.5 -93t-40 -105t-23 -109t-7.5 -106zM973 375q0 51 -7.5 106t-23 109t-40 105
t-57.5 93l50 37q46 -44 78.5 -99t53 -114.5t30 -120.5t9.5 -116t-9.5 -116t-30 -120.5t-53 -114.5t-78.5 -99l-50 37q33 42 57.5 93t40 105t23 109t7.5 106z" />
    <glyph glyph-name="uni2479" unicode="&#x2479;" horiz-adv-x="1140" 
d="M716 591q-80 -7 -134 -39.5t-79 -103.5q18 10 37.5 16.5t43.5 6.5q43 0 78.5 -13t61 -37.5t39 -59.5t13.5 -79q0 -41 -14.5 -78.5t-41 -66t-64 -45.5t-84.5 -17q-52 0 -91.5 20t-65.5 53.5t-39.5 77.5t-13.5 92q0 86 25 152t71 110t110.5 65t142.5 18zM572 163
q21 0 36 10t25.5 26.5t15.5 38t5 44.5q0 55 -22 78.5t-62 23.5q-27 0 -50.5 -10.5t-35.5 -27.5q-2 -5 -3 -18.5t-1 -21.5q0 -28 6 -53.5t18 -45.5t29 -32t39 -12zM167 375q0 -51 7.5 -106t23 -109t40 -105t57.5 -93l-50 -37q-46 44 -78.5 99t-53 114.5t-30 120.5t-9.5 116
t9.5 116t30 120.5t53 114.5t78.5 99l50 -37q-33 -42 -57.5 -93t-40 -105t-23 -109t-7.5 -106zM973 375q0 51 -7.5 106t-23 109t-40 105t-57.5 93l50 37q46 -44 78.5 -99t53 -114.5t30 -120.5t9.5 -116t-9.5 -116t-30 -120.5t-53 -114.5t-78.5 -99l-50 37q33 42 57.5 93
t40 105t23 109t7.5 106z" />
    <glyph glyph-name="uni247A" unicode="&#x247a;" horiz-adv-x="1140" 
d="M761 605l-191 -540h-125l168 479h-214v86h333zM167 375q0 -51 7.5 -106t23 -109t40 -105t57.5 -93l-50 -37q-46 44 -78.5 99t-53 114.5t-30 120.5t-9.5 116t9.5 116t30 120.5t53 114.5t78.5 99l50 -37q-33 -42 -57.5 -93t-40 -105t-23 -109t-7.5 -106zM973 375
q0 51 -7.5 106t-23 109t-40 105t-57.5 93l50 37q46 -44 78.5 -99t53 -114.5t30 -120.5t9.5 -116t-9.5 -116t-30 -120.5t-53 -114.5t-78.5 -99l-50 37q33 42 57.5 93t40 105t23 109t7.5 106z" />
    <glyph glyph-name="uni247B" unicode="&#x247b;" horiz-adv-x="1140" 
d="M569 74q-45 0 -83 13.5t-66 37t-44 56t-16 70.5q0 45 22 81.5t67 62.5q-28 21 -43 49t-15 60q0 34 13.5 63t37 50.5t56.5 33.5t72 12q40 0 73 -12t56.5 -33t36.5 -50t13 -64q0 -32 -15 -60t-43 -49q45 -26 66.5 -62.5t21.5 -81.5q0 -38 -15.5 -70.5t-43.5 -56t-66.5 -37
t-84.5 -13.5zM570 161q20 0 36 7.5t27.5 20.5t17.5 29t6 33q0 35 -25.5 63t-61.5 44q-37 -16 -62 -44t-25 -63q0 -17 6 -33t17 -29t27.5 -20.5t36.5 -7.5zM510 503q0 -26 16 -44.5t43 -24.5q28 6 44.5 24.5t16.5 44.5q0 13 -3.5 26t-11 23.5t-18.5 17t-26 6.5
q-16 0 -27.5 -6.5t-19 -17t-11 -23.5t-3.5 -26zM167 375q0 -51 7.5 -106t23 -109t40 -105t57.5 -93l-50 -37q-46 44 -78.5 99t-53 114.5t-30 120.5t-9.5 116t9.5 116t30 120.5t53 114.5t78.5 99l50 -37q-33 -42 -57.5 -93t-40 -105t-23 -109t-7.5 -106zM973 375
q0 51 -7.5 106t-23 109t-40 105t-57.5 93l50 37q46 -44 78.5 -99t53 -114.5t30 -120.5t9.5 -116t-9.5 -116t-30 -120.5t-53 -114.5t-78.5 -99l-50 37q33 42 57.5 93t40 105t23 109t7.5 106z" />
    <glyph glyph-name="uni247C" unicode="&#x247c;" horiz-adv-x="1140" 
d="M468 144q60 18 108 54.5t70 93.5q-20 -12 -45 -18.5t-47 -6.5q-41 0 -76.5 13t-61 37.5t-40 59t-14.5 77.5q0 44 14.5 82.5t41.5 66.5t64.5 44t83.5 16q52 0 91 -18t65.5 -49.5t40 -73.5t13.5 -90q0 -154 -71.5 -247.5t-212.5 -113.5zM566 575q-35 0 -58.5 -33t-23.5 -88
q0 -43 20 -71.5t60 -28.5q29 0 54 15t36 35q2 3 3.5 18t1.5 21q0 28 -6.5 52t-18.5 42t-29.5 28t-38.5 10zM167 375q0 -51 7.5 -106t23 -109t40 -105t57.5 -93l-50 -37q-46 44 -78.5 99t-53 114.5t-30 120.5t-9.5 116t9.5 116t30 120.5t53 114.5t78.5 99l50 -37
q-33 -42 -57.5 -93t-40 -105t-23 -109t-7.5 -106zM973 375q0 51 -7.5 106t-23 109t-40 105t-57.5 93l50 37q46 -44 78.5 -99t53 -114.5t30 -120.5t9.5 -116t-9.5 -116t-30 -120.5t-53 -114.5t-78.5 -99l-50 37q33 42 57.5 93t40 105t23 109t7.5 106z" />
    <glyph glyph-name="uni247D" unicode="&#x247d;" horiz-adv-x="1140" 
d="M899 370q0 -140 -46 -211t-132 -71q-88 0 -134 71t-46 211t46 209t134 69q86 0 132 -69t46 -209zM721 172q18 0 30 15.5t19.5 42.5t10.5 63t3 77q0 40 -3 75.5t-10.5 61.5t-19.5 41.5t-30 15.5q-19 0 -31 -15.5t-19.5 -41.5t-10.5 -61.5t-3 -75.5q0 -41 3 -77t10.5 -63
t19.5 -42.5t31 -15.5zM254 185h91v340q-15 -7 -36 -12.5t-41 -10.5l-21 75q40 14 77.5 32.5t60.5 30.5h76v-455h89v-87h-296v87zM167 375q0 -51 7.5 -106t23 -109t40 -105t57.5 -93l-50 -37q-46 44 -78.5 99t-53 114.5t-30 120.5t-9.5 116t9.5 116t30 120.5t53 114.5
t78.5 99l50 -37q-33 -42 -57.5 -93t-40 -105t-23 -109t-7.5 -106zM973 375q0 51 -7.5 106t-23 109t-40 105t-57.5 93l50 37q46 -44 78.5 -99t53 -114.5t30 -120.5t9.5 -116t-9.5 -116t-30 -120.5t-53 -114.5t-78.5 -99l-50 37q33 42 57.5 93t40 105t23 109t7.5 106z" />
    <glyph glyph-name="uni247E" unicode="&#x247e;" horiz-adv-x="1140" 
d="M269 185h91v340q-15 -7 -36 -12.5t-41 -10.5l-21 75q40 14 77.5 32.5t60.5 30.5h76v-455h89v-87h-296v87zM596 185h91v340q-15 -7 -36 -12.5t-41 -10.5l-21 75q40 14 77.5 32.5t60.5 30.5h76v-455h89v-87h-296v87zM167 375q0 -51 7.5 -106t23 -109t40 -105t57.5 -93
l-50 -37q-46 44 -78.5 99t-53 114.5t-30 120.5t-9.5 116t9.5 116t30 120.5t53 114.5t78.5 99l50 -37q-33 -42 -57.5 -93t-40 -105t-23 -109t-7.5 -106zM973 375q0 51 -7.5 106t-23 109t-40 105t-57.5 93l50 37q46 -44 78.5 -99t53 -114.5t30 -120.5t9.5 -116t-9.5 -116
t-30 -120.5t-53 -114.5t-78.5 -99l-50 37q33 42 57.5 93t40 105t23 109t7.5 106z" />
    <glyph glyph-name="uni247F" unicode="&#x247f;" horiz-adv-x="1140" 
d="M689 183h190v-84h-305v77q0 23 13 45.5t23 36.5l78 116q37 55 52 85.5t15 50.5q0 28 -15 41t-41 13q-24 0 -47.5 -6t-54.5 -14l-16 77q26 11 57 20t63 9q81 0 127 -37t46 -101q0 -20 -7.5 -42t-19.5 -45.5t-26.5 -46t-28.5 -43.5zM274 185h86v340q-13 -5 -35 -10.5
t-37 -9.5l-21 72q40 14 74.5 31t58.5 32h76v-455h78v-87h-280v87zM167 375q0 -51 7.5 -106t23 -109t40 -105t57.5 -93l-50 -37q-46 44 -78.5 99t-53 114.5t-30 120.5t-9.5 116t9.5 116t30 120.5t53 114.5t78.5 99l50 -37q-33 -42 -57.5 -93t-40 -105t-23 -109t-7.5 -106z
M973 375q0 51 -7.5 106t-23 109t-40 105t-57.5 93l50 37q46 -44 78.5 -99t53 -114.5t30 -120.5t9.5 -116t-9.5 -116t-30 -120.5t-53 -114.5t-78.5 -99l-50 37q33 42 57.5 93t40 105t23 109t7.5 106z" />
    <glyph glyph-name="uni2480" unicode="&#x2480;" horiz-adv-x="1140" 
d="M677 172q36 0 60.5 26t24.5 74q0 42 -19 65t-50 23q-19 0 -44 -9l-41 38l105 163h-137v86h252l34 -32l-106 -172q58 -12 92.5 -52.5t34.5 -109.5q0 -41 -15.5 -75t-42.5 -58.5t-64.5 -38.5t-81.5 -14q-28 0 -60 6t-63 18l19 80q29 -10 54 -14t48 -4zM271 185h86v340
q-13 -5 -35 -10.5t-37 -9.5l-21 72q40 14 74.5 31t58.5 32h76v-455h77v-87h-279v87zM167 375q0 -51 7.5 -106t23 -109t40 -105t57.5 -93l-50 -37q-46 44 -78.5 99t-53 114.5t-30 120.5t-9.5 116t9.5 116t30 120.5t53 114.5t78.5 99l50 -37q-33 -42 -57.5 -93t-40 -105
t-23 -109t-7.5 -106zM973 375q0 51 -7.5 106t-23 109t-40 105t-57.5 93l50 37q46 -44 78.5 -99t53 -114.5t30 -120.5t9.5 -116t-9.5 -116t-30 -120.5t-53 -114.5t-78.5 -99l-50 37q33 42 57.5 93t40 105t23 109t7.5 106z" />
    <glyph glyph-name="uni2481" unicode="&#x2481;" horiz-adv-x="1140" 
d="M817 319h63v-83h-63v-137h-112v137h-188v46q0 15 5.5 29t10.5 25l135 302h149v-319zM708 487l-69 -168h69v168zM256 185h86v340q-13 -5 -35 -10.5t-37 -9.5l-21 72q40 14 74.5 31t58.5 32h76v-455h77v-87h-279v87zM167 375q0 -51 7.5 -106t23 -109t40 -105t57.5 -93
l-50 -37q-46 44 -78.5 99t-53 114.5t-30 120.5t-9.5 116t9.5 116t30 120.5t53 114.5t78.5 99l50 -37q-33 -42 -57.5 -93t-40 -105t-23 -109t-7.5 -106zM973 375q0 51 -7.5 106t-23 109t-40 105t-57.5 93l50 37q46 -44 78.5 -99t53 -114.5t30 -120.5t9.5 -116t-9.5 -116
t-30 -120.5t-53 -114.5t-78.5 -99l-50 37q33 42 57.5 93t40 105t23 109t7.5 106z" />
    <glyph glyph-name="uni2482" unicode="&#x2482;" horiz-adv-x="1140" 
d="M586 638h261v-86h-144v-102q7 1 14.5 1h10.5q40 0 70 -14t50 -38t29.5 -56t9.5 -68q0 -38 -14 -72t-40.5 -60t-64 -41.5t-85.5 -15.5q-30 0 -63.5 7.5t-62.5 21.5l20 80q32 -11 57 -17t48 -6q42 0 65 28t23 75q0 43 -19 68t-60 25q-16 0 -33.5 -3t-32.5 -8l-39 27v254z
M271 185h86v340q-13 -5 -35 -10.5t-37 -9.5l-21 72q40 14 74.5 31t58.5 32h76v-455h77v-87h-279v87zM167 375q0 -51 7.5 -106t23 -109t40 -105t57.5 -93l-50 -37q-46 44 -78.5 99t-53 114.5t-30 120.5t-9.5 116t9.5 116t30 120.5t53 114.5t78.5 99l50 -37q-33 -42 -57.5 -93
t-40 -105t-23 -109t-7.5 -106zM973 375q0 51 -7.5 106t-23 109t-40 105t-57.5 93l50 37q46 -44 78.5 -99t53 -114.5t30 -120.5t9.5 -116t-9.5 -116t-30 -120.5t-53 -114.5t-78.5 -99l-50 37q33 42 57.5 93t40 105t23 109t7.5 106z" />
    <glyph glyph-name="uni2483" unicode="&#x2483;" horiz-adv-x="1140" 
d="M256 185h86v340q-13 -5 -35 -10.5t-37 -9.5l-21 72q40 14 74.5 31t58.5 32h76v-455h77v-87h-279v87zM846 584q-68 -2 -116.5 -38.5t-71.5 -99.5q15 10 33 16t38 6q84 0 128.5 -51t44.5 -132q0 -42 -12 -78.5t-35 -63.5t-58 -43t-80 -16q-51 0 -87 18.5t-59 51t-34 75.5
t-11 91q0 74 20 135t59.5 104.5t98.5 68t138 26.5zM717 169q20 0 32.5 9.5t20 26t10.5 37t3 43.5q0 48 -15 73.5t-53 25.5q-22 0 -40.5 -9.5t-29.5 -25.5q-2 -5 -3 -19t-1 -22q0 -62 17 -100.5t59 -38.5zM167 375q0 -51 7.5 -106t23 -109t40 -105t57.5 -93l-50 -37
q-46 44 -78.5 99t-53 114.5t-30 120.5t-9.5 116t9.5 116t30 120.5t53 114.5t78.5 99l50 -37q-33 -42 -57.5 -93t-40 -105t-23 -109t-7.5 -106zM973 375q0 51 -7.5 106t-23 109t-40 105t-57.5 93l50 37q46 -44 78.5 -99t53 -114.5t30 -120.5t9.5 -116t-9.5 -116t-30 -120.5
t-53 -114.5t-78.5 -99l-50 37q33 42 57.5 93t40 105t23 109t7.5 106z" />
    <glyph glyph-name="uni2484" unicode="&#x2484;" horiz-adv-x="1140" 
d="M267 185h86v340q-13 -5 -35 -10.5t-37 -9.5l-21 72q40 14 74.5 31t58.5 32h76v-455h77v-87h-279v87zM895 616l-170 -524h-121l148 465h-193v83h308zM167 375q0 -51 7.5 -106t23 -109t40 -105t57.5 -93l-50 -37q-46 44 -78.5 99t-53 114.5t-30 120.5t-9.5 116t9.5 116
t30 120.5t53 114.5t78.5 99l50 -37q-33 -42 -57.5 -93t-40 -105t-23 -109t-7.5 -106zM973 375q0 51 -7.5 106t-23 109t-40 105t-57.5 93l50 37q46 -44 78.5 -99t53 -114.5t30 -120.5t9.5 -116t-9.5 -116t-30 -120.5t-53 -114.5t-78.5 -99l-50 37q33 42 57.5 93t40 105
t23 109t7.5 106z" />
    <glyph glyph-name="uni2485" unicode="&#x2485;" horiz-adv-x="1140" 
d="M256 185h86v340q-13 -5 -35 -10.5t-37 -9.5l-21 72q40 14 74.5 31t58.5 32h76v-455h77v-87h-279v87zM717 83q-41 0 -76 12.5t-60 35t-39 54t-14 70.5q0 43 16.5 78.5t59.5 60.5q-27 20 -38 47.5t-11 58.5q0 35 12.5 63.5t34.5 48.5t52 31t64 11q35 0 65 -10.5t51.5 -30.5
t34 -48.5t12.5 -64.5q0 -31 -11 -58.5t-38 -47.5q43 -25 59 -60t16 -79q0 -39 -14 -70.5t-39 -54t-60 -35t-77 -12.5zM718 167q35 0 53 27.5t18 60.5t-18 60.5t-53 42.5q-35 -15 -53 -42.5t-18 -60.5t18 -60.5t53 -27.5zM670 499q0 -29 12 -45t35 -22q23 6 36 22t13 45
t-12.5 50t-34.5 21q-23 0 -36 -21t-13 -50zM167 375q0 -51 7.5 -106t23 -109t40 -105t57.5 -93l-50 -37q-46 44 -78.5 99t-53 114.5t-30 120.5t-9.5 116t9.5 116t30 120.5t53 114.5t78.5 99l50 -37q-33 -42 -57.5 -93t-40 -105t-23 -109t-7.5 -106zM973 375q0 51 -7.5 106
t-23 109t-40 105t-57.5 93l50 37q46 -44 78.5 -99t53 -114.5t30 -120.5t9.5 -116t-9.5 -116t-30 -120.5t-53 -114.5t-78.5 -99l-50 37q33 42 57.5 93t40 105t23 109t7.5 106z" />
    <glyph glyph-name="uni2486" unicode="&#x2486;" horiz-adv-x="1140" 
d="M600 151q25 10 49.5 23t46.5 30.5t40 40t30 51.5q-13 -11 -33 -18.5t-41 -7.5q-81 0 -129 48.5t-48 132.5q0 41 13 78t37 64.5t59 44t79 16.5q50 0 86 -18.5t58.5 -49.5t33 -71.5t10.5 -84.5q0 -63 -16.5 -122t-49.5 -106t-83.5 -79.5t-118.5 -42.5zM703 569
q-34 0 -51.5 -34t-17.5 -84q0 -42 14.5 -69.5t52.5 -27.5q29 0 45 14t26 33q2 3 3.5 18.5t1.5 21.5q0 25 -4 48t-12.5 41t-22.5 28.5t-35 10.5zM256 185h86v340q-13 -5 -35 -10.5t-37 -9.5l-21 72q40 14 74.5 31t58.5 32h76v-455h77v-87h-279v87zM167 375q0 -51 7.5 -106
t23 -109t40 -105t57.5 -93l-50 -37q-46 44 -78.5 99t-53 114.5t-30 120.5t-9.5 116t9.5 116t30 120.5t53 114.5t78.5 99l50 -37q-33 -42 -57.5 -93t-40 -105t-23 -109t-7.5 -106zM973 375q0 51 -7.5 106t-23 109t-40 105t-57.5 93l50 37q46 -44 78.5 -99t53 -114.5
t30 -120.5t9.5 -116t-9.5 -116t-30 -120.5t-53 -114.5t-78.5 -99l-50 37q33 42 57.5 93t40 105t23 109t7.5 106z" />
    <glyph glyph-name="uni2487" unicode="&#x2487;" horiz-adv-x="1140" 
d="M549 505q0 -19 -7.5 -41.5t-19.5 -46.5t-27.5 -49.5t-30.5 -50.5l-84 -134h174v-84h-295v67q0 23 13.5 45.5t22.5 36.5l67 108q33 54 50.5 90t17.5 61q0 28 -15.5 42.5t-40.5 14.5q-21 0 -43.5 -5t-48.5 -13l-16 76q23 11 53 19.5t62 8.5q81 0 124.5 -40.5t43.5 -104.5z
M905 370q0 -140 -40 -211t-126 -71q-88 0 -128 71t-40 211t40 209t128 69q86 0 126 -69t40 -209zM739 172q18 0 29 15.5t17 42.5t8 63t2 77q0 40 -2 75.5t-8 61.5t-17 41.5t-29 15.5q-19 0 -30 -15.5t-17 -41.5t-8 -61.5t-2 -75.5q0 -41 2 -77t8 -63t17 -42.5t30 -15.5z
M167 375q0 -51 7.5 -106t23 -109t40 -105t57.5 -93l-50 -37q-46 44 -78.5 99t-53 114.5t-30 120.5t-9.5 116t9.5 116t30 120.5t53 114.5t78.5 99l50 -37q-33 -42 -57.5 -93t-40 -105t-23 -109t-7.5 -106zM973 375q0 51 -7.5 106t-23 109t-40 105t-57.5 93l50 37
q46 -44 78.5 -99t53 -114.5t30 -120.5t9.5 -116t-9.5 -116t-30 -120.5t-53 -114.5t-78.5 -99l-50 37q33 42 57.5 93t40 105t23 109t7.5 106z" />
    <glyph glyph-name="uni249C" unicode="&#x249c;" horiz-adv-x="1140" 
d="M635 342q-21 5 -41.5 8t-37.5 3q-30 0 -45.5 -19t-15.5 -51t15 -51.5t47 -19.5q19 0 37 1.5t41 6.5v122zM636 445q0 35 -16.5 50.5t-52.5 15.5q-34 0 -68 -2.5t-76 -7.5l-10 81q19 4 40.5 8t43 7t41.5 5t36 2q94 0 143.5 -42.5t49.5 -136.5v-254q-23 -9 -50 -18
t-56 -16.5t-58 -12t-56 -4.5q-42 0 -76.5 12t-58.5 33.5t-37 51.5t-13 66t13 66t37 51.5t58.5 33.5t76.5 12q23 0 46 -4t43 -9v12zM167 375q0 -51 7.5 -106t23 -109t40 -105t57.5 -93l-50 -37q-46 44 -78.5 99t-53 114.5t-30 120.5t-9.5 116t9.5 116t30 120.5t53 114.5
t78.5 99l50 -37q-33 -42 -57.5 -93t-40 -105t-23 -109t-7.5 -106zM973 375q0 51 -7.5 106t-23 109t-40 105t-57.5 93l50 37q46 -44 78.5 -99t53 -114.5t30 -120.5t9.5 -116t-9.5 -116t-30 -120.5t-53 -114.5t-78.5 -99l-50 37q33 42 57.5 93t40 105t23 109t7.5 106z" />
    <glyph glyph-name="uni249D" unicode="&#x249d;" horiz-adv-x="1140" 
d="M400 699l132 12v-192q19 6 40 9.5t40 3.5q44 0 82 -16t65.5 -46.5t43.5 -74t16 -98.5q0 -59 -16.5 -103t-45 -73t-66.5 -44t-82 -15q-46 0 -100.5 4t-108.5 12v621zM532 157q33 -3 65 -3q45 0 68 34t23 109q0 31 -5.5 57t-17 45.5t-28 30.5t-38.5 11q-14 0 -32 -3
t-35 -10v-271zM167 375q0 -51 7.5 -106t23 -109t40 -105t57.5 -93l-50 -37q-46 44 -78.5 99t-53 114.5t-30 120.5t-9.5 116t9.5 116t30 120.5t53 114.5t78.5 99l50 -37q-33 -42 -57.5 -93t-40 -105t-23 -109t-7.5 -106zM973 375q0 51 -7.5 106t-23 109t-40 105t-57.5 93
l50 37q46 -44 78.5 -99t53 -114.5t30 -120.5t9.5 -116t-9.5 -116t-30 -120.5t-53 -114.5t-78.5 -99l-50 37q33 42 57.5 93t40 105t23 109t7.5 106z" />
    <glyph glyph-name="uni249E" unicode="&#x249e;" horiz-adv-x="1140" 
d="M503 364q0 -68 18 -110t65 -42q35 0 70.5 10.5t78.5 28.5l27 -83q-46 -23 -96.5 -35.5t-91.5 -12.5q-97 0 -151.5 63.5t-54.5 180.5q0 115 54.5 177.5t151.5 62.5q88 0 180 -48l-28 -82q-42 19 -75 28.5t-65 9.5q-44 0 -63.5 -40t-19.5 -108zM167 375q0 -51 7.5 -106
t23 -109t40 -105t57.5 -93l-50 -37q-46 44 -78.5 99t-53 114.5t-30 120.5t-9.5 116t9.5 116t30 120.5t53 114.5t78.5 99l50 -37q-33 -42 -57.5 -93t-40 -105t-23 -109t-7.5 -106zM973 375q0 51 -7.5 106t-23 109t-40 105t-57.5 93l50 37q46 -44 78.5 -99t53 -114.5
t30 -120.5t9.5 -116t-9.5 -116t-30 -120.5t-53 -114.5t-78.5 -99l-50 37q33 42 57.5 93t40 105t23 109t7.5 106z" />
    <glyph glyph-name="uni249F" unicode="&#x249f;" horiz-adv-x="1140" 
d="M744 125q-51 -23 -106.5 -43t-103.5 -20q-47 0 -85 16t-65 47t-42 75t-15 101q0 55 15.5 99.5t43 76t65.5 48t83 16.5q20 0 39.5 -4t39.5 -10v181l131 11v-594zM613 436q-36 14 -68 14q-22 0 -38.5 -11.5t-27 -31.5t-16 -47t-5.5 -58q0 -32 5 -59t15.5 -46.5t27 -31
t39.5 -11.5q20 0 37.5 4t30.5 11v267zM167 375q0 -51 7.5 -106t23 -109t40 -105t57.5 -93l-50 -37q-46 44 -78.5 99t-53 114.5t-30 120.5t-9.5 116t9.5 116t30 120.5t53 114.5t78.5 99l50 -37q-33 -42 -57.5 -93t-40 -105t-23 -109t-7.5 -106zM973 375q0 51 -7.5 106
t-23 109t-40 105t-57.5 93l50 37q46 -44 78.5 -99t53 -114.5t30 -120.5t9.5 -116t-9.5 -116t-30 -120.5t-53 -114.5t-78.5 -99l-50 37q33 42 57.5 93t40 105t23 109t7.5 106z" />
    <glyph glyph-name="uni24A0" unicode="&#x24a0;" horiz-adv-x="1140" 
d="M597 212q35 0 69 7t76 22l20 -84q-35 -16 -80 -26.5t-93 -10.5q-113 0 -165.5 61t-52.5 179q0 115 49.5 180t156.5 65q60 0 98.5 -19.5t61 -49.5t31.5 -66.5t11 -70.5q2 -33 0 -76h-275q0 -24 4 -44t14 -35t28 -23.5t47 -8.5zM649 415q-5 42 -21 70t-51 28t-53 -27
t-20 -71h145zM167 375q0 -51 7.5 -106t23 -109t40 -105t57.5 -93l-50 -37q-46 44 -78.5 99t-53 114.5t-30 120.5t-9.5 116t9.5 116t30 120.5t53 114.5t78.5 99l50 -37q-33 -42 -57.5 -93t-40 -105t-23 -109t-7.5 -106zM973 375q0 51 -7.5 106t-23 109t-40 105t-57.5 93
l50 37q46 -44 78.5 -99t53 -114.5t30 -120.5t9.5 -116t-9.5 -116t-30 -120.5t-53 -114.5t-78.5 -99l-50 37q33 42 57.5 93t40 105t23 109t7.5 106z" />
    <glyph glyph-name="uni24A1" unicode="&#x24a1;" horiz-adv-x="1140" 
d="M484 36v356h-53v93h53v52q0 39 12 65.5t33.5 43.5t51 24.5t63.5 7.5q25 0 48 -4.5t40 -12.5l-16 -81q-14 4 -27.5 6.5t-28.5 2.5q-45 0 -45 -56v-48h86v-93h-86v-356h-131zM167 375q0 -51 7.5 -106t23 -109t40 -105t57.5 -93l-50 -37q-46 44 -78.5 99t-53 114.5
t-30 120.5t-9.5 116t9.5 116t30 120.5t53 114.5t78.5 99l50 -37q-33 -42 -57.5 -93t-40 -105t-23 -109t-7.5 -106zM973 375q0 51 -7.5 106t-23 109t-40 105t-57.5 93l50 37q46 -44 78.5 -99t53 -114.5t30 -120.5t9.5 -116t-9.5 -116t-30 -120.5t-53 -114.5t-78.5 -99l-50 37
q33 42 57.5 93t40 105t23 109t7.5 106z" />
    <glyph glyph-name="uni24A2" unicode="&#x24a2;" horiz-adv-x="1140" 
d="M775 240q0 -71 -32 -113.5t-83 -65t-114 -30t-124 -7.5l-5 87q35 3 74.5 8.5t73.5 20t56 39t22 64.5v7q-17 -5 -38 -9t-42 -4q-45 0 -83.5 15.5t-66.5 46t-43.5 74.5t-15.5 101t15.5 101.5t43.5 75t66.5 46.5t83.5 16q26 0 55.5 -7t58 -17t54 -21t44.5 -20v-408zM643 603
q-17 7 -34.5 11.5t-34.5 4.5q-41 0 -64.5 -37t-23.5 -109q0 -69 21.5 -106.5t66.5 -37.5q19 0 35 3.5t34 11.5v259zM167 375q0 -51 7.5 -106t23 -109t40 -105t57.5 -93l-50 -37q-46 44 -78.5 99t-53 114.5t-30 120.5t-9.5 116t9.5 116t30 120.5t53 114.5t78.5 99l50 -37
q-33 -42 -57.5 -93t-40 -105t-23 -109t-7.5 -106zM973 375q0 51 -7.5 106t-23 109t-40 105t-57.5 93l50 37q46 -44 78.5 -99t53 -114.5t30 -120.5t9.5 -116t-9.5 -116t-30 -120.5t-53 -114.5t-78.5 -99l-50 37q33 42 57.5 93t40 105t23 109t7.5 106z" />
    <glyph glyph-name="uni24A3" unicode="&#x24a3;" horiz-adv-x="1140" 
d="M405 65v634l129 12v-198q23 8 46 13t48 5q92 0 133 -40t41 -114v-312h-131v310q0 40 -15 51.5t-41 11.5q-20 0 -41 -4.5t-40 -9.5v-359h-129zM167 375q0 -51 7.5 -106t23 -109t40 -105t57.5 -93l-50 -37q-46 44 -78.5 99t-53 114.5t-30 120.5t-9.5 116t9.5 116t30 120.5
t53 114.5t78.5 99l50 -37q-33 -42 -57.5 -93t-40 -105t-23 -109t-7.5 -106zM973 375q0 51 -7.5 106t-23 109t-40 105t-57.5 93l50 37q46 -44 78.5 -99t53 -114.5t30 -120.5t9.5 -116t-9.5 -116t-30 -120.5t-53 -114.5t-78.5 -99l-50 37q33 42 57.5 93t40 105t23 109t7.5 106
z" />
    <glyph glyph-name="uni24A4" unicode="&#x24a4;" horiz-adv-x="1140" 
d="M503 46v457h132v-457h-132zM492 631q0 36 23 57t55 21t55 -21t23 -57q0 -37 -23 -57.5t-55 -20.5t-55 20.5t-23 57.5zM167 375q0 -51 7.5 -106t23 -109t40 -105t57.5 -93l-50 -37q-46 44 -78.5 99t-53 114.5t-30 120.5t-9.5 116t9.5 116t30 120.5t53 114.5t78.5 99
l50 -37q-33 -42 -57.5 -93t-40 -105t-23 -109t-7.5 -106zM973 375q0 51 -7.5 106t-23 109t-40 105t-57.5 93l50 37q46 -44 78.5 -99t53 -114.5t30 -120.5t9.5 -116t-9.5 -116t-30 -120.5t-53 -114.5t-78.5 -99l-50 37q33 42 57.5 93t40 105t23 109t7.5 106z" />
    <glyph glyph-name="uni24A5" unicode="&#x24a5;" horiz-adv-x="1140" 
d="M439 43q46 45 60 94t14 102v286h131v-290q0 -81 -34 -146.5t-110 -108.5zM502 653q0 36 23 57t55 21t55 -21t23 -57q0 -37 -23 -57.5t-55 -20.5t-55 20.5t-23 57.5zM167 375q0 -51 7.5 -106t23 -109t40 -105t57.5 -93l-50 -37q-46 44 -78.5 99t-53 114.5t-30 120.5
t-9.5 116t9.5 116t30 120.5t53 114.5t78.5 99l50 -37q-33 -42 -57.5 -93t-40 -105t-23 -109t-7.5 -106zM973 375q0 51 -7.5 106t-23 109t-40 105t-57.5 93l50 37q46 -44 78.5 -99t53 -114.5t30 -120.5t9.5 -116t-9.5 -116t-30 -120.5t-53 -114.5t-78.5 -99l-50 37
q33 42 57.5 93t40 105t23 109t7.5 106z" />
    <glyph glyph-name="uni24A6" unicode="&#x24a6;" horiz-adv-x="1140" 
d="M533 325l135 198h136l-140 -204l165 -254h-140zM528 65h-132v631l132 13v-644zM167 375q0 -51 7.5 -106t23 -109t40 -105t57.5 -93l-50 -37q-46 44 -78.5 99t-53 114.5t-30 120.5t-9.5 116t9.5 116t30 120.5t53 114.5t78.5 99l50 -37q-33 -42 -57.5 -93t-40 -105
t-23 -109t-7.5 -106zM973 375q0 51 -7.5 106t-23 109t-40 105t-57.5 93l50 37q46 -44 78.5 -99t53 -114.5t30 -120.5t9.5 -116t-9.5 -116t-30 -120.5t-53 -114.5t-78.5 -99l-50 37q33 42 57.5 93t40 105t23 109t7.5 106z" />
    <glyph glyph-name="uni24A7" unicode="&#x24a7;" horiz-adv-x="1140" 
d="M668 46q-39 6 -70 17.5t-53.5 30.5t-34.5 46.5t-12 66.5v482l132 13v-493q0 -33 18 -52t49 -28zM167 375q0 -51 7.5 -106t23 -109t40 -105t57.5 -93l-50 -37q-46 44 -78.5 99t-53 114.5t-30 120.5t-9.5 116t9.5 116t30 120.5t53 114.5t78.5 99l50 -37q-33 -42 -57.5 -93
t-40 -105t-23 -109t-7.5 -106zM973 375q0 51 -7.5 106t-23 109t-40 105t-57.5 93l50 37q46 -44 78.5 -99t53 -114.5t30 -120.5t9.5 -116t-9.5 -116t-30 -120.5t-53 -114.5t-78.5 -99l-50 37q33 42 57.5 93t40 105t23 109t7.5 106z" />
    <glyph glyph-name="uni24A8" unicode="&#x24a8;" horiz-adv-x="1140" 
d="M269 145v400q17 7 40 15.5t49 16t53 12t53 4.5q37 0 65 -5t49 -19q28 11 59.5 17.5t61.5 6.5q93 0 132 -41t39 -116v-291h-132v288q0 42 -12 55t-37 13q-11 0 -27 -2t-31 -6q2 -12 4 -27t2 -29v-292h-132v288q0 42 -12.5 55t-38.5 13q-23 0 -54 -7v-349h-131zM167 375
q0 -51 7.5 -106t23 -109t40 -105t57.5 -93l-50 -37q-46 44 -78.5 99t-53 114.5t-30 120.5t-9.5 116t9.5 116t30 120.5t53 114.5t78.5 99l50 -37q-33 -42 -57.5 -93t-40 -105t-23 -109t-7.5 -106zM973 375q0 51 -7.5 106t-23 109t-40 105t-57.5 93l50 37q46 -44 78.5 -99
t53 -114.5t30 -120.5t9.5 -116t-9.5 -116t-30 -120.5t-53 -114.5t-78.5 -99l-50 37q33 42 57.5 93t40 105t23 109t7.5 106z" />
    <glyph glyph-name="uni24A9" unicode="&#x24a9;" horiz-adv-x="1140" 
d="M367 135v413q24 9 53 18.5t59.5 17t60.5 12.5t56 5q90 0 133.5 -41t43.5 -115v-310h-130v307q0 41 -16 54t-43 13q-16 0 -40.5 -4.5t-46.5 -9.5v-360h-130zM167 375q0 -51 7.5 -106t23 -109t40 -105t57.5 -93l-50 -37q-46 44 -78.5 99t-53 114.5t-30 120.5t-9.5 116
t9.5 116t30 120.5t53 114.5t78.5 99l50 -37q-33 -42 -57.5 -93t-40 -105t-23 -109t-7.5 -106zM973 375q0 51 -7.5 106t-23 109t-40 105t-57.5 93l50 37q46 -44 78.5 -99t53 -114.5t30 -120.5t9.5 -116t-9.5 -116t-30 -120.5t-53 -114.5t-78.5 -99l-50 37q33 42 57.5 93
t40 105t23 109t7.5 106z" />
    <glyph glyph-name="uni24AA" unicode="&#x24aa;" horiz-adv-x="1140" 
d="M675 361q0 66 -27 108t-78 42t-78 -42t-27 -108t27 -108t78 -42t78 42t27 108zM804 361q0 -59 -17.5 -104t-48.5 -76t-74 -46.5t-94 -15.5t-94 15.5t-74 46.5t-48.5 76t-17.5 104t17.5 104t48.5 76t74 46.5t94 15.5t94 -15.5t74 -46.5t48.5 -76t17.5 -104zM167 375
q0 -51 7.5 -106t23 -109t40 -105t57.5 -93l-50 -37q-46 44 -78.5 99t-53 114.5t-30 120.5t-9.5 116t9.5 116t30 120.5t53 114.5t78.5 99l50 -37q-33 -42 -57.5 -93t-40 -105t-23 -109t-7.5 -106zM973 375q0 51 -7.5 106t-23 109t-40 105t-57.5 93l50 37q46 -44 78.5 -99
t53 -114.5t30 -120.5t9.5 -116t-9.5 -116t-30 -120.5t-53 -114.5t-78.5 -99l-50 37q33 42 57.5 93t40 105t23 109t7.5 106z" />
    <glyph glyph-name="uni24AB" unicode="&#x24ab;" horiz-adv-x="1140" 
d="M400 624q54 23 105.5 41.5t108.5 18.5q45 0 83 -16.5t66 -47.5t44 -76t16 -102t-16 -102t-44 -76t-66 -47.5t-83 -16.5q-19 0 -40.5 3.5t-41.5 8.5v-187h-132v599zM532 305q18 -5 37.5 -9t32.5 -4q22 0 39 11.5t28 31.5t16.5 47t5.5 59q0 72 -22 111t-67 39
q-16 0 -34.5 -4t-35.5 -12v-270zM167 375q0 -51 7.5 -106t23 -109t40 -105t57.5 -93l-50 -37q-46 44 -78.5 99t-53 114.5t-30 120.5t-9.5 116t9.5 116t30 120.5t53 114.5t78.5 99l50 -37q-33 -42 -57.5 -93t-40 -105t-23 -109t-7.5 -106zM973 375q0 51 -7.5 106t-23 109
t-40 105t-57.5 93l50 37q46 -44 78.5 -99t53 -114.5t30 -120.5t9.5 -116t-9.5 -116t-30 -120.5t-53 -114.5t-78.5 -99l-50 37q33 42 57.5 93t40 105t23 109t7.5 106z" />
    <glyph glyph-name="uni24AC" unicode="&#x24ac;" horiz-adv-x="1140" 
d="M744 25h-131v188q-19 -6 -40 -10.5t-39 -4.5q-45 0 -83 16.5t-65.5 47t-43 74t-15.5 98.5q0 57 15.5 101t43 74t65.5 45.5t83 15.5t100.5 -5t109.5 -13v-627zM613 574q-17 2 -33 2.5t-35 0.5q-45 0 -66 -40.5t-21 -103.5q0 -61 21.5 -102t65.5 -41q15 0 32.5 4t35.5 10
v270zM167 375q0 -51 7.5 -106t23 -109t40 -105t57.5 -93l-50 -37q-46 44 -78.5 99t-53 114.5t-30 120.5t-9.5 116t9.5 116t30 120.5t53 114.5t78.5 99l50 -37q-33 -42 -57.5 -93t-40 -105t-23 -109t-7.5 -106zM973 375q0 51 -7.5 106t-23 109t-40 105t-57.5 93l50 37
q46 -44 78.5 -99t53 -114.5t30 -120.5t9.5 -116t-9.5 -116t-30 -120.5t-53 -114.5t-78.5 -99l-50 37q33 42 57.5 93t40 105t23 109t7.5 106z" />
    <glyph glyph-name="uni24AD" unicode="&#x24ad;" horiz-adv-x="1140" 
d="M450 135v457h103q5 -7 8.5 -14t5.5 -13q20 15 46 25t64 10h63v-94h-61q-24 0 -50 -2.5t-48 -12.5v-356h-131zM167 375q0 -51 7.5 -106t23 -109t40 -105t57.5 -93l-50 -37q-46 44 -78.5 99t-53 114.5t-30 120.5t-9.5 116t9.5 116t30 120.5t53 114.5t78.5 99l50 -37
q-33 -42 -57.5 -93t-40 -105t-23 -109t-7.5 -106zM973 375q0 51 -7.5 106t-23 109t-40 105t-57.5 93l50 37q46 -44 78.5 -99t53 -114.5t30 -120.5t9.5 -116t-9.5 -116t-30 -120.5t-53 -114.5t-78.5 -99l-50 37q33 42 57.5 93t40 105t23 109t7.5 106z" />
    <glyph glyph-name="uni24AE" unicode="&#x24ae;" horiz-adv-x="1140" 
d="M569 122q-41 0 -83 9t-76 18l14 84q46 -10 86 -15.5t59 -5.5q29 0 43.5 14t14.5 34q0 19 -8.5 31t-28.5 23q-29 16 -54 29t-49 27q-35 20 -56.5 44t-21.5 65q0 64 42.5 93.5t114.5 29.5q34 0 81.5 -7.5t89.5 -18.5l-14 -82q-97 17 -147 17q-36 0 -36 -33q0 -12 6 -20.5
t14 -13.5q31 -17 56.5 -30.5t52.5 -29.5q41 -23 64.5 -53.5t23.5 -72.5q0 -63 -50 -99.5t-138 -36.5zM167 375q0 -51 7.5 -106t23 -109t40 -105t57.5 -93l-50 -37q-46 44 -78.5 99t-53 114.5t-30 120.5t-9.5 116t9.5 116t30 120.5t53 114.5t78.5 99l50 -37
q-33 -42 -57.5 -93t-40 -105t-23 -109t-7.5 -106zM973 375q0 51 -7.5 106t-23 109t-40 105t-57.5 93l50 37q46 -44 78.5 -99t53 -114.5t30 -120.5t9.5 -116t-9.5 -116t-30 -120.5t-53 -114.5t-78.5 -99l-50 37q33 42 57.5 93t40 105t23 109t7.5 106z" />
    <glyph glyph-name="uni24AF" unicode="&#x24af;" horiz-adv-x="1140" 
d="M620 655v-124h108v-94h-108v-224q0 -29 11.5 -44t28.5 -15q12 0 32.5 3t39.5 8l14 -83q-23 -9 -48.5 -14.5t-51.5 -5.5q-33 0 -61.5 10t-49.5 29t-33 46t-12 62v228h-65v94h65v110zM167 375q0 -51 7.5 -106t23 -109t40 -105t57.5 -93l-50 -37q-46 44 -78.5 99t-53 114.5
t-30 120.5t-9.5 116t9.5 116t30 120.5t53 114.5t78.5 99l50 -37q-33 -42 -57.5 -93t-40 -105t-23 -109t-7.5 -106zM973 375q0 51 -7.5 106t-23 109t-40 105t-57.5 93l50 37q46 -44 78.5 -99t53 -114.5t30 -120.5t9.5 -116t-9.5 -116t-30 -120.5t-53 -114.5t-78.5 -99l-50 37
q33 42 57.5 93t40 105t23 109t7.5 106z" />
    <glyph glyph-name="uni24B0" unicode="&#x24b0;" horiz-adv-x="1140" 
d="M768 584v-411q-24 -9 -52 -19t-57.5 -17.5t-59 -12.5t-54.5 -5q-92 0 -133 40.5t-41 115.5v309h130v-309q0 -20 3.5 -32.5t10.5 -19.5t17 -9.5t22 -2.5q17 0 40.5 3.5t43.5 8.5v361h130zM167 375q0 -51 7.5 -106t23 -109t40 -105t57.5 -93l-50 -37q-46 44 -78.5 99
t-53 114.5t-30 120.5t-9.5 116t9.5 116t30 120.5t53 114.5t78.5 99l50 -37q-33 -42 -57.5 -93t-40 -105t-23 -109t-7.5 -106zM973 375q0 51 -7.5 106t-23 109t-40 105t-57.5 93l50 37q46 -44 78.5 -99t53 -114.5t30 -120.5t9.5 -116t-9.5 -116t-30 -120.5t-53 -114.5
t-78.5 -99l-50 37q33 42 57.5 93t40 105t23 109t7.5 106z" />
    <glyph glyph-name="uni24B1" unicode="&#x24b1;" horiz-adv-x="1140" 
d="M514 107q-22 41 -47 99.5t-48.5 122t-44.5 125t-35 109.5h132q24 -91 52.5 -171.5t52.5 -142.5q14 28 27.5 64.5t25.5 77.5t21 85t15 87h123q-6 -54 -20.5 -116t-36 -123t-49.5 -117.5t-62 -99.5h-106zM167 375q0 -51 7.5 -106t23 -109t40 -105t57.5 -93l-50 -37
q-46 44 -78.5 99t-53 114.5t-30 120.5t-9.5 116t9.5 116t30 120.5t53 114.5t78.5 99l50 -37q-33 -42 -57.5 -93t-40 -105t-23 -109t-7.5 -106zM973 375q0 51 -7.5 106t-23 109t-40 105t-57.5 93l50 37q46 -44 78.5 -99t53 -114.5t30 -120.5t9.5 -116t-9.5 -116t-30 -120.5
t-53 -114.5t-78.5 -99l-50 37q33 42 57.5 93t40 105t23 109t7.5 106z" />
    <glyph glyph-name="uni24B2" unicode="&#x24b2;" horiz-adv-x="1140" 
d="M640 111l-69 275q-9 -32 -18 -67t-18 -71t-18 -71t-17 -66h-132q-38 99 -66 215t-50 237h121q7 -40 14 -82t14.5 -82.5t15 -77.5t15.5 -67l79 302h119l79 -306q8 28 16 66t16 80t15 85t12 82h119q-8 -58 -19 -117.5t-26 -117t-33.5 -112.5t-42.5 -105h-126zM167 375
q0 -51 7.5 -106t23 -109t40 -105t57.5 -93l-50 -37q-46 44 -78.5 99t-53 114.5t-30 120.5t-9.5 116t9.5 116t30 120.5t53 114.5t78.5 99l50 -37q-33 -42 -57.5 -93t-40 -105t-23 -109t-7.5 -106zM973 375q0 51 -7.5 106t-23 109t-40 105t-57.5 93l50 37q46 -44 78.5 -99
t53 -114.5t30 -120.5t9.5 -116t-9.5 -116t-30 -120.5t-53 -114.5t-78.5 -99l-50 37q33 42 57.5 93t40 105t23 109t7.5 106z" />
    <glyph glyph-name="uni24B3" unicode="&#x24b3;" horiz-adv-x="1140" 
d="M570 267l-88 -140h-138l160 244l-141 213h133l78 -120l76 120h132l-143 -218l157 -239h-134zM167 375q0 -51 7.5 -106t23 -109t40 -105t57.5 -93l-50 -37q-46 44 -78.5 99t-53 114.5t-30 120.5t-9.5 116t9.5 116t30 120.5t53 114.5t78.5 99l50 -37q-33 -42 -57.5 -93
t-40 -105t-23 -109t-7.5 -106zM973 375q0 51 -7.5 106t-23 109t-40 105t-57.5 93l50 37q46 -44 78.5 -99t53 -114.5t30 -120.5t9.5 -116t-9.5 -116t-30 -120.5t-53 -114.5t-78.5 -99l-50 37q33 42 57.5 93t40 105t23 109t7.5 106z" />
    <glyph glyph-name="uni24B4" unicode="&#x24b4;" horiz-adv-x="1140" 
d="M765 241q0 -70 -31.5 -113.5t-82 -68t-112.5 -33t-122 -8.5l-8 86q35 2 74.5 7.5t73.5 19t56 37.5t22 63v10q-23 -6 -48.5 -10t-48.5 -4q-92 0 -135 39.5t-43 114.5v296h130v-295q0 -20 4 -32t11.5 -18.5t18 -8.5t23.5 -2q17 0 41.5 3t46.5 8v345h130v-436zM167 375
q0 -51 7.5 -106t23 -109t40 -105t57.5 -93l-50 -37q-46 44 -78.5 99t-53 114.5t-30 120.5t-9.5 116t9.5 116t30 120.5t53 114.5t78.5 99l50 -37q-33 -42 -57.5 -93t-40 -105t-23 -109t-7.5 -106zM973 375q0 51 -7.5 106t-23 109t-40 105t-57.5 93l50 37q46 -44 78.5 -99
t53 -114.5t30 -120.5t9.5 -116t-9.5 -116t-30 -120.5t-53 -114.5t-78.5 -99l-50 37q33 42 57.5 93t40 105t23 109t7.5 106z" />
    <glyph glyph-name="uni24B5" unicode="&#x24b5;" horiz-adv-x="1140" 
d="M754 127h-368v48l183 316h-175v93h343v-50l-181 -313h198v-94zM167 375q0 -51 7.5 -106t23 -109t40 -105t57.5 -93l-50 -37q-46 44 -78.5 99t-53 114.5t-30 120.5t-9.5 116t9.5 116t30 120.5t53 114.5t78.5 99l50 -37q-33 -42 -57.5 -93t-40 -105t-23 -109t-7.5 -106z
M973 375q0 51 -7.5 106t-23 109t-40 105t-57.5 93l50 37q46 -44 78.5 -99t53 -114.5t30 -120.5t9.5 -116t-9.5 -116t-30 -120.5t-53 -114.5t-78.5 -99l-50 37q33 42 57.5 93t40 105t23 109t7.5 106z" />
    <glyph glyph-name="uni24B6" unicode="&#x24b6;" 
 />
    <glyph glyph-name="uni24B7" unicode="&#x24b7;" 
 />
    <glyph glyph-name="uni24B8" unicode="&#x24b8;" 
 />
    <glyph glyph-name="uni24B9" unicode="&#x24b9;" 
 />
    <glyph glyph-name="uni24BA" unicode="&#x24ba;" 
 />
    <glyph glyph-name="uni24BB" unicode="&#x24bb;" 
 />
    <glyph glyph-name="uni24BC" unicode="&#x24bc;" 
 />
    <glyph glyph-name="uni24BD" unicode="&#x24bd;" 
 />
    <glyph glyph-name="uni24BE" unicode="&#x24be;" 
 />
    <glyph glyph-name="uni24BF" unicode="&#x24bf;" 
 />
    <glyph glyph-name="uni24C0" unicode="&#x24c0;" 
 />
    <glyph glyph-name="uni24C1" unicode="&#x24c1;" 
 />
    <glyph glyph-name="uni24C2" unicode="&#x24c2;" 
 />
    <glyph glyph-name="uni24C3" unicode="&#x24c3;" 
 />
    <glyph glyph-name="uni24C4" unicode="&#x24c4;" 
 />
    <glyph glyph-name="uni24C5" unicode="&#x24c5;" 
 />
    <glyph glyph-name="uni24C6" unicode="&#x24c6;" 
 />
    <glyph glyph-name="uni24C7" unicode="&#x24c7;" 
 />
    <glyph glyph-name="uni24C8" unicode="&#x24c8;" 
 />
    <glyph glyph-name="uni24C9" unicode="&#x24c9;" 
 />
    <glyph glyph-name="uni24CA" unicode="&#x24ca;" 
 />
    <glyph glyph-name="uni24CB" unicode="&#x24cb;" 
 />
    <glyph glyph-name="uni24CC" unicode="&#x24cc;" 
 />
    <glyph glyph-name="uni24CD" unicode="&#x24cd;" 
 />
    <glyph glyph-name="uni24CE" unicode="&#x24ce;" 
 />
    <glyph glyph-name="uni24CF" unicode="&#x24cf;" 
 />
    <glyph glyph-name="uni24D0" unicode="&#x24d0;" horiz-adv-x="1140" 
d="M635 342q-21 5 -41.5 8t-37.5 3q-30 0 -45.5 -19t-15.5 -51t15 -51.5t47 -19.5q19 0 37 1.5t41 6.5v122zM636 445q0 35 -16.5 50.5t-52.5 15.5q-34 0 -68 -2.5t-76 -7.5l-10 81q19 4 40.5 8t43 7t41.5 5t36 2q94 0 143.5 -42.5t49.5 -136.5v-254q-23 -9 -50 -18
t-56 -16.5t-58 -12t-56 -4.5q-42 0 -76.5 12t-58.5 33.5t-37 51.5t-13 66t13 66t37 51.5t58.5 33.5t76.5 12q23 0 46 -4t43 -9v12zM570 -49q85 0 159 30.5t129.5 86t87.5 131.5t32 168q0 91 -32 167t-87.5 131t-129.5 85.5t-159 30.5t-159 -30.5t-129.5 -85.5t-87.5 -131
t-32 -167q0 -92 32 -168t87.5 -131.5t129.5 -86t159 -30.5zM570 -123q-102 0 -192.5 37.5t-158 103t-106.5 155t-39 194.5q0 104 39 193.5t106.5 155t158 102.5t192.5 37t192 -37t157.5 -102.5t107 -155t39.5 -193.5q0 -105 -39.5 -194.5t-107 -155t-157.5 -103t-192 -37.5z
" />
    <glyph glyph-name="uni24D1" unicode="&#x24d1;" horiz-adv-x="1140" 
d="M400 699l132 12v-192q19 6 40 9.5t40 3.5q44 0 82 -16t65.5 -46.5t43.5 -74t16 -98.5q0 -59 -16.5 -103t-45 -73t-66.5 -44t-82 -15q-46 0 -100.5 4t-108.5 12v621zM532 157q33 -3 65 -3q45 0 68 34t23 109q0 31 -5.5 57t-17 45.5t-28 30.5t-38.5 11q-14 0 -32 -3
t-35 -10v-271zM570 -49q85 0 159 30.5t129.5 86t87.5 131.5t32 168q0 91 -32 167t-87.5 131t-129.5 85.5t-159 30.5t-159 -30.5t-129.5 -85.5t-87.5 -131t-32 -167q0 -92 32 -168t87.5 -131.5t129.5 -86t159 -30.5zM570 -123q-102 0 -192.5 37.5t-158 103t-106.5 155
t-39 194.5q0 104 39 193.5t106.5 155t158 102.5t192.5 37t192 -37t157.5 -102.5t107 -155t39.5 -193.5q0 -105 -39.5 -194.5t-107 -155t-157.5 -103t-192 -37.5z" />
    <glyph glyph-name="uni24D2" unicode="&#x24d2;" horiz-adv-x="1140" 
d="M503 364q0 -68 18 -110t65 -42q35 0 70.5 10.5t78.5 28.5l27 -83q-46 -23 -96.5 -35.5t-91.5 -12.5q-97 0 -151.5 63.5t-54.5 180.5q0 115 54.5 177.5t151.5 62.5q88 0 180 -48l-28 -82q-42 19 -75 28.5t-65 9.5q-44 0 -63.5 -40t-19.5 -108zM570 -49q85 0 159 30.5
t129.5 86t87.5 131.5t32 168q0 91 -32 167t-87.5 131t-129.5 85.5t-159 30.5t-159 -30.5t-129.5 -85.5t-87.5 -131t-32 -167q0 -92 32 -168t87.5 -131.5t129.5 -86t159 -30.5zM570 -123q-102 0 -192.5 37.5t-158 103t-106.5 155t-39 194.5q0 104 39 193.5t106.5 155
t158 102.5t192.5 37t192 -37t157.5 -102.5t107 -155t39.5 -193.5q0 -105 -39.5 -194.5t-107 -155t-157.5 -103t-192 -37.5z" />
    <glyph glyph-name="uni24D3" unicode="&#x24d3;" horiz-adv-x="1140" 
d="M744 125q-51 -23 -106.5 -43t-103.5 -20q-47 0 -85 16t-65 47t-42 75t-15 101q0 55 15.5 99.5t43 76t65.5 48t83 16.5q20 0 39.5 -4t39.5 -10v181l131 11v-594zM613 436q-36 14 -68 14q-22 0 -38.5 -11.5t-27 -31.5t-16 -47t-5.5 -58q0 -32 5 -59t15.5 -46.5t27 -31
t39.5 -11.5q20 0 37.5 4t30.5 11v267zM570 -49q85 0 159 30.5t129.5 86t87.5 131.5t32 168q0 91 -32 167t-87.5 131t-129.5 85.5t-159 30.5t-159 -30.5t-129.5 -85.5t-87.5 -131t-32 -167q0 -92 32 -168t87.5 -131.5t129.5 -86t159 -30.5zM570 -123q-102 0 -192.5 37.5
t-158 103t-106.5 155t-39 194.5q0 104 39 193.5t106.5 155t158 102.5t192.5 37t192 -37t157.5 -102.5t107 -155t39.5 -193.5q0 -105 -39.5 -194.5t-107 -155t-157.5 -103t-192 -37.5z" />
    <glyph glyph-name="uni24D4" unicode="&#x24d4;" horiz-adv-x="1140" 
d="M597 212q35 0 69 7t76 22l20 -84q-35 -16 -80 -26.5t-93 -10.5q-113 0 -165.5 61t-52.5 179q0 115 49.5 180t156.5 65q60 0 98.5 -19.5t61 -49.5t31.5 -66.5t11 -70.5q2 -33 0 -76h-275q0 -24 4 -44t14 -35t28 -23.5t47 -8.5zM649 415q-5 42 -21 70t-51 28t-53 -27
t-20 -71h145zM570 -49q85 0 159 30.5t129.5 86t87.5 131.5t32 168q0 91 -32 167t-87.5 131t-129.5 85.5t-159 30.5t-159 -30.5t-129.5 -85.5t-87.5 -131t-32 -167q0 -92 32 -168t87.5 -131.5t129.5 -86t159 -30.5zM570 -123q-102 0 -192.5 37.5t-158 103t-106.5 155
t-39 194.5q0 104 39 193.5t106.5 155t158 102.5t192.5 37t192 -37t157.5 -102.5t107 -155t39.5 -193.5q0 -105 -39.5 -194.5t-107 -155t-157.5 -103t-192 -37.5z" />
    <glyph glyph-name="uni24D5" unicode="&#x24d5;" horiz-adv-x="1140" 
d="M484 36v356h-53v93h53v52q0 39 12 65.5t33.5 43.5t51 24.5t63.5 7.5q25 0 48 -4.5t40 -12.5l-16 -81q-14 4 -27.5 6.5t-28.5 2.5q-45 0 -45 -56v-48h86v-93h-86v-356h-131zM570 -49q85 0 159 30.5t129.5 86t87.5 131.5t32 168q0 91 -32 167t-87.5 131t-129.5 85.5
t-159 30.5t-159 -30.5t-129.5 -85.5t-87.5 -131t-32 -167q0 -92 32 -168t87.5 -131.5t129.5 -86t159 -30.5zM570 -123q-102 0 -192.5 37.5t-158 103t-106.5 155t-39 194.5q0 104 39 193.5t106.5 155t158 102.5t192.5 37t192 -37t157.5 -102.5t107 -155t39.5 -193.5
q0 -105 -39.5 -194.5t-107 -155t-157.5 -103t-192 -37.5z" />
    <glyph glyph-name="uni24D6" unicode="&#x24d6;" horiz-adv-x="1140" 
d="M775 240q0 -71 -32 -113.5t-83 -65t-114 -30t-124 -7.5l-5 87q35 3 74.5 8.5t73.5 20t56 39t22 64.5v7q-17 -5 -38 -9t-42 -4q-45 0 -83.5 15.5t-66.5 46t-43.5 74.5t-15.5 101t15.5 101.5t43.5 75t66.5 46.5t83.5 16q26 0 55.5 -7t58 -17t54 -21t44.5 -20v-408zM643 603
q-17 7 -34.5 11.5t-34.5 4.5q-41 0 -64.5 -37t-23.5 -109q0 -69 21.5 -106.5t66.5 -37.5q19 0 35 3.5t34 11.5v259zM570 -49q85 0 159 30.5t129.5 86t87.5 131.5t32 168q0 91 -32 167t-87.5 131t-129.5 85.5t-159 30.5t-159 -30.5t-129.5 -85.5t-87.5 -131t-32 -167
q0 -92 32 -168t87.5 -131.5t129.5 -86t159 -30.5zM570 -123q-102 0 -192.5 37.5t-158 103t-106.5 155t-39 194.5q0 104 39 193.5t106.5 155t158 102.5t192.5 37t192 -37t157.5 -102.5t107 -155t39.5 -193.5q0 -105 -39.5 -194.5t-107 -155t-157.5 -103t-192 -37.5z" />
    <glyph glyph-name="uni24D7" unicode="&#x24d7;" horiz-adv-x="1140" 
d="M405 65v634l129 12v-198q23 8 46 13t48 5q92 0 133 -40t41 -114v-312h-131v310q0 40 -15 51.5t-41 11.5q-20 0 -41 -4.5t-40 -9.5v-359h-129zM570 -49q85 0 159 30.5t129.5 86t87.5 131.5t32 168q0 91 -32 167t-87.5 131t-129.5 85.5t-159 30.5t-159 -30.5t-129.5 -85.5
t-87.5 -131t-32 -167q0 -92 32 -168t87.5 -131.5t129.5 -86t159 -30.5zM570 -123q-102 0 -192.5 37.5t-158 103t-106.5 155t-39 194.5q0 104 39 193.5t106.5 155t158 102.5t192.5 37t192 -37t157.5 -102.5t107 -155t39.5 -193.5q0 -105 -39.5 -194.5t-107 -155t-157.5 -103
t-192 -37.5z" />
    <glyph glyph-name="uni24D8" unicode="&#x24d8;" horiz-adv-x="1140" 
d="M503 46v457h132v-457h-132zM570 -49q85 0 159 30.5t129.5 86t87.5 131.5t32 168q0 91 -32 167t-87.5 131t-129.5 85.5t-159 30.5t-159 -30.5t-129.5 -85.5t-87.5 -131t-32 -167q0 -92 32 -168t87.5 -131.5t129.5 -86t159 -30.5zM570 -123q-102 0 -192.5 37.5t-158 103
t-106.5 155t-39 194.5q0 104 39 193.5t106.5 155t158 102.5t192.5 37t192 -37t157.5 -102.5t107 -155t39.5 -193.5q0 -105 -39.5 -194.5t-107 -155t-157.5 -103t-192 -37.5zM492 631q0 36 23 57t55 21t55 -21t23 -57q0 -37 -23 -57.5t-55 -20.5t-55 20.5t-23 57.5z" />
    <glyph glyph-name="uni24D9" unicode="&#x24d9;" horiz-adv-x="1140" 
d="M439 43q46 45 60 94t14 102v286h131v-290q0 -81 -34 -146.5t-110 -108.5zM570 -49q85 0 159 30.5t129.5 86t87.5 131.5t32 168q0 91 -32 167t-87.5 131t-129.5 85.5t-159 30.5t-159 -30.5t-129.5 -85.5t-87.5 -131t-32 -167q0 -92 32 -168t87.5 -131.5t129.5 -86
t159 -30.5zM570 -123q-102 0 -192.5 37.5t-158 103t-106.5 155t-39 194.5q0 104 39 193.5t106.5 155t158 102.5t192.5 37t192 -37t157.5 -102.5t107 -155t39.5 -193.5q0 -105 -39.5 -194.5t-107 -155t-157.5 -103t-192 -37.5zM502 653q0 36 23 57t55 21t55 -21t23 -57
q0 -37 -23 -57.5t-55 -20.5t-55 20.5t-23 57.5z" />
    <glyph glyph-name="uni24DA" unicode="&#x24da;" horiz-adv-x="1140" 
d="M533 325l135 198h136l-140 -204l165 -254h-140zM528 65h-132v631l132 13v-644zM570 -49q85 0 159 30.5t129.5 86t87.5 131.5t32 168q0 91 -32 167t-87.5 131t-129.5 85.5t-159 30.5t-159 -30.5t-129.5 -85.5t-87.5 -131t-32 -167q0 -92 32 -168t87.5 -131.5t129.5 -86
t159 -30.5zM570 -123q-102 0 -192.5 37.5t-158 103t-106.5 155t-39 194.5q0 104 39 193.5t106.5 155t158 102.5t192.5 37t192 -37t157.5 -102.5t107 -155t39.5 -193.5q0 -105 -39.5 -194.5t-107 -155t-157.5 -103t-192 -37.5z" />
    <glyph glyph-name="uni24DB" unicode="&#x24db;" horiz-adv-x="1140" 
d="M668 46q-39 6 -70 17.5t-53.5 30.5t-34.5 46.5t-12 66.5v482l132 13v-493q0 -33 18 -52t49 -28zM570 -49q85 0 159 30.5t129.5 86t87.5 131.5t32 168q0 91 -32 167t-87.5 131t-129.5 85.5t-159 30.5t-159 -30.5t-129.5 -85.5t-87.5 -131t-32 -167q0 -92 32 -168
t87.5 -131.5t129.5 -86t159 -30.5zM570 -123q-102 0 -192.5 37.5t-158 103t-106.5 155t-39 194.5q0 104 39 193.5t106.5 155t158 102.5t192.5 37t192 -37t157.5 -102.5t107 -155t39.5 -193.5q0 -105 -39.5 -194.5t-107 -155t-157.5 -103t-192 -37.5z" />
    <glyph glyph-name="uni24DC" unicode="&#x24dc;" horiz-adv-x="1140" 
d="M269 145v400q17 7 40 15.5t49 16t53 12t53 4.5q37 0 65 -5t49 -19q28 11 59.5 17.5t61.5 6.5q93 0 132 -41t39 -116v-291h-132v288q0 42 -12 55t-37 13q-11 0 -27 -2t-31 -6q2 -12 4 -27t2 -29v-292h-132v288q0 42 -12.5 55t-38.5 13q-23 0 -54 -7v-349h-131zM570 -49
q85 0 159 30.5t129.5 86t87.5 131.5t32 168q0 91 -32 167t-87.5 131t-129.5 85.5t-159 30.5t-159 -30.5t-129.5 -85.5t-87.5 -131t-32 -167q0 -92 32 -168t87.5 -131.5t129.5 -86t159 -30.5zM570 -123q-102 0 -192.5 37.5t-158 103t-106.5 155t-39 194.5q0 104 39 193.5
t106.5 155t158 102.5t192.5 37t192 -37t157.5 -102.5t107 -155t39.5 -193.5q0 -105 -39.5 -194.5t-107 -155t-157.5 -103t-192 -37.5z" />
    <glyph glyph-name="uni24DD" unicode="&#x24dd;" horiz-adv-x="1140" 
d="M380 135v413q24 9 53 18.5t59.5 17t60.5 12.5t56 5q90 0 133.5 -41t43.5 -115v-310h-130v307q0 41 -16 54t-43 13q-16 0 -40.5 -4.5t-46.5 -9.5v-360h-130zM570 -49q85 0 159 30.5t129.5 86t87.5 131.5t32 168q0 91 -32 167t-87.5 131t-129.5 85.5t-159 30.5t-159 -30.5
t-129.5 -85.5t-87.5 -131t-32 -167q0 -92 32 -168t87.5 -131.5t129.5 -86t159 -30.5zM570 -123q-102 0 -192.5 37.5t-158 103t-106.5 155t-39 194.5q0 104 39 193.5t106.5 155t158 102.5t192.5 37t192 -37t157.5 -102.5t107 -155t39.5 -193.5q0 -105 -39.5 -194.5t-107 -155
t-157.5 -103t-192 -37.5z" />
    <glyph glyph-name="uni24DE" unicode="&#x24de;" horiz-adv-x="1140" 
d="M675 361q0 66 -27 108t-78 42t-78 -42t-27 -108t27 -108t78 -42t78 42t27 108zM804 361q0 -59 -17.5 -104t-48.5 -76t-74 -46.5t-94 -15.5t-94 15.5t-74 46.5t-48.5 76t-17.5 104t17.5 104t48.5 76t74 46.5t94 15.5t94 -15.5t74 -46.5t48.5 -76t17.5 -104zM570 -49
q85 0 159 30.5t129.5 86t87.5 131.5t32 168q0 91 -32 167t-87.5 131t-129.5 85.5t-159 30.5t-159 -30.5t-129.5 -85.5t-87.5 -131t-32 -167q0 -92 32 -168t87.5 -131.5t129.5 -86t159 -30.5zM570 -123q-102 0 -192.5 37.5t-158 103t-106.5 155t-39 194.5q0 104 39 193.5
t106.5 155t158 102.5t192.5 37t192 -37t157.5 -102.5t107 -155t39.5 -193.5q0 -105 -39.5 -194.5t-107 -155t-157.5 -103t-192 -37.5z" />
    <glyph glyph-name="uni24DF" unicode="&#x24df;" horiz-adv-x="1140" 
d="M400 624q54 23 105.5 41.5t108.5 18.5q45 0 83 -16.5t66 -47.5t44 -76t16 -102t-16 -102t-44 -76t-66 -47.5t-83 -16.5q-19 0 -40.5 3.5t-41.5 8.5v-187h-132v599zM532 305q18 -5 37.5 -9t32.5 -4q22 0 39 11.5t28 31.5t16.5 47t5.5 59q0 72 -22 111t-67 39
q-16 0 -34.5 -4t-35.5 -12v-270zM570 -49q85 0 159 30.5t129.5 86t87.5 131.5t32 168q0 91 -32 167t-87.5 131t-129.5 85.5t-159 30.5t-159 -30.5t-129.5 -85.5t-87.5 -131t-32 -167q0 -92 32 -168t87.5 -131.5t129.5 -86t159 -30.5zM570 -123q-102 0 -192.5 37.5t-158 103
t-106.5 155t-39 194.5q0 104 39 193.5t106.5 155t158 102.5t192.5 37t192 -37t157.5 -102.5t107 -155t39.5 -193.5q0 -105 -39.5 -194.5t-107 -155t-157.5 -103t-192 -37.5z" />
    <glyph glyph-name="uni24E0" unicode="&#x24e0;" horiz-adv-x="1140" 
d="M744 25h-131v188q-19 -6 -40 -10.5t-39 -4.5q-45 0 -83 16.5t-65.5 47t-43 74t-15.5 98.5q0 57 15.5 101t43 74t65.5 45.5t83 15.5t100.5 -5t109.5 -13v-627zM613 574q-17 2 -33 2.5t-35 0.5q-45 0 -66 -40.5t-21 -103.5q0 -61 21.5 -102t65.5 -41q15 0 32.5 4t35.5 10
v270zM570 -49q85 0 159 30.5t129.5 86t87.5 131.5t32 168q0 91 -32 167t-87.5 131t-129.5 85.5t-159 30.5t-159 -30.5t-129.5 -85.5t-87.5 -131t-32 -167q0 -92 32 -168t87.5 -131.5t129.5 -86t159 -30.5zM570 -123q-102 0 -192.5 37.5t-158 103t-106.5 155t-39 194.5
q0 104 39 193.5t106.5 155t158 102.5t192.5 37t192 -37t157.5 -102.5t107 -155t39.5 -193.5q0 -105 -39.5 -194.5t-107 -155t-157.5 -103t-192 -37.5z" />
    <glyph glyph-name="uni24E1" unicode="&#x24e1;" horiz-adv-x="1140" 
d="M450 135v457h103q5 -7 8.5 -14t5.5 -13q20 15 46 25t64 10h63v-94h-61q-24 0 -50 -2.5t-48 -12.5v-356h-131zM570 -49q85 0 159 30.5t129.5 86t87.5 131.5t32 168q0 91 -32 167t-87.5 131t-129.5 85.5t-159 30.5t-159 -30.5t-129.5 -85.5t-87.5 -131t-32 -167
q0 -92 32 -168t87.5 -131.5t129.5 -86t159 -30.5zM570 -123q-102 0 -192.5 37.5t-158 103t-106.5 155t-39 194.5q0 104 39 193.5t106.5 155t158 102.5t192.5 37t192 -37t157.5 -102.5t107 -155t39.5 -193.5q0 -105 -39.5 -194.5t-107 -155t-157.5 -103t-192 -37.5z" />
    <glyph glyph-name="uni24E2" unicode="&#x24e2;" horiz-adv-x="1140" 
d="M569 122q-41 0 -83 9t-76 18l14 84q46 -10 86 -15.5t59 -5.5q29 0 43.5 14t14.5 34q0 19 -8.5 31t-28.5 23q-29 16 -54 29t-49 27q-35 20 -56.5 44t-21.5 65q0 64 42.5 93.5t114.5 29.5q34 0 81.5 -7.5t89.5 -18.5l-14 -82q-97 17 -147 17q-36 0 -36 -33q0 -12 6 -20.5
t14 -13.5q31 -17 56.5 -30.5t52.5 -29.5q41 -23 64.5 -53.5t23.5 -72.5q0 -63 -50 -99.5t-138 -36.5zM570 -49q85 0 159 30.5t129.5 86t87.5 131.5t32 168q0 91 -32 167t-87.5 131t-129.5 85.5t-159 30.5t-159 -30.5t-129.5 -85.5t-87.5 -131t-32 -167q0 -92 32 -168
t87.5 -131.5t129.5 -86t159 -30.5zM570 -123q-102 0 -192.5 37.5t-158 103t-106.5 155t-39 194.5q0 104 39 193.5t106.5 155t158 102.5t192.5 37t192 -37t157.5 -102.5t107 -155t39.5 -193.5q0 -105 -39.5 -194.5t-107 -155t-157.5 -103t-192 -37.5z" />
    <glyph glyph-name="uni24E3" unicode="&#x24e3;" horiz-adv-x="1140" 
d="M570 -49q85 0 159 30.5t129.5 86t87.5 131.5t32 168q0 91 -32 167t-87.5 131t-129.5 85.5t-159 30.5t-159 -30.5t-129.5 -85.5t-87.5 -131t-32 -167q0 -92 32 -168t87.5 -131.5t129.5 -86t159 -30.5zM570 -123q-102 0 -192.5 37.5t-158 103t-106.5 155t-39 194.5
q0 104 39 193.5t106.5 155t158 102.5t192.5 37t192 -37t157.5 -102.5t107 -155t39.5 -193.5q0 -105 -39.5 -194.5t-107 -155t-157.5 -103t-192 -37.5zM620 655v-124h108v-94h-108v-224q0 -29 11.5 -44t28.5 -15q12 0 32.5 3t39.5 8l14 -83q-23 -9 -48.5 -14.5t-51.5 -5.5
q-33 0 -61.5 10t-49.5 29t-33 46t-12 62v228h-65v94h65v110z" />
    <glyph glyph-name="uni24E4" unicode="&#x24e4;" horiz-adv-x="1140" 
d="M768 584v-411q-24 -9 -52 -19t-57.5 -17.5t-59 -12.5t-54.5 -5q-92 0 -133 40.5t-41 115.5v309h130v-309q0 -20 3.5 -32.5t10.5 -19.5t17 -9.5t22 -2.5q17 0 40.5 3.5t43.5 8.5v361h130zM570 -49q85 0 159 30.5t129.5 86t87.5 131.5t32 168q0 91 -32 167t-87.5 131
t-129.5 85.5t-159 30.5t-159 -30.5t-129.5 -85.5t-87.5 -131t-32 -167q0 -92 32 -168t87.5 -131.5t129.5 -86t159 -30.5zM570 -123q-102 0 -192.5 37.5t-158 103t-106.5 155t-39 194.5q0 104 39 193.5t106.5 155t158 102.5t192.5 37t192 -37t157.5 -102.5t107 -155
t39.5 -193.5q0 -105 -39.5 -194.5t-107 -155t-157.5 -103t-192 -37.5z" />
    <glyph glyph-name="uni24E5" unicode="&#x24e5;" horiz-adv-x="1140" 
d="M514 107q-22 41 -47 99.5t-48.5 122t-44.5 125t-35 109.5h132q24 -91 52.5 -171.5t52.5 -142.5q14 28 27.5 64.5t25.5 77.5t21 85t15 87h123q-6 -54 -20.5 -116t-36 -123t-49.5 -117.5t-62 -99.5h-106zM570 -49q85 0 159 30.5t129.5 86t87.5 131.5t32 168q0 91 -32 167
t-87.5 131t-129.5 85.5t-159 30.5t-159 -30.5t-129.5 -85.5t-87.5 -131t-32 -167q0 -92 32 -168t87.5 -131.5t129.5 -86t159 -30.5zM570 -123q-102 0 -192.5 37.5t-158 103t-106.5 155t-39 194.5q0 104 39 193.5t106.5 155t158 102.5t192.5 37t192 -37t157.5 -102.5
t107 -155t39.5 -193.5q0 -105 -39.5 -194.5t-107 -155t-157.5 -103t-192 -37.5z" />
    <glyph glyph-name="uni24E6" unicode="&#x24e6;" horiz-adv-x="1140" 
d="M640 111l-69 275q-9 -32 -18 -67t-18 -71t-18 -71t-17 -66h-132q-38 99 -66 215t-50 237h121q7 -40 14 -82t14.5 -82.5t15 -77.5t15.5 -67l79 302h119l79 -306q8 28 16 66t16 80t15 85t12 82h119q-8 -58 -19 -117.5t-26 -117t-33.5 -112.5t-42.5 -105h-126zM570 -49
q85 0 159 30.5t129.5 86t87.5 131.5t32 168q0 91 -32 167t-87.5 131t-129.5 85.5t-159 30.5t-159 -30.5t-129.5 -85.5t-87.5 -131t-32 -167q0 -92 32 -168t87.5 -131.5t129.5 -86t159 -30.5zM570 -123q-102 0 -192.5 37.5t-158 103t-106.5 155t-39 194.5q0 104 39 193.5
t106.5 155t158 102.5t192.5 37t192 -37t157.5 -102.5t107 -155t39.5 -193.5q0 -105 -39.5 -194.5t-107 -155t-157.5 -103t-192 -37.5z" />
    <glyph glyph-name="uni24E7" unicode="&#x24e7;" horiz-adv-x="1140" 
d="M570 267l-88 -140h-138l160 244l-141 213h133l78 -120l76 120h132l-143 -218l157 -239h-134zM570 -49q85 0 159 30.5t129.5 86t87.5 131.5t32 168q0 91 -32 167t-87.5 131t-129.5 85.5t-159 30.5t-159 -30.5t-129.5 -85.5t-87.5 -131t-32 -167q0 -92 32 -168t87.5 -131.5
t129.5 -86t159 -30.5zM570 -123q-102 0 -192.5 37.5t-158 103t-106.5 155t-39 194.5q0 104 39 193.5t106.5 155t158 102.5t192.5 37t192 -37t157.5 -102.5t107 -155t39.5 -193.5q0 -105 -39.5 -194.5t-107 -155t-157.5 -103t-192 -37.5z" />
    <glyph glyph-name="uni24E8" unicode="&#x24e8;" horiz-adv-x="1140" 
d="M765 241q0 -70 -31.5 -113.5t-82 -68t-112.5 -33t-122 -8.5l-8 86q35 2 74.5 7.5t73.5 19t56 37.5t22 63v10q-23 -6 -48.5 -10t-48.5 -4q-92 0 -135 39.5t-43 114.5v296h130v-295q0 -20 4 -32t11.5 -18.5t18 -8.5t23.5 -2q17 0 41.5 3t46.5 8v345h130v-436zM570 -49
q85 0 159 30.5t129.5 86t87.5 131.5t32 168q0 91 -32 167t-87.5 131t-129.5 85.5t-159 30.5t-159 -30.5t-129.5 -85.5t-87.5 -131t-32 -167q0 -92 32 -168t87.5 -131.5t129.5 -86t159 -30.5zM570 -123q-102 0 -192.5 37.5t-158 103t-106.5 155t-39 194.5q0 104 39 193.5
t106.5 155t158 102.5t192.5 37t192 -37t157.5 -102.5t107 -155t39.5 -193.5q0 -105 -39.5 -194.5t-107 -155t-157.5 -103t-192 -37.5z" />
    <glyph glyph-name="uni24E9" unicode="&#x24e9;" horiz-adv-x="1140" 
d="M754 127h-368v48l183 316h-175v93h343v-50l-181 -313h198v-94zM570 -49q85 0 159 30.5t129.5 86t87.5 131.5t32 168q0 91 -32 167t-87.5 131t-129.5 85.5t-159 30.5t-159 -30.5t-129.5 -85.5t-87.5 -131t-32 -167q0 -92 32 -168t87.5 -131.5t129.5 -86t159 -30.5z
M570 -123q-102 0 -192.5 37.5t-158 103t-106.5 155t-39 194.5q0 104 39 193.5t106.5 155t158 102.5t192.5 37t192 -37t157.5 -102.5t107 -155t39.5 -193.5q0 -105 -39.5 -194.5t-107 -155t-157.5 -103t-192 -37.5z" />
    <glyph glyph-name="uni24EB" unicode="&#x24eb;" horiz-adv-x="1140" 
d="M570 -123q-102 0 -192.5 37.5t-158 103t-106.5 155t-39 194.5q0 104 39 193.5t106.5 155t158 102.5t192.5 37t192 -37t157.5 -102.5t107 -155t39.5 -193.5q0 -105 -39.5 -194.5t-107 -155t-157.5 -103t-192 -37.5zM279 108h286v87h-84v435h-76q-23 -12 -58 -30.5
t-75 -32.5l21 -75q41 9 72 23v-320h-86v-87zM596 108h286v87h-84v435h-76q-23 -12 -58 -30.5t-75 -32.5l21 -75q41 9 72 23v-320h-86v-87z" />
    <glyph glyph-name="uni24EC" unicode="&#x24ec;" horiz-adv-x="1140" 
d="M816 380q6 9 14 22.5t15.5 30t13 34.5t5.5 35q0 64 -43.5 101t-124.5 37q-32 0 -60.5 -9t-54.5 -20l16 -77q31 8 52 14t45 6q51 0 51 -54q0 -20 -11.5 -44.5t-24.5 -44.5q-25 -39 -49.5 -78.5t-49.5 -74.5q-10 -14 -23 -36.5t-13 -45.5v-67h295v84h-174q16 23 31 45
t29.5 44.5t29 46.5t31.5 51zM570 -123q-102 0 -192.5 37.5t-158 103t-106.5 155t-39 194.5q0 104 39 193.5t106.5 155t158 102.5t192.5 37t192 -37t157.5 -102.5t107 -155t39.5 -193.5q0 -105 -39.5 -194.5t-107 -155t-157.5 -103t-192 -37.5zM284 108h270v87h-73v435h-76
q-24 -15 -56 -32t-72 -31l21 -72q15 4 34.5 9.5t32.5 10.5v-320h-81v-87z" />
    <glyph glyph-name="uni24ED" unicode="&#x24ed;" horiz-adv-x="1140" 
d="M672 182q-23 0 -45.5 4t-51.5 14l-19 -80q61 -24 118 -24q44 0 80.5 13t63 36.5t41 55.5t14.5 71q0 63 -34.5 106.5t-92.5 55.5l106 162l-34 32h-242v-86h127l-95 -153l41 -38q25 9 39 9q31 0 47.5 -23t16.5 -65q0 -44 -22 -67t-58 -23zM570 -123q-102 0 -192.5 37.5
t-158 103t-106.5 155t-39 194.5q0 104 39 193.5t106.5 155t158 102.5t192.5 37t192 -37t157.5 -102.5t107 -155t39.5 -193.5q0 -105 -39.5 -194.5t-107 -155t-157.5 -103t-192 -37.5zM281 108h269v87h-72v435h-76q-24 -15 -56 -32t-72 -31l21 -72q15 4 34.5 9.5t32.5 10.5
v-320h-81v-87z" />
    <glyph glyph-name="uni24EE" unicode="&#x24ee;" horiz-adv-x="1140" 
d="M812 628h-149l-130 -292q-5 -11 -10.5 -25t-5.5 -29v-46h183v-127h112v127h58v83h-58v309zM700 319h-55l55 154v-154zM570 -123q-102 0 -192.5 37.5t-158 103t-106.5 155t-39 194.5q0 104 39 193.5t106.5 155t158 102.5t192.5 37t192 -37t157.5 -102.5t107 -155
t39.5 -193.5q0 -105 -39.5 -194.5t-107 -155t-157.5 -103t-192 -37.5zM266 108h269v87h-72v435h-76q-24 -15 -56 -32t-72 -31l21 -72q15 4 34.5 9.5t32.5 10.5v-320h-81v-87z" />
    <glyph glyph-name="uni24EF" unicode="&#x24ef;" horiz-adv-x="1140" 
d="M586 384l39 -27q15 5 30 8t31 3q41 0 57.5 -25t16.5 -68q0 -39 -20.5 -66t-62.5 -27q-23 0 -45.5 6t-54.5 17l-20 -80q29 -14 60 -21.5t61 -7.5q48 0 85 15.5t62.5 40.5t38.5 57t13 66q0 36 -9 68t-27.5 56t-48 38t-69.5 14h-8t-12 -1v92h134v86h-251v-244zM570 -123
q-102 0 -192.5 37.5t-158 103t-106.5 155t-39 194.5q0 104 39 193.5t106.5 155t158 102.5t192.5 37t192 -37t157.5 -102.5t107 -155t39.5 -193.5q0 -105 -39.5 -194.5t-107 -155t-157.5 -103t-192 -37.5zM281 108h269v87h-72v435h-76q-24 -15 -56 -32t-72 -31l21 -72
q15 4 34.5 9.5t32.5 10.5v-320h-81v-87z" />
    <glyph glyph-name="uni24F0" unicode="&#x24f0;" horiz-adv-x="1140" 
d="M570 -123q-102 0 -192.5 37.5t-158 103t-106.5 155t-39 194.5q0 104 39 193.5t106.5 155t158 102.5t192.5 37t192 -37t157.5 -102.5t107 -155t39.5 -193.5q0 -105 -39.5 -194.5t-107 -155t-157.5 -103t-192 -37.5zM266 108h269v87h-72v435h-76q-24 -15 -56 -32t-72 -31
l21 -72q15 4 34.5 9.5t32.5 10.5v-320h-81v-87zM832 644q-58 0 -115 -14.5t-99 -54.5q-49 -47 -70.5 -112.5t-21.5 -142.5q0 -45 10 -85.5t32.5 -72t57.5 -50t86 -18.5q45 0 79 15.5t56.5 42t33.5 61t11 72.5q0 81 -42 132t-126 51q-20 0 -35.5 -6t-30.5 -16
q23 63 66.5 94.5t111.5 33.5zM712 179q-21 0 -34.5 10t-22 27.5t-11.5 41t-3 50.5q0 8 1 22t3 19q11 16 27 25.5t38 9.5q38 0 50.5 -25.5t12.5 -73.5q0 -19 -2 -38t-8.5 -34t-18.5 -24.5t-32 -9.5z" />
    <glyph glyph-name="uni24F1" unicode="&#x24f1;" horiz-adv-x="1140" 
d="M570 -123q-102 0 -192.5 37.5t-158 103t-106.5 155t-39 194.5q0 104 39 193.5t106.5 155t158 102.5t192.5 37t192 -37t157.5 -102.5t107 -155t39.5 -193.5q0 -105 -39.5 -194.5t-107 -155t-157.5 -103t-192 -37.5zM277 108h269v87h-72v435h-76q-24 -15 -56 -32t-72 -31
l21 -72q15 4 34.5 9.5t32.5 10.5v-320h-81v-87zM857 630h-298v-83h183l-148 -445h121l170 504z" />
    <glyph glyph-name="uni24F2" unicode="&#x24f2;" horiz-adv-x="1140" 
d="M570 -123q-102 0 -192.5 37.5t-158 103t-106.5 155t-39 194.5q0 104 39 193.5t106.5 155t158 102.5t192.5 37t192 -37t157.5 -102.5t107 -155t39.5 -193.5q0 -105 -39.5 -194.5t-107 -155t-157.5 -103t-192 -37.5zM266 108h269v87h-72v435h-76q-24 -15 -56 -32t-72 -31
l21 -72q15 4 34.5 9.5t32.5 10.5v-320h-81v-87zM712 93q85 0 135 44t50 118q0 44 -14.5 79t-57.5 60q27 20 36.5 47.5t9.5 58.5q0 68 -44 106t-114 38q-34 0 -63 -10t-50 -29t-33 -45.5t-12 -59.5q0 -31 9.5 -58.5t36.5 -47.5q-43 -25 -58 -60.5t-15 -78.5q0 -37 13.5 -67
t37.5 -51t58 -32.5t75 -11.5zM713 177q-35 0 -50.5 22.5t-15.5 55.5t15.5 60.5t50.5 42.5q35 -15 50.5 -42.5t15.5 -60.5t-15.5 -55.5t-50.5 -22.5zM670 499q0 25 10.5 43t33.5 18q22 0 32 -18t10 -43t-10.5 -43t-33.5 -24q-23 6 -32.5 24t-9.5 43z" />
    <glyph glyph-name="uni24F3" unicode="&#x24f3;" horiz-adv-x="1140" 
d="M570 -123q-102 0 -192.5 37.5t-158 103t-106.5 155t-39 194.5q0 104 39 193.5t106.5 155t158 102.5t192.5 37t192 -37t157.5 -102.5t107 -155t39.5 -193.5q0 -105 -39.5 -194.5t-107 -155t-157.5 -103t-192 -37.5zM623 90q54 8 94.5 27.5t71.5 49.5q48 47 70 116t22 147
q0 42 -10 81t-31.5 68.5t-56.5 47t-85 17.5q-44 0 -78.5 -15.5t-57.5 -41.5t-35 -61.5t-12 -74.5q0 -40 12 -73t34 -57t54 -37.5t72 -13.5q41 0 68 24q-20 -49 -56 -79q-21 -17 -46 -30t-53 -24zM698 559q21 0 34 -10t21 -26.5t11 -37.5t3 -44q0 -6 -1.5 -20.5t-3.5 -17.5
q-10 -19 -23.5 -34t-42.5 -15q-19 0 -31 8t-19 21.5t-9.5 31t-2.5 36.5q0 46 15 77t49 31zM266 108h269v87h-72v435h-76q-24 -15 -56 -32t-72 -31l21 -72q15 4 34.5 9.5t32.5 10.5v-320h-81v-87z" />
    <glyph glyph-name="uni24F4" unicode="&#x24f4;" horiz-adv-x="1140" 
d="M570 -123q-102 0 -192.5 37.5t-158 103t-106.5 155t-39 194.5q0 104 39 193.5t106.5 155t158 102.5t192.5 37t192 -37t157.5 -102.5t107 -155t39.5 -193.5q0 -105 -39.5 -194.5t-107 -155t-157.5 -103t-192 -37.5zM501 380q5 9 13.5 23.5t16 31.5t13 35t5.5 35
q0 64 -41 99.5t-122 35.5q-32 0 -59.5 -9t-50.5 -20l16 -77q31 8 49.5 14t42.5 6q25 0 35.5 -11.5t10.5 -39.5q0 -20 -12 -45.5t-24 -46.5l-89 -153q-4 -7 -10 -16.5t-12 -20.5t-10 -22.5t-4 -22.5v-67h285v84h-164zM899 370q0 140 -38.5 204t-124.5 64q-87 0 -126 -64.5
t-39 -203.5q0 -140 38.5 -206t126.5 -66q86 0 124.5 66t38.5 206zM736 182q-19 0 -29.5 14t-16 39t-7 59.5t-1.5 75.5q0 40 1.5 74t7 58.5t16 38t29.5 13.5q18 0 28.5 -13.5t16 -38t7 -58.5t1.5 -74q0 -41 -1.5 -75.5t-7 -59.5t-16 -39t-28.5 -14z" />
    <glyph glyph-name="SF100000" unicode="&#x2500;" horiz-adv-x="920" 
d="M0 261v84h920v-84h-920z" />
    <glyph glyph-name="uni2501" unicode="&#x2501;" horiz-adv-x="920" 
d="M0 240v120h920v-120h-920z" />
    <glyph glyph-name="SF110000" unicode="&#x2502;" horiz-adv-x="920" 
d="M409 -200v1000h101v-1000h-101z" />
    <glyph glyph-name="uni2503" unicode="&#x2503;" horiz-adv-x="920" 
d="M393 -200v1000h134v-1000h-134z" />
    <glyph glyph-name="SF010000" unicode="&#x250c;" horiz-adv-x="920" 
d="M510 261v-461h-101v545h511v-84h-410z" />
    <glyph glyph-name="uni250D" unicode="&#x250d;" horiz-adv-x="920" 
d="M510 240v-440h-101v560h511v-120h-410z" />
    <glyph glyph-name="uni250E" unicode="&#x250e;" horiz-adv-x="920" 
d="M527 261v-461h-134v545h527v-84h-393z" />
    <glyph glyph-name="uni250F" unicode="&#x250f;" horiz-adv-x="920" 
d="M527 240v-440h-134v560h527v-120h-393z" />
    <glyph glyph-name="SF030000" unicode="&#x2510;" horiz-adv-x="920" 
d="M409 -200v461h-409v84h510v-545h-101z" />
    <glyph glyph-name="uni2511" unicode="&#x2511;" horiz-adv-x="920" 
d="M409 -200v440h-409v120h510v-560h-101z" />
    <glyph glyph-name="uni2512" unicode="&#x2512;" horiz-adv-x="920" 
d="M393 -200v461h-393v84h527v-545h-134z" />
    <glyph glyph-name="uni2513" unicode="&#x2513;" horiz-adv-x="920" 
d="M393 -200v440h-393v120h527v-560h-134z" />
    <glyph glyph-name="SF020000" unicode="&#x2514;" horiz-adv-x="920" 
d="M409 261v539h101v-455h410v-84h-511z" />
    <glyph glyph-name="uni2515" unicode="&#x2515;" horiz-adv-x="920" 
d="M409 240v560h101v-440h410v-120h-511z" />
    <glyph glyph-name="uni2516" unicode="&#x2516;" horiz-adv-x="920" 
d="M393 261v539h134v-455h393v-84h-527z" />
    <glyph glyph-name="uni2517" unicode="&#x2517;" horiz-adv-x="920" 
d="M393 240v560h134v-440h393v-120h-527z" />
    <glyph glyph-name="SF040000" unicode="&#x2518;" horiz-adv-x="920" 
d="M0 261v84h409v455h101v-539h-510z" />
    <glyph glyph-name="uni2519" unicode="&#x2519;" horiz-adv-x="920" 
d="M0 240v120h409v440h101v-560h-510z" />
    <glyph glyph-name="uni251A" unicode="&#x251a;" horiz-adv-x="920" 
d="M0 261v84h393v455h134v-539h-527z" />
    <glyph glyph-name="uni251B" unicode="&#x251b;" horiz-adv-x="920" 
d="M0 240v120h393v440h134v-560h-527z" />
    <glyph glyph-name="SF080000" unicode="&#x251c;" horiz-adv-x="920" 
d="M510 261v-461h-101v1000h101v-455h410v-84h-410z" />
    <glyph glyph-name="uni251D" unicode="&#x251d;" horiz-adv-x="920" 
d="M510 240v-440h-101v1000h101v-440h410v-120h-410z" />
    <glyph glyph-name="uni251E" unicode="&#x251e;" horiz-adv-x="920" 
d="M510 261v-461h-101v461h-16v539h134v-455h393v-84h-410z" />
    <glyph glyph-name="uni251F" unicode="&#x251f;" horiz-adv-x="920" 
d="M527 261v-461h-134v545h16v455h101v-455h410v-84h-393z" />
    <glyph glyph-name="uni2520" unicode="&#x2520;" horiz-adv-x="920" 
d="M527 261v-461h-134v1000h134v-455h393v-84h-393z" />
    <glyph glyph-name="uni2521" unicode="&#x2521;" horiz-adv-x="920" 
d="M510 240v-440h-101v440h-16v560h134v-440h393v-120h-410z" />
    <glyph glyph-name="uni2522" unicode="&#x2522;" horiz-adv-x="920" 
d="M527 240v-440h-134v560h16v440h101v-440h410v-120h-393z" />
    <glyph glyph-name="uni2523" unicode="&#x2523;" horiz-adv-x="920" 
d="M527 240v-440h-134v1000h134v-440h393v-120h-393z" />
    <glyph glyph-name="SF090000" unicode="&#x2524;" horiz-adv-x="920" 
d="M409 -200v461h-409v84h409v455h101v-1000h-101z" />
    <glyph glyph-name="uni2525" unicode="&#x2525;" horiz-adv-x="920" 
d="M409 -200v440h-409v120h409v440h101v-1000h-101z" />
    <glyph glyph-name="uni2526" unicode="&#x2526;" horiz-adv-x="920" 
d="M510 261v-461h-101v461h-409v84h393v455h134v-539h-17z" />
    <glyph glyph-name="uni2527" unicode="&#x2527;" horiz-adv-x="920" 
d="M393 -200v461h-393v84h409v455h101v-455h17v-545h-134z" />
    <glyph glyph-name="uni2528" unicode="&#x2528;" horiz-adv-x="920" 
d="M393 -200v461h-393v84h393v455h134v-1000h-134z" />
    <glyph glyph-name="uni2529" unicode="&#x2529;" horiz-adv-x="920" 
d="M510 240v-440h-101v440h-409v120h393v440h134v-560h-17z" />
    <glyph glyph-name="uni252A" unicode="&#x252a;" horiz-adv-x="920" 
d="M393 -200v440h-393v120h409v440h101v-440h17v-560h-134z" />
    <glyph glyph-name="uni252B" unicode="&#x252b;" horiz-adv-x="920" 
d="M393 -200v440h-393v120h393v440h134v-1000h-134z" />
    <glyph glyph-name="SF060000" unicode="&#x252c;" horiz-adv-x="920" 
d="M510 261v-461h-101v461h-409v84h920v-84h-410z" />
    </font>
</defs>
</svg>
