<svg width="419" height="418" xmlns="http://www.w3.org/2000/svg" xmlns:xlink="http://www.w3.org/1999/xlink" overflow="hidden"><defs><clipPath id="clip0"><rect x="-154" y="-148" width="419" height="418"/></clipPath></defs><g clip-path="url(#clip0)" transform="translate(154 148)"><path d="M316.763 159.732 321.732 159.732 321.732 160.603 316.763 160.603Z" fill="#737373" transform="matrix(0.79074 -0.613119 0.614586 0.788853 -185.153 81.401)"/><path d="M326.678 161.14 334.194 161.14 334.194 162.01 326.678 162.01Z" fill="#737373" transform="matrix(0.211384 -0.977403 0.979741 0.210879 -50.9696 302.45)"/><path d="M328.424 117.789 329.294 117.789 329.294 124.826 328.424 124.826Z" fill="#737373" transform="matrix(0.930392 -0.371269 0.372157 0.928171 -175.575 -17.2348)"/><path d="M323.021 108.643 325.634 104.287C325.431 104.06 325.234 103.829 325.028 103.604L322.274 108.195 323.021 108.643Z" fill="#737373" transform="matrix(1.00239 0 0 1 -154 -148)"/><path d="M323.282 149.343 330.262 149.343 330.262 150.213 323.282 150.213Z" fill="#737373" transform="matrix(0.0626517 -0.998035 1.00042 0.0625022 3.24372 318.567)"/><path d="M325.506 136.43 331.371 136.43 331.371 137.303 325.506 137.303Z" fill="#737373" transform="matrix(0.669389 -0.742912 0.744689 0.667792 -146.909 141.313)"/><path d="M348.165 149.634 349.036 149.634 349.036 157.131 348.165 157.131Z" fill="#737373" transform="matrix(0.81503 -0.58076 0.58215 0.813085 -178.259 83.0155)"/><path d="M339.659 138.877 340.53 138.877 340.53 144.604 339.659 144.604Z" fill="#737373" transform="matrix(0.990676 -0.152086 0.15245 0.988311 -171.639 -94.6428)"/><path d="M343.202 135.84 347.2 134.984C347.058 134.718 346.92 134.449 346.775 134.184L343.02 134.989 343.202 135.84Z" fill="#737373" transform="matrix(1.00239 0 0 1 -154 -148)"/><path d="M349.265 144.328 350.162 140.779C349.968 140.377 349.764 139.981 349.566 139.582L348.421 144.115 349.265 144.328Z" fill="#737373" transform="matrix(1.00239 0 0 1 -154 -148)"/><path d="M318.981 128.397 319.852 128.397 319.852 135.059 318.981 135.059Z" fill="#737373" transform="matrix(0.196548 -0.980494 0.98284 0.196079 -26.1055 271.062)"/><path d="M318.421 187.382 324.349 187.382 324.349 188.254 318.421 188.254Z" fill="#737373" transform="matrix(0.809976 -0.587722 0.589128 0.808043 -203.077 76.7691)"/><path d="M316.752 285.241 321.721 285.241 321.721 286.112 316.752 286.112Z" fill="#737373" transform="matrix(0.790567 -0.61334 0.614808 0.78868 -262.302 107.936)"/><path d="M360.632 190.303 361.504 190.303 361.504 195.621 360.632 195.621Z" fill="#737373" transform="matrix(0.841655 -0.541842 0.543139 0.839646 -201.023 78.4611)"/><path d="M326.678 286.553 334.194 286.553 334.194 287.423 326.678 287.423Z" fill="#737373" transform="matrix(0.211384 -0.977403 0.979741 0.210879 -173.841 401.398)"/><path d="M328.849 174.391 329.72 174.391 329.72 181.025 328.849 181.025Z" fill="#737373" transform="matrix(0.394715 -0.918804 0.921002 0.393773 -117.691 262.233)"/><path d="M318.719 200.075 324.396 200.075 324.396 200.945 318.719 200.945Z" fill="#737373" transform="matrix(0.0773848 -0.997001 0.999386 0.0772001 -56.9517 357.625)"/><path d="M328.424 243.233 329.294 243.233 329.294 250.27 328.424 250.27Z" fill="#737373" transform="matrix(0.930392 -0.371269 0.372157 0.928171 -222.259 -8.26608)"/><path d="M320.994 230.258 328.614 230.258 328.614 231.129 320.994 231.129Z" fill="#737373" transform="matrix(0.515518 -0.856879 0.858929 0.514287 -194.223 242.221)"/><path d="M360.852 179.683 362.624 177.715C362.552 177.363 362.476 177.012 362.402 176.659L360.205 179.101 360.852 179.683Z" fill="#737373" transform="matrix(1.00239 0 0 1 -154 -148)"/><path d="M345.724 175.473 346.595 175.473 346.595 180.698 345.724 180.698Z" fill="#737373" transform="matrix(1.00239 0 0 1 -154 -148)"/><path d="M335.254 184.189 340.98 184.189 340.98 185.06 335.254 185.06Z" fill="#737373" transform="matrix(0.990628 -0.152394 0.152759 0.988264 -178.237 -94.3344)"/><path d="M348.368 192.003 349.239 192.003 349.239 197.73 348.368 197.73Z" fill="#737373" transform="matrix(0.990676 -0.152086 0.15245 0.988311 -179.634 -92.701)"/><path d="M350.042 183.111 356.277 183.111 356.277 183.982 350.042 183.982Z" fill="#737373" transform="matrix(0.980045 -0.20948 0.209981 0.977706 -184.689 -69.9359)"/><path d="M329.315 202.634 335.243 202.634 335.243 203.506 329.315 203.506Z" fill="#737373" transform="matrix(0.809976 -0.587722 0.589128 0.808043 -209.975 86.0861)"/><path d="M323.312 274.764 330.293 274.764 330.293 275.635 323.312 275.635Z" fill="#737373" transform="matrix(0.0625457 -0.998042 1.00043 0.0623964 -122.173 436.165)"/><path d="M325.506 261.963 331.371 261.963 331.371 262.836 325.506 262.836Z" fill="#737373" transform="matrix(0.669389 -0.742912 0.744689 0.667792 -240.39 182.879)"/><path d="M345.805 275.872 348.77 280.023C348.919 279.729 349.061 279.433 349.209 279.139L346.514 275.366 345.805 275.872Z" fill="#737373" transform="matrix(1.00239 0 0 1 -154 -148)"/><path d="M360.714 219.529 361.214 220.242 365.537 217.216C365.538 217.195 365.539 217.175 365.54 217.154L365.068 216.48 360.714 219.529Z" fill="#737373" transform="matrix(1.00239 0 0 1 -154 -148)"/><path d="M356.43 232.909 357.301 232.909 357.301 239.57 356.43 239.57Z" fill="#737373" transform="matrix(0.196548 -0.980494 0.98284 0.196079 -98.647 391.787)"/><path d="M354.274 241.147 355.147 241.147 355.147 246.466 354.274 246.466Z" fill="#737373" transform="matrix(0.574422 -0.818559 0.820517 0.573051 -202.515 246.274)"/><path d="M360.528 203.34 365.638 203.34C365.627 203.05 365.617 202.759 365.605 202.469L360.528 202.469 360.528 203.34Z" fill="#737373" transform="matrix(1.00239 0 0 1 -154 -148)"/><path d="M341.196 226.764 342.069 226.764 342.069 232.083 341.196 232.083Z" fill="#737373" transform="matrix(0.574832 -0.818272 0.820229 0.57346 -196.384 229.229)"/><path d="M334.403 236.431 339.628 236.431 339.628 237.302 334.403 237.302Z" fill="#737373" transform="matrix(1.00239 0 0 1 -154 -148)"/><path d="M339.869 248.152 345.55 248.152 345.55 249.023 339.869 249.023Z" fill="#737373" transform="matrix(0.845099 -0.536506 0.53779 0.843082 -234.014 74.693)"/><path d="M349.825 216.135 350.696 216.135 350.696 221.45 349.825 221.45Z" fill="#737373" transform="matrix(0.0417008 -0.99913 1.00152 0.0416013 -36.6311 411.664)"/><path d="M351.324 207.68 352.196 207.68 352.196 212.908 351.324 212.908Z" fill="#737373" transform="matrix(0.608091 -0.793867 0.795766 0.60664 -182.952 213.779)"/><path d="M339.659 264.289 340.53 264.289 340.53 270.016 339.659 270.016Z" fill="#737373" transform="matrix(0.990676 -0.152086 0.15245 0.988311 -190.752 -93.1846)"/><path d="M343.075 259.752 349.31 259.752 349.31 260.623 343.075 260.623Z" fill="#737373" transform="matrix(0.980045 -0.20948 0.209981 0.977706 -200.94 -69.6945)"/><path d="M333.642 189.586 334.515 189.586 334.515 197.009 333.642 197.009Z" fill="#737373" transform="matrix(0.64681 -0.762651 0.764476 0.645266 -183.319 175.151)"/><path d="M317.189 219.839 322.508 219.839 322.508 220.712 317.189 220.712Z" fill="#737373" transform="matrix(0.820519 -0.573053 0.574424 0.818561 -222.612 75.0657)"/><path d="M337.292 210.044 341.65 210.044 341.65 210.915 337.292 210.915Z" fill="#737373" transform="matrix(0.801358 -0.599309 0.600743 0.799445 -212.492 97.4992)"/><path d="M346.974 266.769 352.017 266.769 352.017 267.639 346.974 267.639Z" fill="#737373" transform="matrix(0.245863 -0.969305 0.971624 0.245276 -149.264 392.425)"/><path d="M318.981 253.811 319.852 253.811 319.852 260.473 318.981 260.473Z" fill="#737373" transform="matrix(0.196548 -0.980494 0.98284 0.196079 -149.364 371.869)"/><path d="M353.41 227.105 358.412 227.105 358.412 227.976 353.41 227.976Z" fill="#737373" transform="matrix(0.23893 -0.971037 0.97336 0.23836 -103.805 370.858)"/><path d="M340.614 165.835 344.725 165.835 344.725 166.706 340.614 166.706Z" fill="#737373" transform="matrix(0.563051 -0.826422 0.828399 0.561707 -141.448 207.961)"/><path d="M320.379 165.805 321.252 165.805 321.252 170.774 320.379 170.774Z" fill="#737373" transform="matrix(0.813309 -0.583146 0.584541 0.811368 -191.972 70.7046)"/><path d="M318.428 312.891 324.356 312.891 324.356 313.763 318.428 313.763Z" fill="#737373" transform="matrix(0.810059 -0.587609 0.589015 0.808125 -277.001 100.69)"/><path d="M328.849 299.831 329.72 299.831 329.72 306.466 328.849 306.466Z" fill="#737373" transform="matrix(0.394715 -0.918804 0.921002 0.393773 -233.228 338.236)"/><path d="M320.391 291.313 321.263 291.313 321.263 296.282 320.391 296.282Z" fill="#737373" transform="matrix(0.813179 -0.583324 0.58472 0.811238 -265.343 94.3451)"/><path d="M192.923 61.8817 198.851 61.8817 198.851 62.7532 192.923 62.7532Z" fill="#737373" transform="matrix(0.810059 -0.587609 0.589015 0.808125 -153.195 -21.0003)"/><path d="M191.244 159.732 196.214 159.732 196.214 160.603 191.244 160.603Z" fill="#737373" transform="matrix(0.79074 -0.613119 0.614586 0.788853 -211.605 4.44721)"/><path d="M310.03 92.3684 310.902 92.3684 310.902 98.0495 310.03 98.0495Z" fill="#737373" transform="matrix(0.537789 -0.84308 0.845097 0.536505 -90.4346 157.797)"/><path d="M312.901 111.999 317.259 111.999 317.259 112.871 312.901 112.871Z" fill="#737373" transform="matrix(0.801225 -0.599485 0.600919 0.799313 -158.451 63.353)"/><path d="M309.667 127.001 310.538 127.001 310.538 133.195 309.667 133.195Z" fill="#737373" transform="matrix(0.6341 -0.773251 0.775101 0.632587 -140.938 139.443)"/><path d="M311.572 146.692 312.443 146.692 312.443 154.209 311.572 154.209Z" fill="#737373" transform="matrix(0.1742 -0.98471 0.987066 0.173784 -44.1234 283.526)"/><path d="M294.526 149.267 299.495 149.267 299.495 150.138 294.526 150.138Z" fill="#737373" transform="matrix(0.790567 -0.61334 0.614808 0.78868 -183.387 65.686)"/><path d="M307.843 119.74 313.068 119.74 313.068 120.61 307.843 120.61Z" fill="#737373" transform="matrix(1.00239 0 0 1 -154 -148)"/><path d="M235.149 64.8206 236.021 64.8206 236.021 70.1379 235.149 70.1379Z" fill="#737373" transform="matrix(0.841655 -0.541842 0.543139 0.839646 -152.948 -9.56972)"/><path d="M285.504 120.068 286.374 120.068 286.374 125.994 285.504 125.994Z" fill="#737373" transform="matrix(0.83188 -0.556594 0.557925 0.829894 -174.102 31.9716)"/><path d="M271.154 71.0332 272.025 71.0332 272.025 76.3515 271.154 76.3515Z" fill="#737373" transform="matrix(0.84173 -0.541726 0.543022 0.839721 -150.576 10.8818)"/><path d="M257.684 161.604 263.366 161.604 263.366 162.475 257.684 162.475Z" fill="#737373" transform="matrix(0.569526 -0.821973 0.82394 0.568167 -174.94 135.999)"/><path d="M274.984 110.203 281.178 110.203 281.178 111.075 274.984 111.075Z" fill="#737373" transform="matrix(0.662679 -0.748904 0.750695 0.661097 -142.885 97.6238)"/><path d="M201.274 161.147 208.79 161.147 208.79 162.017 201.274 162.017Z" fill="#737373" transform="matrix(0.211575 -0.977362 0.9797 0.21107 -150.188 179.831)"/><path d="M232.697 160.754 237.923 160.754 237.923 161.625 232.697 161.625Z" fill="#737373" transform="matrix(0.0384903 -0.999259 1.00165 0.0383984 -88.6452 242.119)"/><path d="M206.998 53.1565 205.001 52.3005C204.321 52.3179 203.645 52.351 202.968 52.3763L206.655 53.9568 206.998 53.1565Z" fill="#737373" transform="matrix(1.00239 0 0 1 -154 -148)"/><path d="M193.32 74.6747 198.996 74.6747 198.996 75.5447 193.32 75.5447Z" fill="#737373" transform="matrix(0.0773848 -0.997001 0.999386 0.0772001 -47.6203 116.883)"/><path d="M202.979 117.789 203.85 117.789 203.85 124.826 202.979 124.826Z" fill="#737373" transform="matrix(0.930392 -0.371269 0.372157 0.928171 -184.566 -63.8071)"/><path d="M195.524 104.785 203.145 104.785 203.145 105.656 195.524 105.656Z" fill="#737373" transform="matrix(0.5154 -0.85695 0.859 0.51417 -147.437 73.8709)"/><path d="M221.195 55.2979 221.195 52.7185C220.905 52.6959 220.614 52.6802 220.324 52.6602L220.324 55.2979 221.195 55.2979Z" fill="#737373" transform="matrix(1.00239 0 0 1 -154 -148)"/><path d="M209.849 58.7843 215.576 58.7843 215.576 59.6551 209.849 59.6551Z" fill="#737373" transform="matrix(0.990628 -0.152394 0.152759 0.988264 -160.554 -114.903)"/><path d="M222.957 66.5916 223.828 66.5916 223.828 72.3187 222.957 72.3187Z" fill="#737373" transform="matrix(0.990676 -0.152086 0.15245 0.988311 -161.982 -113.227)"/><path d="M224.633 57.6999 230.868 57.6999 230.868 58.5708 224.633 58.5708Z" fill="#737373" transform="matrix(0.980132 -0.209077 0.209577 0.977793 -161.137 -99.1065)"/><path d="M203.818 77.134 209.745 77.134 209.745 78.0055 203.818 78.0055Z" fill="#737373" transform="matrix(0.810059 -0.587609 0.589015 0.808125 -160.092 -11.685)"/><path d="M197.886 149.343 204.867 149.343 204.867 150.213 197.886 150.213Z" fill="#737373" transform="matrix(0.0626517 -0.998035 1.00042 0.0625022 -114.6 193.412)"/><path d="M199.973 136.43 205.838 136.43 205.838 137.303 199.973 137.303Z" fill="#737373" transform="matrix(0.669389 -0.742912 0.744689 0.667792 -188.575 48.0551)"/><path d="M222.67 149.634 223.541 149.634 223.541 157.131 222.67 157.131Z" fill="#737373" transform="matrix(0.81503 -0.58076 0.58215 0.813085 -201.673 10.1277)"/><path d="M235.267 92.5982 240.585 92.5982 240.585 93.4706 235.267 93.4706Z" fill="#737373" transform="matrix(0.820519 -0.573053 0.574424 0.818561 -164.359 5.1404)"/><path d="M286.003 96.5977 286.874 96.5977 286.874 102.056 286.003 102.056Z" fill="#737373" transform="matrix(0.479496 -0.877544 0.879643 0.478351 -91.7419 155.14)"/><path d="M231.017 107.495 231.888 107.495 231.888 114.157 231.017 114.157Z" fill="#737373" transform="matrix(0.196548 -0.980494 0.98284 0.196079 -76.4362 168.015)"/><path d="M239.253 128.995 243.611 128.995 243.611 129.867 239.253 129.867Z" fill="#737373" transform="matrix(0.801225 -0.599485 0.600919 0.799313 -183.417 22.598)"/><path d="M236.01 143.998 236.882 143.998 236.882 150.193 236.01 150.193Z" fill="#737373" transform="matrix(0.6341 -0.773251 0.775101 0.632587 -181.165 88.7186)"/><path d="M242.258 153.276 243.129 153.276 243.129 157.386 242.258 157.386Z" fill="#737373" transform="matrix(0.53091 -0.847428 0.849456 0.529643 -171.684 130.622)"/><path d="M234.258 136.721 239.483 136.721 239.483 137.592 234.258 137.592Z" fill="#737373" transform="matrix(1.00239 0 0 1 -154 -148)"/><path d="M252.693 76.0384 258.012 76.0384 258.012 76.9107 252.693 76.9107Z" fill="#737373" transform="matrix(0.820231 -0.573461 0.574833 0.818274 -151.645 12.2786)"/><path d="M256.899 83.6 262.124 83.6 262.124 84.4708 256.899 84.4708Z" fill="#737373" transform="matrix(1.00239 0 0 1 -154 -148)"/><path d="M253.82 92.8041 254.692 92.8041 254.692 98.4853 253.82 98.4853Z" fill="#737373" transform="matrix(0.537789 -0.84308 0.845097 0.536505 -116.878 110.611)"/><path d="M252.272 117.582 256.818 117.582 256.818 118.452 252.272 118.452Z" fill="#737373" transform="matrix(0.287942 -0.957648 0.959939 0.287254 -85.4853 179.863)"/><path d="M253.438 127.434 254.31 127.434 254.31 133.628 253.438 133.628Z" fill="#737373" transform="matrix(0.633714 -0.773568 0.775418 0.632201 -161.855 96.2923)"/><path d="M254.894 143.255 255.765 143.255 255.765 147.365 254.894 147.365Z" fill="#737373" transform="matrix(0.53091 -0.847428 0.849456 0.529643 -157.223 136.623)"/><path d="M292.556 118.9 297.781 118.9 297.781 119.771 292.556 119.771Z" fill="#737373" transform="matrix(1.00239 0 0 1 -154 -148)"/><path d="M228.776 115.649 229.649 115.649 229.649 120.968 228.776 120.968Z" fill="#737373" transform="matrix(0.574422 -0.818559 0.820517 0.573051 -153.153 90.0545)"/><path d="M235.128 77.0687 240.353 77.0687 240.353 77.9396 235.128 77.9396Z" fill="#737373" transform="matrix(1.00239 0 0 1 -154 -148)"/><path d="M215.703 101.269 216.576 101.269 216.576 106.588 215.703 106.588Z" fill="#737373" transform="matrix(0.574422 -0.818559 0.820517 0.573051 -146.939 73.2239)"/><path d="M209.003 111.031 214.228 111.031 214.228 111.902 209.003 111.902Z" fill="#737373" transform="matrix(1.00239 0 0 1 -154 -148)"/><path d="M214.377 122.66 220.058 122.66 220.058 123.531 214.377 123.531Z" fill="#737373" transform="matrix(0.845099 -0.536506 0.53779 0.843082 -186.181 -12.2362)"/><path d="M270.178 97.548 275.145 97.548 275.145 98.4195 270.178 98.4195Z" fill="#737373" transform="matrix(0.838527 -0.546625 0.547932 0.836526 -163.204 16.9951)"/><path d="M272.871 85.2132 273.743 85.2132 273.743 90.4412 272.871 90.4412Z" fill="#737373" transform="matrix(0.608203 -0.793782 0.795681 0.606751 -116.386 103.407)"/><path d="M280.584 81.4086 285.851 81.4086 285.851 82.2803 280.584 82.2803Z" fill="#737373" transform="matrix(0.0733754 -0.997304 0.99969 0.0732003 27.2969 210.314)"/><path d="M269.275 153.437 270.146 153.437 270.146 158.752 269.275 158.752Z" fill="#737373" transform="matrix(0.0417008 -0.99913 1.00152 0.0416013 -51.221 271.089)"/><path d="M270.697 144.922 271.569 144.922 271.569 150.15 270.697 150.15Z" fill="#737373" transform="matrix(0.608091 -0.793867 0.795766 0.60664 -164.733 125.143)"/><path d="M281.87 138.743 282.742 138.743 282.742 144.421 281.87 144.421Z" fill="#737373" transform="matrix(0.940735 -0.344486 0.34531 0.93849 -185.562 -42.0866)"/><path d="M267.509 118.742 272.827 118.742 272.827 119.614 267.509 119.614Z" fill="#737373" transform="matrix(0.820231 -0.573461 0.574833 0.818274 -173.506 28.5022)"/><path d="M268.5 126.823 269.372 126.823 269.372 132.747 268.5 132.747Z" fill="#737373" transform="matrix(0.294735 -0.955579 0.957865 0.294032 -88.058 200.579)"/><path d="M284.758 153.372 285.629 153.372 285.629 159.053 284.758 159.053Z" fill="#737373" transform="matrix(0.537789 -0.84308 0.845097 0.536505 -153.71 164.722)"/><path d="M297.83 108.926 298.701 108.926 298.701 114.608 297.83 114.608Z" fill="#737373" transform="matrix(0.537789 -0.84308 0.845097 0.536505 -110.087 155.174)"/><path d="M292.843 133.347 297.201 133.347 297.201 134.219 292.843 134.219Z" fill="#737373" transform="matrix(0.801358 -0.599309 0.600743 0.799445 -175.312 55.5416)"/><path d="M224.429 90.739 225.3 90.739 225.3 96.0535 224.429 96.0535Z" fill="#737373" transform="matrix(0.0417008 -0.99913 1.00152 0.0416013 -31.5106 166.189)"/><path d="M225.804 82.1625 226.676 82.1625 226.676 87.3905 225.804 87.3905Z" fill="#737373" transform="matrix(0.608203 -0.793782 0.795681 0.606751 -132.471 64.8491)"/><path d="M290.639 89.4999 291.51 89.4999 291.51 94.3316 290.639 94.3316Z" fill="#737373" transform="matrix(0.195854 -0.980633 0.982979 0.195387 -9.60387 211.398)"/><path d="M214.248 138.877 215.119 138.877 215.119 144.604 214.248 144.604Z" fill="#737373" transform="matrix(0.990676 -0.152086 0.15245 0.988311 -173.1 -113.711)"/><path d="M217.663 134.34 223.898 134.34 223.898 135.211 217.663 135.211Z" fill="#737373" transform="matrix(0.980045 -0.20948 0.209981 0.977706 -177.392 -98.7531)"/><path d="M248.218 61.1227 249.089 61.1227 249.089 68.2112 248.218 68.2112Z" fill="#737373" transform="matrix(0.18472 -0.982791 0.985142 0.18428 -14.4119 149.112)"/><path d="M246.407 100.148 247.278 100.148 247.278 106.306 246.407 106.306Z" fill="#737373" transform="matrix(0.992244 -0.141597 0.141935 0.989876 -166.156 -112.019)"/><path d="M295.892 80.0714 300.246 82.2485 300.506 81.7286C299.999 81.3628 299.488 80.9997 298.975 80.64L296.281 79.2929 295.892 80.0714Z" fill="#737373" transform="matrix(1.00239 0 0 1 -154 -148)"/><path d="M208.119 64.063 208.992 64.063 208.992 71.4854 208.119 71.4854Z" fill="#737373" transform="matrix(0.64681 -0.762651 0.764476 0.645266 -131.866 35.0239)"/><path d="M191.691 94.3413 197.01 94.3413 197.01 95.2137 191.691 95.2137Z" fill="#737373" transform="matrix(0.820519 -0.573053 0.574424 0.818561 -173.25 -19.5146)"/><path d="M211.789 84.5409 216.147 84.5409 216.147 85.4124 211.789 85.4124Z" fill="#737373" transform="matrix(0.801358 -0.599309 0.600743 0.799445 -162.217 -2.78593)"/><path d="M299.516 100.163 305.198 100.163 305.198 101.034 299.516 101.034Z" fill="#737373" transform="matrix(0.569526 -0.821973 0.82394 0.568167 -106.24 143.899)"/><path d="M245.077 84.7465 250.119 84.7465 250.119 85.6166 245.077 85.6166Z" fill="#737373" transform="matrix(0.245863 -0.969305 0.971624 0.245276 -49.477 156.291)"/><path d="M221.561 141.356 226.604 141.356 226.604 142.226 221.561 142.226Z" fill="#737373" transform="matrix(0.245462 -0.969406 0.971725 0.244876 -122.199 176.291)"/><path d="M239.688 117.229 244.046 117.229 244.046 118.1 239.688 118.1Z" fill="#737373" transform="matrix(0.801225 -0.599485 0.600919 0.799313 -176.259 20.508)"/><path d="M193.567 128.397 194.438 128.397 194.438 135.059 193.567 135.059Z" fill="#737373" transform="matrix(0.196548 -0.980494 0.98284 0.196079 -127.153 148.097)"/><path d="M305.315 136.35 306.187 136.35 306.187 142.276 305.315 142.276Z" fill="#737373" transform="matrix(0.831476 -0.557191 0.558524 0.829491 -179.778 46.0225)"/><path d="M227.989 101.684 232.991 101.684 232.991 102.555 227.989 102.555Z" fill="#737373" transform="matrix(0.23893 -0.971037 0.97336 0.23836 -77.4632 153.568)"/><path d="M262.339 107.201 266.697 107.201 266.697 108.073 262.339 108.073Z" fill="#737373" transform="matrix(0.801358 -0.599309 0.600743 0.799445 -165.711 32.0361)"/><path d="M192.919 187.382 198.847 187.382 198.847 188.254 192.919 188.254Z" fill="#737373" transform="matrix(0.809976 -0.587722 0.589128 0.808043 -227.119 3.01208)"/><path d="M191.244 285.251 196.214 285.251 196.214 286.122 191.244 286.122Z" fill="#737373" transform="matrix(0.79074 -0.613119 0.614586 0.788853 -288.743 30.8361)"/><path d="M309.997 179.64 315.808 179.64 315.808 180.511 309.997 180.511Z" fill="#737373" transform="matrix(0.976667 -0.224562 0.2251 0.974336 -186.52 -73.143)"/><path d="M308.909 201.102 314.228 201.102 314.228 201.974 308.909 201.974Z" fill="#737373" transform="matrix(0.820519 -0.573053 0.574424 0.818561 -213.348 66.9373)"/><path d="M313.068 208.565 318.293 208.565 318.293 209.435 313.068 209.435Z" fill="#737373" transform="matrix(1.00239 0 0 1 -154 -148)"/><path d="M310.03 217.861 310.902 217.861 310.902 223.542 310.03 223.542Z" fill="#737373" transform="matrix(0.537789 -0.84308 0.845097 0.536505 -196.483 215.872)"/><path d="M312.889 237.497 317.246 237.497 317.246 238.369 312.889 238.369Z" fill="#737373" transform="matrix(0.801358 -0.599309 0.600743 0.799445 -233.871 88.3564)"/><path d="M309.66 252.517 310.532 252.517 310.532 258.711 309.66 258.711Z" fill="#737373" transform="matrix(0.633714 -0.773568 0.775418 0.632201 -238.176 185.678)"/><path d="M311.572 272.104 312.443 272.104 312.443 279.62 311.572 279.62Z" fill="#737373" transform="matrix(0.1742 -0.98471 0.987066 0.173784 -167.911 387.132)"/><path d="M294.526 274.782 299.495 274.782 299.495 275.652 294.526 275.652Z" fill="#737373" transform="matrix(0.790567 -0.61334 0.614808 0.78868 -260.56 92.1018)"/><path d="M307.843 245.14 313.068 245.14 313.068 246.01 307.843 246.01Z" fill="#737373" transform="matrix(1.00239 0 0 1 -154 -148)"/><path d="M287.247 192.4 288.117 192.4 288.117 198.325 287.247 198.325Z" fill="#737373" transform="matrix(0.83188 -0.556594 0.557925 0.829894 -214.158 45.19)"/><path d="M235.149 190.303 236.021 190.303 236.021 195.621 235.149 195.621Z" fill="#737373" transform="matrix(0.841655 -0.541842 0.543139 0.839646 -221.106 10.4655)"/><path d="M262.042 184.698 267.724 184.698 267.724 185.57 262.042 185.57Z" fill="#737373" transform="matrix(0.569526 -0.821973 0.82394 0.568167 -192.084 149.541)"/><path d="M285.504 245.56 286.374 245.56 286.374 251.485 285.504 251.485Z" fill="#737373" transform="matrix(0.83188 -0.556594 0.557925 0.829894 -244.11 53.2208)"/><path d="M271.154 196.52 272.025 196.52 272.025 201.838 271.154 201.838Z" fill="#737373" transform="matrix(0.84173 -0.541726 0.543022 0.839721 -218.716 30.9049)"/><path d="M257.684 287.099 263.366 287.099 263.366 287.971 257.684 287.971Z" fill="#737373" transform="matrix(0.569526 -0.821973 0.82394 0.568167 -278.342 190.096)"/><path d="M274.982 235.735 281.176 235.735 281.176 236.607 274.982 236.607Z" fill="#737373" transform="matrix(0.662784 -0.74881 0.750602 0.661203 -237.125 139.99)"/><path d="M201.265 286.553 208.781 286.553 208.781 287.423 201.265 287.423Z" fill="#737373" transform="matrix(0.211384 -0.977403 0.979741 0.210879 -273.027 278.82)"/><path d="M232.697 286.159 237.923 286.159 237.923 287.031 232.697 287.031Z" fill="#737373" transform="matrix(0.0384903 -0.999259 1.00165 0.0383984 -214.252 362.702)"/><path d="M203.409 174.391 204.28 174.391 204.28 181.025 203.409 181.025Z" fill="#737373" transform="matrix(0.394715 -0.918804 0.921002 0.393773 -193.876 146.972)"/><path d="M193.331 200.087 199.009 200.087 199.009 200.957 193.331 200.957Z" fill="#737373" transform="matrix(0.0768789 -0.99704 0.999426 0.0766954 -172.85 232.713)"/><path d="M202.979 243.233 203.85 243.233 203.85 250.27 202.979 250.27Z" fill="#737373" transform="matrix(0.930392 -0.371269 0.372157 0.928171 -231.249 -54.8382)"/><path d="M195.524 230.265 203.145 230.265 203.145 231.137 195.524 231.137Z" fill="#737373" transform="matrix(0.5154 -0.85695 0.859 0.51417 -255.224 134.753)"/><path d="M234.408 176.967 240.272 176.967 240.272 177.839 234.408 177.839Z" fill="#737373" transform="matrix(0.669389 -0.742912 0.744689 0.667792 -207.332 87.0588)"/><path d="M249.088 173.896 249.961 173.896 249.961 181.318 249.088 181.318Z" fill="#737373" transform="matrix(0.64681 -0.762651 0.764476 0.645266 -201.303 105.118)"/><path d="M278.21 173.577 279.082 173.577 279.082 180.227 278.21 180.227Z" fill="#737373" transform="matrix(0.524989 -0.851109 0.853145 0.523736 -172.083 173.277)"/><path d="M274.667 188.013 281.318 188.013 281.318 188.884 274.667 188.884Z" fill="#737373" transform="matrix(0.524989 -0.851109 0.853145 0.523736 -182.245 178.211)"/><path d="M291.428 180.987 300.981 180.987 300.981 181.859 291.428 181.859Z" fill="#737373" transform="matrix(0.913719 -0.410237 0.411219 0.911538 -202.457 -10.5233)"/><path d="M300.19 190.641 305.509 190.641 305.509 191.513 300.19 191.513Z" fill="#737373" transform="matrix(0.820231 -0.573461 0.574833 0.818274 -208.909 60.2546)"/><path d="M220.324 175.473 221.195 175.473 221.195 180.698 220.324 180.698Z" fill="#737373" transform="matrix(1.00239 0 0 1 -154 -148)"/><path d="M209.86 184.199 215.587 184.199 215.587 185.07 209.86 185.07Z" fill="#737373" transform="matrix(0.990676 -0.152086 0.15245 0.988311 -179.66 -113.51)"/><path d="M222.945 191.993 223.816 191.993 223.816 197.72 222.945 197.72Z" fill="#737373" transform="matrix(0.990628 -0.152394 0.152759 0.988264 -181.143 -111.695)"/><path d="M224.63 183.111 230.865 183.111 230.865 183.982 224.63 183.982Z" fill="#737373" transform="matrix(0.980045 -0.20948 0.209981 0.977706 -187.479 -96.2108)"/><path d="M203.813 202.634 209.741 202.634 209.741 203.506 203.813 203.506Z" fill="#737373" transform="matrix(0.809976 -0.587722 0.589128 0.808043 -234.017 12.33)"/><path d="M197.905 274.764 204.886 274.764 204.886 275.635 197.905 275.635Z" fill="#737373" transform="matrix(0.0625457 -0.998042 1.00043 0.0623964 -240.032 311.009)"/><path d="M199.973 261.963 205.838 261.963 205.838 262.836 199.973 262.836Z" fill="#737373" transform="matrix(0.669389 -0.742912 0.744689 0.667792 -282.055 89.6217)"/><path d="M222.67 275.129 223.541 275.129 223.541 282.626 222.67 282.626Z" fill="#737373" transform="matrix(0.81503 -0.58076 0.58215 0.813085 -274.735 33.486)"/><path d="M235.267 218.096 240.585 218.096 240.585 218.968 235.267 218.968Z" fill="#737373" transform="matrix(0.820519 -0.573053 0.574424 0.818561 -236.443 27.8082)"/><path d="M286.019 222.075 286.891 222.075 286.891 227.534 286.019 227.534Z" fill="#737373" transform="matrix(0.479769 -0.877395 0.879494 0.478624 -202.157 220.422)"/><path d="M231.017 232.909 231.888 232.909 231.888 239.57 231.017 239.57Z" fill="#737373" transform="matrix(0.196548 -0.980494 0.98284 0.196079 -199.695 268.822)"/><path d="M239.243 254.492 243.601 254.492 243.601 255.364 239.243 255.364Z" fill="#737373" transform="matrix(0.801358 -0.599309 0.600743 0.799445 -258.825 47.6109)"/><path d="M236.01 269.52 236.882 269.52 236.882 275.714 236.01 275.714Z" fill="#737373" transform="matrix(0.6341 -0.773251 0.775101 0.632587 -278.452 134.711)"/><path d="M242.258 278.761 243.129 278.761 243.129 282.871 242.258 282.871Z" fill="#737373" transform="matrix(0.53091 -0.847428 0.849456 0.529643 -278.278 189.56)"/><path d="M234.258 262.121 239.483 262.121 239.483 262.992 234.258 262.992Z" fill="#737373" transform="matrix(1.00239 0 0 1 -154 -148)"/><path d="M252.697 201.537 258.016 201.537 258.016 202.41 252.697 202.41Z" fill="#737373" transform="matrix(0.820519 -0.573053 0.574424 0.818561 -223.776 34.8053)"/><path d="M256.899 209 262.124 209 262.124 209.871 256.899 209.871Z" fill="#737373" transform="matrix(1.00239 0 0 1 -154 -148)"/><path d="M253.82 218.296 254.692 218.296 254.692 223.978 253.82 223.978Z" fill="#737373" transform="matrix(0.537789 -0.84308 0.845097 0.536505 -222.926 168.687)"/><path d="M252.272 243.002 256.818 243.002 256.818 243.872 252.272 243.872Z" fill="#737373" transform="matrix(0.287942 -0.957648 0.959939 0.287254 -205.884 269.229)"/><path d="M253.444 252.958 254.315 252.958 254.315 259.152 253.444 259.152Z" fill="#737373" transform="matrix(0.6341 -0.773251 0.775101 0.632587 -259.212 142.122)"/><path d="M254.894 268.739 255.765 268.739 255.765 272.85 254.894 272.85Z" fill="#737373" transform="matrix(0.53091 -0.847428 0.849456 0.529643 -263.816 195.561)"/><path d="M292.556 244.3 297.781 244.3 297.781 245.171 292.556 245.171Z" fill="#737373" transform="matrix(1.00239 0 0 1 -154 -148)"/><path d="M228.776 241.147 229.649 241.147 229.649 246.466 228.776 246.466Z" fill="#737373" transform="matrix(0.574422 -0.818559 0.820517 0.573051 -256.13 143.542)"/><path d="M235.128 202.469 240.353 202.469 240.353 203.34 235.128 203.34Z" fill="#737373" transform="matrix(1.00239 0 0 1 -154 -148)"/><path d="M215.703 226.767 216.576 226.767 216.576 232.086 215.703 232.086Z" fill="#737373" transform="matrix(0.574422 -0.818559 0.820517 0.573051 -249.916 126.712)"/><path d="M209.003 236.431 214.228 236.431 214.228 237.302 209.003 237.302Z" fill="#737373" transform="matrix(1.00239 0 0 1 -154 -148)"/><path d="M214.377 248.152 220.058 248.152 220.058 249.023 214.377 249.023Z" fill="#737373" transform="matrix(0.845099 -0.536506 0.53779 0.843082 -253.666 7.36886)"/><path d="M270.199 223.052 275.167 223.052 275.167 223.923 270.199 223.923Z" fill="#737373" transform="matrix(0.83816 -0.547181 0.54849 0.83616 -231.989 37.6495)"/><path d="M272.871 210.727 273.743 210.727 273.743 215.955 272.871 215.955Z" fill="#737373" transform="matrix(0.608203 -0.793782 0.795681 0.606751 -216.254 152.655)"/><path d="M280.592 206.814 285.859 206.814 285.859 207.686 280.592 207.686Z" fill="#737373" transform="matrix(0.0737742 -0.997275 0.999661 0.0735982 -98.1856 326.434)"/><path d="M269.275 278.833 270.146 278.833 270.146 284.148 269.275 284.148Z" fill="#737373" transform="matrix(0.0417008 -0.99913 1.00152 0.0416013 -176.813 391.272)"/><path d="M270.692 270.433 271.564 270.433 271.564 275.661 270.692 275.661Z" fill="#737373" transform="matrix(0.608203 -0.793782 0.795681 0.606751 -264.618 174.353)"/><path d="M281.87 264.185 282.742 264.185 282.742 269.863 281.87 269.863Z" fill="#737373" transform="matrix(0.940735 -0.344486 0.34531 0.93849 -228.876 -34.4068)"/><path d="M267.509 244.238 272.827 244.238 272.827 245.11 267.509 245.11Z" fill="#737373" transform="matrix(0.820231 -0.573461 0.574833 0.818274 -245.648 51.211)"/><path d="M268.5 252.252 269.372 252.252 269.372 258.176 268.5 258.176Z" fill="#737373" transform="matrix(0.294735 -0.955579 0.957865 0.294032 -208.199 289.101)"/><path d="M284.758 278.864 285.629 278.864 285.629 284.545 284.758 284.545Z" fill="#737373" transform="matrix(0.537789 -0.84308 0.845097 0.536505 -259.758 222.798)"/><path d="M297.83 234.419 298.701 234.419 298.701 240.1 297.83 240.1Z" fill="#737373" transform="matrix(0.537789 -0.84308 0.845097 0.536505 -216.135 213.25)"/><path d="M292.843 258.85 297.201 258.85 297.201 259.722 292.843 259.722Z" fill="#737373" transform="matrix(0.801358 -0.599309 0.600743 0.799445 -250.713 80.6068)"/><path d="M224.429 216.135 225.3 216.135 225.3 221.45 224.429 221.45Z" fill="#737373" transform="matrix(0.0417008 -0.99913 1.00152 0.0416013 -157.102 286.372)"/><path d="M225.808 207.68 226.68 207.68 226.68 212.908 225.808 212.908Z" fill="#737373" transform="matrix(0.608091 -0.793867 0.795766 0.60664 -232.332 114.139)"/><path d="M290.639 214.908 291.51 214.908 291.51 219.74 290.639 219.74Z" fill="#737373" transform="matrix(0.195854 -0.980633 0.982979 0.195387 -132.882 312.299)"/><path d="M214.236 264.275 215.107 264.275 215.107 270.001 214.236 270.001Z" fill="#737373" transform="matrix(0.990628 -0.152394 0.152759 0.988264 -192.283 -112.177)"/><path d="M217.666 259.755 223.901 259.755 223.901 260.626 217.666 260.626Z" fill="#737373" transform="matrix(0.980132 -0.209077 0.209577 0.977793 -203.63 -96.0986)"/><path d="M248.218 186.537 249.089 186.537 249.089 193.625 248.218 193.625Z" fill="#737373" transform="matrix(0.18472 -0.982791 0.985142 0.18428 -137.959 251.402)"/><path d="M246.407 225.551 247.278 225.551 247.278 231.709 246.407 231.709Z" fill="#737373" transform="matrix(0.992244 -0.141597 0.141935 0.989876 -183.95 -110.756)"/><path d="M297.962 203.827 298.833 203.827 298.833 208.697 297.962 208.697Z" fill="#737373" transform="matrix(0.448069 -0.893999 0.896138 0.447 -173.575 232.743)"/><path d="M208.119 189.586 208.992 189.586 208.992 197.009 208.119 197.009Z" fill="#737373" transform="matrix(0.64681 -0.762651 0.764476 0.645266 -227.824 79.4233)"/><path d="M191.688 219.836 197.007 219.836 197.007 220.708 191.688 220.708Z" fill="#737373" transform="matrix(0.820231 -0.573461 0.574833 0.818274 -245.373 3.31339)"/><path d="M211.789 210.044 216.147 210.044 216.147 210.915 211.789 210.915Z" fill="#737373" transform="matrix(0.801358 -0.599309 0.600743 0.799445 -237.617 22.2793)"/><path d="M258.992 172.933 264.674 172.933 264.674 173.804 258.992 173.804Z" fill="#737373" transform="matrix(0.569526 -0.821973 0.82394 0.568167 -183.71 141.957)"/><path d="M299.516 225.659 305.198 225.659 305.198 226.53 299.516 226.53Z" fill="#737373" transform="matrix(0.569526 -0.821973 0.82394 0.568167 -209.642 197.996)"/><path d="M245.077 210.159 250.119 210.159 250.119 211.029 245.077 211.029Z" fill="#737373" transform="matrix(0.245863 -0.969305 0.971624 0.245276 -171.337 250.931)"/><path d="M221.561 266.768 226.604 266.768 226.604 267.638 221.561 267.638Z" fill="#737373" transform="matrix(0.245462 -0.969406 0.971725 0.244876 -244.071 270.979)"/><path d="M239.688 242.736 244.046 242.736 244.046 243.608 239.688 243.608Z" fill="#737373" transform="matrix(0.801225 -0.599485 0.600919 0.799313 -251.679 45.588)"/><path d="M193.567 253.811 194.438 253.811 194.438 260.473 193.567 260.473Z" fill="#737373" transform="matrix(0.196548 -0.980494 0.98284 0.196079 -250.413 248.904)"/><path d="M305.323 261.848 306.194 261.848 306.194 267.774 305.323 267.774Z" fill="#737373" transform="matrix(0.831755 -0.556777 0.558109 0.82977 -249.847 67.1307)"/><path d="M227.989 227.105 232.991 227.105 232.991 227.976 227.989 227.976Z" fill="#737373" transform="matrix(0.23893 -0.971037 0.97336 0.23836 -199.539 249.074)"/><path d="M262.35 232.713 266.707 232.713 266.707 233.585 262.35 233.585Z" fill="#737373" transform="matrix(0.801225 -0.599485 0.600919 0.799313 -241.117 57.1701)"/><path d="M304.788 165.719 310.298 165.719 310.298 166.589 304.788 166.589Z" fill="#737373" transform="matrix(0.352529 -0.935801 0.93804 0.351688 -110.084 247.468)"/><path d="M297.103 163.176 297.974 163.176 297.974 168.987 297.103 168.987Z" fill="#737373" transform="matrix(0.984533 -0.187478 0.187926 0.982184 -179.919 -89.2825)"/><path d="M269.05 167.363 274.274 167.363 274.274 168.234 269.05 168.234Z" fill="#737373" transform="matrix(0.0384903 -0.999259 1.00165 0.0383984 -60.2304 284.795)"/><path d="M242.716 163.779 243.587 163.779 243.587 168.137 242.716 168.137Z" fill="#737373" transform="matrix(0.823244 -0.56917 0.570531 0.821279 -205.314 19.9167)"/><path d="M215.126 165.835 219.237 165.835 219.237 166.706 215.126 166.706Z" fill="#737373" transform="matrix(0.563051 -0.826422 0.828399 0.561707 -196.488 104.248)"/><path d="M194.881 165.805 195.754 165.805 195.754 170.774 194.881 170.774Z" fill="#737373" transform="matrix(0.813309 -0.583146 0.584541 0.811368 -215.602 -2.48375)"/><path d="M283.541 167.797 289.825 167.797 289.825 168.669 283.541 168.669Z" fill="#737373" transform="matrix(0.555595 -0.831453 0.833442 0.554269 -166.338 165.205)"/><path d="M192.923 312.891 198.851 312.891 198.851 313.763 192.923 313.763Z" fill="#737373" transform="matrix(0.810059 -0.587609 0.589015 0.808125 -301.032 26.9478)"/><path d="M309.997 305.061 315.808 305.061 315.808 305.932 309.997 305.932Z" fill="#737373" transform="matrix(0.976667 -0.224562 0.2251 0.974336 -214.749 -69.9399)"/><path d="M308.899 327.948 309.399 328.661 313.674 325.668C313.699 325.646 313.723 325.625 313.746 325.604L313.253 324.899 308.899 327.948Z" fill="#737373" transform="matrix(1.00239 0 0 1 -154 -148)"/><path d="M287.246 317.891 288.117 317.891 288.117 323.816 287.246 323.816Z" fill="#737373" transform="matrix(0.832081 -0.556295 0.557626 0.830095 -284.133 66.306)"/><path d="M235.149 315.786 236.021 315.786 236.021 321.103 235.149 321.103Z" fill="#737373" transform="matrix(0.841655 -0.541842 0.543139 0.839646 -289.265 30.5008)"/><path d="M262.042 310.194 267.724 310.194 267.724 311.065 262.042 311.065Z" fill="#737373" transform="matrix(0.569526 -0.821973 0.82394 0.568167 -295.488 203.634)"/><path d="M271.154 322.006 272.025 322.006 272.025 327.324 271.154 327.324Z" fill="#737373" transform="matrix(0.84173 -0.541726 0.543022 0.839721 -286.855 50.9279)"/><path d="M203.409 299.831 204.28 299.831 204.28 306.466 203.409 306.466Z" fill="#737373" transform="matrix(0.394715 -0.918804 0.921002 0.393773 -309.412 222.975)"/><path d="M193.32 325.474 198.996 325.474 198.996 326.344 193.32 326.344Z" fill="#737373" transform="matrix(0.0773848 -0.997001 0.999386 0.0772001 -298.27 348.316)"/><path d="M195.517 355.734 203.138 355.734 203.138 356.605 195.517 356.605Z" fill="#737373" transform="matrix(0.515518 -0.856879 0.858929 0.514287 -363.009 195.567)"/><path d="M234.417 302.511 240.281 302.511 240.281 303.384 234.417 303.384Z" fill="#737373" transform="matrix(0.669864 -0.742484 0.74426 0.668265 -300.798 128.402)"/><path d="M249.088 299.419 249.961 299.419 249.961 306.841 249.088 306.841Z" fill="#737373" transform="matrix(0.64681 -0.762651 0.764476 0.645266 -297.261 149.517)"/><path d="M278.21 299.064 279.082 299.064 279.082 305.714 278.21 305.714Z" fill="#737373" transform="matrix(0.524989 -0.851109 0.853145 0.523736 -279.136 232.954)"/><path d="M274.663 313.496 281.314 313.496 281.314 314.367 274.663 314.367Z" fill="#737373" transform="matrix(0.525296 -0.850919 0.852955 0.524042 -289.321 237.757)"/><path d="M291.428 306.437 300.981 306.437 300.981 307.308 291.428 307.308Z" fill="#737373" transform="matrix(0.913719 -0.410237 0.411219 0.911538 -254.04 0.521496)"/><path d="M300.19 316.137 305.509 316.137 305.509 317.009 300.19 317.009Z" fill="#737373" transform="matrix(0.820231 -0.573461 0.574833 0.818274 -281.051 82.9633)"/><path d="M220.324 300.873 221.195 300.873 221.195 306.098 220.324 306.098Z" fill="#737373" transform="matrix(1.00239 0 0 1 -154 -148)"/><path d="M209.849 309.593 215.576 309.593 215.576 310.464 209.849 310.464Z" fill="#737373" transform="matrix(0.990628 -0.152394 0.152759 0.988264 -198.855 -111.975)"/><path d="M222.945 317.397 223.816 317.397 223.816 323.124 222.945 323.124Z" fill="#737373" transform="matrix(0.990628 -0.152394 0.152759 0.988264 -200.293 -110.231)"/><path d="M224.633 308.527 230.868 308.527 230.868 309.398 224.633 309.398Z" fill="#737373" transform="matrix(0.980132 -0.209077 0.209577 0.977793 -213.695 -93.5645)"/><path d="M203.813 328.136 209.741 328.136 209.741 329.008 203.813 329.008Z" fill="#737373" transform="matrix(0.809976 -0.587722 0.589128 0.808043 -307.95 36.3145)"/><path d="M235.263 343.589 240.582 343.589 240.582 344.461 235.263 344.461Z" fill="#737373" transform="matrix(0.820231 -0.573461 0.574833 0.818274 -308.609 50.6963)"/><path d="M231.017 358.322 231.888 358.322 231.888 364.984 231.017 364.984Z" fill="#737373" transform="matrix(0.196548 -0.980494 0.98284 0.196079 -322.954 369.629)"/><path d="M252.693 327.03 258.012 327.03 258.012 327.903 252.693 327.903Z" fill="#737373" transform="matrix(0.820231 -0.573461 0.574833 0.818274 -295.928 57.6952)"/><path d="M256.899 334.4 262.124 334.4 262.124 335.271 256.899 335.271Z" fill="#737373" transform="matrix(1.00239 0 0 1 -154 -148)"/><path d="M253.82 343.789 254.692 343.789 254.692 349.47 253.82 349.47Z" fill="#737373" transform="matrix(0.537789 -0.84308 0.845097 0.536505 -328.974 226.762)"/><path d="M235.128 327.869 240.353 327.869 240.353 328.74 235.128 328.74Z" fill="#737373" transform="matrix(1.00239 0 0 1 -154 -148)"/><path d="M215.703 352.266 216.576 352.266 216.576 357.584 215.703 357.584Z" fill="#737373" transform="matrix(0.574422 -0.818559 0.820517 0.573051 -352.894 180.2)"/><path d="M209.003 361.831 214.228 361.831 214.228 362.702 209.003 362.702Z" fill="#737373" transform="matrix(1.00239 0 0 1 -154 -148)"/><path d="M270.178 348.52 275.145 348.52 275.145 349.392 270.178 349.392Z" fill="#737373" transform="matrix(0.838527 -0.546625 0.547932 0.836526 -300.723 57.8441)"/><path d="M272.871 336.24 273.743 336.24 273.743 341.468 272.871 341.468Z" fill="#737373" transform="matrix(0.608203 -0.793782 0.795681 0.606751 -316.122 201.904)"/><path d="M280.584 332.208 285.851 332.208 285.851 333.079 280.584 333.079Z" fill="#737373" transform="matrix(0.0733754 -0.997304 0.99969 0.0732003 -223.429 442.758)"/><path d="M224.429 341.531 225.3 341.531 225.3 346.846 224.429 346.846Z" fill="#737373" transform="matrix(0.0417008 -0.99913 1.00152 0.0416013 -282.693 406.555)"/><path d="M225.808 333.196 226.68 333.196 226.68 338.424 225.808 338.424Z" fill="#737373" transform="matrix(0.608091 -0.793867 0.795766 0.60664 -332.211 163.401)"/><path d="M248.218 311.951 249.089 311.951 249.089 319.039 248.218 319.039Z" fill="#737373" transform="matrix(0.18472 -0.982791 0.985142 0.18428 -261.506 353.692)"/><path d="M246.4 350.944 247.271 350.944 247.271 357.102 246.4 357.102Z" fill="#737373" transform="matrix(0.992273 -0.141401 0.141739 0.989904 -201.7 -109.534)"/><path d="M297.962 329.283 298.833 329.283 298.833 334.154 297.962 334.154Z" fill="#737373" transform="matrix(0.448069 -0.893999 0.896138 0.447 -286.004 302.062)"/><path d="M208.119 315.109 208.992 315.109 208.992 322.532 208.119 322.532Z" fill="#737373" transform="matrix(0.64681 -0.762651 0.764476 0.645266 -323.781 123.822)"/><path d="M191.688 345.332 197.007 345.332 197.007 346.204 191.688 346.204Z" fill="#737373" transform="matrix(0.820231 -0.573461 0.574833 0.818274 -317.515 26.0221)"/><path d="M211.798 335.56 216.156 335.56 216.156 336.431 211.798 336.431Z" fill="#737373" transform="matrix(0.801225 -0.599485 0.600919 0.799313 -313.045 47.4167)"/><path d="M258.992 298.429 264.674 298.429 264.674 299.3 258.992 299.3Z" fill="#737373" transform="matrix(0.569526 -0.821973 0.82394 0.568167 -287.112 196.055)"/><path d="M245.077 335.571 250.119 335.571 250.119 336.441 245.077 336.441Z" fill="#737373" transform="matrix(0.245863 -0.969305 0.971624 0.245276 -293.196 345.571)"/><path d="M227.989 352.526 232.991 352.526 232.991 353.397 227.989 353.397Z" fill="#737373" transform="matrix(0.23893 -0.971037 0.97336 0.23836 -321.615 344.579)"/><path d="M304.788 291.159 310.298 291.159 310.298 292.029 304.788 292.029Z" fill="#737373" transform="matrix(0.352529 -0.935801 0.93804 0.351688 -227.75 328.756)"/><path d="M297.103 288.591 297.974 288.591 297.974 294.402 297.103 294.402Z" fill="#737373" transform="matrix(0.984533 -0.187478 0.187926 0.982184 -203.484 -87.0592)"/><path d="M269.05 292.768 274.274 292.768 274.274 293.64 269.05 293.64Z" fill="#737373" transform="matrix(0.0384903 -0.999259 1.00165 0.0383984 -185.837 405.377)"/><path d="M242.716 289.274 243.587 289.274 243.587 293.632 242.716 293.632Z" fill="#737373" transform="matrix(0.823244 -0.56917 0.570531 0.821279 -276.909 42.2457)"/><path d="M215.14 291.342 219.252 291.342 219.252 292.213 215.14 292.213Z" fill="#737373" transform="matrix(0.563716 -0.825969 0.827945 0.56237 -300.461 158.867)"/><path d="M194.888 291.313 195.761 291.313 195.761 296.282 194.888 296.282Z" fill="#737373" transform="matrix(0.813179 -0.583324 0.58472 0.811238 -288.984 21.142)"/><path d="M283.541 293.295 289.825 293.295 289.825 294.166 283.541 294.166Z" fill="#737373" transform="matrix(0.555595 -0.831453 0.833442 0.554269 -270.927 221.045)"/><path d="M65.7256 159.732 70.6949 159.732 70.6949 160.603 65.7256 160.603Z" fill="#737373" transform="matrix(0.79074 -0.613119 0.614586 0.788853 -238.057 -72.5075)"/><path d="M184.576 54.2185 190.387 54.2185 190.387 55.0895 184.576 55.0895Z" fill="#737373" transform="matrix(0.976667 -0.224562 0.2251 0.974336 -161.502 -104.508)"/><path d="M183.409 75.6026 188.728 75.6026 188.728 76.475 183.409 76.475Z" fill="#737373" transform="matrix(0.820231 -0.573461 0.574833 0.818274 -163.961 -27.5341)"/><path d="M187.668 83.1646 192.893 83.1646 192.893 84.0354 187.668 84.0354Z" fill="#737373" transform="matrix(1.00239 0 0 1 -154 -148)"/><path d="M184.538 92.3684 185.41 92.3684 185.41 98.0495 184.538 98.0495Z" fill="#737373" transform="matrix(0.537789 -0.84308 0.845097 0.536505 -148.649 52.0017)"/><path d="M187.386 111.995 191.744 111.995 191.744 112.866 187.386 112.866Z" fill="#737373" transform="matrix(0.801358 -0.599309 0.600743 0.799445 -183.596 -11.9297)"/><path d="M184.145 127.001 185.017 127.001 185.017 133.195 184.145 133.195Z" fill="#737373" transform="matrix(0.6341 -0.773251 0.775101 0.632587 -187.04 42.3885)"/><path d="M186.161 146.692 187.032 146.692 187.032 154.209 186.161 154.209Z" fill="#737373" transform="matrix(0.1742 -0.98471 0.987066 0.173784 -147.979 160.034)"/><path d="M169.011 149.267 173.98 149.267 173.98 150.138 169.011 150.138Z" fill="#737373" transform="matrix(0.790567 -0.61334 0.614808 0.78868 -209.866 -11.3018)"/><path d="M182.443 119.74 187.668 119.74 187.668 120.61 182.443 120.61Z" fill="#737373" transform="matrix(1.00239 0 0 1 -154 -148)"/><path d="M161.755 66.9087 162.625 66.9087 162.625 72.8338 161.755 72.8338Z" fill="#737373" transform="matrix(0.832081 -0.556295 0.557626 0.830095 -165.46 -45.9575)"/><path d="M160.012 120.068 160.883 120.068 160.883 125.994 160.012 125.994Z" fill="#737373" transform="matrix(0.83188 -0.556594 0.557925 0.829894 -195.402 -37.8701)"/><path d="M145.667 71.0332 146.539 71.0332 146.539 76.3515 145.667 76.3515Z" fill="#737373" transform="matrix(0.84173 -0.541726 0.543022 0.839721 -170.647 -57.0955)"/><path d="M132.189 161.604 137.871 161.604 137.871 162.475 132.189 162.475Z" fill="#737373" transform="matrix(0.569526 -0.821973 0.82394 0.568167 -229.166 32.8433)"/><path d="M149.451 110.203 155.645 110.203 155.645 111.075 149.451 111.075Z" fill="#737373" transform="matrix(0.662679 -0.748904 0.750695 0.661097 -185.395 3.61557)"/><path d="M75.8527 161.14 83.3688 161.14 83.3688 162.01 75.8527 162.01Z" fill="#737373" transform="matrix(0.211384 -0.977403 0.979741 0.210879 -249.34 57.2929)"/><path d="M107.291 160.752 112.517 160.752 112.517 161.624 107.291 161.624Z" fill="#737373" transform="matrix(0.03819 -0.99927 1.00166 0.0380989 -209.481 116.869)"/><path d="M80.9248 126.819 78.6659 121.899C78.4691 122.193 78.2775 122.49 78.0833 122.785L80.1167 127.142 80.9248 126.819Z" fill="#737373" transform="matrix(1.00239 0 0 1 -154 -148)"/><path d="M151.029 65.9769 153.17 62.4971C152.725 62.6669 152.278 62.8315 151.835 63.0048L150.287 65.5206 151.029 65.9769Z" fill="#737373" transform="matrix(1.00239 0 0 1 -154 -148)"/><path d="M174.694 65.1446 180.013 65.1446 180.013 66.017 174.694 66.017Z" fill="#737373" transform="matrix(0.820231 -0.573461 0.574833 0.818274 -159.53 -34.4242)"/><path d="M72.4908 149.343 79.4712 149.343 79.4712 150.213 72.4908 150.213Z" fill="#737373" transform="matrix(0.0626517 -0.998035 1.00042 0.0625022 -232.444 68.2575)"/><path d="M74.4402 136.43 80.3045 136.43 80.3045 137.303 74.4402 137.303Z" fill="#737373" transform="matrix(0.669389 -0.742912 0.744689 0.667792 -230.24 -45.2025)"/><path d="M97.1749 149.634 98.0464 149.634 98.0464 157.131 97.1749 157.131Z" fill="#737373" transform="matrix(0.81503 -0.58076 0.58215 0.813085 -225.086 -62.7594)"/><path d="M109.767 92.5968 115.086 92.5968 115.086 93.4692 109.767 93.4692Z" fill="#737373" transform="matrix(0.820231 -0.573461 0.574833 0.818274 -187.088 -66.6908)"/><path d="M160.538 96.5977 161.409 96.5977 161.409 102.056 160.538 102.056Z" fill="#737373" transform="matrix(0.479496 -0.877544 0.879643 0.478351 -157.285 45.0333)"/><path d="M105.603 107.495 106.474 107.495 106.474 114.157 105.603 114.157Z" fill="#737373" transform="matrix(0.196548 -0.980494 0.98284 0.196079 -177.484 45.0498)"/><path d="M113.745 128.995 118.103 128.995 118.103 129.867 113.745 129.867Z" fill="#737373" transform="matrix(0.801225 -0.599485 0.600919 0.799313 -208.557 -52.642)"/><path d="M110.489 143.998 111.36 143.998 111.36 150.193 110.489 150.193Z" fill="#737373" transform="matrix(0.6341 -0.773251 0.775101 0.632587 -227.267 -8.33575)"/><path d="M116.774 153.276 117.644 153.276 117.644 157.386 116.774 157.386Z" fill="#737373" transform="matrix(0.53091 -0.847428 0.849456 0.529643 -230.764 24.2831)"/><path d="M108.858 136.721 114.083 136.721 114.083 137.592 108.858 137.592Z" fill="#737373" transform="matrix(1.00239 0 0 1 -154 -148)"/><path d="M127.197 76.0384 132.516 76.0384 132.516 76.9107 127.197 76.9107Z" fill="#737373" transform="matrix(0.820231 -0.573461 0.574833 0.818274 -174.408 -59.6914)"/><path d="M131.499 83.6 136.724 83.6 136.724 84.4708 131.499 84.4708Z" fill="#737373" transform="matrix(1.00239 0 0 1 -154 -148)"/><path d="M128.328 92.8041 129.2 92.8041 129.2 98.4853 128.328 98.4853Z" fill="#737373" transform="matrix(0.537789 -0.84308 0.845097 0.536505 -175.093 4.81558)"/><path d="M126.852 117.582 131.398 117.582 131.398 118.452 126.852 118.452Z" fill="#737373" transform="matrix(0.287942 -0.957648 0.959939 0.287254 -175.066 59.7512)"/><path d="M127.922 127.437 128.794 127.437 128.794 133.631 127.922 133.631Z" fill="#737373" transform="matrix(0.6341 -0.773251 0.775101 0.632587 -208.028 -0.924088)"/><path d="M129.404 143.248 130.274 143.248 130.274 147.359 129.404 147.359Z" fill="#737373" transform="matrix(0.530532 -0.847665 0.849693 0.529266 -216.288 30.3632)"/><path d="M167.156 118.9 172.381 118.9 172.381 119.771 167.156 119.771Z" fill="#737373" transform="matrix(1.00239 0 0 1 -154 -148)"/><path d="M103.278 115.649 104.15 115.649 104.15 120.968 103.278 120.968Z" fill="#737373" transform="matrix(0.574422 -0.818559 0.820517 0.573051 -206.769 -12.6777)"/><path d="M91.4375 111.031 86.6436 111.031C86.4102 111.322 86.1733 111.609 85.9425 111.902L91.4375 111.902 91.4375 111.031Z" fill="#737373" transform="matrix(1.00239 0 0 1 -154 -148)"/><path d="M88.8822 122.656 94.5632 122.656 94.5632 123.527 88.8822 123.527Z" fill="#737373" transform="matrix(0.845024 -0.536623 0.537907 0.843007 -205.841 -79.5387)"/><path d="M144.692 97.548 149.659 97.548 149.659 98.4195 144.692 98.4195Z" fill="#737373" transform="matrix(0.838527 -0.546625 0.547932 0.836526 -183.678 -51.6005)"/><path d="M147.358 85.2132 148.23 85.2132 148.23 90.4412 147.358 90.4412Z" fill="#737373" transform="matrix(0.608203 -0.793782 0.795681 0.606751 -165.753 3.77754)"/><path d="M155.184 81.4086 160.451 81.4086 160.451 82.2803 155.184 82.2803Z" fill="#737373" transform="matrix(0.0733754 -0.997304 0.99969 0.0732003 -89.2034 85.2501)"/><path d="M143.879 153.437 144.75 153.437 144.75 158.752 143.879 158.752Z" fill="#737373" transform="matrix(0.0417008 -0.99913 1.00152 0.0416013 -171.692 145.798)"/><path d="M145.182 144.922 146.053 144.922 146.053 150.15 145.182 150.15Z" fill="#737373" transform="matrix(0.608091 -0.793867 0.795766 0.60664 -214.113 25.5031)"/><path d="M156.429 138.743 157.301 138.743 157.301 144.421 156.429 144.421Z" fill="#737373" transform="matrix(0.940735 -0.344486 0.34531 0.93849 -193.26 -85.2972)"/><path d="M142.013 118.742 147.331 118.742 147.331 119.614 142.013 119.614Z" fill="#737373" transform="matrix(0.820231 -0.573461 0.574833 0.818274 -196.269 -43.4678)"/><path d="M143.071 126.823 143.943 126.823 143.943 132.747 143.071 132.747Z" fill="#737373" transform="matrix(0.294735 -0.955579 0.957865 0.294032 -176.791 80.7244)"/><path d="M159.265 153.372 160.137 153.372 160.137 159.053 159.265 159.053Z" fill="#737373" transform="matrix(0.537789 -0.84308 0.845097 0.536505 -211.924 58.9274)"/><path d="M172.337 108.926 173.209 108.926 173.209 114.608 172.337 114.608Z" fill="#737373" transform="matrix(0.537789 -0.84308 0.845097 0.536505 -168.302 49.3787)"/><path d="M167.34 133.347 171.698 133.347 171.698 134.219 167.34 134.219Z" fill="#737373" transform="matrix(0.801358 -0.599309 0.600743 0.799445 -200.438 -19.6792)"/><path d="M165.23 89.4999 166.101 89.4999 166.101 94.3316 165.23 94.3316Z" fill="#737373" transform="matrix(0.195854 -0.980633 0.982979 0.195387 -110.746 88.4147)"/><path d="M88.8364 138.877 89.7074 138.877 89.7074 144.604 88.8364 144.604Z" fill="#737373" transform="matrix(0.990676 -0.152086 0.15245 0.988311 -174.562 -132.779)"/><path d="M92.251 134.34 98.4859 134.34 98.4859 135.211 92.251 135.211Z" fill="#737373" transform="matrix(0.980045 -0.20948 0.209981 0.977706 -180.182 -125.028)"/><path d="M121.001 100.145 121.872 100.145 121.872 106.303 121.001 106.303Z" fill="#737373" transform="matrix(0.992273 -0.141401 0.141739 0.989904 -167.41 -129.789)"/><path d="M172.506 78.3709 173.377 78.3709 173.377 83.2411 172.506 83.2411Z" fill="#737373" transform="matrix(0.448069 -0.893999 0.896138 0.447 -130.631 51.2632)"/><path d="M174.021 100.163 179.703 100.163 179.703 101.034 174.021 101.034Z" fill="#737373" transform="matrix(0.569526 -0.821973 0.82394 0.568167 -160.467 40.7427)"/><path d="M119.664 84.7465 124.707 84.7465 124.707 85.6166 119.664 85.6166Z" fill="#737373" transform="matrix(0.245863 -0.969305 0.971624 0.245276 -144.343 34.7217)"/><path d="M96.1493 141.356 101.192 141.356 101.192 142.226 96.1493 142.226Z" fill="#737373" transform="matrix(0.245462 -0.969406 0.971725 0.244876 -217.113 54.7108)"/><path d="M114.181 117.229 118.539 117.229 118.539 118.1 114.181 118.1Z" fill="#737373" transform="matrix(0.801225 -0.599485 0.600919 0.799313 -201.399 -54.732)"/><path d="M179.828 136.353 180.699 136.353 180.699 142.279 179.828 142.279Z" fill="#737373" transform="matrix(0.831755 -0.556777 0.558109 0.82977 -201.127 -24.016)"/><path d="M102.567 101.684 107.569 101.684 107.569 102.555 102.567 102.555Z" fill="#737373" transform="matrix(0.23893 -0.971037 0.97336 0.23836 -173.197 31.7835)"/><path d="M136.836 107.201 141.194 107.201 141.194 108.073 136.836 108.073Z" fill="#737373" transform="matrix(0.801358 -0.599309 0.600743 0.799445 -190.836 -43.1839)"/><path d="M67.4172 187.382 73.3446 187.382 73.3446 188.254 67.4172 188.254Z" fill="#737373" transform="matrix(0.809976 -0.587722 0.589128 0.808043 -251.161 -70.7444)"/><path d="M184.571 179.634 190.381 179.634 190.381 180.505 184.571 180.505Z" fill="#737373" transform="matrix(0.976596 -0.224869 0.225407 0.974265 -189.77 -101.239)"/><path d="M183.412 201.102 188.73 201.102 188.73 201.974 183.412 201.974Z" fill="#737373" transform="matrix(0.820519 -0.573053 0.574424 0.818561 -236.071 -4.9752)"/><path d="M187.668 208.565 192.893 208.565 192.893 209.435 187.668 209.435Z" fill="#737373" transform="matrix(1.00239 0 0 1 -154 -148)"/><path d="M184.533 217.854 185.404 217.854 185.404 223.535 184.533 223.535Z" fill="#737373" transform="matrix(0.537905 -0.843005 0.845022 0.536621 -254.703 110.035)"/><path d="M187.394 237.507 191.751 237.507 191.751 238.378 187.394 238.378Z" fill="#737373" transform="matrix(0.801225 -0.599485 0.600919 0.799313 -259.011 13.193)"/><path d="M184.145 252.522 185.017 252.522 185.017 258.716 184.145 258.716Z" fill="#737373" transform="matrix(0.6341 -0.773251 0.775101 0.632587 -284.326 88.3807)"/><path d="M186.161 272.104 187.032 272.104 187.032 279.62 186.161 279.62Z" fill="#737373" transform="matrix(0.1742 -0.98471 0.987066 0.173784 -271.766 263.641)"/><path d="M169.011 274.782 173.98 274.782 173.98 275.652 169.011 275.652Z" fill="#737373" transform="matrix(0.790567 -0.61334 0.614808 0.78868 -287.038 15.1132)"/><path d="M182.443 245.14 187.668 245.14 187.668 246.01 182.443 246.01Z" fill="#737373" transform="matrix(1.00239 0 0 1 -154 -148)"/><path d="M161.755 192.4 162.626 192.4 162.626 198.325 161.755 198.325Z" fill="#737373" transform="matrix(0.83188 -0.556594 0.557925 0.829894 -235.459 -24.6526)"/><path d="M109.667 190.303 110.538 190.303 110.538 195.621 109.667 195.621Z" fill="#737373" transform="matrix(0.841655 -0.541842 0.543139 0.839646 -241.189 -57.53)"/><path d="M136.546 184.698 142.228 184.698 142.228 185.57 136.546 185.57Z" fill="#737373" transform="matrix(0.569526 -0.821973 0.82394 0.568167 -246.313 46.3839)"/><path d="M160.012 245.56 160.882 245.56 160.882 251.485 160.012 251.485Z" fill="#737373" transform="matrix(0.832081 -0.556295 0.557626 0.830095 -265.374 -16.7079)"/><path d="M145.667 196.52 146.539 196.52 146.539 201.838 145.667 201.838Z" fill="#737373" transform="matrix(0.84173 -0.541726 0.543022 0.839721 -238.787 -37.0724)"/><path d="M132.189 287.099 137.871 287.099 137.871 287.971 132.189 287.971Z" fill="#737373" transform="matrix(0.569526 -0.821973 0.82394 0.568167 -332.569 86.9404)"/><path d="M149.45 235.735 155.643 235.735 155.643 236.607 149.45 236.607Z" fill="#737373" transform="matrix(0.662784 -0.74881 0.750602 0.661203 -279.623 45.9912)"/><path d="M75.856 286.565 83.3723 286.565 83.3723 287.435 75.856 287.435Z" fill="#737373" transform="matrix(0.211575 -0.977362 0.9797 0.21107 -372.215 156.182)"/><path d="M107.292 286.159 112.518 286.159 112.518 287.031 107.292 287.031Z" fill="#737373" transform="matrix(0.0384903 -0.999259 1.00165 0.0383984 -335.125 237.395)"/><path d="M77.9682 174.391 78.8393 174.391 78.8393 181.025 77.9682 181.025Z" fill="#737373" transform="matrix(0.394715 -0.918804 0.921002 0.393773 -270.06 31.7113)"/><path d="M67.9238 200.087 73.6011 200.087 73.6011 200.957 67.9238 200.957Z" fill="#737373" transform="matrix(0.0768789 -0.99704 0.999426 0.0766954 -288.909 107.682)"/><path d="M77.5351 243.233 78.4054 243.233 78.4054 250.27 77.5351 250.27Z" fill="#737373" transform="matrix(0.930392 -0.371269 0.372157 0.928171 -240.24 -101.411)"/><path d="M70.0434 230.265 77.6646 230.265 77.6646 231.137 70.0434 231.137Z" fill="#737373" transform="matrix(0.5154 -0.85695 0.859 0.51417 -316.252 27.223)"/><path d="M108.879 176.974 114.743 176.974 114.743 177.846 108.879 177.846Z" fill="#737373" transform="matrix(0.669864 -0.742484 0.74426 0.668265 -248.977 -6.3189)"/><path d="M123.565 173.896 124.438 173.896 124.438 181.318 123.565 181.318Z" fill="#737373" transform="matrix(0.64681 -0.762651 0.764476 0.645266 -245.808 9.38919)"/><path d="M152.723 173.577 153.594 173.577 153.594 180.227 152.723 180.227Z" fill="#737373" transform="matrix(0.524989 -0.851109 0.853145 0.523736 -231.904 66.4784)"/><path d="M149.18 188.013 155.831 188.013 155.831 188.884 149.18 188.884Z" fill="#737373" transform="matrix(0.524989 -0.851109 0.853145 0.523736 -242.066 71.4134)"/><path d="M165.978 180.987 175.531 180.987 175.531 181.859 165.978 181.859Z" fill="#737373" transform="matrix(0.913719 -0.410237 0.411219 0.911538 -213.528 -61.983)"/><path d="M174.697 190.643 180.015 190.643 180.015 191.516 174.697 191.516Z" fill="#737373" transform="matrix(0.820519 -0.573053 0.574424 0.818561 -231.641 -11.8583)"/><path d="M94.9243 175.473 95.7952 175.473 95.7952 180.698 94.9243 180.698Z" fill="#737373" transform="matrix(1.00239 0 0 1 -154 -148)"/><path d="M84.4443 184.189 90.1711 184.189 90.1711 185.06 84.4443 185.06Z" fill="#737373" transform="matrix(0.990628 -0.152394 0.152759 0.988264 -181.172 -132.544)"/><path d="M97.5404 191.993 98.4113 191.993 98.4113 197.72 97.5404 197.72Z" fill="#737373" transform="matrix(0.990628 -0.152394 0.152759 0.988264 -182.61 -130.799)"/><path d="M99.2197 183.114 105.455 183.114 105.455 183.985 99.2197 183.985Z" fill="#737373" transform="matrix(0.980132 -0.209077 0.209577 0.977793 -190.194 -122.552)"/><path d="M78.3115 202.634 84.2388 202.634 84.2388 203.506 78.3115 203.506Z" fill="#737373" transform="matrix(0.809976 -0.587722 0.589128 0.808043 -258.059 -61.4271)"/><path d="M72.4908 274.738 79.4712 274.738 79.4712 275.609 72.4908 275.609Z" fill="#737373" transform="matrix(0.0626517 -0.998035 1.00042 0.0625022 -357.898 185.82)"/><path d="M74.4402 261.963 80.3045 261.963 80.3045 262.836 74.4402 262.836Z" fill="#737373" transform="matrix(0.669389 -0.742912 0.744689 0.667792 -323.721 -3.63673)"/><path d="M97.1749 275.129 98.0464 275.129 98.0464 282.626 97.1749 282.626Z" fill="#737373" transform="matrix(0.81503 -0.58076 0.58215 0.813085 -298.148 -39.4019)"/><path d="M109.769 218.096 115.088 218.096 115.088 218.968 109.769 218.968Z" fill="#737373" transform="matrix(0.820519 -0.573053 0.574424 0.818561 -259.165 -44.1035)"/><path d="M160.547 222.075 161.418 222.075 161.418 227.534 160.547 227.534Z" fill="#737373" transform="matrix(0.479769 -0.877395 0.879494 0.478624 -267.665 110.334)"/><path d="M105.603 232.909 106.474 232.909 106.474 239.57 105.603 239.57Z" fill="#737373" transform="matrix(0.196548 -0.980494 0.98284 0.196079 -300.743 145.857)"/><path d="M113.74 254.492 118.098 254.492 118.098 255.364 113.74 255.364Z" fill="#737373" transform="matrix(0.801358 -0.599309 0.600743 0.799445 -283.95 -27.6099)"/><path d="M110.489 269.52 111.36 269.52 111.36 275.714 110.489 275.714Z" fill="#737373" transform="matrix(0.6341 -0.773251 0.775101 0.632587 -324.554 37.6564)"/><path d="M116.774 278.761 117.644 278.761 117.644 282.871 116.774 282.871Z" fill="#737373" transform="matrix(0.53091 -0.847428 0.849456 0.529643 -337.357 83.2211)"/><path d="M108.858 262.121 114.083 262.121 114.083 262.992 108.858 262.992Z" fill="#737373" transform="matrix(1.00239 0 0 1 -154 -148)"/><path d="M127.199 201.537 132.518 201.537 132.518 202.41 127.199 202.41Z" fill="#737373" transform="matrix(0.820519 -0.573053 0.574424 0.818561 -246.499 -37.1072)"/><path d="M131.499 209 136.724 209 136.724 209.871 131.499 209.871Z" fill="#737373" transform="matrix(1.00239 0 0 1 -154 -148)"/><path d="M128.328 218.296 129.2 218.296 129.2 223.978 128.328 223.978Z" fill="#737373" transform="matrix(0.537789 -0.84308 0.845097 0.536505 -281.141 62.8914)"/><path d="M126.852 243.002 131.398 243.002 131.398 243.872 126.852 243.872Z" fill="#737373" transform="matrix(0.287942 -0.957648 0.959939 0.287254 -295.464 149.118)"/><path d="M127.919 252.952 128.791 252.952 128.791 259.146 127.919 259.146Z" fill="#737373" transform="matrix(0.633714 -0.773568 0.775418 0.632201 -305.353 45.2405)"/><path d="M129.409 268.739 130.28 268.739 130.28 272.85 129.409 272.85Z" fill="#737373" transform="matrix(0.53091 -0.847428 0.849456 0.529643 -322.895 89.222)"/><path d="M167.156 244.3 172.381 244.3 172.381 245.171 167.156 245.171Z" fill="#737373" transform="matrix(1.00239 0 0 1 -154 -148)"/><path d="M103.278 241.147 104.15 241.147 104.15 246.466 103.278 246.466Z" fill="#737373" transform="matrix(0.574422 -0.818559 0.820517 0.573051 -309.747 40.8106)"/><path d="M109.728 202.469 114.953 202.469 114.953 203.34 109.728 203.34Z" fill="#737373" transform="matrix(1.00239 0 0 1 -154 -148)"/><path d="M90.2053 226.767 91.0777 226.767 91.0777 232.086 90.2053 232.086Z" fill="#737373" transform="matrix(0.574422 -0.818559 0.820517 0.573051 -303.532 23.9809)"/><path d="M83.6035 236.431 88.8285 236.431 88.8285 237.302 83.6035 237.302Z" fill="#737373" transform="matrix(1.00239 0 0 1 -154 -148)"/><path d="M88.8822 248.144 94.5632 248.144 94.5632 249.016 88.8822 249.016Z" fill="#737373" transform="matrix(0.845024 -0.536623 0.537907 0.843007 -273.342 -59.9239)"/><path d="M144.703 223.052 149.671 223.052 149.671 223.923 144.703 223.923Z" fill="#737373" transform="matrix(0.83816 -0.547181 0.54849 0.83616 -252.507 -31.0149)"/><path d="M147.358 210.727 148.23 210.727 148.23 215.955 147.358 215.955Z" fill="#737373" transform="matrix(0.608203 -0.793782 0.795681 0.606751 -265.621 53.0258)"/><path d="M155.189 206.814 160.456 206.814 160.456 207.686 155.189 207.686Z" fill="#737373" transform="matrix(0.0737742 -0.997275 0.999661 0.0735982 -214.63 201.375)"/><path d="M143.879 278.833 144.75 278.833 144.75 284.148 143.879 284.148Z" fill="#737373" transform="matrix(0.0417008 -0.99913 1.00152 0.0416013 -297.283 265.981)"/><path d="M145.179 270.433 146.051 270.433 146.051 275.661 145.179 275.661Z" fill="#737373" transform="matrix(0.608203 -0.793782 0.795681 0.606751 -313.985 74.7235)"/><path d="M156.429 264.185 157.301 264.185 157.301 269.863 156.429 269.863Z" fill="#737373" transform="matrix(0.940735 -0.344486 0.34531 0.93849 -236.574 -77.6173)"/><path d="M142.013 244.238 147.331 244.238 147.331 245.11 142.013 245.11Z" fill="#737373" transform="matrix(0.820231 -0.573461 0.574833 0.818274 -268.411 -20.7591)"/><path d="M143.071 252.252 143.943 252.252 143.943 258.176 143.071 258.176Z" fill="#737373" transform="matrix(0.294735 -0.955579 0.957865 0.294032 -296.933 169.245)"/><path d="M159.265 278.864 160.137 278.864 160.137 284.545 159.265 284.545Z" fill="#737373" transform="matrix(0.537789 -0.84308 0.845097 0.536505 -317.973 117.003)"/><path d="M172.337 234.419 173.209 234.419 173.209 240.1 172.337 240.1Z" fill="#737373" transform="matrix(0.537789 -0.84308 0.845097 0.536505 -274.35 107.455)"/><path d="M167.34 258.85 171.698 258.85 171.698 259.722 167.34 259.722Z" fill="#737373" transform="matrix(0.801358 -0.599309 0.600743 0.799445 -275.838 5.38597)"/><path d="M99.0325 216.135 99.9033 216.135 99.9033 221.45 99.0325 221.45Z" fill="#737373" transform="matrix(0.0417008 -0.99913 1.00152 0.0416013 -277.573 161.081)"/><path d="M100.29 207.676 101.162 207.676 101.162 212.904 100.29 212.904Z" fill="#737373" transform="matrix(0.608203 -0.793782 0.795681 0.606751 -281.706 14.4679)"/><path d="M165.23 214.908 166.101 214.908 166.101 219.74 165.23 219.74Z" fill="#737373" transform="matrix(0.195854 -0.980633 0.982979 0.195387 -234.023 189.316)"/><path d="M88.8317 264.275 89.7026 264.275 89.7026 270.001 88.8317 270.001Z" fill="#737373" transform="matrix(0.990628 -0.152394 0.152759 0.988264 -193.75 -131.282)"/><path d="M92.2523 259.755 98.4873 259.755 98.4873 260.626 92.2523 260.626Z" fill="#737373" transform="matrix(0.980132 -0.209077 0.209577 0.977793 -206.408 -122.315)"/><path d="M122.805 186.537 123.675 186.537 123.675 193.625 122.805 193.625Z" fill="#737373" transform="matrix(0.18472 -0.982791 0.985142 0.18428 -240.494 128.15)"/><path d="M121.001 225.545 121.872 225.545 121.872 231.702 121.001 231.702Z" fill="#737373" transform="matrix(0.992273 -0.141401 0.141739 0.989904 -185.186 -128.528)"/><path d="M172.506 203.827 173.377 203.827 173.377 208.697 172.506 208.697Z" fill="#737373" transform="matrix(0.448069 -0.893999 0.896138 0.447 -243.06 120.582)"/><path d="M82.596 189.586 83.4685 189.586 83.4685 197.009 82.596 197.009Z" fill="#737373" transform="matrix(0.64681 -0.762651 0.764476 0.645266 -272.329 -16.3056)"/><path d="M66.1921 219.836 71.5109 219.836 71.5109 220.708 66.1921 220.708Z" fill="#737373" transform="matrix(0.820231 -0.573461 0.574833 0.818274 -268.136 -68.6563)"/><path d="M86.2901 210.052 90.648 210.052 90.648 210.924 86.2901 210.924Z" fill="#737373" transform="matrix(0.801225 -0.599485 0.600919 0.799313 -262.765 -52.9033)"/><path d="M133.496 172.933 139.178 172.933 139.178 173.804 133.496 173.804Z" fill="#737373" transform="matrix(0.569526 -0.821973 0.82394 0.568167 -237.937 38.8016)"/><path d="M174.021 225.659 179.703 225.659 179.703 226.53 174.021 226.53Z" fill="#737373" transform="matrix(0.569526 -0.821973 0.82394 0.568167 -263.87 94.8406)"/><path d="M119.664 210.159 124.707 210.159 124.707 211.029 119.664 211.029Z" fill="#737373" transform="matrix(0.245462 -0.969406 0.971725 0.244876 -266.177 129.454)"/><path d="M96.1495 266.769 101.192 266.769 101.192 267.639 96.1495 267.639Z" fill="#737373" transform="matrix(0.245863 -0.969305 0.971624 0.245276 -338.996 149.288)"/><path d="M114.181 242.736 118.539 242.736 118.539 243.608 114.181 243.608Z" fill="#737373" transform="matrix(0.801225 -0.599485 0.600919 0.799313 -276.819 -29.652)"/><path d="M68.1535 253.811 69.0245 253.811 69.0245 260.473 68.1535 260.473Z" fill="#737373" transform="matrix(0.196548 -0.980494 0.98284 0.196079 -351.461 125.94)"/><path d="M179.828 261.848 180.699 261.848 180.699 267.774 179.828 267.774Z" fill="#737373" transform="matrix(0.831755 -0.556777 0.558109 0.82977 -271.17 -2.74413)"/><path d="M102.57 227.111 107.572 227.111 107.572 227.982 102.57 227.982Z" fill="#737373" transform="matrix(0.238623 -0.971112 0.973435 0.238054 -295.255 127.376)"/><path d="M136.842 232.713 141.2 232.713 141.2 233.585 136.842 233.585Z" fill="#737373" transform="matrix(0.801225 -0.599485 0.600919 0.799313 -266.257 -18.0699)"/><path d="M179.348 165.719 184.858 165.719 184.858 166.589 179.348 166.589Z" fill="#737373" transform="matrix(0.352529 -0.935801 0.93804 0.351688 -191.567 130.082)"/><path d="M171.689 163.176 172.56 163.176 172.56 168.987 171.689 168.987Z" fill="#737373" transform="matrix(0.984533 -0.187478 0.187926 0.982184 -182.148 -112.791)"/><path d="M143.645 167.363 148.869 167.363 148.869 168.234 143.645 168.234Z" fill="#737373" transform="matrix(0.0384903 -0.999259 1.00165 0.0383984 -181.101 159.488)"/><path d="M117.221 163.779 118.092 163.779 118.092 168.137 117.221 168.137Z" fill="#737373" transform="matrix(0.823244 -0.56917 0.570531 0.821279 -227.696 -51.5082)"/><path d="M89.6383 165.835 93.7498 165.835 93.7498 166.706 89.6383 166.706Z" fill="#737373" transform="matrix(0.563051 -0.826422 0.828399 0.561707 -251.528 0.5363)"/><path d="M69.3862 165.811 70.2586 165.811 70.2586 170.78 69.3862 170.78Z" fill="#737373" transform="matrix(0.813179 -0.583324 0.58472 0.811238 -239.247 -75.6471)"/><path d="M158.043 167.797 164.328 167.797 164.328 168.669 158.043 168.669Z" fill="#737373" transform="matrix(0.555595 -0.831453 0.833442 0.554269 -222.312 60.8659)"/><path d="M184.571 305.052 190.381 305.052 190.381 305.923 184.571 305.923Z" fill="#737373" transform="matrix(0.976596 -0.224869 0.225407 0.974265 -218.035 -98.0279)"/><path d="M183.412 326.599 188.73 326.599 188.73 327.472 183.412 327.472Z" fill="#737373" transform="matrix(0.820519 -0.573053 0.574424 0.818561 -308.154 17.6935)"/><path d="M187.668 333.965 192.893 333.965 192.893 334.835 187.668 334.835Z" fill="#737373" transform="matrix(1.00239 0 0 1 -154 -148)"/><path d="M184.538 343.353 185.41 343.353 185.41 349.034 184.538 349.034Z" fill="#737373" transform="matrix(0.537789 -0.84308 0.845097 0.536505 -360.746 168.153)"/><path d="M190.89 361.484 187.407 364.096 187.546 364.283C187.845 364.324 188.143 364.369 188.442 364.408L191.413 362.18 190.89 361.484Z" fill="#737373" transform="matrix(1.00239 0 0 1 -154 -148)"/><path d="M161.755 317.891 162.625 317.891 162.625 323.816 161.755 323.816Z" fill="#737373" transform="matrix(0.832081 -0.556295 0.557626 0.830095 -305.411 -3.50262)"/><path d="M109.667 315.786 110.538 315.786 110.538 321.103 109.667 321.103Z" fill="#737373" transform="matrix(0.841655 -0.541842 0.543139 0.839646 -309.348 -37.4947)"/><path d="M136.546 310.194 142.228 310.194 142.228 311.065 136.546 311.065Z" fill="#737373" transform="matrix(0.569526 -0.821973 0.82394 0.568167 -349.715 100.477)"/><path d="M145.667 322.006 146.539 322.006 146.539 327.324 145.667 327.324Z" fill="#737373" transform="matrix(0.84173 -0.541726 0.543022 0.839721 -306.926 -17.0493)"/><path d="M108.875 302.5 114.739 302.5 114.739 303.372 108.875 303.372Z" fill="#737373" transform="matrix(0.669389 -0.742912 0.744689 0.667792 -342.478 35.367)"/><path d="M123.565 299.419 124.438 299.419 124.438 306.841 123.565 306.841Z" fill="#737373" transform="matrix(0.64681 -0.762651 0.764476 0.645266 -341.766 53.7878)"/><path d="M152.723 299.064 153.594 299.064 153.594 305.714 152.723 305.714Z" fill="#737373" transform="matrix(0.524989 -0.851109 0.853145 0.523736 -338.957 126.157)"/><path d="M149.178 313.496 155.829 313.496 155.829 314.367 149.178 314.367Z" fill="#737373" transform="matrix(0.525296 -0.850919 0.852955 0.524042 -349.108 130.98)"/><path d="M165.978 306.437 175.531 306.437 175.531 307.308 165.978 307.308Z" fill="#737373" transform="matrix(0.913719 -0.410237 0.411219 0.911538 -265.111 -50.9378)"/><path d="M174.694 316.137 180.013 316.137 180.013 317.009 174.694 317.009Z" fill="#737373" transform="matrix(0.820231 -0.573461 0.574833 0.818274 -303.814 10.9933)"/><path d="M94.9243 300.873 95.7952 300.873 95.7952 306.098 94.9243 306.098Z" fill="#737373" transform="matrix(1.00239 0 0 1 -154 -148)"/><path d="M99.2197 308.527 105.455 308.527 105.455 309.398 99.2197 309.398Z" fill="#737373" transform="matrix(0.980132 -0.209077 0.209577 0.977793 -216.473 -119.781)"/><path d="M160.547 347.548 161.418 347.548 161.418 353.007 160.547 353.007Z" fill="#737373" transform="matrix(0.479769 -0.877395 0.879494 0.478624 -378.017 175.685)"/><path d="M127.199 327.035 132.518 327.035 132.518 327.908 127.199 327.908Z" fill="#737373" transform="matrix(0.820519 -0.573053 0.574424 0.818561 -318.583 -14.4385)"/><path d="M131.499 334.4 136.724 334.4 136.724 335.271 131.499 335.271Z" fill="#737373" transform="matrix(1.00239 0 0 1 -154 -148)"/><path d="M109.728 327.869 114.953 327.869 114.953 328.74 109.728 328.74Z" fill="#737373" transform="matrix(1.00239 0 0 1 -154 -148)"/><path d="M144.692 348.52 149.659 348.52 149.659 349.392 144.692 349.392Z" fill="#737373" transform="matrix(0.838527 -0.546625 0.547932 0.836526 -321.197 -10.7514)"/><path d="M147.358 336.24 148.23 336.24 148.23 341.468 147.358 341.468Z" fill="#737373" transform="matrix(0.608203 -0.793782 0.795681 0.606751 -365.489 102.274)"/><path d="M155.189 332.217 160.456 332.217 160.456 333.089 155.189 333.089Z" fill="#737373" transform="matrix(0.0737742 -0.997275 0.999661 0.0735982 -339.989 317.541)"/><path d="M165.23 340.317 166.101 340.317 166.101 345.149 165.23 345.149Z" fill="#737373" transform="matrix(0.195854 -0.980633 0.982979 0.195387 -357.301 290.216)"/><path d="M122.805 311.951 123.675 311.951 123.675 319.039 122.805 319.039Z" fill="#737373" transform="matrix(0.18472 -0.982791 0.985142 0.18428 -364.041 230.44)"/><path d="M172.506 329.283 173.377 329.283 173.377 334.154 172.506 334.154Z" fill="#737373" transform="matrix(0.448069 -0.893999 0.896138 0.447 -355.489 189.902)"/><path d="M133.496 298.429 139.178 298.429 139.178 299.3 133.496 299.3Z" fill="#737373" transform="matrix(0.569526 -0.821973 0.82394 0.568167 -341.339 92.8986)"/><path d="M174.021 351.154 179.703 351.154 179.703 352.026 174.021 352.026Z" fill="#737373" transform="matrix(0.569526 -0.821973 0.82394 0.568167 -367.272 148.938)"/><path d="M119.664 335.571 124.707 335.571 124.707 336.441 119.664 336.441Z" fill="#737373" transform="matrix(0.245863 -0.969305 0.971624 0.245276 -388.063 224.003)"/><path d="M179.344 291.152 184.854 291.152 184.854 292.022 179.344 292.022Z" fill="#737373" transform="matrix(0.352737 -0.935722 0.937961 0.351896 -309.253 211.274)"/><path d="M171.689 288.591 172.56 288.591 172.56 294.402 171.689 294.402Z" fill="#737373" transform="matrix(0.984533 -0.187478 0.187926 0.982184 -205.713 -110.568)"/><path d="M143.645 292.768 148.869 292.768 148.869 293.64 143.645 293.64Z" fill="#737373" transform="matrix(0.0384903 -0.999259 1.00165 0.0383984 -306.708 280.069)"/><path d="M117.221 289.274 118.092 289.274 118.092 293.632 117.221 293.632Z" fill="#737373" transform="matrix(0.823244 -0.56917 0.570531 0.821279 -299.292 -29.1791)"/><path d="M89.6441 291.342 93.7558 291.342 93.7558 292.213 89.6441 292.213Z" fill="#737373" transform="matrix(0.563716 -0.825969 0.827945 0.56237 -355.418 55.2116)"/><path d="M158.043 293.295 164.328 293.295 164.328 294.166 158.043 294.166Z" fill="#737373" transform="matrix(0.555595 -0.831453 0.833442 0.554269 -326.901 116.706)"/><path d="M59.1552 179.64 64.9655 179.64 64.9655 180.511 59.1552 180.511Z" fill="#737373" transform="matrix(0.976667 -0.224562 0.2251 0.974336 -192.942 -129.466)"/><path d="M57.9129 201.099 63.2317 201.099 63.2317 201.971 57.9129 201.971Z" fill="#737373" transform="matrix(0.820231 -0.573461 0.574833 0.818274 -258.866 -76.7948)"/><path d="M62.2681 208.565 67.4931 208.565 67.4931 209.435 62.2681 209.435Z" fill="#737373" transform="matrix(1.00239 0 0 1 -154 -148)"/><path d="M59.0459 217.861 59.9173 217.861 59.9173 223.542 59.0459 223.542Z" fill="#737373" transform="matrix(0.537789 -0.84308 0.845097 0.536505 -312.913 4.28263)"/><path d="M61.8858 237.507 66.2437 237.507 66.2437 238.378 61.8858 238.378Z" fill="#737373" transform="matrix(0.801225 -0.599485 0.600919 0.799313 -284.152 -62.0467)"/><path d="M57.0431 245.14 62.2681 245.14 62.2681 246.01 57.0431 246.01Z" fill="#737373" transform="matrix(1.00239 0 0 1 -154 -148)"/></g></svg>